M48
;DRILL file {KiCad 4.0.2-stable} date 7/20/2016 11:10:02 PM
;FORMAT={-:-/ absolute / metric / decimal}
FMAT,2
METRIC,TZ
T1C0.330
T2C3.000
%
G90
G05
M71
T1
X115.316Y-103.759
X116.84Y-106.299
X122.301Y-133.096
X123.825Y-83.185
X123.825Y-124.714
X125.349Y-85.598
X125.349Y-127.254
X125.73Y-131.699
X126.746Y-117.348
X128.016Y-119.507
X129.54Y-130.302
X130.048Y-134.239
X132.461Y-136.017
X133.477Y-130.683
X133.477Y-131.445
X133.858Y-132.715
X136.222Y-129.068
X136.398Y-122.174
X137.075Y-130.006
X138.049Y-126.238
X138.163Y-132.591
X138.43Y-134.559
X138.811Y-131.699
X138.811Y-132.461
X138.811Y-132.461
X140.29Y-136.453
X140.462Y-135.763
X144.526Y-74.676
X144.526Y-133.096
X145.288Y-111.252
X146.05Y-77.089
X146.05Y-135.509
X159.258Y-126.365
X165.354Y-83.185
X165.481Y-124.714
X166.878Y-85.598
X167.005Y-127.
X173.863Y-103.886
X175.387Y-106.172
T2
X132.041Y-76.524
X158.076Y-76.524
T0
M30
