G04 #@! TF.FileFunction,Soldermask,Bot*
%FSLAX46Y46*%
G04 Gerber Fmt 4.6, Leading zero omitted, Abs format (unit mm)*
G04 Created by KiCad (PCBNEW 4.0.2-stable) date 7/20/2016 11:09:08 PM*
%MOMM*%
G01*
G04 APERTURE LIST*
%ADD10C,0.100000*%
%ADD11R,0.900000X1.300000*%
%ADD12C,4.400000*%
%ADD13R,1.200000X1.150000*%
%ADD14R,1.150000X1.200000*%
%ADD15R,0.950000X2.000000*%
%ADD16R,2.000000X0.950000*%
%ADD17R,1.950000X1.000000*%
%ADD18C,1.900000*%
%ADD19R,6.000700X2.500580*%
%ADD20C,1.797000*%
G04 APERTURE END LIST*
D10*
D11*
X146927000Y-131445000D03*
X145427000Y-131445000D03*
D12*
X158076000Y-76524000D03*
X132041000Y-76524000D03*
D13*
X131191000Y-120396000D03*
X129691000Y-120396000D03*
X140945999Y-120396000D03*
X139445999Y-120396000D03*
D14*
X129540000Y-129020000D03*
X129540000Y-127520000D03*
X129540000Y-133084000D03*
X129540000Y-131584000D03*
D13*
X145922999Y-125476000D03*
X147422999Y-125476000D03*
D10*
G36*
X155873259Y-131618123D02*
X155433173Y-130555661D01*
X156541829Y-130096441D01*
X156981915Y-131158903D01*
X155873259Y-131618123D01*
X155873259Y-131618123D01*
G37*
G36*
X157259079Y-131044097D02*
X156818993Y-129981635D01*
X157927649Y-129522415D01*
X158367735Y-130584877D01*
X157259079Y-131044097D01*
X157259079Y-131044097D01*
G37*
G36*
X155458910Y-126269550D02*
X156521372Y-125829464D01*
X156980592Y-126938120D01*
X155918130Y-127378206D01*
X155458910Y-126269550D01*
X155458910Y-126269550D01*
G37*
G36*
X156032936Y-127655370D02*
X157095398Y-127215284D01*
X157554618Y-128323940D01*
X156492156Y-128764026D01*
X156032936Y-127655370D01*
X156032936Y-127655370D01*
G37*
D13*
X144526000Y-134366000D03*
X146026000Y-134366000D03*
X165493000Y-125857000D03*
X166993000Y-125857000D03*
X173875000Y-105029000D03*
X175375000Y-105029000D03*
X165378000Y-84328000D03*
X166878000Y-84328000D03*
X144550000Y-75819000D03*
X146050000Y-75819000D03*
X123837000Y-84328000D03*
X125337000Y-84328000D03*
X115340000Y-105029000D03*
X116840000Y-105029000D03*
X123837000Y-125857000D03*
X125337000Y-125857000D03*
D10*
G36*
X161580814Y-128858903D02*
X161906095Y-129644201D01*
X160991454Y-130023057D01*
X160666173Y-129237759D01*
X161580814Y-128858903D01*
X161580814Y-128858903D01*
G37*
G36*
X159631428Y-129666365D02*
X159956709Y-130451663D01*
X159042068Y-130830519D01*
X158716787Y-130045221D01*
X159631428Y-129666365D01*
X159631428Y-129666365D01*
G37*
D15*
X133344000Y-127576000D03*
X134144000Y-127576000D03*
X134944000Y-127576000D03*
X135744000Y-127576000D03*
X136544000Y-127576000D03*
X137344000Y-127576000D03*
X138144000Y-127576000D03*
X138944000Y-127576000D03*
D16*
X140394000Y-129026000D03*
X140394000Y-129826000D03*
X140394000Y-130626000D03*
X140394000Y-131426000D03*
X140394000Y-132226000D03*
X140394000Y-133026000D03*
X140394000Y-133826000D03*
X140394000Y-134626000D03*
D15*
X138944000Y-136076000D03*
X138144000Y-136076000D03*
X137344000Y-136076000D03*
X136544000Y-136076000D03*
X135744000Y-136076000D03*
X134944000Y-136076000D03*
X134144000Y-136076000D03*
X133344000Y-136076000D03*
D16*
X131894000Y-134626000D03*
X131894000Y-133826000D03*
X131894000Y-133026000D03*
X131894000Y-132226000D03*
X131894000Y-131426000D03*
X131894000Y-130626000D03*
X131894000Y-129826000D03*
X131894000Y-129026000D03*
D10*
G36*
X156722073Y-135671354D02*
X157602244Y-137796277D01*
X155477321Y-138676448D01*
X154597150Y-136551525D01*
X156722073Y-135671354D01*
X156722073Y-135671354D01*
G37*
G36*
X158939384Y-134752914D02*
X159819555Y-136877837D01*
X157694632Y-137758008D01*
X156814461Y-135633085D01*
X158939384Y-134752914D01*
X158939384Y-134752914D01*
G37*
G36*
X158090743Y-134400292D02*
X157351639Y-134706439D01*
X156681943Y-133089650D01*
X157421047Y-132783503D01*
X158090743Y-134400292D01*
X158090743Y-134400292D01*
G37*
G36*
X157490221Y-134649037D02*
X156751117Y-134955184D01*
X156081421Y-133338395D01*
X156820525Y-133032248D01*
X157490221Y-134649037D01*
X157490221Y-134649037D01*
G37*
G36*
X156889699Y-134897781D02*
X156150595Y-135203928D01*
X155480899Y-133587139D01*
X156220003Y-133280992D01*
X156889699Y-134897781D01*
X156889699Y-134897781D01*
G37*
G36*
X156289178Y-135146525D02*
X155550074Y-135452672D01*
X154880378Y-133835883D01*
X155619482Y-133529736D01*
X156289178Y-135146525D01*
X156289178Y-135146525D01*
G37*
G36*
X155688656Y-135395269D02*
X154949552Y-135701416D01*
X154279856Y-134084627D01*
X155018960Y-133778480D01*
X155688656Y-135395269D01*
X155688656Y-135395269D01*
G37*
G36*
X159869327Y-131769392D02*
X160634694Y-133617151D01*
X158324995Y-134573860D01*
X157559628Y-132726101D01*
X159869327Y-131769392D01*
X159869327Y-131769392D01*
G37*
G36*
X154141481Y-134142528D02*
X154906848Y-135990287D01*
X152597149Y-136946996D01*
X151831782Y-135099237D01*
X154141481Y-134142528D01*
X154141481Y-134142528D01*
G37*
G36*
X161295277Y-133777071D02*
X162175448Y-135901994D01*
X160142913Y-136743897D01*
X159262742Y-134618974D01*
X161295277Y-133777071D01*
X161295277Y-133777071D01*
G37*
G36*
X154273792Y-136685465D02*
X155153963Y-138810388D01*
X153121428Y-139652291D01*
X152241257Y-137527368D01*
X154273792Y-136685465D01*
X154273792Y-136685465D01*
G37*
G36*
X159465195Y-128848796D02*
X158356447Y-129308054D01*
X157897189Y-128199306D01*
X159005937Y-127740048D01*
X159465195Y-128848796D01*
X159465195Y-128848796D01*
G37*
G36*
X158738096Y-127093425D02*
X157629348Y-127552683D01*
X157170090Y-126443935D01*
X158278838Y-125984677D01*
X158738096Y-127093425D01*
X158738096Y-127093425D01*
G37*
G36*
X160948462Y-127206134D02*
X159839714Y-127665392D01*
X159380456Y-126556644D01*
X160489204Y-126097386D01*
X160948462Y-127206134D01*
X160948462Y-127206134D01*
G37*
D11*
X144538000Y-140081000D03*
X146038000Y-140081000D03*
X144538000Y-138303000D03*
X146038000Y-138303000D03*
D10*
G36*
X160767204Y-132421439D02*
X160269716Y-131220396D01*
X161101208Y-130875981D01*
X161598696Y-132077024D01*
X160767204Y-132421439D01*
X160767204Y-132421439D01*
G37*
G36*
X162153024Y-131847413D02*
X161655536Y-130646370D01*
X162487028Y-130301955D01*
X162984516Y-131502998D01*
X162153024Y-131847413D01*
X162153024Y-131847413D01*
G37*
D11*
X145923000Y-123698000D03*
X147423000Y-123698000D03*
D10*
G36*
X152998868Y-130735953D02*
X151797825Y-131233441D01*
X151453410Y-130401949D01*
X152654453Y-129904461D01*
X152998868Y-130735953D01*
X152998868Y-130735953D01*
G37*
G36*
X152424842Y-129350133D02*
X151223799Y-129847621D01*
X150879384Y-129016129D01*
X152080427Y-128518641D01*
X152424842Y-129350133D01*
X152424842Y-129350133D01*
G37*
D17*
X118458000Y-121285000D03*
X118458000Y-120015000D03*
X118458000Y-118745000D03*
X118458000Y-117475000D03*
X123858000Y-117475000D03*
X123858000Y-118745000D03*
X123858000Y-120015000D03*
X123858000Y-121285000D03*
D10*
G36*
X152187291Y-127434256D02*
X153157365Y-127032438D01*
X153716083Y-128381302D01*
X152746009Y-128783120D01*
X152187291Y-127434256D01*
X152187291Y-127434256D01*
G37*
G36*
X153064976Y-127070707D02*
X154035050Y-126668889D01*
X154593768Y-128017753D01*
X153623694Y-128419571D01*
X153064976Y-127070707D01*
X153064976Y-127070707D01*
G37*
G36*
X153942662Y-126707157D02*
X154912736Y-126305339D01*
X155471454Y-127654203D01*
X154501380Y-128056021D01*
X153942662Y-126707157D01*
X153942662Y-126707157D01*
G37*
G36*
X154784565Y-128739692D02*
X155754639Y-128337874D01*
X156313357Y-129686738D01*
X155343283Y-130088556D01*
X154784565Y-128739692D01*
X154784565Y-128739692D01*
G37*
G36*
X153029194Y-129466791D02*
X153999268Y-129064973D01*
X154557986Y-130413837D01*
X153587912Y-130815655D01*
X153029194Y-129466791D01*
X153029194Y-129466791D01*
G37*
D18*
X143256000Y-127508000D03*
X146050000Y-127508000D03*
X143256000Y-131445000D03*
D19*
X131272279Y-123952001D03*
X140969999Y-123952001D03*
D13*
X122022999Y-115570000D03*
X120522999Y-115570000D03*
D10*
G36*
X163838153Y-112204182D02*
X164947935Y-114883433D01*
X163469727Y-115495726D01*
X162359945Y-112816475D01*
X163838153Y-112204182D01*
X163838153Y-112204182D01*
G37*
G36*
X161528454Y-113160890D02*
X162638236Y-115840141D01*
X161160028Y-116452434D01*
X160050246Y-113773183D01*
X161528454Y-113160890D01*
X161528454Y-113160890D01*
G37*
G36*
X159218755Y-114117599D02*
X160328537Y-116796850D01*
X158850329Y-117409143D01*
X157740547Y-114729892D01*
X159218755Y-114117599D01*
X159218755Y-114117599D01*
G37*
G36*
X165942911Y-117285519D02*
X167052693Y-119964770D01*
X165574485Y-120577063D01*
X164464703Y-117897812D01*
X165942911Y-117285519D01*
X165942911Y-117285519D01*
G37*
G36*
X163633213Y-118242228D02*
X164742995Y-120921479D01*
X163264787Y-121533772D01*
X162155005Y-118854521D01*
X163633213Y-118242228D01*
X163633213Y-118242228D01*
G37*
G36*
X161323514Y-119198936D02*
X162433296Y-121878187D01*
X160955088Y-122490480D01*
X159845306Y-119811229D01*
X161323514Y-119198936D01*
X161323514Y-119198936D01*
G37*
G36*
X125707381Y-132670396D02*
X127367593Y-133358078D01*
X126679911Y-135018290D01*
X125019699Y-134330608D01*
X125707381Y-132670396D01*
X125707381Y-132670396D01*
G37*
D20*
X127165662Y-131497689D03*
X123846992Y-132872327D03*
X124819008Y-130525673D03*
X121500338Y-131900311D03*
X122472354Y-129553657D03*
D11*
X135140000Y-120396000D03*
X136640000Y-120396000D03*
D10*
G36*
X155291243Y-121625191D02*
X156783708Y-125228321D01*
X155490277Y-125764077D01*
X153997812Y-122160947D01*
X155291243Y-121625191D01*
X155291243Y-121625191D01*
G37*
G36*
X153443483Y-122390557D02*
X154935948Y-125993687D01*
X153642517Y-126529443D01*
X152150052Y-122926313D01*
X153443483Y-122390557D01*
X153443483Y-122390557D01*
G37*
G36*
X155588570Y-115548876D02*
X157042767Y-119059618D01*
X155287396Y-119786716D01*
X153833199Y-116275974D01*
X155588570Y-115548876D01*
X155588570Y-115548876D01*
G37*
G36*
X149398578Y-118112855D02*
X150852775Y-121623597D01*
X149097404Y-122350695D01*
X147643207Y-118839953D01*
X149398578Y-118112855D01*
X149398578Y-118112855D01*
G37*
D11*
X131179000Y-116459000D03*
X129679000Y-116459000D03*
X131179000Y-118491000D03*
X129679000Y-118491000D03*
M02*
