G04 #@! TF.FileFunction,Copper,L1,Top,Signal*
%FSLAX46Y46*%
G04 Gerber Fmt 4.6, Leading zero omitted, Abs format (unit mm)*
G04 Created by KiCad (PCBNEW 4.0.2-stable) date 7/20/2016 11:09:08 PM*
%MOMM*%
G01*
G04 APERTURE LIST*
%ADD10C,0.100000*%
%ADD11C,0.010000*%
%ADD12C,4.000000*%
%ADD13C,1.500000*%
%ADD14R,1.600000X1.000000*%
%ADD15C,0.508000*%
%ADD16C,0.355600*%
%ADD17C,0.406400*%
%ADD18C,0.203200*%
%ADD19C,0.254000*%
G04 APERTURE END LIST*
D10*
D11*
G36*
X146221964Y-97756204D02*
X147049715Y-97895474D01*
X147852346Y-98149695D01*
X148488400Y-98427531D01*
X149537896Y-99040161D01*
X150454760Y-99804949D01*
X151229551Y-100712453D01*
X151852826Y-101753230D01*
X151889468Y-101828600D01*
X152242048Y-102665761D01*
X152466077Y-103467059D01*
X152579641Y-104313587D01*
X152603200Y-105028999D01*
X152560795Y-105962964D01*
X152421525Y-106790715D01*
X152167304Y-107593346D01*
X151889468Y-108229400D01*
X151289356Y-109251191D01*
X150531915Y-110160636D01*
X149640088Y-110939154D01*
X148636820Y-111568163D01*
X147545055Y-112029081D01*
X147008708Y-112182159D01*
X146379754Y-112286603D01*
X145634858Y-112335385D01*
X144850390Y-112329329D01*
X144102718Y-112269262D01*
X143468214Y-112156011D01*
X143419632Y-112143336D01*
X142295466Y-111738609D01*
X141260190Y-111163438D01*
X140332058Y-110436453D01*
X139529321Y-109576281D01*
X138870234Y-108601552D01*
X138373047Y-107530893D01*
X138134840Y-106749708D01*
X138033826Y-106145440D01*
X137982926Y-105422526D01*
X137982835Y-105333800D01*
X139395200Y-105333800D01*
X139437747Y-105498896D01*
X139496800Y-105537000D01*
X139550917Y-105629543D01*
X139587608Y-105871299D01*
X139598400Y-106146600D01*
X139582976Y-106471307D01*
X139542683Y-106691448D01*
X139496800Y-106756200D01*
X139414959Y-106841522D01*
X139395200Y-106964709D01*
X139416111Y-107085479D01*
X139511987Y-107142266D01*
X139732538Y-107151671D01*
X139927648Y-107142509D01*
X140260237Y-107106723D01*
X140434933Y-107037604D01*
X140493898Y-106934000D01*
X140454547Y-106782760D01*
X140367849Y-106756200D01*
X140228425Y-106678111D01*
X140208000Y-106603800D01*
X140295545Y-106480771D01*
X140448298Y-106451400D01*
X140743556Y-106374909D01*
X141013190Y-106183909D01*
X141190170Y-105936102D01*
X141224000Y-105783625D01*
X141155761Y-105477126D01*
X140941276Y-105271966D01*
X140565885Y-105159581D01*
X140106400Y-105130600D01*
X139732642Y-105136082D01*
X139518522Y-105160804D01*
X139420590Y-105217181D01*
X139395398Y-105317625D01*
X139395200Y-105333800D01*
X137982835Y-105333800D01*
X137982139Y-104659244D01*
X138026137Y-104012215D01*
X140715999Y-104012215D01*
X140808644Y-104462084D01*
X141057270Y-104859708D01*
X141417913Y-105160387D01*
X141846612Y-105319422D01*
X142015447Y-105333420D01*
X142438053Y-105255505D01*
X142876484Y-105052182D01*
X143238927Y-104770393D01*
X143332031Y-104660284D01*
X143531847Y-104385981D01*
X144003523Y-104724714D01*
X144259255Y-104918863D01*
X144430548Y-105069010D01*
X144475200Y-105128716D01*
X144400872Y-105224193D01*
X144215527Y-105382317D01*
X144145000Y-105435386D01*
X143761073Y-105726002D01*
X143327919Y-106070035D01*
X142873216Y-106443577D01*
X142424642Y-106822721D01*
X142009876Y-107183561D01*
X141656598Y-107502188D01*
X141392485Y-107754697D01*
X141245216Y-107917179D01*
X141224000Y-107958368D01*
X141291135Y-108151708D01*
X141445573Y-108351732D01*
X141616864Y-108474287D01*
X141663546Y-108483400D01*
X141810869Y-108421207D01*
X141964164Y-108305600D01*
X142084637Y-108213346D01*
X142187728Y-108213938D01*
X142322700Y-108329938D01*
X142518720Y-108559600D01*
X142737266Y-108798983D01*
X142919780Y-108955782D01*
X142997445Y-108991400D01*
X143144464Y-108922996D01*
X143339402Y-108756408D01*
X143357600Y-108737400D01*
X143596220Y-108483400D01*
X143357976Y-108229800D01*
X143218861Y-108040956D01*
X143189713Y-107909991D01*
X143196973Y-107899600D01*
X143301885Y-107920570D01*
X143467011Y-108067657D01*
X143516113Y-108125713D01*
X143708891Y-108320750D01*
X143841966Y-108339654D01*
X143865078Y-108321361D01*
X143884215Y-108190658D01*
X143765199Y-107956516D01*
X143614072Y-107745343D01*
X143421328Y-107485663D01*
X143291336Y-107296647D01*
X143256000Y-107230585D01*
X143330490Y-107153117D01*
X143533618Y-106975294D01*
X143834871Y-106723099D01*
X144203737Y-106422514D01*
X144226083Y-106404528D01*
X145196167Y-105624274D01*
X146156483Y-106396671D01*
X146526458Y-106698585D01*
X146830302Y-106954790D01*
X147037293Y-107138790D01*
X147116708Y-107224087D01*
X147116800Y-107224935D01*
X147057511Y-107327744D01*
X146904427Y-107534854D01*
X146752519Y-107725358D01*
X146550133Y-108011760D01*
X146462121Y-108217291D01*
X146484086Y-108317129D01*
X146611632Y-108286451D01*
X146822085Y-108118137D01*
X147046621Y-107934285D01*
X147161307Y-107899976D01*
X147147831Y-108005404D01*
X147006783Y-108217023D01*
X146876996Y-108459798D01*
X146924254Y-108662486D01*
X147159280Y-108855614D01*
X147248826Y-108906083D01*
X147382989Y-108945186D01*
X147522288Y-108886984D01*
X147713546Y-108704563D01*
X147832899Y-108570336D01*
X148058694Y-108323729D01*
X148208504Y-108211330D01*
X148331341Y-108207141D01*
X148427738Y-108254800D01*
X148699204Y-108369977D01*
X148921473Y-108322600D01*
X149064599Y-108213653D01*
X149162321Y-108119556D01*
X149221637Y-108030183D01*
X149228574Y-107930110D01*
X149169158Y-107803915D01*
X149029415Y-107636175D01*
X148795369Y-107411467D01*
X148453046Y-107114368D01*
X147988473Y-106729456D01*
X147387675Y-106241308D01*
X146976109Y-105908697D01*
X146550633Y-105562408D01*
X146550625Y-105562400D01*
X149472941Y-105562400D01*
X149510187Y-105713241D01*
X149590206Y-105740200D01*
X149708751Y-105839151D01*
X149856845Y-106130967D01*
X150012400Y-106553000D01*
X150153272Y-106955384D01*
X150262538Y-107199691D01*
X150363648Y-107323444D01*
X150480053Y-107364164D01*
X150520400Y-107365800D01*
X150645716Y-107342281D01*
X150748874Y-107246710D01*
X150853326Y-107041564D01*
X150982522Y-106689322D01*
X151028400Y-106553000D01*
X151199764Y-106093822D01*
X151345119Y-105820694D01*
X151450593Y-105740200D01*
X151564323Y-105662231D01*
X151568373Y-105562400D01*
X151477239Y-105434683D01*
X151239881Y-105366971D01*
X151103723Y-105353358D01*
X150830420Y-105346488D01*
X150704538Y-105392708D01*
X150672866Y-105512929D01*
X150672800Y-105522691D01*
X150718738Y-105703767D01*
X150777515Y-105758171D01*
X150819287Y-105873783D01*
X150755263Y-106147494D01*
X150737634Y-106198438D01*
X150630978Y-106439947D01*
X150554340Y-106484515D01*
X150534333Y-106451400D01*
X150398007Y-106089730D01*
X150331360Y-105877275D01*
X150328540Y-105774605D01*
X150383695Y-105742294D01*
X150428764Y-105740200D01*
X150547841Y-105663884D01*
X150551858Y-105562400D01*
X150486352Y-105451813D01*
X150313025Y-105397902D01*
X150012400Y-105384600D01*
X149695172Y-105400158D01*
X149530941Y-105457503D01*
X149472941Y-105562400D01*
X146550625Y-105562400D01*
X146273101Y-105314033D01*
X146134825Y-105132042D01*
X146127116Y-104984903D01*
X146241284Y-104841086D01*
X146468642Y-104669057D01*
X146607888Y-104572431D01*
X147008798Y-104294601D01*
X147278101Y-104614649D01*
X147712469Y-105007250D01*
X148184624Y-105201988D01*
X148687591Y-105197262D01*
X149127447Y-105038669D01*
X149419755Y-104835511D01*
X149653827Y-104584633D01*
X149682200Y-104540393D01*
X149823056Y-104134308D01*
X149849705Y-103659167D01*
X149760000Y-103215421D01*
X149712792Y-103108642D01*
X149505054Y-102830133D01*
X149227855Y-102606238D01*
X148954950Y-102493342D01*
X148902290Y-102489000D01*
X148773937Y-102395329D01*
X148658886Y-102144760D01*
X148640972Y-102083240D01*
X148498393Y-101748629D01*
X148290618Y-101455502D01*
X148256056Y-101421070D01*
X147944666Y-101203046D01*
X147593997Y-101062480D01*
X147276425Y-101022814D01*
X147132150Y-101057065D01*
X146936805Y-101151608D01*
X146655309Y-101287785D01*
X146566711Y-101330637D01*
X146152590Y-101627487D01*
X145890224Y-102019179D01*
X145788982Y-102463831D01*
X145858236Y-102919562D01*
X146107358Y-103344488D01*
X146114321Y-103352477D01*
X146290371Y-103573860D01*
X146380235Y-103729297D01*
X146381092Y-103766573D01*
X146278593Y-103849756D01*
X146061164Y-104016699D01*
X145794638Y-104217216D01*
X145259732Y-104616308D01*
X144994466Y-104421429D01*
X144727714Y-104218023D01*
X144441125Y-103989437D01*
X144424400Y-103975706D01*
X144119600Y-103724862D01*
X144401001Y-103429483D01*
X144702584Y-102994766D01*
X144824057Y-102546128D01*
X144783473Y-102114615D01*
X144598885Y-101731270D01*
X144288345Y-101427138D01*
X143869905Y-101233262D01*
X143361620Y-101180687D01*
X143110877Y-101210931D01*
X142735561Y-101361401D01*
X142392996Y-101633952D01*
X142147819Y-101968612D01*
X142074746Y-102172269D01*
X141965181Y-102425163D01*
X141720441Y-102648274D01*
X141567229Y-102744878D01*
X141208063Y-103032217D01*
X140919791Y-103405193D01*
X140746482Y-103798195D01*
X140715999Y-104012215D01*
X138026137Y-104012215D01*
X138031465Y-103933871D01*
X138130905Y-103324685D01*
X138134840Y-103308291D01*
X138510470Y-102182905D01*
X139062910Y-101135250D01*
X139773580Y-100188268D01*
X140212106Y-99763642D01*
X144371808Y-99763642D01*
X144438799Y-100149070D01*
X144639008Y-100472263D01*
X144917871Y-100661055D01*
X145392324Y-100762301D01*
X145819599Y-100667768D01*
X146128588Y-100444841D01*
X146318522Y-100244231D01*
X146376685Y-100127244D01*
X146318915Y-100037857D01*
X146257133Y-99990112D01*
X146109294Y-99915223D01*
X145974810Y-99967538D01*
X145835611Y-100103870D01*
X145612501Y-100301840D01*
X145414998Y-100342245D01*
X145179720Y-100250225D01*
X145046704Y-100079537D01*
X144982771Y-99802436D01*
X144994458Y-99505846D01*
X145088299Y-99276688D01*
X145105120Y-99258119D01*
X145339364Y-99147892D01*
X145613488Y-99169959D01*
X145796000Y-99288600D01*
X145996600Y-99419014D01*
X146113240Y-99441000D01*
X146248782Y-99392971D01*
X146300476Y-99215640D01*
X146304000Y-99103585D01*
X146304000Y-98766170D01*
X145636004Y-98747765D01*
X145263593Y-98745748D01*
X145024492Y-98778519D01*
X144849348Y-98866113D01*
X144670804Y-99026565D01*
X144446365Y-99371099D01*
X144371808Y-99763642D01*
X140212106Y-99763642D01*
X140623897Y-99364905D01*
X141595280Y-98688104D01*
X142087600Y-98427531D01*
X142924761Y-98074951D01*
X143726059Y-97850922D01*
X144572587Y-97737358D01*
X145287999Y-97713799D01*
X146221964Y-97756204D01*
X146221964Y-97756204D01*
G37*
X146221964Y-97756204D02*
X147049715Y-97895474D01*
X147852346Y-98149695D01*
X148488400Y-98427531D01*
X149537896Y-99040161D01*
X150454760Y-99804949D01*
X151229551Y-100712453D01*
X151852826Y-101753230D01*
X151889468Y-101828600D01*
X152242048Y-102665761D01*
X152466077Y-103467059D01*
X152579641Y-104313587D01*
X152603200Y-105028999D01*
X152560795Y-105962964D01*
X152421525Y-106790715D01*
X152167304Y-107593346D01*
X151889468Y-108229400D01*
X151289356Y-109251191D01*
X150531915Y-110160636D01*
X149640088Y-110939154D01*
X148636820Y-111568163D01*
X147545055Y-112029081D01*
X147008708Y-112182159D01*
X146379754Y-112286603D01*
X145634858Y-112335385D01*
X144850390Y-112329329D01*
X144102718Y-112269262D01*
X143468214Y-112156011D01*
X143419632Y-112143336D01*
X142295466Y-111738609D01*
X141260190Y-111163438D01*
X140332058Y-110436453D01*
X139529321Y-109576281D01*
X138870234Y-108601552D01*
X138373047Y-107530893D01*
X138134840Y-106749708D01*
X138033826Y-106145440D01*
X137982926Y-105422526D01*
X137982835Y-105333800D01*
X139395200Y-105333800D01*
X139437747Y-105498896D01*
X139496800Y-105537000D01*
X139550917Y-105629543D01*
X139587608Y-105871299D01*
X139598400Y-106146600D01*
X139582976Y-106471307D01*
X139542683Y-106691448D01*
X139496800Y-106756200D01*
X139414959Y-106841522D01*
X139395200Y-106964709D01*
X139416111Y-107085479D01*
X139511987Y-107142266D01*
X139732538Y-107151671D01*
X139927648Y-107142509D01*
X140260237Y-107106723D01*
X140434933Y-107037604D01*
X140493898Y-106934000D01*
X140454547Y-106782760D01*
X140367849Y-106756200D01*
X140228425Y-106678111D01*
X140208000Y-106603800D01*
X140295545Y-106480771D01*
X140448298Y-106451400D01*
X140743556Y-106374909D01*
X141013190Y-106183909D01*
X141190170Y-105936102D01*
X141224000Y-105783625D01*
X141155761Y-105477126D01*
X140941276Y-105271966D01*
X140565885Y-105159581D01*
X140106400Y-105130600D01*
X139732642Y-105136082D01*
X139518522Y-105160804D01*
X139420590Y-105217181D01*
X139395398Y-105317625D01*
X139395200Y-105333800D01*
X137982835Y-105333800D01*
X137982139Y-104659244D01*
X138026137Y-104012215D01*
X140715999Y-104012215D01*
X140808644Y-104462084D01*
X141057270Y-104859708D01*
X141417913Y-105160387D01*
X141846612Y-105319422D01*
X142015447Y-105333420D01*
X142438053Y-105255505D01*
X142876484Y-105052182D01*
X143238927Y-104770393D01*
X143332031Y-104660284D01*
X143531847Y-104385981D01*
X144003523Y-104724714D01*
X144259255Y-104918863D01*
X144430548Y-105069010D01*
X144475200Y-105128716D01*
X144400872Y-105224193D01*
X144215527Y-105382317D01*
X144145000Y-105435386D01*
X143761073Y-105726002D01*
X143327919Y-106070035D01*
X142873216Y-106443577D01*
X142424642Y-106822721D01*
X142009876Y-107183561D01*
X141656598Y-107502188D01*
X141392485Y-107754697D01*
X141245216Y-107917179D01*
X141224000Y-107958368D01*
X141291135Y-108151708D01*
X141445573Y-108351732D01*
X141616864Y-108474287D01*
X141663546Y-108483400D01*
X141810869Y-108421207D01*
X141964164Y-108305600D01*
X142084637Y-108213346D01*
X142187728Y-108213938D01*
X142322700Y-108329938D01*
X142518720Y-108559600D01*
X142737266Y-108798983D01*
X142919780Y-108955782D01*
X142997445Y-108991400D01*
X143144464Y-108922996D01*
X143339402Y-108756408D01*
X143357600Y-108737400D01*
X143596220Y-108483400D01*
X143357976Y-108229800D01*
X143218861Y-108040956D01*
X143189713Y-107909991D01*
X143196973Y-107899600D01*
X143301885Y-107920570D01*
X143467011Y-108067657D01*
X143516113Y-108125713D01*
X143708891Y-108320750D01*
X143841966Y-108339654D01*
X143865078Y-108321361D01*
X143884215Y-108190658D01*
X143765199Y-107956516D01*
X143614072Y-107745343D01*
X143421328Y-107485663D01*
X143291336Y-107296647D01*
X143256000Y-107230585D01*
X143330490Y-107153117D01*
X143533618Y-106975294D01*
X143834871Y-106723099D01*
X144203737Y-106422514D01*
X144226083Y-106404528D01*
X145196167Y-105624274D01*
X146156483Y-106396671D01*
X146526458Y-106698585D01*
X146830302Y-106954790D01*
X147037293Y-107138790D01*
X147116708Y-107224087D01*
X147116800Y-107224935D01*
X147057511Y-107327744D01*
X146904427Y-107534854D01*
X146752519Y-107725358D01*
X146550133Y-108011760D01*
X146462121Y-108217291D01*
X146484086Y-108317129D01*
X146611632Y-108286451D01*
X146822085Y-108118137D01*
X147046621Y-107934285D01*
X147161307Y-107899976D01*
X147147831Y-108005404D01*
X147006783Y-108217023D01*
X146876996Y-108459798D01*
X146924254Y-108662486D01*
X147159280Y-108855614D01*
X147248826Y-108906083D01*
X147382989Y-108945186D01*
X147522288Y-108886984D01*
X147713546Y-108704563D01*
X147832899Y-108570336D01*
X148058694Y-108323729D01*
X148208504Y-108211330D01*
X148331341Y-108207141D01*
X148427738Y-108254800D01*
X148699204Y-108369977D01*
X148921473Y-108322600D01*
X149064599Y-108213653D01*
X149162321Y-108119556D01*
X149221637Y-108030183D01*
X149228574Y-107930110D01*
X149169158Y-107803915D01*
X149029415Y-107636175D01*
X148795369Y-107411467D01*
X148453046Y-107114368D01*
X147988473Y-106729456D01*
X147387675Y-106241308D01*
X146976109Y-105908697D01*
X146550633Y-105562408D01*
X146550625Y-105562400D01*
X149472941Y-105562400D01*
X149510187Y-105713241D01*
X149590206Y-105740200D01*
X149708751Y-105839151D01*
X149856845Y-106130967D01*
X150012400Y-106553000D01*
X150153272Y-106955384D01*
X150262538Y-107199691D01*
X150363648Y-107323444D01*
X150480053Y-107364164D01*
X150520400Y-107365800D01*
X150645716Y-107342281D01*
X150748874Y-107246710D01*
X150853326Y-107041564D01*
X150982522Y-106689322D01*
X151028400Y-106553000D01*
X151199764Y-106093822D01*
X151345119Y-105820694D01*
X151450593Y-105740200D01*
X151564323Y-105662231D01*
X151568373Y-105562400D01*
X151477239Y-105434683D01*
X151239881Y-105366971D01*
X151103723Y-105353358D01*
X150830420Y-105346488D01*
X150704538Y-105392708D01*
X150672866Y-105512929D01*
X150672800Y-105522691D01*
X150718738Y-105703767D01*
X150777515Y-105758171D01*
X150819287Y-105873783D01*
X150755263Y-106147494D01*
X150737634Y-106198438D01*
X150630978Y-106439947D01*
X150554340Y-106484515D01*
X150534333Y-106451400D01*
X150398007Y-106089730D01*
X150331360Y-105877275D01*
X150328540Y-105774605D01*
X150383695Y-105742294D01*
X150428764Y-105740200D01*
X150547841Y-105663884D01*
X150551858Y-105562400D01*
X150486352Y-105451813D01*
X150313025Y-105397902D01*
X150012400Y-105384600D01*
X149695172Y-105400158D01*
X149530941Y-105457503D01*
X149472941Y-105562400D01*
X146550625Y-105562400D01*
X146273101Y-105314033D01*
X146134825Y-105132042D01*
X146127116Y-104984903D01*
X146241284Y-104841086D01*
X146468642Y-104669057D01*
X146607888Y-104572431D01*
X147008798Y-104294601D01*
X147278101Y-104614649D01*
X147712469Y-105007250D01*
X148184624Y-105201988D01*
X148687591Y-105197262D01*
X149127447Y-105038669D01*
X149419755Y-104835511D01*
X149653827Y-104584633D01*
X149682200Y-104540393D01*
X149823056Y-104134308D01*
X149849705Y-103659167D01*
X149760000Y-103215421D01*
X149712792Y-103108642D01*
X149505054Y-102830133D01*
X149227855Y-102606238D01*
X148954950Y-102493342D01*
X148902290Y-102489000D01*
X148773937Y-102395329D01*
X148658886Y-102144760D01*
X148640972Y-102083240D01*
X148498393Y-101748629D01*
X148290618Y-101455502D01*
X148256056Y-101421070D01*
X147944666Y-101203046D01*
X147593997Y-101062480D01*
X147276425Y-101022814D01*
X147132150Y-101057065D01*
X146936805Y-101151608D01*
X146655309Y-101287785D01*
X146566711Y-101330637D01*
X146152590Y-101627487D01*
X145890224Y-102019179D01*
X145788982Y-102463831D01*
X145858236Y-102919562D01*
X146107358Y-103344488D01*
X146114321Y-103352477D01*
X146290371Y-103573860D01*
X146380235Y-103729297D01*
X146381092Y-103766573D01*
X146278593Y-103849756D01*
X146061164Y-104016699D01*
X145794638Y-104217216D01*
X145259732Y-104616308D01*
X144994466Y-104421429D01*
X144727714Y-104218023D01*
X144441125Y-103989437D01*
X144424400Y-103975706D01*
X144119600Y-103724862D01*
X144401001Y-103429483D01*
X144702584Y-102994766D01*
X144824057Y-102546128D01*
X144783473Y-102114615D01*
X144598885Y-101731270D01*
X144288345Y-101427138D01*
X143869905Y-101233262D01*
X143361620Y-101180687D01*
X143110877Y-101210931D01*
X142735561Y-101361401D01*
X142392996Y-101633952D01*
X142147819Y-101968612D01*
X142074746Y-102172269D01*
X141965181Y-102425163D01*
X141720441Y-102648274D01*
X141567229Y-102744878D01*
X141208063Y-103032217D01*
X140919791Y-103405193D01*
X140746482Y-103798195D01*
X140715999Y-104012215D01*
X138026137Y-104012215D01*
X138031465Y-103933871D01*
X138130905Y-103324685D01*
X138134840Y-103308291D01*
X138510470Y-102182905D01*
X139062910Y-101135250D01*
X139773580Y-100188268D01*
X140212106Y-99763642D01*
X144371808Y-99763642D01*
X144438799Y-100149070D01*
X144639008Y-100472263D01*
X144917871Y-100661055D01*
X145392324Y-100762301D01*
X145819599Y-100667768D01*
X146128588Y-100444841D01*
X146318522Y-100244231D01*
X146376685Y-100127244D01*
X146318915Y-100037857D01*
X146257133Y-99990112D01*
X146109294Y-99915223D01*
X145974810Y-99967538D01*
X145835611Y-100103870D01*
X145612501Y-100301840D01*
X145414998Y-100342245D01*
X145179720Y-100250225D01*
X145046704Y-100079537D01*
X144982771Y-99802436D01*
X144994458Y-99505846D01*
X145088299Y-99276688D01*
X145105120Y-99258119D01*
X145339364Y-99147892D01*
X145613488Y-99169959D01*
X145796000Y-99288600D01*
X145996600Y-99419014D01*
X146113240Y-99441000D01*
X146248782Y-99392971D01*
X146300476Y-99215640D01*
X146304000Y-99103585D01*
X146304000Y-98766170D01*
X145636004Y-98747765D01*
X145263593Y-98745748D01*
X145024492Y-98778519D01*
X144849348Y-98866113D01*
X144670804Y-99026565D01*
X144446365Y-99371099D01*
X144371808Y-99763642D01*
X140212106Y-99763642D01*
X140623897Y-99364905D01*
X141595280Y-98688104D01*
X142087600Y-98427531D01*
X142924761Y-98074951D01*
X143726059Y-97850922D01*
X144572587Y-97737358D01*
X145287999Y-97713799D01*
X146221964Y-97756204D01*
G36*
X143860468Y-101724346D02*
X144148010Y-101962914D01*
X144274659Y-102265295D01*
X144252460Y-102588614D01*
X144093460Y-102889996D01*
X143809704Y-103126568D01*
X143430991Y-103252922D01*
X143002000Y-103317254D01*
X143002000Y-103775523D01*
X142975294Y-104102743D01*
X142869694Y-104325200D01*
X142716934Y-104478996D01*
X142345355Y-104684762D01*
X141957238Y-104693902D01*
X141593301Y-104513625D01*
X141371735Y-104233050D01*
X141317051Y-103908424D01*
X141412321Y-103582324D01*
X141640621Y-103297329D01*
X141985023Y-103096018D01*
X142177848Y-103043226D01*
X142419353Y-102980452D01*
X142522042Y-102868075D01*
X142544673Y-102634001D01*
X142544800Y-102592994D01*
X142627832Y-102175370D01*
X142849517Y-101856818D01*
X143168737Y-101664484D01*
X143544373Y-101625515D01*
X143860468Y-101724346D01*
X143860468Y-101724346D01*
G37*
X143860468Y-101724346D02*
X144148010Y-101962914D01*
X144274659Y-102265295D01*
X144252460Y-102588614D01*
X144093460Y-102889996D01*
X143809704Y-103126568D01*
X143430991Y-103252922D01*
X143002000Y-103317254D01*
X143002000Y-103775523D01*
X142975294Y-104102743D01*
X142869694Y-104325200D01*
X142716934Y-104478996D01*
X142345355Y-104684762D01*
X141957238Y-104693902D01*
X141593301Y-104513625D01*
X141371735Y-104233050D01*
X141317051Y-103908424D01*
X141412321Y-103582324D01*
X141640621Y-103297329D01*
X141985023Y-103096018D01*
X142177848Y-103043226D01*
X142419353Y-102980452D01*
X142522042Y-102868075D01*
X142544673Y-102634001D01*
X142544800Y-102592994D01*
X142627832Y-102175370D01*
X142849517Y-101856818D01*
X143168737Y-101664484D01*
X143544373Y-101625515D01*
X143860468Y-101724346D01*
G36*
X147371412Y-101514875D02*
X147742436Y-101693817D01*
X147961901Y-102007350D01*
X148031200Y-102438200D01*
X148038916Y-102719129D01*
X148090280Y-102852160D01*
X148227614Y-102892587D01*
X148381134Y-102895400D01*
X148783056Y-102980950D01*
X149092459Y-103211467D01*
X149267262Y-103547750D01*
X149291040Y-103743055D01*
X149205900Y-104135142D01*
X148981670Y-104426241D01*
X148665132Y-104597471D01*
X148303068Y-104629951D01*
X147942261Y-104504800D01*
X147760239Y-104360875D01*
X147593960Y-104158320D01*
X147534066Y-103944669D01*
X147549177Y-103649675D01*
X147573405Y-103372470D01*
X147541068Y-103241685D01*
X147419368Y-103201934D01*
X147282119Y-103198702D01*
X146830019Y-103115885D01*
X146480429Y-102887852D01*
X146324246Y-102664641D01*
X146263702Y-102332425D01*
X146364602Y-102006942D01*
X146588342Y-101730577D01*
X146896318Y-101545717D01*
X147249926Y-101494748D01*
X147371412Y-101514875D01*
X147371412Y-101514875D01*
G37*
X147371412Y-101514875D02*
X147742436Y-101693817D01*
X147961901Y-102007350D01*
X148031200Y-102438200D01*
X148038916Y-102719129D01*
X148090280Y-102852160D01*
X148227614Y-102892587D01*
X148381134Y-102895400D01*
X148783056Y-102980950D01*
X149092459Y-103211467D01*
X149267262Y-103547750D01*
X149291040Y-103743055D01*
X149205900Y-104135142D01*
X148981670Y-104426241D01*
X148665132Y-104597471D01*
X148303068Y-104629951D01*
X147942261Y-104504800D01*
X147760239Y-104360875D01*
X147593960Y-104158320D01*
X147534066Y-103944669D01*
X147549177Y-103649675D01*
X147573405Y-103372470D01*
X147541068Y-103241685D01*
X147419368Y-103201934D01*
X147282119Y-103198702D01*
X146830019Y-103115885D01*
X146480429Y-102887852D01*
X146324246Y-102664641D01*
X146263702Y-102332425D01*
X146364602Y-102006942D01*
X146588342Y-101730577D01*
X146896318Y-101545717D01*
X147249926Y-101494748D01*
X147371412Y-101514875D01*
G36*
X140385800Y-105556341D02*
X140532101Y-105671389D01*
X140563600Y-105791000D01*
X140486530Y-105970753D01*
X140385800Y-106025658D01*
X140251040Y-105998516D01*
X140208307Y-105818771D01*
X140208000Y-105791000D01*
X140243106Y-105593954D01*
X140367398Y-105553262D01*
X140385800Y-105556341D01*
X140385800Y-105556341D01*
G37*
X140385800Y-105556341D02*
X140532101Y-105671389D01*
X140563600Y-105791000D01*
X140486530Y-105970753D01*
X140385800Y-106025658D01*
X140251040Y-105998516D01*
X140208307Y-105818771D01*
X140208000Y-105791000D01*
X140243106Y-105593954D01*
X140367398Y-105553262D01*
X140385800Y-105556341D01*
D12*
X158076000Y-76524000D03*
X132041000Y-76524000D03*
D13*
X145288000Y-111252000D03*
D14*
X127087000Y-127457000D03*
X127087000Y-124257000D03*
X122087000Y-127457000D03*
X122087000Y-124257000D03*
X118578000Y-106629000D03*
X118578000Y-103429000D03*
X113578000Y-106629000D03*
X113578000Y-103429000D03*
X127087000Y-85928000D03*
X127087000Y-82728000D03*
X122087000Y-85928000D03*
X122087000Y-82728000D03*
X147788000Y-77419000D03*
X147788000Y-74219000D03*
X142788000Y-77419000D03*
X142788000Y-74219000D03*
X168616000Y-85928000D03*
X168616000Y-82728000D03*
X163616000Y-85928000D03*
X163616000Y-82728000D03*
X177125000Y-106629000D03*
X177125000Y-103429000D03*
X172125000Y-106629000D03*
X172125000Y-103429000D03*
X168616000Y-127457000D03*
X168616000Y-124257000D03*
X163616000Y-127457000D03*
X163616000Y-124257000D03*
X147788000Y-135966000D03*
X147788000Y-132766000D03*
X142788000Y-135966000D03*
X142788000Y-132766000D03*
D15*
X133858000Y-132715000D03*
X146050000Y-135509000D03*
X125349000Y-127254000D03*
X116840000Y-106299000D03*
X125349000Y-85598000D03*
X166878000Y-85598000D03*
X146050000Y-77089000D03*
X175387000Y-106172000D03*
X167005000Y-127000000D03*
X123825000Y-124714000D03*
X115316000Y-103759000D03*
X123825000Y-83185000D03*
X165354000Y-83185000D03*
X144526000Y-74676000D03*
X173863000Y-103886000D03*
X165481000Y-124714000D03*
X144526000Y-133096000D03*
X138811000Y-131699000D03*
X138811000Y-132461000D03*
X138811000Y-132461000D03*
X125730000Y-131699000D03*
X138163423Y-132590515D03*
X129540000Y-130302000D03*
X138430000Y-134558800D03*
X130048000Y-134239000D03*
X137074717Y-130006283D03*
X126746000Y-117348000D03*
X128016000Y-119507000D03*
X136221805Y-129067746D03*
X132461000Y-136017000D03*
X122301000Y-133096000D03*
X159258000Y-126365000D03*
X138049000Y-126238000D03*
X136398000Y-122174000D03*
X145288000Y-111252000D03*
X133477000Y-131445000D03*
X140289509Y-136452967D03*
X133477000Y-130683000D03*
X140462000Y-135763000D03*
D16*
X147788000Y-135966000D02*
X146507000Y-135966000D01*
X146507000Y-135966000D02*
X146050000Y-135509000D01*
X127087000Y-127457000D02*
X125552000Y-127457000D01*
X125552000Y-127457000D02*
X125349000Y-127254000D01*
X118578000Y-106629000D02*
X117170000Y-106629000D01*
X117170000Y-106629000D02*
X116840000Y-106299000D01*
X127087000Y-85928000D02*
X125679000Y-85928000D01*
X125679000Y-85928000D02*
X125349000Y-85598000D01*
X168616000Y-85928000D02*
X167208000Y-85928000D01*
X167208000Y-85928000D02*
X166878000Y-85598000D01*
X147788000Y-77419000D02*
X146380000Y-77419000D01*
X146380000Y-77419000D02*
X146050000Y-77089000D01*
X177125000Y-106629000D02*
X175844000Y-106629000D01*
X175844000Y-106629000D02*
X175387000Y-106172000D01*
X168616000Y-127457000D02*
X167462000Y-127457000D01*
X167462000Y-127457000D02*
X167005000Y-127000000D01*
D17*
X165481000Y-124714000D02*
X165481000Y-127532082D01*
X165481000Y-127532082D02*
X159877291Y-133135791D01*
X159877291Y-133135791D02*
X149358291Y-133135791D01*
X149358291Y-133135791D02*
X148872481Y-133621601D01*
X148872481Y-133621601D02*
X145051601Y-133621601D01*
X145051601Y-133621601D02*
X144779999Y-133349999D01*
X144779999Y-133349999D02*
X144526000Y-133096000D01*
D16*
X142788000Y-132766000D02*
X144196000Y-132766000D01*
X144196000Y-132766000D02*
X144526000Y-133096000D01*
X122087000Y-124257000D02*
X123368000Y-124257000D01*
X123368000Y-124257000D02*
X123825000Y-124714000D01*
X113578000Y-103429000D02*
X114986000Y-103429000D01*
X114986000Y-103429000D02*
X115316000Y-103759000D01*
X122087000Y-82728000D02*
X123368000Y-82728000D01*
X123368000Y-82728000D02*
X123825000Y-83185000D01*
X163616000Y-82728000D02*
X164897000Y-82728000D01*
X164897000Y-82728000D02*
X165354000Y-83185000D01*
X142788000Y-74219000D02*
X144069000Y-74219000D01*
X144069000Y-74219000D02*
X144526000Y-74676000D01*
X172125000Y-103429000D02*
X173406000Y-103429000D01*
X173406000Y-103429000D02*
X173863000Y-103886000D01*
X163616000Y-124257000D02*
X165024000Y-124257000D01*
X165024000Y-124257000D02*
X165481000Y-124714000D01*
D18*
X145847000Y-132766000D02*
X144526000Y-131445000D01*
X144526000Y-131445000D02*
X139065000Y-131445000D01*
X139065000Y-131445000D02*
X138811000Y-131699000D01*
X145847000Y-132766000D02*
X147788000Y-132766000D01*
X148844000Y-134366000D02*
X145391200Y-134366000D01*
X145391200Y-134366000D02*
X143791200Y-135966000D01*
X143791200Y-135966000D02*
X142788000Y-135966000D01*
X149616999Y-133593001D02*
X148844000Y-134366000D01*
X164368601Y-133593001D02*
X149616999Y-133593001D01*
D19*
X142788000Y-135966000D02*
X143842000Y-135966000D01*
X164368601Y-133593001D02*
X169743001Y-128218601D01*
X169743001Y-128218601D02*
X169743001Y-126138001D01*
X169743001Y-126138001D02*
X168616000Y-125011000D01*
X168616000Y-125011000D02*
X168616000Y-124257000D01*
X163616000Y-127457000D02*
X163316000Y-127457000D01*
X163316000Y-127457000D02*
X162488999Y-126629999D01*
X162488999Y-126629999D02*
X162488999Y-123153603D01*
X162488999Y-123153603D02*
X178252001Y-107390601D01*
X178252001Y-107390601D02*
X178252001Y-105310001D01*
X178252001Y-105310001D02*
X177125000Y-104183000D01*
X177125000Y-104183000D02*
X177125000Y-103429000D01*
X172125000Y-106629000D02*
X171825000Y-106629000D01*
X171825000Y-106629000D02*
X169743001Y-104547001D01*
X169743001Y-104547001D02*
X169743001Y-84609001D01*
X169743001Y-84609001D02*
X168616000Y-83482000D01*
X168616000Y-83482000D02*
X168616000Y-82728000D01*
X163616000Y-85928000D02*
X158743000Y-85928000D01*
X158743000Y-85928000D02*
X147788000Y-74973000D01*
X147788000Y-74973000D02*
X147788000Y-74219000D01*
X142788000Y-77419000D02*
X141734000Y-77419000D01*
X141734000Y-77419000D02*
X136425000Y-82728000D01*
X136425000Y-82728000D02*
X128141000Y-82728000D01*
X128141000Y-82728000D02*
X127087000Y-82728000D01*
X122087000Y-85928000D02*
X122087000Y-100220000D01*
X122087000Y-100220000D02*
X118878000Y-103429000D01*
X118878000Y-103429000D02*
X118578000Y-103429000D01*
D18*
X135991592Y-129641592D02*
X138811000Y-132461000D01*
X125730000Y-131699000D02*
X127787408Y-129641592D01*
X127787408Y-129641592D02*
X135991592Y-129641592D01*
X137844362Y-132284638D02*
X137857546Y-132284638D01*
X137857546Y-132284638D02*
X138163423Y-132590515D01*
X129793999Y-130048001D02*
X135382000Y-130048001D01*
X135382000Y-130048001D02*
X135537277Y-130048001D01*
X137844362Y-132284638D02*
X135607725Y-130048001D01*
X135607725Y-130048001D02*
X135382000Y-130048001D01*
X129540000Y-130302000D02*
X129793999Y-130048001D01*
X130048000Y-134239000D02*
X138110200Y-134239000D01*
X138110200Y-134239000D02*
X138430000Y-134558800D01*
X136699238Y-128894159D02*
X136699238Y-128524000D01*
X136699238Y-128524000D02*
X136699238Y-127301238D01*
X137074717Y-130006283D02*
X136729806Y-129661372D01*
X136729806Y-129661372D02*
X136729806Y-128554568D01*
X136729806Y-128554568D02*
X136699238Y-128524000D01*
X136699238Y-127301238D02*
X126746000Y-117348000D01*
X136221805Y-129067746D02*
X136221805Y-127575647D01*
X136221805Y-127575647D02*
X128153158Y-119507000D01*
X128153158Y-119507000D02*
X128016000Y-119507000D01*
X126238000Y-133096000D02*
X129159000Y-136017000D01*
X129159000Y-136017000D02*
X132461000Y-136017000D01*
X122301000Y-133096000D02*
X126238000Y-133096000D01*
X138049000Y-126238000D02*
X159131000Y-126238000D01*
X159131000Y-126238000D02*
X159258000Y-126365000D01*
X136398000Y-124460000D02*
X136398000Y-124587000D01*
X136398000Y-124587000D02*
X138049000Y-126238000D01*
X136398000Y-122174000D02*
X136398000Y-124460000D01*
X135281542Y-131445000D02*
X135281542Y-131471542D01*
X135281542Y-131471542D02*
X137693390Y-133883390D01*
X137693390Y-133883390D02*
X138506432Y-133883390D01*
X138506432Y-133883390D02*
X139953999Y-135330957D01*
X139953999Y-135330957D02*
X139953999Y-136117457D01*
X139953999Y-136117457D02*
X140035510Y-136198968D01*
X140035510Y-136198968D02*
X140289509Y-136452967D01*
X135281542Y-131445000D02*
X133477000Y-131445000D01*
X133477000Y-130683000D02*
X135490882Y-130683000D01*
X135490882Y-130683000D02*
X138335662Y-133527780D01*
X140462000Y-135336050D02*
X140462000Y-135403790D01*
X138335662Y-133527780D02*
X138653731Y-133527781D01*
X138653731Y-133527781D02*
X140462000Y-135336050D01*
X140462000Y-135403790D02*
X140462000Y-135763000D01*
D19*
X113578000Y-106629000D02*
X114632000Y-106629000D01*
X114632000Y-106629000D02*
X127087000Y-119084000D01*
X127087000Y-119084000D02*
X127087000Y-123503000D01*
X127087000Y-123503000D02*
X127087000Y-124257000D01*
G36*
X171936609Y-78547743D02*
X182892515Y-105098542D01*
X171837257Y-131749609D01*
X145286000Y-142705704D01*
X130245983Y-136499600D01*
X132045516Y-136499600D01*
X132100832Y-136555013D01*
X132334137Y-136651889D01*
X132586755Y-136652110D01*
X132820228Y-136555640D01*
X132999013Y-136377168D01*
X133095889Y-136143863D01*
X133096110Y-135891245D01*
X132999640Y-135657772D01*
X132821168Y-135478987D01*
X132587863Y-135382111D01*
X132335245Y-135381890D01*
X132101772Y-135478360D01*
X132045634Y-135534400D01*
X129358900Y-135534400D01*
X126579250Y-132754750D01*
X126422683Y-132650136D01*
X126238000Y-132613400D01*
X122716484Y-132613400D01*
X122661168Y-132557987D01*
X122427863Y-132461111D01*
X122175245Y-132460890D01*
X121941772Y-132557360D01*
X121762987Y-132735832D01*
X121669631Y-132960659D01*
X118734419Y-131749475D01*
X116739039Y-126957000D01*
X120898536Y-126957000D01*
X120898536Y-127957000D01*
X120925103Y-128098190D01*
X121008546Y-128227865D01*
X121135866Y-128314859D01*
X121287000Y-128345464D01*
X122887000Y-128345464D01*
X123028190Y-128318897D01*
X123157865Y-128235454D01*
X123244859Y-128108134D01*
X123275464Y-127957000D01*
X123275464Y-127742750D01*
X125652000Y-127742750D01*
X125652000Y-128083310D01*
X125748673Y-128316699D01*
X125927302Y-128495327D01*
X126160691Y-128592000D01*
X126801250Y-128592000D01*
X126960000Y-128433250D01*
X126960000Y-127584000D01*
X127214000Y-127584000D01*
X127214000Y-128433250D01*
X127372750Y-128592000D01*
X128013309Y-128592000D01*
X128246698Y-128495327D01*
X128425327Y-128316699D01*
X128522000Y-128083310D01*
X128522000Y-127742750D01*
X128363250Y-127584000D01*
X127214000Y-127584000D01*
X126960000Y-127584000D01*
X125810750Y-127584000D01*
X125652000Y-127742750D01*
X123275464Y-127742750D01*
X123275464Y-126957000D01*
X123251697Y-126830690D01*
X125652000Y-126830690D01*
X125652000Y-127171250D01*
X125810750Y-127330000D01*
X126960000Y-127330000D01*
X126960000Y-126480750D01*
X127214000Y-126480750D01*
X127214000Y-127330000D01*
X128363250Y-127330000D01*
X128522000Y-127171250D01*
X128522000Y-126830690D01*
X128425327Y-126597301D01*
X128246698Y-126418673D01*
X128013309Y-126322000D01*
X127372750Y-126322000D01*
X127214000Y-126480750D01*
X126960000Y-126480750D01*
X126801250Y-126322000D01*
X126160691Y-126322000D01*
X125927302Y-126418673D01*
X125748673Y-126597301D01*
X125652000Y-126830690D01*
X123251697Y-126830690D01*
X123248897Y-126815810D01*
X123165454Y-126686135D01*
X123038134Y-126599141D01*
X122887000Y-126568536D01*
X121287000Y-126568536D01*
X121145810Y-126595103D01*
X121016135Y-126678546D01*
X120929141Y-126805866D01*
X120898536Y-126957000D01*
X116739039Y-126957000D01*
X115406697Y-123757000D01*
X120898536Y-123757000D01*
X120898536Y-124757000D01*
X120925103Y-124898190D01*
X121008546Y-125027865D01*
X121135866Y-125114859D01*
X121287000Y-125145464D01*
X122887000Y-125145464D01*
X123028190Y-125118897D01*
X123157865Y-125035454D01*
X123228211Y-124932499D01*
X123286360Y-125073228D01*
X123464832Y-125252013D01*
X123698137Y-125348889D01*
X123950755Y-125349110D01*
X124184228Y-125252640D01*
X124363013Y-125074168D01*
X124459889Y-124840863D01*
X124460110Y-124588245D01*
X124363640Y-124354772D01*
X124185168Y-124175987D01*
X124000618Y-124099356D01*
X123763131Y-123861869D01*
X123581844Y-123740736D01*
X123368000Y-123698200D01*
X123264400Y-123698200D01*
X123248897Y-123615810D01*
X123165454Y-123486135D01*
X123038134Y-123399141D01*
X122887000Y-123368536D01*
X121287000Y-123368536D01*
X121145810Y-123395103D01*
X121016135Y-123478546D01*
X120929141Y-123605866D01*
X120898536Y-123757000D01*
X115406697Y-123757000D01*
X108067157Y-106129000D01*
X112389536Y-106129000D01*
X112389536Y-107129000D01*
X112416103Y-107270190D01*
X112499546Y-107399865D01*
X112626866Y-107486859D01*
X112778000Y-107517464D01*
X114378000Y-107517464D01*
X114519190Y-107490897D01*
X114648865Y-107407454D01*
X114666388Y-107381808D01*
X126579000Y-119294420D01*
X126579000Y-123368536D01*
X126287000Y-123368536D01*
X126145810Y-123395103D01*
X126016135Y-123478546D01*
X125929141Y-123605866D01*
X125898536Y-123757000D01*
X125898536Y-124757000D01*
X125925103Y-124898190D01*
X126008546Y-125027865D01*
X126135866Y-125114859D01*
X126287000Y-125145464D01*
X127887000Y-125145464D01*
X128028190Y-125118897D01*
X128157865Y-125035454D01*
X128244859Y-124908134D01*
X128275464Y-124757000D01*
X128275464Y-123757000D01*
X128248897Y-123615810D01*
X128165454Y-123486135D01*
X128038134Y-123399141D01*
X127887000Y-123368536D01*
X127595000Y-123368536D01*
X127595000Y-119984074D01*
X127655832Y-120045013D01*
X127889137Y-120141889D01*
X128105736Y-120142078D01*
X135739205Y-127775547D01*
X135739205Y-128652262D01*
X135683792Y-128707578D01*
X135586916Y-128940883D01*
X135586725Y-129158992D01*
X127787408Y-129158992D01*
X127602725Y-129195728D01*
X127446158Y-129300342D01*
X125682542Y-131063958D01*
X125604245Y-131063890D01*
X125370772Y-131160360D01*
X125191987Y-131338832D01*
X125095111Y-131572137D01*
X125094890Y-131824755D01*
X125191360Y-132058228D01*
X125369832Y-132237013D01*
X125603137Y-132333889D01*
X125855755Y-132334110D01*
X126089228Y-132237640D01*
X126268013Y-132059168D01*
X126364889Y-131825863D01*
X126364958Y-131746542D01*
X127987308Y-130124192D01*
X128926265Y-130124192D01*
X128905111Y-130175137D01*
X128904890Y-130427755D01*
X129001360Y-130661228D01*
X129179832Y-130840013D01*
X129413137Y-130936889D01*
X129665755Y-130937110D01*
X129899228Y-130840640D01*
X130078013Y-130662168D01*
X130132644Y-130530601D01*
X132852714Y-130530601D01*
X132842111Y-130556137D01*
X132841890Y-130808755D01*
X132938360Y-131042228D01*
X132959975Y-131063881D01*
X132938987Y-131084832D01*
X132842111Y-131318137D01*
X132841890Y-131570755D01*
X132938360Y-131804228D01*
X133116832Y-131983013D01*
X133350137Y-132079889D01*
X133602755Y-132080110D01*
X133836228Y-131983640D01*
X133892366Y-131927600D01*
X135055100Y-131927600D01*
X136883900Y-133756400D01*
X130463484Y-133756400D01*
X130408168Y-133700987D01*
X130174863Y-133604111D01*
X129922245Y-133603890D01*
X129688772Y-133700360D01*
X129509987Y-133878832D01*
X129413111Y-134112137D01*
X129412890Y-134364755D01*
X129509360Y-134598228D01*
X129687832Y-134777013D01*
X129921137Y-134873889D01*
X130173755Y-134874110D01*
X130407228Y-134777640D01*
X130463366Y-134721600D01*
X137810197Y-134721600D01*
X137891360Y-134918028D01*
X138069832Y-135096813D01*
X138303137Y-135193689D01*
X138555755Y-135193910D01*
X138789228Y-135097440D01*
X138913714Y-134973172D01*
X139471399Y-135530857D01*
X139471399Y-136117457D01*
X139508135Y-136302140D01*
X139612749Y-136458707D01*
X139654467Y-136500425D01*
X139654399Y-136578722D01*
X139750869Y-136812195D01*
X139929341Y-136990980D01*
X140162646Y-137087856D01*
X140415264Y-137088077D01*
X140648737Y-136991607D01*
X140827522Y-136813135D01*
X140924398Y-136579830D01*
X140924619Y-136327212D01*
X140886946Y-136236037D01*
X141000013Y-136123168D01*
X141096889Y-135889863D01*
X141097110Y-135637245D01*
X141000640Y-135403772D01*
X140944600Y-135347634D01*
X140944600Y-135336055D01*
X140944601Y-135336050D01*
X140907864Y-135151367D01*
X140892177Y-135127890D01*
X140803250Y-134994800D01*
X140803247Y-134994798D01*
X138994981Y-133186531D01*
X138859554Y-133096042D01*
X138936755Y-133096110D01*
X139170228Y-132999640D01*
X139349013Y-132821168D01*
X139445889Y-132587863D01*
X139446110Y-132335245D01*
X139349640Y-132101772D01*
X139328025Y-132080119D01*
X139349013Y-132059168D01*
X139403644Y-131927600D01*
X141810294Y-131927600D01*
X141717135Y-131987546D01*
X141630141Y-132114866D01*
X141599536Y-132266000D01*
X141599536Y-133266000D01*
X141626103Y-133407190D01*
X141709546Y-133536865D01*
X141836866Y-133623859D01*
X141988000Y-133654464D01*
X143588000Y-133654464D01*
X143729190Y-133627897D01*
X143858865Y-133544454D01*
X143945859Y-133417134D01*
X143954332Y-133375294D01*
X143987360Y-133455228D01*
X144165832Y-133634013D01*
X144288953Y-133685137D01*
X144638509Y-134034693D01*
X144828037Y-134161331D01*
X144899211Y-134175489D01*
X143871587Y-135203113D01*
X143866454Y-135195135D01*
X143739134Y-135108141D01*
X143588000Y-135077536D01*
X141988000Y-135077536D01*
X141846810Y-135104103D01*
X141717135Y-135187546D01*
X141630141Y-135314866D01*
X141599536Y-135466000D01*
X141599536Y-136466000D01*
X141626103Y-136607190D01*
X141709546Y-136736865D01*
X141836866Y-136823859D01*
X141988000Y-136854464D01*
X143588000Y-136854464D01*
X143729190Y-136827897D01*
X143858865Y-136744454D01*
X143945859Y-136617134D01*
X143976464Y-136466000D01*
X143976464Y-136447254D01*
X144036403Y-136435331D01*
X144201210Y-136325210D01*
X144250294Y-136251750D01*
X146353000Y-136251750D01*
X146353000Y-136592310D01*
X146449673Y-136825699D01*
X146628302Y-137004327D01*
X146861691Y-137101000D01*
X147502250Y-137101000D01*
X147661000Y-136942250D01*
X147661000Y-136093000D01*
X147915000Y-136093000D01*
X147915000Y-136942250D01*
X148073750Y-137101000D01*
X148714309Y-137101000D01*
X148947698Y-137004327D01*
X149126327Y-136825699D01*
X149223000Y-136592310D01*
X149223000Y-136251750D01*
X149064250Y-136093000D01*
X147915000Y-136093000D01*
X147661000Y-136093000D01*
X146511750Y-136093000D01*
X146353000Y-136251750D01*
X144250294Y-136251750D01*
X144311331Y-136160403D01*
X144319285Y-136120415D01*
X145591100Y-134848600D01*
X146819201Y-134848600D01*
X146628302Y-134927673D01*
X146449673Y-135106301D01*
X146353000Y-135339690D01*
X146353000Y-135680250D01*
X146511750Y-135839000D01*
X147661000Y-135839000D01*
X147661000Y-135819000D01*
X147915000Y-135819000D01*
X147915000Y-135839000D01*
X149064250Y-135839000D01*
X149223000Y-135680250D01*
X149223000Y-135339690D01*
X149126327Y-135106301D01*
X148947698Y-134927673D01*
X148756799Y-134848600D01*
X148844000Y-134848600D01*
X149028683Y-134811864D01*
X149185250Y-134707250D01*
X149816898Y-134075601D01*
X164240906Y-134075601D01*
X164368601Y-134101001D01*
X164563004Y-134062332D01*
X164727811Y-133952211D01*
X170102211Y-128577812D01*
X170212332Y-128413005D01*
X170231854Y-128314859D01*
X170251001Y-128218601D01*
X170251001Y-126138001D01*
X170212332Y-125943598D01*
X170212332Y-125943597D01*
X170102211Y-125778791D01*
X169460509Y-125137089D01*
X169557190Y-125118897D01*
X169686865Y-125035454D01*
X169773859Y-124908134D01*
X169804464Y-124757000D01*
X169804464Y-123757000D01*
X169777897Y-123615810D01*
X169694454Y-123486135D01*
X169567134Y-123399141D01*
X169416000Y-123368536D01*
X167816000Y-123368536D01*
X167674810Y-123395103D01*
X167545135Y-123478546D01*
X167458141Y-123605866D01*
X167427536Y-123757000D01*
X167427536Y-124757000D01*
X167454103Y-124898190D01*
X167537546Y-125027865D01*
X167664866Y-125114859D01*
X167816000Y-125145464D01*
X168134746Y-125145464D01*
X168146669Y-125205403D01*
X168256790Y-125370210D01*
X169208580Y-126322000D01*
X168901750Y-126322000D01*
X168743000Y-126480750D01*
X168743000Y-127330000D01*
X168763000Y-127330000D01*
X168763000Y-127584000D01*
X168743000Y-127584000D01*
X168743000Y-128433250D01*
X168776466Y-128466716D01*
X164132781Y-133110401D01*
X160728865Y-133110401D01*
X165894092Y-127945174D01*
X165951410Y-127859391D01*
X166020730Y-127755646D01*
X166023295Y-127742750D01*
X167181000Y-127742750D01*
X167181000Y-128083310D01*
X167277673Y-128316699D01*
X167456302Y-128495327D01*
X167689691Y-128592000D01*
X168330250Y-128592000D01*
X168489000Y-128433250D01*
X168489000Y-127584000D01*
X167339750Y-127584000D01*
X167181000Y-127742750D01*
X166023295Y-127742750D01*
X166065200Y-127532082D01*
X166065200Y-126830690D01*
X167181000Y-126830690D01*
X167181000Y-127171250D01*
X167339750Y-127330000D01*
X168489000Y-127330000D01*
X168489000Y-126480750D01*
X168330250Y-126322000D01*
X167689691Y-126322000D01*
X167456302Y-126418673D01*
X167277673Y-126597301D01*
X167181000Y-126830690D01*
X166065200Y-126830690D01*
X166065200Y-124962937D01*
X166115889Y-124840863D01*
X166116110Y-124588245D01*
X166019640Y-124354772D01*
X165841168Y-124175987D01*
X165656618Y-124099356D01*
X165419131Y-123861869D01*
X165237844Y-123740736D01*
X165024000Y-123698200D01*
X164793400Y-123698200D01*
X164777897Y-123615810D01*
X164694454Y-123486135D01*
X164567134Y-123399141D01*
X164416000Y-123368536D01*
X162996999Y-123368536D01*
X162996999Y-123364023D01*
X178611211Y-107749811D01*
X178721332Y-107585005D01*
X178760001Y-107390601D01*
X178760001Y-105310001D01*
X178741284Y-105215904D01*
X178721332Y-105115597D01*
X178611211Y-104950791D01*
X177969509Y-104309089D01*
X178066190Y-104290897D01*
X178195865Y-104207454D01*
X178282859Y-104080134D01*
X178313464Y-103929000D01*
X178313464Y-102929000D01*
X178286897Y-102787810D01*
X178203454Y-102658135D01*
X178076134Y-102571141D01*
X177925000Y-102540536D01*
X176325000Y-102540536D01*
X176183810Y-102567103D01*
X176054135Y-102650546D01*
X175967141Y-102777866D01*
X175936536Y-102929000D01*
X175936536Y-103929000D01*
X175963103Y-104070190D01*
X176046546Y-104199865D01*
X176173866Y-104286859D01*
X176325000Y-104317464D01*
X176643746Y-104317464D01*
X176655669Y-104377403D01*
X176765790Y-104542210D01*
X177717580Y-105494000D01*
X177410750Y-105494000D01*
X177252000Y-105652750D01*
X177252000Y-106502000D01*
X177272000Y-106502000D01*
X177272000Y-106756000D01*
X177252000Y-106756000D01*
X177252000Y-107605250D01*
X177285466Y-107638716D01*
X162129789Y-122794393D01*
X162019668Y-122959200D01*
X161980999Y-123153603D01*
X161980999Y-126629999D01*
X162019668Y-126824402D01*
X162129789Y-126989209D01*
X162427536Y-127286956D01*
X162427536Y-127957000D01*
X162454103Y-128098190D01*
X162537546Y-128227865D01*
X162664866Y-128314859D01*
X162816000Y-128345464D01*
X163841434Y-128345464D01*
X159635307Y-132551591D01*
X149358291Y-132551591D01*
X149134727Y-132596061D01*
X148976464Y-132701808D01*
X148976464Y-132266000D01*
X148949897Y-132124810D01*
X148866454Y-131995135D01*
X148739134Y-131908141D01*
X148588000Y-131877536D01*
X146988000Y-131877536D01*
X146846810Y-131904103D01*
X146717135Y-131987546D01*
X146630141Y-132114866D01*
X146599536Y-132266000D01*
X146599536Y-132283400D01*
X146046900Y-132283400D01*
X144867250Y-131103750D01*
X144710683Y-130999136D01*
X144526000Y-130962400D01*
X139065000Y-130962400D01*
X138880317Y-130999136D01*
X138783277Y-131063976D01*
X138685245Y-131063890D01*
X138451772Y-131160360D01*
X138322203Y-131289703D01*
X137505747Y-130473247D01*
X137612730Y-130366451D01*
X137709606Y-130133146D01*
X137709827Y-129880528D01*
X137613357Y-129647055D01*
X137434885Y-129468270D01*
X137212406Y-129375889D01*
X137212406Y-128554573D01*
X137212407Y-128554568D01*
X137181838Y-128400893D01*
X137181838Y-127301238D01*
X137145102Y-127116555D01*
X137040488Y-126959988D01*
X132380255Y-122299755D01*
X135762890Y-122299755D01*
X135859360Y-122533228D01*
X135915400Y-122589366D01*
X135915400Y-124587000D01*
X135952136Y-124771683D01*
X136056750Y-124928250D01*
X137413958Y-126285458D01*
X137413890Y-126363755D01*
X137510360Y-126597228D01*
X137688832Y-126776013D01*
X137922137Y-126872889D01*
X138174755Y-126873110D01*
X138408228Y-126776640D01*
X138464366Y-126720600D01*
X158717861Y-126720600D01*
X158719360Y-126724228D01*
X158897832Y-126903013D01*
X159131137Y-126999889D01*
X159383755Y-127000110D01*
X159617228Y-126903640D01*
X159796013Y-126725168D01*
X159892889Y-126491863D01*
X159893110Y-126239245D01*
X159796640Y-126005772D01*
X159618168Y-125826987D01*
X159384863Y-125730111D01*
X159132245Y-125729890D01*
X159070507Y-125755400D01*
X138464484Y-125755400D01*
X138409168Y-125699987D01*
X138175863Y-125603111D01*
X138096541Y-125603042D01*
X136880600Y-124387100D01*
X136880600Y-122589484D01*
X136936013Y-122534168D01*
X137032889Y-122300863D01*
X137033110Y-122048245D01*
X136936640Y-121814772D01*
X136758168Y-121635987D01*
X136524863Y-121539111D01*
X136272245Y-121538890D01*
X136038772Y-121635360D01*
X135859987Y-121813832D01*
X135763111Y-122047137D01*
X135762890Y-122299755D01*
X132380255Y-122299755D01*
X127381042Y-117300542D01*
X127381110Y-117222245D01*
X127284640Y-116988772D01*
X127106168Y-116809987D01*
X126872863Y-116713111D01*
X126620245Y-116712890D01*
X126386772Y-116809360D01*
X126207987Y-116987832D01*
X126111111Y-117221137D01*
X126110964Y-117389544D01*
X115636170Y-106914750D01*
X117143000Y-106914750D01*
X117143000Y-107255310D01*
X117239673Y-107488699D01*
X117418302Y-107667327D01*
X117651691Y-107764000D01*
X118292250Y-107764000D01*
X118451000Y-107605250D01*
X118451000Y-106756000D01*
X118705000Y-106756000D01*
X118705000Y-107605250D01*
X118863750Y-107764000D01*
X119504309Y-107764000D01*
X119737698Y-107667327D01*
X119916327Y-107488699D01*
X120013000Y-107255310D01*
X120013000Y-106914750D01*
X119854250Y-106756000D01*
X118705000Y-106756000D01*
X118451000Y-106756000D01*
X117301750Y-106756000D01*
X117143000Y-106914750D01*
X115636170Y-106914750D01*
X114991210Y-106269790D01*
X114826403Y-106159669D01*
X114766464Y-106147746D01*
X114766464Y-106129000D01*
X114742697Y-106002690D01*
X117143000Y-106002690D01*
X117143000Y-106343250D01*
X117301750Y-106502000D01*
X118451000Y-106502000D01*
X118451000Y-105652750D01*
X118705000Y-105652750D01*
X118705000Y-106502000D01*
X119854250Y-106502000D01*
X120013000Y-106343250D01*
X120013000Y-106002690D01*
X119916327Y-105769301D01*
X119737698Y-105590673D01*
X119504309Y-105494000D01*
X118863750Y-105494000D01*
X118705000Y-105652750D01*
X118451000Y-105652750D01*
X118292250Y-105494000D01*
X117651691Y-105494000D01*
X117418302Y-105590673D01*
X117239673Y-105769301D01*
X117143000Y-106002690D01*
X114742697Y-106002690D01*
X114739897Y-105987810D01*
X114656454Y-105858135D01*
X114529134Y-105771141D01*
X114378000Y-105740536D01*
X112778000Y-105740536D01*
X112636810Y-105767103D01*
X112507135Y-105850546D01*
X112420141Y-105977866D01*
X112389536Y-106129000D01*
X108067157Y-106129000D01*
X107679810Y-105198676D01*
X107903409Y-104659642D01*
X137596139Y-104659642D01*
X137596835Y-105334196D01*
X137596926Y-105422922D01*
X137599582Y-105436202D01*
X137597879Y-105449637D01*
X137648779Y-106172551D01*
X137653680Y-106190494D01*
X137653109Y-106209084D01*
X137754123Y-106813352D01*
X137763102Y-106837065D01*
X137765624Y-106862293D01*
X138003831Y-107643478D01*
X138016582Y-107667250D01*
X138022953Y-107693468D01*
X138520140Y-108764126D01*
X138538445Y-108789174D01*
X138550473Y-108817766D01*
X139209560Y-109792496D01*
X139231139Y-109813838D01*
X139247119Y-109839640D01*
X140049856Y-110699812D01*
X140074361Y-110717439D01*
X140094037Y-110740331D01*
X141022169Y-111467317D01*
X141049433Y-111481101D01*
X141072727Y-111500860D01*
X142108004Y-112076031D01*
X142137850Y-112085617D01*
X142164712Y-112101789D01*
X143288879Y-112506516D01*
X143306318Y-112509138D01*
X143322187Y-112516834D01*
X143370769Y-112529509D01*
X143386094Y-112530412D01*
X143400390Y-112536006D01*
X144034894Y-112649257D01*
X144053708Y-112648886D01*
X144071807Y-112654022D01*
X144819479Y-112714089D01*
X144833544Y-112712447D01*
X144847410Y-112715317D01*
X145631878Y-112721373D01*
X145645913Y-112718694D01*
X145660082Y-112720560D01*
X146404979Y-112671778D01*
X146423660Y-112666773D01*
X146442987Y-112667388D01*
X147071941Y-112562944D01*
X147092617Y-112555140D01*
X147114645Y-112553337D01*
X147650992Y-112400259D01*
X147672025Y-112389459D01*
X147695185Y-112384689D01*
X148786949Y-111923771D01*
X148812738Y-111906285D01*
X148841860Y-111895202D01*
X149845128Y-111266193D01*
X149867390Y-111245188D01*
X149893933Y-111229944D01*
X150785760Y-110451426D01*
X150804568Y-110427030D01*
X150828517Y-110407664D01*
X151585958Y-109498219D01*
X151601108Y-109470362D01*
X151622197Y-109446673D01*
X152222309Y-108424882D01*
X152229933Y-108402959D01*
X152243194Y-108383912D01*
X152521030Y-107747857D01*
X152525410Y-107727847D01*
X152535287Y-107709899D01*
X152789508Y-106907268D01*
X152792507Y-106880210D01*
X152802175Y-106854760D01*
X152941445Y-106027009D01*
X152940745Y-106003402D01*
X152946398Y-105980472D01*
X152988803Y-105046507D01*
X152986502Y-105031386D01*
X152988991Y-105016295D01*
X152965432Y-104300883D01*
X152960981Y-104281810D01*
X152962214Y-104262263D01*
X152848650Y-103415736D01*
X152839884Y-103390119D01*
X152837821Y-103363126D01*
X152613792Y-102561828D01*
X152602711Y-102539957D01*
X152597785Y-102515938D01*
X152245205Y-101678777D01*
X152239291Y-101670039D01*
X152236617Y-101659829D01*
X152199975Y-101584459D01*
X152189705Y-101570918D01*
X152183986Y-101554914D01*
X151560710Y-100514136D01*
X151538949Y-100490108D01*
X151523114Y-100461820D01*
X150748323Y-99554316D01*
X150722594Y-99534026D01*
X150702011Y-99508532D01*
X149785147Y-98743744D01*
X149756724Y-98728259D01*
X149732491Y-98706801D01*
X148682995Y-98094171D01*
X148661538Y-98086773D01*
X148642912Y-98073805D01*
X148006858Y-97795969D01*
X147986847Y-97791589D01*
X147968899Y-97781712D01*
X147166268Y-97527491D01*
X147139209Y-97524492D01*
X147113759Y-97514824D01*
X146286009Y-97375554D01*
X146262402Y-97376254D01*
X146239471Y-97370601D01*
X145305507Y-97328196D01*
X145290386Y-97330497D01*
X145275295Y-97328008D01*
X144559883Y-97351567D01*
X144540810Y-97356018D01*
X144521263Y-97354785D01*
X143674736Y-97468349D01*
X143649119Y-97477115D01*
X143622126Y-97479178D01*
X142820828Y-97703207D01*
X142798957Y-97714288D01*
X142774938Y-97719214D01*
X141937777Y-98071794D01*
X141923523Y-98081441D01*
X141907031Y-98086370D01*
X141414712Y-98346943D01*
X141396333Y-98361901D01*
X141374617Y-98371396D01*
X140403234Y-99048197D01*
X140381605Y-99070686D01*
X140355384Y-99087602D01*
X139943596Y-99486337D01*
X139943593Y-99486339D01*
X139505067Y-99910965D01*
X139487649Y-99936145D01*
X139464848Y-99956577D01*
X138754178Y-100903560D01*
X138740863Y-100931306D01*
X138721472Y-100955206D01*
X138169032Y-102002861D01*
X138160015Y-102033200D01*
X138144327Y-102060694D01*
X137768697Y-103186080D01*
X137766576Y-103202850D01*
X137759501Y-103218199D01*
X137755566Y-103234594D01*
X137755001Y-103248997D01*
X137749947Y-103262499D01*
X137650507Y-103871686D01*
X137651140Y-103889997D01*
X137646355Y-103907680D01*
X137641027Y-103986024D01*
X137641026Y-103986028D01*
X137597028Y-104633056D01*
X137598754Y-104646422D01*
X137596139Y-104659642D01*
X107903409Y-104659642D01*
X108621305Y-102929000D01*
X112389536Y-102929000D01*
X112389536Y-103929000D01*
X112416103Y-104070190D01*
X112499546Y-104199865D01*
X112626866Y-104286859D01*
X112778000Y-104317464D01*
X114378000Y-104317464D01*
X114519190Y-104290897D01*
X114648865Y-104207454D01*
X114735859Y-104080134D01*
X114744332Y-104038294D01*
X114777360Y-104118228D01*
X114955832Y-104297013D01*
X115189137Y-104393889D01*
X115441755Y-104394110D01*
X115675228Y-104297640D01*
X115854013Y-104119168D01*
X115950889Y-103885863D01*
X115951110Y-103633245D01*
X115854640Y-103399772D01*
X115676168Y-103220987D01*
X115491618Y-103144356D01*
X115381131Y-103033869D01*
X115351139Y-103013829D01*
X115224185Y-102929000D01*
X117389536Y-102929000D01*
X117389536Y-103929000D01*
X117416103Y-104070190D01*
X117499546Y-104199865D01*
X117626866Y-104286859D01*
X117778000Y-104317464D01*
X119378000Y-104317464D01*
X119519190Y-104290897D01*
X119648865Y-104207454D01*
X119735859Y-104080134D01*
X119766464Y-103929000D01*
X119766464Y-103258956D01*
X122446210Y-100579210D01*
X122556331Y-100414404D01*
X122564376Y-100373959D01*
X122595000Y-100220000D01*
X122595000Y-86816464D01*
X122887000Y-86816464D01*
X123028190Y-86789897D01*
X123157865Y-86706454D01*
X123244859Y-86579134D01*
X123275464Y-86428000D01*
X123275464Y-86213750D01*
X125652000Y-86213750D01*
X125652000Y-86554310D01*
X125748673Y-86787699D01*
X125927302Y-86966327D01*
X126160691Y-87063000D01*
X126801250Y-87063000D01*
X126960000Y-86904250D01*
X126960000Y-86055000D01*
X127214000Y-86055000D01*
X127214000Y-86904250D01*
X127372750Y-87063000D01*
X128013309Y-87063000D01*
X128246698Y-86966327D01*
X128425327Y-86787699D01*
X128522000Y-86554310D01*
X128522000Y-86213750D01*
X128363250Y-86055000D01*
X127214000Y-86055000D01*
X126960000Y-86055000D01*
X125810750Y-86055000D01*
X125652000Y-86213750D01*
X123275464Y-86213750D01*
X123275464Y-85428000D01*
X123251697Y-85301690D01*
X125652000Y-85301690D01*
X125652000Y-85642250D01*
X125810750Y-85801000D01*
X126960000Y-85801000D01*
X126960000Y-84951750D01*
X127214000Y-84951750D01*
X127214000Y-85801000D01*
X128363250Y-85801000D01*
X128522000Y-85642250D01*
X128522000Y-85301690D01*
X128425327Y-85068301D01*
X128246698Y-84889673D01*
X128013309Y-84793000D01*
X127372750Y-84793000D01*
X127214000Y-84951750D01*
X126960000Y-84951750D01*
X126801250Y-84793000D01*
X126160691Y-84793000D01*
X125927302Y-84889673D01*
X125748673Y-85068301D01*
X125652000Y-85301690D01*
X123251697Y-85301690D01*
X123248897Y-85286810D01*
X123165454Y-85157135D01*
X123038134Y-85070141D01*
X122887000Y-85039536D01*
X121287000Y-85039536D01*
X121145810Y-85066103D01*
X121016135Y-85149546D01*
X120929141Y-85276866D01*
X120898536Y-85428000D01*
X120898536Y-86428000D01*
X120925103Y-86569190D01*
X121008546Y-86698865D01*
X121135866Y-86785859D01*
X121287000Y-86816464D01*
X121579000Y-86816464D01*
X121579000Y-100009580D01*
X119048044Y-102540536D01*
X117778000Y-102540536D01*
X117636810Y-102567103D01*
X117507135Y-102650546D01*
X117420141Y-102777866D01*
X117389536Y-102929000D01*
X115224185Y-102929000D01*
X115199844Y-102912736D01*
X114986000Y-102870200D01*
X114755400Y-102870200D01*
X114739897Y-102787810D01*
X114656454Y-102658135D01*
X114529134Y-102571141D01*
X114378000Y-102540536D01*
X112778000Y-102540536D01*
X112636810Y-102567103D01*
X112507135Y-102650546D01*
X112420141Y-102777866D01*
X112389536Y-102929000D01*
X108621305Y-102929000D01*
X117208386Y-82228000D01*
X120898536Y-82228000D01*
X120898536Y-83228000D01*
X120925103Y-83369190D01*
X121008546Y-83498865D01*
X121135866Y-83585859D01*
X121287000Y-83616464D01*
X122887000Y-83616464D01*
X123028190Y-83589897D01*
X123157865Y-83506454D01*
X123228211Y-83403499D01*
X123286360Y-83544228D01*
X123464832Y-83723013D01*
X123698137Y-83819889D01*
X123950755Y-83820110D01*
X124184228Y-83723640D01*
X124363013Y-83545168D01*
X124459889Y-83311863D01*
X124460110Y-83059245D01*
X124363640Y-82825772D01*
X124185168Y-82646987D01*
X124000618Y-82570356D01*
X123763131Y-82332869D01*
X123606185Y-82228000D01*
X125898536Y-82228000D01*
X125898536Y-83228000D01*
X125925103Y-83369190D01*
X126008546Y-83498865D01*
X126135866Y-83585859D01*
X126287000Y-83616464D01*
X127887000Y-83616464D01*
X128028190Y-83589897D01*
X128157865Y-83506454D01*
X128244859Y-83379134D01*
X128273844Y-83236000D01*
X136425000Y-83236000D01*
X136619403Y-83197331D01*
X136784210Y-83087210D01*
X141698587Y-78172833D01*
X141709546Y-78189865D01*
X141836866Y-78276859D01*
X141988000Y-78307464D01*
X143588000Y-78307464D01*
X143729190Y-78280897D01*
X143858865Y-78197454D01*
X143945859Y-78070134D01*
X143976464Y-77919000D01*
X143976464Y-77704750D01*
X146353000Y-77704750D01*
X146353000Y-78045310D01*
X146449673Y-78278699D01*
X146628302Y-78457327D01*
X146861691Y-78554000D01*
X147502250Y-78554000D01*
X147661000Y-78395250D01*
X147661000Y-77546000D01*
X147915000Y-77546000D01*
X147915000Y-78395250D01*
X148073750Y-78554000D01*
X148714309Y-78554000D01*
X148947698Y-78457327D01*
X149126327Y-78278699D01*
X149223000Y-78045310D01*
X149223000Y-77704750D01*
X149064250Y-77546000D01*
X147915000Y-77546000D01*
X147661000Y-77546000D01*
X146511750Y-77546000D01*
X146353000Y-77704750D01*
X143976464Y-77704750D01*
X143976464Y-76919000D01*
X143952697Y-76792690D01*
X146353000Y-76792690D01*
X146353000Y-77133250D01*
X146511750Y-77292000D01*
X147661000Y-77292000D01*
X147661000Y-76442750D01*
X147502250Y-76284000D01*
X146861691Y-76284000D01*
X146628302Y-76380673D01*
X146449673Y-76559301D01*
X146353000Y-76792690D01*
X143952697Y-76792690D01*
X143949897Y-76777810D01*
X143866454Y-76648135D01*
X143739134Y-76561141D01*
X143588000Y-76530536D01*
X141988000Y-76530536D01*
X141846810Y-76557103D01*
X141717135Y-76640546D01*
X141630141Y-76767866D01*
X141599536Y-76919000D01*
X141599536Y-76937746D01*
X141539597Y-76949669D01*
X141374790Y-77059790D01*
X136214580Y-82220000D01*
X128273959Y-82220000D01*
X128248897Y-82086810D01*
X128165454Y-81957135D01*
X128038134Y-81870141D01*
X127887000Y-81839536D01*
X126287000Y-81839536D01*
X126145810Y-81866103D01*
X126016135Y-81949546D01*
X125929141Y-82076866D01*
X125898536Y-82228000D01*
X123606185Y-82228000D01*
X123581844Y-82211736D01*
X123368000Y-82169200D01*
X123264400Y-82169200D01*
X123248897Y-82086810D01*
X123165454Y-81957135D01*
X123038134Y-81870141D01*
X122887000Y-81839536D01*
X121287000Y-81839536D01*
X121145810Y-81866103D01*
X121016135Y-81949546D01*
X120929141Y-82076866D01*
X120898536Y-82228000D01*
X117208386Y-82228000D01*
X118735068Y-78547608D01*
X122462822Y-76995532D01*
X129659587Y-76995532D01*
X130021309Y-77870966D01*
X130690511Y-78541337D01*
X131565312Y-78904586D01*
X132512532Y-78905413D01*
X133387966Y-78543691D01*
X134058337Y-77874489D01*
X134421586Y-76999688D01*
X134422413Y-76052468D01*
X134060691Y-75177034D01*
X133391489Y-74506663D01*
X132516688Y-74143414D01*
X131569468Y-74142587D01*
X130694034Y-74504309D01*
X130023663Y-75173511D01*
X129660414Y-76048312D01*
X129659587Y-76995532D01*
X122462822Y-76995532D01*
X130332350Y-73719000D01*
X141599536Y-73719000D01*
X141599536Y-74719000D01*
X141626103Y-74860190D01*
X141709546Y-74989865D01*
X141836866Y-75076859D01*
X141988000Y-75107464D01*
X143588000Y-75107464D01*
X143729190Y-75080897D01*
X143858865Y-74997454D01*
X143929211Y-74894499D01*
X143987360Y-75035228D01*
X144165832Y-75214013D01*
X144399137Y-75310889D01*
X144651755Y-75311110D01*
X144885228Y-75214640D01*
X145064013Y-75036168D01*
X145160889Y-74802863D01*
X145161110Y-74550245D01*
X145064640Y-74316772D01*
X144886168Y-74137987D01*
X144701618Y-74061356D01*
X144464131Y-73823869D01*
X144307185Y-73719000D01*
X146599536Y-73719000D01*
X146599536Y-74719000D01*
X146626103Y-74860190D01*
X146709546Y-74989865D01*
X146836866Y-75076859D01*
X146988000Y-75107464D01*
X147306746Y-75107464D01*
X147318669Y-75167403D01*
X147428790Y-75332210D01*
X148380580Y-76284000D01*
X148073750Y-76284000D01*
X147915000Y-76442750D01*
X147915000Y-77292000D01*
X149064250Y-77292000D01*
X149223000Y-77133250D01*
X149223000Y-77126420D01*
X158383790Y-86287211D01*
X158548597Y-86397331D01*
X158743000Y-86436000D01*
X162429041Y-86436000D01*
X162454103Y-86569190D01*
X162537546Y-86698865D01*
X162664866Y-86785859D01*
X162816000Y-86816464D01*
X164416000Y-86816464D01*
X164557190Y-86789897D01*
X164686865Y-86706454D01*
X164773859Y-86579134D01*
X164804464Y-86428000D01*
X164804464Y-86213750D01*
X167181000Y-86213750D01*
X167181000Y-86554310D01*
X167277673Y-86787699D01*
X167456302Y-86966327D01*
X167689691Y-87063000D01*
X168330250Y-87063000D01*
X168489000Y-86904250D01*
X168489000Y-86055000D01*
X167339750Y-86055000D01*
X167181000Y-86213750D01*
X164804464Y-86213750D01*
X164804464Y-85428000D01*
X164780697Y-85301690D01*
X167181000Y-85301690D01*
X167181000Y-85642250D01*
X167339750Y-85801000D01*
X168489000Y-85801000D01*
X168489000Y-84951750D01*
X168330250Y-84793000D01*
X167689691Y-84793000D01*
X167456302Y-84889673D01*
X167277673Y-85068301D01*
X167181000Y-85301690D01*
X164780697Y-85301690D01*
X164777897Y-85286810D01*
X164694454Y-85157135D01*
X164567134Y-85070141D01*
X164416000Y-85039536D01*
X162816000Y-85039536D01*
X162674810Y-85066103D01*
X162545135Y-85149546D01*
X162458141Y-85276866D01*
X162429156Y-85420000D01*
X158953421Y-85420000D01*
X155761421Y-82228000D01*
X162427536Y-82228000D01*
X162427536Y-83228000D01*
X162454103Y-83369190D01*
X162537546Y-83498865D01*
X162664866Y-83585859D01*
X162816000Y-83616464D01*
X164416000Y-83616464D01*
X164557190Y-83589897D01*
X164686865Y-83506454D01*
X164757211Y-83403499D01*
X164815360Y-83544228D01*
X164993832Y-83723013D01*
X165227137Y-83819889D01*
X165479755Y-83820110D01*
X165713228Y-83723640D01*
X165892013Y-83545168D01*
X165988889Y-83311863D01*
X165989110Y-83059245D01*
X165892640Y-82825772D01*
X165714168Y-82646987D01*
X165529618Y-82570356D01*
X165292131Y-82332869D01*
X165135185Y-82228000D01*
X167427536Y-82228000D01*
X167427536Y-83228000D01*
X167454103Y-83369190D01*
X167537546Y-83498865D01*
X167664866Y-83585859D01*
X167816000Y-83616464D01*
X168134746Y-83616464D01*
X168146669Y-83676403D01*
X168256790Y-83841210D01*
X169208580Y-84793000D01*
X168901750Y-84793000D01*
X168743000Y-84951750D01*
X168743000Y-85801000D01*
X168763000Y-85801000D01*
X168763000Y-86055000D01*
X168743000Y-86055000D01*
X168743000Y-86904250D01*
X168901750Y-87063000D01*
X169235001Y-87063000D01*
X169235001Y-104547001D01*
X169273670Y-104741404D01*
X169383791Y-104906211D01*
X170936536Y-106458956D01*
X170936536Y-107129000D01*
X170963103Y-107270190D01*
X171046546Y-107399865D01*
X171173866Y-107486859D01*
X171325000Y-107517464D01*
X172925000Y-107517464D01*
X173066190Y-107490897D01*
X173195865Y-107407454D01*
X173282859Y-107280134D01*
X173313464Y-107129000D01*
X173313464Y-106914750D01*
X175690000Y-106914750D01*
X175690000Y-107255310D01*
X175786673Y-107488699D01*
X175965302Y-107667327D01*
X176198691Y-107764000D01*
X176839250Y-107764000D01*
X176998000Y-107605250D01*
X176998000Y-106756000D01*
X175848750Y-106756000D01*
X175690000Y-106914750D01*
X173313464Y-106914750D01*
X173313464Y-106129000D01*
X173289697Y-106002690D01*
X175690000Y-106002690D01*
X175690000Y-106343250D01*
X175848750Y-106502000D01*
X176998000Y-106502000D01*
X176998000Y-105652750D01*
X176839250Y-105494000D01*
X176198691Y-105494000D01*
X175965302Y-105590673D01*
X175786673Y-105769301D01*
X175690000Y-106002690D01*
X173289697Y-106002690D01*
X173286897Y-105987810D01*
X173203454Y-105858135D01*
X173076134Y-105771141D01*
X172925000Y-105740536D01*
X171654956Y-105740536D01*
X170251001Y-104336581D01*
X170251001Y-102929000D01*
X170936536Y-102929000D01*
X170936536Y-103929000D01*
X170963103Y-104070190D01*
X171046546Y-104199865D01*
X171173866Y-104286859D01*
X171325000Y-104317464D01*
X172925000Y-104317464D01*
X173066190Y-104290897D01*
X173195865Y-104207454D01*
X173266211Y-104104499D01*
X173324360Y-104245228D01*
X173502832Y-104424013D01*
X173736137Y-104520889D01*
X173988755Y-104521110D01*
X174222228Y-104424640D01*
X174401013Y-104246168D01*
X174497889Y-104012863D01*
X174498110Y-103760245D01*
X174401640Y-103526772D01*
X174223168Y-103347987D01*
X174038618Y-103271356D01*
X173801131Y-103033869D01*
X173771139Y-103013829D01*
X173619844Y-102912736D01*
X173406000Y-102870200D01*
X173302400Y-102870200D01*
X173286897Y-102787810D01*
X173203454Y-102658135D01*
X173076134Y-102571141D01*
X172925000Y-102540536D01*
X171325000Y-102540536D01*
X171183810Y-102567103D01*
X171054135Y-102650546D01*
X170967141Y-102777866D01*
X170936536Y-102929000D01*
X170251001Y-102929000D01*
X170251001Y-84609001D01*
X170212332Y-84414598D01*
X170212332Y-84414597D01*
X170102211Y-84249791D01*
X169460509Y-83608089D01*
X169557190Y-83589897D01*
X169686865Y-83506454D01*
X169773859Y-83379134D01*
X169804464Y-83228000D01*
X169804464Y-82228000D01*
X169777897Y-82086810D01*
X169694454Y-81957135D01*
X169567134Y-81870141D01*
X169416000Y-81839536D01*
X167816000Y-81839536D01*
X167674810Y-81866103D01*
X167545135Y-81949546D01*
X167458141Y-82076866D01*
X167427536Y-82228000D01*
X165135185Y-82228000D01*
X165110844Y-82211736D01*
X164897000Y-82169200D01*
X164793400Y-82169200D01*
X164777897Y-82086810D01*
X164694454Y-81957135D01*
X164567134Y-81870141D01*
X164416000Y-81839536D01*
X162816000Y-81839536D01*
X162674810Y-81866103D01*
X162545135Y-81949546D01*
X162458141Y-82076866D01*
X162427536Y-82228000D01*
X155761421Y-82228000D01*
X150528953Y-76995532D01*
X155694587Y-76995532D01*
X156056309Y-77870966D01*
X156725511Y-78541337D01*
X157600312Y-78904586D01*
X158547532Y-78905413D01*
X159422966Y-78543691D01*
X160093337Y-77874489D01*
X160456586Y-76999688D01*
X160457413Y-76052468D01*
X160095691Y-75177034D01*
X159426489Y-74506663D01*
X158551688Y-74143414D01*
X157604468Y-74142587D01*
X156729034Y-74504309D01*
X156058663Y-75173511D01*
X155695414Y-76048312D01*
X155694587Y-76995532D01*
X150528953Y-76995532D01*
X148632509Y-75099089D01*
X148729190Y-75080897D01*
X148858865Y-74997454D01*
X148945859Y-74870134D01*
X148976464Y-74719000D01*
X148976464Y-73719000D01*
X148949897Y-73577810D01*
X148866454Y-73448135D01*
X148739134Y-73361141D01*
X148588000Y-73330536D01*
X146988000Y-73330536D01*
X146846810Y-73357103D01*
X146717135Y-73440546D01*
X146630141Y-73567866D01*
X146599536Y-73719000D01*
X144307185Y-73719000D01*
X144282844Y-73702736D01*
X144069000Y-73660200D01*
X143965400Y-73660200D01*
X143949897Y-73577810D01*
X143866454Y-73448135D01*
X143739134Y-73361141D01*
X143588000Y-73330536D01*
X141988000Y-73330536D01*
X141846810Y-73357103D01*
X141717135Y-73440546D01*
X141630141Y-73567866D01*
X141599536Y-73719000D01*
X130332350Y-73719000D01*
X145286325Y-67492810D01*
X171936609Y-78547743D01*
X171936609Y-78547743D01*
G37*
X171936609Y-78547743D02*
X182892515Y-105098542D01*
X171837257Y-131749609D01*
X145286000Y-142705704D01*
X130245983Y-136499600D01*
X132045516Y-136499600D01*
X132100832Y-136555013D01*
X132334137Y-136651889D01*
X132586755Y-136652110D01*
X132820228Y-136555640D01*
X132999013Y-136377168D01*
X133095889Y-136143863D01*
X133096110Y-135891245D01*
X132999640Y-135657772D01*
X132821168Y-135478987D01*
X132587863Y-135382111D01*
X132335245Y-135381890D01*
X132101772Y-135478360D01*
X132045634Y-135534400D01*
X129358900Y-135534400D01*
X126579250Y-132754750D01*
X126422683Y-132650136D01*
X126238000Y-132613400D01*
X122716484Y-132613400D01*
X122661168Y-132557987D01*
X122427863Y-132461111D01*
X122175245Y-132460890D01*
X121941772Y-132557360D01*
X121762987Y-132735832D01*
X121669631Y-132960659D01*
X118734419Y-131749475D01*
X116739039Y-126957000D01*
X120898536Y-126957000D01*
X120898536Y-127957000D01*
X120925103Y-128098190D01*
X121008546Y-128227865D01*
X121135866Y-128314859D01*
X121287000Y-128345464D01*
X122887000Y-128345464D01*
X123028190Y-128318897D01*
X123157865Y-128235454D01*
X123244859Y-128108134D01*
X123275464Y-127957000D01*
X123275464Y-127742750D01*
X125652000Y-127742750D01*
X125652000Y-128083310D01*
X125748673Y-128316699D01*
X125927302Y-128495327D01*
X126160691Y-128592000D01*
X126801250Y-128592000D01*
X126960000Y-128433250D01*
X126960000Y-127584000D01*
X127214000Y-127584000D01*
X127214000Y-128433250D01*
X127372750Y-128592000D01*
X128013309Y-128592000D01*
X128246698Y-128495327D01*
X128425327Y-128316699D01*
X128522000Y-128083310D01*
X128522000Y-127742750D01*
X128363250Y-127584000D01*
X127214000Y-127584000D01*
X126960000Y-127584000D01*
X125810750Y-127584000D01*
X125652000Y-127742750D01*
X123275464Y-127742750D01*
X123275464Y-126957000D01*
X123251697Y-126830690D01*
X125652000Y-126830690D01*
X125652000Y-127171250D01*
X125810750Y-127330000D01*
X126960000Y-127330000D01*
X126960000Y-126480750D01*
X127214000Y-126480750D01*
X127214000Y-127330000D01*
X128363250Y-127330000D01*
X128522000Y-127171250D01*
X128522000Y-126830690D01*
X128425327Y-126597301D01*
X128246698Y-126418673D01*
X128013309Y-126322000D01*
X127372750Y-126322000D01*
X127214000Y-126480750D01*
X126960000Y-126480750D01*
X126801250Y-126322000D01*
X126160691Y-126322000D01*
X125927302Y-126418673D01*
X125748673Y-126597301D01*
X125652000Y-126830690D01*
X123251697Y-126830690D01*
X123248897Y-126815810D01*
X123165454Y-126686135D01*
X123038134Y-126599141D01*
X122887000Y-126568536D01*
X121287000Y-126568536D01*
X121145810Y-126595103D01*
X121016135Y-126678546D01*
X120929141Y-126805866D01*
X120898536Y-126957000D01*
X116739039Y-126957000D01*
X115406697Y-123757000D01*
X120898536Y-123757000D01*
X120898536Y-124757000D01*
X120925103Y-124898190D01*
X121008546Y-125027865D01*
X121135866Y-125114859D01*
X121287000Y-125145464D01*
X122887000Y-125145464D01*
X123028190Y-125118897D01*
X123157865Y-125035454D01*
X123228211Y-124932499D01*
X123286360Y-125073228D01*
X123464832Y-125252013D01*
X123698137Y-125348889D01*
X123950755Y-125349110D01*
X124184228Y-125252640D01*
X124363013Y-125074168D01*
X124459889Y-124840863D01*
X124460110Y-124588245D01*
X124363640Y-124354772D01*
X124185168Y-124175987D01*
X124000618Y-124099356D01*
X123763131Y-123861869D01*
X123581844Y-123740736D01*
X123368000Y-123698200D01*
X123264400Y-123698200D01*
X123248897Y-123615810D01*
X123165454Y-123486135D01*
X123038134Y-123399141D01*
X122887000Y-123368536D01*
X121287000Y-123368536D01*
X121145810Y-123395103D01*
X121016135Y-123478546D01*
X120929141Y-123605866D01*
X120898536Y-123757000D01*
X115406697Y-123757000D01*
X108067157Y-106129000D01*
X112389536Y-106129000D01*
X112389536Y-107129000D01*
X112416103Y-107270190D01*
X112499546Y-107399865D01*
X112626866Y-107486859D01*
X112778000Y-107517464D01*
X114378000Y-107517464D01*
X114519190Y-107490897D01*
X114648865Y-107407454D01*
X114666388Y-107381808D01*
X126579000Y-119294420D01*
X126579000Y-123368536D01*
X126287000Y-123368536D01*
X126145810Y-123395103D01*
X126016135Y-123478546D01*
X125929141Y-123605866D01*
X125898536Y-123757000D01*
X125898536Y-124757000D01*
X125925103Y-124898190D01*
X126008546Y-125027865D01*
X126135866Y-125114859D01*
X126287000Y-125145464D01*
X127887000Y-125145464D01*
X128028190Y-125118897D01*
X128157865Y-125035454D01*
X128244859Y-124908134D01*
X128275464Y-124757000D01*
X128275464Y-123757000D01*
X128248897Y-123615810D01*
X128165454Y-123486135D01*
X128038134Y-123399141D01*
X127887000Y-123368536D01*
X127595000Y-123368536D01*
X127595000Y-119984074D01*
X127655832Y-120045013D01*
X127889137Y-120141889D01*
X128105736Y-120142078D01*
X135739205Y-127775547D01*
X135739205Y-128652262D01*
X135683792Y-128707578D01*
X135586916Y-128940883D01*
X135586725Y-129158992D01*
X127787408Y-129158992D01*
X127602725Y-129195728D01*
X127446158Y-129300342D01*
X125682542Y-131063958D01*
X125604245Y-131063890D01*
X125370772Y-131160360D01*
X125191987Y-131338832D01*
X125095111Y-131572137D01*
X125094890Y-131824755D01*
X125191360Y-132058228D01*
X125369832Y-132237013D01*
X125603137Y-132333889D01*
X125855755Y-132334110D01*
X126089228Y-132237640D01*
X126268013Y-132059168D01*
X126364889Y-131825863D01*
X126364958Y-131746542D01*
X127987308Y-130124192D01*
X128926265Y-130124192D01*
X128905111Y-130175137D01*
X128904890Y-130427755D01*
X129001360Y-130661228D01*
X129179832Y-130840013D01*
X129413137Y-130936889D01*
X129665755Y-130937110D01*
X129899228Y-130840640D01*
X130078013Y-130662168D01*
X130132644Y-130530601D01*
X132852714Y-130530601D01*
X132842111Y-130556137D01*
X132841890Y-130808755D01*
X132938360Y-131042228D01*
X132959975Y-131063881D01*
X132938987Y-131084832D01*
X132842111Y-131318137D01*
X132841890Y-131570755D01*
X132938360Y-131804228D01*
X133116832Y-131983013D01*
X133350137Y-132079889D01*
X133602755Y-132080110D01*
X133836228Y-131983640D01*
X133892366Y-131927600D01*
X135055100Y-131927600D01*
X136883900Y-133756400D01*
X130463484Y-133756400D01*
X130408168Y-133700987D01*
X130174863Y-133604111D01*
X129922245Y-133603890D01*
X129688772Y-133700360D01*
X129509987Y-133878832D01*
X129413111Y-134112137D01*
X129412890Y-134364755D01*
X129509360Y-134598228D01*
X129687832Y-134777013D01*
X129921137Y-134873889D01*
X130173755Y-134874110D01*
X130407228Y-134777640D01*
X130463366Y-134721600D01*
X137810197Y-134721600D01*
X137891360Y-134918028D01*
X138069832Y-135096813D01*
X138303137Y-135193689D01*
X138555755Y-135193910D01*
X138789228Y-135097440D01*
X138913714Y-134973172D01*
X139471399Y-135530857D01*
X139471399Y-136117457D01*
X139508135Y-136302140D01*
X139612749Y-136458707D01*
X139654467Y-136500425D01*
X139654399Y-136578722D01*
X139750869Y-136812195D01*
X139929341Y-136990980D01*
X140162646Y-137087856D01*
X140415264Y-137088077D01*
X140648737Y-136991607D01*
X140827522Y-136813135D01*
X140924398Y-136579830D01*
X140924619Y-136327212D01*
X140886946Y-136236037D01*
X141000013Y-136123168D01*
X141096889Y-135889863D01*
X141097110Y-135637245D01*
X141000640Y-135403772D01*
X140944600Y-135347634D01*
X140944600Y-135336055D01*
X140944601Y-135336050D01*
X140907864Y-135151367D01*
X140892177Y-135127890D01*
X140803250Y-134994800D01*
X140803247Y-134994798D01*
X138994981Y-133186531D01*
X138859554Y-133096042D01*
X138936755Y-133096110D01*
X139170228Y-132999640D01*
X139349013Y-132821168D01*
X139445889Y-132587863D01*
X139446110Y-132335245D01*
X139349640Y-132101772D01*
X139328025Y-132080119D01*
X139349013Y-132059168D01*
X139403644Y-131927600D01*
X141810294Y-131927600D01*
X141717135Y-131987546D01*
X141630141Y-132114866D01*
X141599536Y-132266000D01*
X141599536Y-133266000D01*
X141626103Y-133407190D01*
X141709546Y-133536865D01*
X141836866Y-133623859D01*
X141988000Y-133654464D01*
X143588000Y-133654464D01*
X143729190Y-133627897D01*
X143858865Y-133544454D01*
X143945859Y-133417134D01*
X143954332Y-133375294D01*
X143987360Y-133455228D01*
X144165832Y-133634013D01*
X144288953Y-133685137D01*
X144638509Y-134034693D01*
X144828037Y-134161331D01*
X144899211Y-134175489D01*
X143871587Y-135203113D01*
X143866454Y-135195135D01*
X143739134Y-135108141D01*
X143588000Y-135077536D01*
X141988000Y-135077536D01*
X141846810Y-135104103D01*
X141717135Y-135187546D01*
X141630141Y-135314866D01*
X141599536Y-135466000D01*
X141599536Y-136466000D01*
X141626103Y-136607190D01*
X141709546Y-136736865D01*
X141836866Y-136823859D01*
X141988000Y-136854464D01*
X143588000Y-136854464D01*
X143729190Y-136827897D01*
X143858865Y-136744454D01*
X143945859Y-136617134D01*
X143976464Y-136466000D01*
X143976464Y-136447254D01*
X144036403Y-136435331D01*
X144201210Y-136325210D01*
X144250294Y-136251750D01*
X146353000Y-136251750D01*
X146353000Y-136592310D01*
X146449673Y-136825699D01*
X146628302Y-137004327D01*
X146861691Y-137101000D01*
X147502250Y-137101000D01*
X147661000Y-136942250D01*
X147661000Y-136093000D01*
X147915000Y-136093000D01*
X147915000Y-136942250D01*
X148073750Y-137101000D01*
X148714309Y-137101000D01*
X148947698Y-137004327D01*
X149126327Y-136825699D01*
X149223000Y-136592310D01*
X149223000Y-136251750D01*
X149064250Y-136093000D01*
X147915000Y-136093000D01*
X147661000Y-136093000D01*
X146511750Y-136093000D01*
X146353000Y-136251750D01*
X144250294Y-136251750D01*
X144311331Y-136160403D01*
X144319285Y-136120415D01*
X145591100Y-134848600D01*
X146819201Y-134848600D01*
X146628302Y-134927673D01*
X146449673Y-135106301D01*
X146353000Y-135339690D01*
X146353000Y-135680250D01*
X146511750Y-135839000D01*
X147661000Y-135839000D01*
X147661000Y-135819000D01*
X147915000Y-135819000D01*
X147915000Y-135839000D01*
X149064250Y-135839000D01*
X149223000Y-135680250D01*
X149223000Y-135339690D01*
X149126327Y-135106301D01*
X148947698Y-134927673D01*
X148756799Y-134848600D01*
X148844000Y-134848600D01*
X149028683Y-134811864D01*
X149185250Y-134707250D01*
X149816898Y-134075601D01*
X164240906Y-134075601D01*
X164368601Y-134101001D01*
X164563004Y-134062332D01*
X164727811Y-133952211D01*
X170102211Y-128577812D01*
X170212332Y-128413005D01*
X170231854Y-128314859D01*
X170251001Y-128218601D01*
X170251001Y-126138001D01*
X170212332Y-125943598D01*
X170212332Y-125943597D01*
X170102211Y-125778791D01*
X169460509Y-125137089D01*
X169557190Y-125118897D01*
X169686865Y-125035454D01*
X169773859Y-124908134D01*
X169804464Y-124757000D01*
X169804464Y-123757000D01*
X169777897Y-123615810D01*
X169694454Y-123486135D01*
X169567134Y-123399141D01*
X169416000Y-123368536D01*
X167816000Y-123368536D01*
X167674810Y-123395103D01*
X167545135Y-123478546D01*
X167458141Y-123605866D01*
X167427536Y-123757000D01*
X167427536Y-124757000D01*
X167454103Y-124898190D01*
X167537546Y-125027865D01*
X167664866Y-125114859D01*
X167816000Y-125145464D01*
X168134746Y-125145464D01*
X168146669Y-125205403D01*
X168256790Y-125370210D01*
X169208580Y-126322000D01*
X168901750Y-126322000D01*
X168743000Y-126480750D01*
X168743000Y-127330000D01*
X168763000Y-127330000D01*
X168763000Y-127584000D01*
X168743000Y-127584000D01*
X168743000Y-128433250D01*
X168776466Y-128466716D01*
X164132781Y-133110401D01*
X160728865Y-133110401D01*
X165894092Y-127945174D01*
X165951410Y-127859391D01*
X166020730Y-127755646D01*
X166023295Y-127742750D01*
X167181000Y-127742750D01*
X167181000Y-128083310D01*
X167277673Y-128316699D01*
X167456302Y-128495327D01*
X167689691Y-128592000D01*
X168330250Y-128592000D01*
X168489000Y-128433250D01*
X168489000Y-127584000D01*
X167339750Y-127584000D01*
X167181000Y-127742750D01*
X166023295Y-127742750D01*
X166065200Y-127532082D01*
X166065200Y-126830690D01*
X167181000Y-126830690D01*
X167181000Y-127171250D01*
X167339750Y-127330000D01*
X168489000Y-127330000D01*
X168489000Y-126480750D01*
X168330250Y-126322000D01*
X167689691Y-126322000D01*
X167456302Y-126418673D01*
X167277673Y-126597301D01*
X167181000Y-126830690D01*
X166065200Y-126830690D01*
X166065200Y-124962937D01*
X166115889Y-124840863D01*
X166116110Y-124588245D01*
X166019640Y-124354772D01*
X165841168Y-124175987D01*
X165656618Y-124099356D01*
X165419131Y-123861869D01*
X165237844Y-123740736D01*
X165024000Y-123698200D01*
X164793400Y-123698200D01*
X164777897Y-123615810D01*
X164694454Y-123486135D01*
X164567134Y-123399141D01*
X164416000Y-123368536D01*
X162996999Y-123368536D01*
X162996999Y-123364023D01*
X178611211Y-107749811D01*
X178721332Y-107585005D01*
X178760001Y-107390601D01*
X178760001Y-105310001D01*
X178741284Y-105215904D01*
X178721332Y-105115597D01*
X178611211Y-104950791D01*
X177969509Y-104309089D01*
X178066190Y-104290897D01*
X178195865Y-104207454D01*
X178282859Y-104080134D01*
X178313464Y-103929000D01*
X178313464Y-102929000D01*
X178286897Y-102787810D01*
X178203454Y-102658135D01*
X178076134Y-102571141D01*
X177925000Y-102540536D01*
X176325000Y-102540536D01*
X176183810Y-102567103D01*
X176054135Y-102650546D01*
X175967141Y-102777866D01*
X175936536Y-102929000D01*
X175936536Y-103929000D01*
X175963103Y-104070190D01*
X176046546Y-104199865D01*
X176173866Y-104286859D01*
X176325000Y-104317464D01*
X176643746Y-104317464D01*
X176655669Y-104377403D01*
X176765790Y-104542210D01*
X177717580Y-105494000D01*
X177410750Y-105494000D01*
X177252000Y-105652750D01*
X177252000Y-106502000D01*
X177272000Y-106502000D01*
X177272000Y-106756000D01*
X177252000Y-106756000D01*
X177252000Y-107605250D01*
X177285466Y-107638716D01*
X162129789Y-122794393D01*
X162019668Y-122959200D01*
X161980999Y-123153603D01*
X161980999Y-126629999D01*
X162019668Y-126824402D01*
X162129789Y-126989209D01*
X162427536Y-127286956D01*
X162427536Y-127957000D01*
X162454103Y-128098190D01*
X162537546Y-128227865D01*
X162664866Y-128314859D01*
X162816000Y-128345464D01*
X163841434Y-128345464D01*
X159635307Y-132551591D01*
X149358291Y-132551591D01*
X149134727Y-132596061D01*
X148976464Y-132701808D01*
X148976464Y-132266000D01*
X148949897Y-132124810D01*
X148866454Y-131995135D01*
X148739134Y-131908141D01*
X148588000Y-131877536D01*
X146988000Y-131877536D01*
X146846810Y-131904103D01*
X146717135Y-131987546D01*
X146630141Y-132114866D01*
X146599536Y-132266000D01*
X146599536Y-132283400D01*
X146046900Y-132283400D01*
X144867250Y-131103750D01*
X144710683Y-130999136D01*
X144526000Y-130962400D01*
X139065000Y-130962400D01*
X138880317Y-130999136D01*
X138783277Y-131063976D01*
X138685245Y-131063890D01*
X138451772Y-131160360D01*
X138322203Y-131289703D01*
X137505747Y-130473247D01*
X137612730Y-130366451D01*
X137709606Y-130133146D01*
X137709827Y-129880528D01*
X137613357Y-129647055D01*
X137434885Y-129468270D01*
X137212406Y-129375889D01*
X137212406Y-128554573D01*
X137212407Y-128554568D01*
X137181838Y-128400893D01*
X137181838Y-127301238D01*
X137145102Y-127116555D01*
X137040488Y-126959988D01*
X132380255Y-122299755D01*
X135762890Y-122299755D01*
X135859360Y-122533228D01*
X135915400Y-122589366D01*
X135915400Y-124587000D01*
X135952136Y-124771683D01*
X136056750Y-124928250D01*
X137413958Y-126285458D01*
X137413890Y-126363755D01*
X137510360Y-126597228D01*
X137688832Y-126776013D01*
X137922137Y-126872889D01*
X138174755Y-126873110D01*
X138408228Y-126776640D01*
X138464366Y-126720600D01*
X158717861Y-126720600D01*
X158719360Y-126724228D01*
X158897832Y-126903013D01*
X159131137Y-126999889D01*
X159383755Y-127000110D01*
X159617228Y-126903640D01*
X159796013Y-126725168D01*
X159892889Y-126491863D01*
X159893110Y-126239245D01*
X159796640Y-126005772D01*
X159618168Y-125826987D01*
X159384863Y-125730111D01*
X159132245Y-125729890D01*
X159070507Y-125755400D01*
X138464484Y-125755400D01*
X138409168Y-125699987D01*
X138175863Y-125603111D01*
X138096541Y-125603042D01*
X136880600Y-124387100D01*
X136880600Y-122589484D01*
X136936013Y-122534168D01*
X137032889Y-122300863D01*
X137033110Y-122048245D01*
X136936640Y-121814772D01*
X136758168Y-121635987D01*
X136524863Y-121539111D01*
X136272245Y-121538890D01*
X136038772Y-121635360D01*
X135859987Y-121813832D01*
X135763111Y-122047137D01*
X135762890Y-122299755D01*
X132380255Y-122299755D01*
X127381042Y-117300542D01*
X127381110Y-117222245D01*
X127284640Y-116988772D01*
X127106168Y-116809987D01*
X126872863Y-116713111D01*
X126620245Y-116712890D01*
X126386772Y-116809360D01*
X126207987Y-116987832D01*
X126111111Y-117221137D01*
X126110964Y-117389544D01*
X115636170Y-106914750D01*
X117143000Y-106914750D01*
X117143000Y-107255310D01*
X117239673Y-107488699D01*
X117418302Y-107667327D01*
X117651691Y-107764000D01*
X118292250Y-107764000D01*
X118451000Y-107605250D01*
X118451000Y-106756000D01*
X118705000Y-106756000D01*
X118705000Y-107605250D01*
X118863750Y-107764000D01*
X119504309Y-107764000D01*
X119737698Y-107667327D01*
X119916327Y-107488699D01*
X120013000Y-107255310D01*
X120013000Y-106914750D01*
X119854250Y-106756000D01*
X118705000Y-106756000D01*
X118451000Y-106756000D01*
X117301750Y-106756000D01*
X117143000Y-106914750D01*
X115636170Y-106914750D01*
X114991210Y-106269790D01*
X114826403Y-106159669D01*
X114766464Y-106147746D01*
X114766464Y-106129000D01*
X114742697Y-106002690D01*
X117143000Y-106002690D01*
X117143000Y-106343250D01*
X117301750Y-106502000D01*
X118451000Y-106502000D01*
X118451000Y-105652750D01*
X118705000Y-105652750D01*
X118705000Y-106502000D01*
X119854250Y-106502000D01*
X120013000Y-106343250D01*
X120013000Y-106002690D01*
X119916327Y-105769301D01*
X119737698Y-105590673D01*
X119504309Y-105494000D01*
X118863750Y-105494000D01*
X118705000Y-105652750D01*
X118451000Y-105652750D01*
X118292250Y-105494000D01*
X117651691Y-105494000D01*
X117418302Y-105590673D01*
X117239673Y-105769301D01*
X117143000Y-106002690D01*
X114742697Y-106002690D01*
X114739897Y-105987810D01*
X114656454Y-105858135D01*
X114529134Y-105771141D01*
X114378000Y-105740536D01*
X112778000Y-105740536D01*
X112636810Y-105767103D01*
X112507135Y-105850546D01*
X112420141Y-105977866D01*
X112389536Y-106129000D01*
X108067157Y-106129000D01*
X107679810Y-105198676D01*
X107903409Y-104659642D01*
X137596139Y-104659642D01*
X137596835Y-105334196D01*
X137596926Y-105422922D01*
X137599582Y-105436202D01*
X137597879Y-105449637D01*
X137648779Y-106172551D01*
X137653680Y-106190494D01*
X137653109Y-106209084D01*
X137754123Y-106813352D01*
X137763102Y-106837065D01*
X137765624Y-106862293D01*
X138003831Y-107643478D01*
X138016582Y-107667250D01*
X138022953Y-107693468D01*
X138520140Y-108764126D01*
X138538445Y-108789174D01*
X138550473Y-108817766D01*
X139209560Y-109792496D01*
X139231139Y-109813838D01*
X139247119Y-109839640D01*
X140049856Y-110699812D01*
X140074361Y-110717439D01*
X140094037Y-110740331D01*
X141022169Y-111467317D01*
X141049433Y-111481101D01*
X141072727Y-111500860D01*
X142108004Y-112076031D01*
X142137850Y-112085617D01*
X142164712Y-112101789D01*
X143288879Y-112506516D01*
X143306318Y-112509138D01*
X143322187Y-112516834D01*
X143370769Y-112529509D01*
X143386094Y-112530412D01*
X143400390Y-112536006D01*
X144034894Y-112649257D01*
X144053708Y-112648886D01*
X144071807Y-112654022D01*
X144819479Y-112714089D01*
X144833544Y-112712447D01*
X144847410Y-112715317D01*
X145631878Y-112721373D01*
X145645913Y-112718694D01*
X145660082Y-112720560D01*
X146404979Y-112671778D01*
X146423660Y-112666773D01*
X146442987Y-112667388D01*
X147071941Y-112562944D01*
X147092617Y-112555140D01*
X147114645Y-112553337D01*
X147650992Y-112400259D01*
X147672025Y-112389459D01*
X147695185Y-112384689D01*
X148786949Y-111923771D01*
X148812738Y-111906285D01*
X148841860Y-111895202D01*
X149845128Y-111266193D01*
X149867390Y-111245188D01*
X149893933Y-111229944D01*
X150785760Y-110451426D01*
X150804568Y-110427030D01*
X150828517Y-110407664D01*
X151585958Y-109498219D01*
X151601108Y-109470362D01*
X151622197Y-109446673D01*
X152222309Y-108424882D01*
X152229933Y-108402959D01*
X152243194Y-108383912D01*
X152521030Y-107747857D01*
X152525410Y-107727847D01*
X152535287Y-107709899D01*
X152789508Y-106907268D01*
X152792507Y-106880210D01*
X152802175Y-106854760D01*
X152941445Y-106027009D01*
X152940745Y-106003402D01*
X152946398Y-105980472D01*
X152988803Y-105046507D01*
X152986502Y-105031386D01*
X152988991Y-105016295D01*
X152965432Y-104300883D01*
X152960981Y-104281810D01*
X152962214Y-104262263D01*
X152848650Y-103415736D01*
X152839884Y-103390119D01*
X152837821Y-103363126D01*
X152613792Y-102561828D01*
X152602711Y-102539957D01*
X152597785Y-102515938D01*
X152245205Y-101678777D01*
X152239291Y-101670039D01*
X152236617Y-101659829D01*
X152199975Y-101584459D01*
X152189705Y-101570918D01*
X152183986Y-101554914D01*
X151560710Y-100514136D01*
X151538949Y-100490108D01*
X151523114Y-100461820D01*
X150748323Y-99554316D01*
X150722594Y-99534026D01*
X150702011Y-99508532D01*
X149785147Y-98743744D01*
X149756724Y-98728259D01*
X149732491Y-98706801D01*
X148682995Y-98094171D01*
X148661538Y-98086773D01*
X148642912Y-98073805D01*
X148006858Y-97795969D01*
X147986847Y-97791589D01*
X147968899Y-97781712D01*
X147166268Y-97527491D01*
X147139209Y-97524492D01*
X147113759Y-97514824D01*
X146286009Y-97375554D01*
X146262402Y-97376254D01*
X146239471Y-97370601D01*
X145305507Y-97328196D01*
X145290386Y-97330497D01*
X145275295Y-97328008D01*
X144559883Y-97351567D01*
X144540810Y-97356018D01*
X144521263Y-97354785D01*
X143674736Y-97468349D01*
X143649119Y-97477115D01*
X143622126Y-97479178D01*
X142820828Y-97703207D01*
X142798957Y-97714288D01*
X142774938Y-97719214D01*
X141937777Y-98071794D01*
X141923523Y-98081441D01*
X141907031Y-98086370D01*
X141414712Y-98346943D01*
X141396333Y-98361901D01*
X141374617Y-98371396D01*
X140403234Y-99048197D01*
X140381605Y-99070686D01*
X140355384Y-99087602D01*
X139943596Y-99486337D01*
X139943593Y-99486339D01*
X139505067Y-99910965D01*
X139487649Y-99936145D01*
X139464848Y-99956577D01*
X138754178Y-100903560D01*
X138740863Y-100931306D01*
X138721472Y-100955206D01*
X138169032Y-102002861D01*
X138160015Y-102033200D01*
X138144327Y-102060694D01*
X137768697Y-103186080D01*
X137766576Y-103202850D01*
X137759501Y-103218199D01*
X137755566Y-103234594D01*
X137755001Y-103248997D01*
X137749947Y-103262499D01*
X137650507Y-103871686D01*
X137651140Y-103889997D01*
X137646355Y-103907680D01*
X137641027Y-103986024D01*
X137641026Y-103986028D01*
X137597028Y-104633056D01*
X137598754Y-104646422D01*
X137596139Y-104659642D01*
X107903409Y-104659642D01*
X108621305Y-102929000D01*
X112389536Y-102929000D01*
X112389536Y-103929000D01*
X112416103Y-104070190D01*
X112499546Y-104199865D01*
X112626866Y-104286859D01*
X112778000Y-104317464D01*
X114378000Y-104317464D01*
X114519190Y-104290897D01*
X114648865Y-104207454D01*
X114735859Y-104080134D01*
X114744332Y-104038294D01*
X114777360Y-104118228D01*
X114955832Y-104297013D01*
X115189137Y-104393889D01*
X115441755Y-104394110D01*
X115675228Y-104297640D01*
X115854013Y-104119168D01*
X115950889Y-103885863D01*
X115951110Y-103633245D01*
X115854640Y-103399772D01*
X115676168Y-103220987D01*
X115491618Y-103144356D01*
X115381131Y-103033869D01*
X115351139Y-103013829D01*
X115224185Y-102929000D01*
X117389536Y-102929000D01*
X117389536Y-103929000D01*
X117416103Y-104070190D01*
X117499546Y-104199865D01*
X117626866Y-104286859D01*
X117778000Y-104317464D01*
X119378000Y-104317464D01*
X119519190Y-104290897D01*
X119648865Y-104207454D01*
X119735859Y-104080134D01*
X119766464Y-103929000D01*
X119766464Y-103258956D01*
X122446210Y-100579210D01*
X122556331Y-100414404D01*
X122564376Y-100373959D01*
X122595000Y-100220000D01*
X122595000Y-86816464D01*
X122887000Y-86816464D01*
X123028190Y-86789897D01*
X123157865Y-86706454D01*
X123244859Y-86579134D01*
X123275464Y-86428000D01*
X123275464Y-86213750D01*
X125652000Y-86213750D01*
X125652000Y-86554310D01*
X125748673Y-86787699D01*
X125927302Y-86966327D01*
X126160691Y-87063000D01*
X126801250Y-87063000D01*
X126960000Y-86904250D01*
X126960000Y-86055000D01*
X127214000Y-86055000D01*
X127214000Y-86904250D01*
X127372750Y-87063000D01*
X128013309Y-87063000D01*
X128246698Y-86966327D01*
X128425327Y-86787699D01*
X128522000Y-86554310D01*
X128522000Y-86213750D01*
X128363250Y-86055000D01*
X127214000Y-86055000D01*
X126960000Y-86055000D01*
X125810750Y-86055000D01*
X125652000Y-86213750D01*
X123275464Y-86213750D01*
X123275464Y-85428000D01*
X123251697Y-85301690D01*
X125652000Y-85301690D01*
X125652000Y-85642250D01*
X125810750Y-85801000D01*
X126960000Y-85801000D01*
X126960000Y-84951750D01*
X127214000Y-84951750D01*
X127214000Y-85801000D01*
X128363250Y-85801000D01*
X128522000Y-85642250D01*
X128522000Y-85301690D01*
X128425327Y-85068301D01*
X128246698Y-84889673D01*
X128013309Y-84793000D01*
X127372750Y-84793000D01*
X127214000Y-84951750D01*
X126960000Y-84951750D01*
X126801250Y-84793000D01*
X126160691Y-84793000D01*
X125927302Y-84889673D01*
X125748673Y-85068301D01*
X125652000Y-85301690D01*
X123251697Y-85301690D01*
X123248897Y-85286810D01*
X123165454Y-85157135D01*
X123038134Y-85070141D01*
X122887000Y-85039536D01*
X121287000Y-85039536D01*
X121145810Y-85066103D01*
X121016135Y-85149546D01*
X120929141Y-85276866D01*
X120898536Y-85428000D01*
X120898536Y-86428000D01*
X120925103Y-86569190D01*
X121008546Y-86698865D01*
X121135866Y-86785859D01*
X121287000Y-86816464D01*
X121579000Y-86816464D01*
X121579000Y-100009580D01*
X119048044Y-102540536D01*
X117778000Y-102540536D01*
X117636810Y-102567103D01*
X117507135Y-102650546D01*
X117420141Y-102777866D01*
X117389536Y-102929000D01*
X115224185Y-102929000D01*
X115199844Y-102912736D01*
X114986000Y-102870200D01*
X114755400Y-102870200D01*
X114739897Y-102787810D01*
X114656454Y-102658135D01*
X114529134Y-102571141D01*
X114378000Y-102540536D01*
X112778000Y-102540536D01*
X112636810Y-102567103D01*
X112507135Y-102650546D01*
X112420141Y-102777866D01*
X112389536Y-102929000D01*
X108621305Y-102929000D01*
X117208386Y-82228000D01*
X120898536Y-82228000D01*
X120898536Y-83228000D01*
X120925103Y-83369190D01*
X121008546Y-83498865D01*
X121135866Y-83585859D01*
X121287000Y-83616464D01*
X122887000Y-83616464D01*
X123028190Y-83589897D01*
X123157865Y-83506454D01*
X123228211Y-83403499D01*
X123286360Y-83544228D01*
X123464832Y-83723013D01*
X123698137Y-83819889D01*
X123950755Y-83820110D01*
X124184228Y-83723640D01*
X124363013Y-83545168D01*
X124459889Y-83311863D01*
X124460110Y-83059245D01*
X124363640Y-82825772D01*
X124185168Y-82646987D01*
X124000618Y-82570356D01*
X123763131Y-82332869D01*
X123606185Y-82228000D01*
X125898536Y-82228000D01*
X125898536Y-83228000D01*
X125925103Y-83369190D01*
X126008546Y-83498865D01*
X126135866Y-83585859D01*
X126287000Y-83616464D01*
X127887000Y-83616464D01*
X128028190Y-83589897D01*
X128157865Y-83506454D01*
X128244859Y-83379134D01*
X128273844Y-83236000D01*
X136425000Y-83236000D01*
X136619403Y-83197331D01*
X136784210Y-83087210D01*
X141698587Y-78172833D01*
X141709546Y-78189865D01*
X141836866Y-78276859D01*
X141988000Y-78307464D01*
X143588000Y-78307464D01*
X143729190Y-78280897D01*
X143858865Y-78197454D01*
X143945859Y-78070134D01*
X143976464Y-77919000D01*
X143976464Y-77704750D01*
X146353000Y-77704750D01*
X146353000Y-78045310D01*
X146449673Y-78278699D01*
X146628302Y-78457327D01*
X146861691Y-78554000D01*
X147502250Y-78554000D01*
X147661000Y-78395250D01*
X147661000Y-77546000D01*
X147915000Y-77546000D01*
X147915000Y-78395250D01*
X148073750Y-78554000D01*
X148714309Y-78554000D01*
X148947698Y-78457327D01*
X149126327Y-78278699D01*
X149223000Y-78045310D01*
X149223000Y-77704750D01*
X149064250Y-77546000D01*
X147915000Y-77546000D01*
X147661000Y-77546000D01*
X146511750Y-77546000D01*
X146353000Y-77704750D01*
X143976464Y-77704750D01*
X143976464Y-76919000D01*
X143952697Y-76792690D01*
X146353000Y-76792690D01*
X146353000Y-77133250D01*
X146511750Y-77292000D01*
X147661000Y-77292000D01*
X147661000Y-76442750D01*
X147502250Y-76284000D01*
X146861691Y-76284000D01*
X146628302Y-76380673D01*
X146449673Y-76559301D01*
X146353000Y-76792690D01*
X143952697Y-76792690D01*
X143949897Y-76777810D01*
X143866454Y-76648135D01*
X143739134Y-76561141D01*
X143588000Y-76530536D01*
X141988000Y-76530536D01*
X141846810Y-76557103D01*
X141717135Y-76640546D01*
X141630141Y-76767866D01*
X141599536Y-76919000D01*
X141599536Y-76937746D01*
X141539597Y-76949669D01*
X141374790Y-77059790D01*
X136214580Y-82220000D01*
X128273959Y-82220000D01*
X128248897Y-82086810D01*
X128165454Y-81957135D01*
X128038134Y-81870141D01*
X127887000Y-81839536D01*
X126287000Y-81839536D01*
X126145810Y-81866103D01*
X126016135Y-81949546D01*
X125929141Y-82076866D01*
X125898536Y-82228000D01*
X123606185Y-82228000D01*
X123581844Y-82211736D01*
X123368000Y-82169200D01*
X123264400Y-82169200D01*
X123248897Y-82086810D01*
X123165454Y-81957135D01*
X123038134Y-81870141D01*
X122887000Y-81839536D01*
X121287000Y-81839536D01*
X121145810Y-81866103D01*
X121016135Y-81949546D01*
X120929141Y-82076866D01*
X120898536Y-82228000D01*
X117208386Y-82228000D01*
X118735068Y-78547608D01*
X122462822Y-76995532D01*
X129659587Y-76995532D01*
X130021309Y-77870966D01*
X130690511Y-78541337D01*
X131565312Y-78904586D01*
X132512532Y-78905413D01*
X133387966Y-78543691D01*
X134058337Y-77874489D01*
X134421586Y-76999688D01*
X134422413Y-76052468D01*
X134060691Y-75177034D01*
X133391489Y-74506663D01*
X132516688Y-74143414D01*
X131569468Y-74142587D01*
X130694034Y-74504309D01*
X130023663Y-75173511D01*
X129660414Y-76048312D01*
X129659587Y-76995532D01*
X122462822Y-76995532D01*
X130332350Y-73719000D01*
X141599536Y-73719000D01*
X141599536Y-74719000D01*
X141626103Y-74860190D01*
X141709546Y-74989865D01*
X141836866Y-75076859D01*
X141988000Y-75107464D01*
X143588000Y-75107464D01*
X143729190Y-75080897D01*
X143858865Y-74997454D01*
X143929211Y-74894499D01*
X143987360Y-75035228D01*
X144165832Y-75214013D01*
X144399137Y-75310889D01*
X144651755Y-75311110D01*
X144885228Y-75214640D01*
X145064013Y-75036168D01*
X145160889Y-74802863D01*
X145161110Y-74550245D01*
X145064640Y-74316772D01*
X144886168Y-74137987D01*
X144701618Y-74061356D01*
X144464131Y-73823869D01*
X144307185Y-73719000D01*
X146599536Y-73719000D01*
X146599536Y-74719000D01*
X146626103Y-74860190D01*
X146709546Y-74989865D01*
X146836866Y-75076859D01*
X146988000Y-75107464D01*
X147306746Y-75107464D01*
X147318669Y-75167403D01*
X147428790Y-75332210D01*
X148380580Y-76284000D01*
X148073750Y-76284000D01*
X147915000Y-76442750D01*
X147915000Y-77292000D01*
X149064250Y-77292000D01*
X149223000Y-77133250D01*
X149223000Y-77126420D01*
X158383790Y-86287211D01*
X158548597Y-86397331D01*
X158743000Y-86436000D01*
X162429041Y-86436000D01*
X162454103Y-86569190D01*
X162537546Y-86698865D01*
X162664866Y-86785859D01*
X162816000Y-86816464D01*
X164416000Y-86816464D01*
X164557190Y-86789897D01*
X164686865Y-86706454D01*
X164773859Y-86579134D01*
X164804464Y-86428000D01*
X164804464Y-86213750D01*
X167181000Y-86213750D01*
X167181000Y-86554310D01*
X167277673Y-86787699D01*
X167456302Y-86966327D01*
X167689691Y-87063000D01*
X168330250Y-87063000D01*
X168489000Y-86904250D01*
X168489000Y-86055000D01*
X167339750Y-86055000D01*
X167181000Y-86213750D01*
X164804464Y-86213750D01*
X164804464Y-85428000D01*
X164780697Y-85301690D01*
X167181000Y-85301690D01*
X167181000Y-85642250D01*
X167339750Y-85801000D01*
X168489000Y-85801000D01*
X168489000Y-84951750D01*
X168330250Y-84793000D01*
X167689691Y-84793000D01*
X167456302Y-84889673D01*
X167277673Y-85068301D01*
X167181000Y-85301690D01*
X164780697Y-85301690D01*
X164777897Y-85286810D01*
X164694454Y-85157135D01*
X164567134Y-85070141D01*
X164416000Y-85039536D01*
X162816000Y-85039536D01*
X162674810Y-85066103D01*
X162545135Y-85149546D01*
X162458141Y-85276866D01*
X162429156Y-85420000D01*
X158953421Y-85420000D01*
X155761421Y-82228000D01*
X162427536Y-82228000D01*
X162427536Y-83228000D01*
X162454103Y-83369190D01*
X162537546Y-83498865D01*
X162664866Y-83585859D01*
X162816000Y-83616464D01*
X164416000Y-83616464D01*
X164557190Y-83589897D01*
X164686865Y-83506454D01*
X164757211Y-83403499D01*
X164815360Y-83544228D01*
X164993832Y-83723013D01*
X165227137Y-83819889D01*
X165479755Y-83820110D01*
X165713228Y-83723640D01*
X165892013Y-83545168D01*
X165988889Y-83311863D01*
X165989110Y-83059245D01*
X165892640Y-82825772D01*
X165714168Y-82646987D01*
X165529618Y-82570356D01*
X165292131Y-82332869D01*
X165135185Y-82228000D01*
X167427536Y-82228000D01*
X167427536Y-83228000D01*
X167454103Y-83369190D01*
X167537546Y-83498865D01*
X167664866Y-83585859D01*
X167816000Y-83616464D01*
X168134746Y-83616464D01*
X168146669Y-83676403D01*
X168256790Y-83841210D01*
X169208580Y-84793000D01*
X168901750Y-84793000D01*
X168743000Y-84951750D01*
X168743000Y-85801000D01*
X168763000Y-85801000D01*
X168763000Y-86055000D01*
X168743000Y-86055000D01*
X168743000Y-86904250D01*
X168901750Y-87063000D01*
X169235001Y-87063000D01*
X169235001Y-104547001D01*
X169273670Y-104741404D01*
X169383791Y-104906211D01*
X170936536Y-106458956D01*
X170936536Y-107129000D01*
X170963103Y-107270190D01*
X171046546Y-107399865D01*
X171173866Y-107486859D01*
X171325000Y-107517464D01*
X172925000Y-107517464D01*
X173066190Y-107490897D01*
X173195865Y-107407454D01*
X173282859Y-107280134D01*
X173313464Y-107129000D01*
X173313464Y-106914750D01*
X175690000Y-106914750D01*
X175690000Y-107255310D01*
X175786673Y-107488699D01*
X175965302Y-107667327D01*
X176198691Y-107764000D01*
X176839250Y-107764000D01*
X176998000Y-107605250D01*
X176998000Y-106756000D01*
X175848750Y-106756000D01*
X175690000Y-106914750D01*
X173313464Y-106914750D01*
X173313464Y-106129000D01*
X173289697Y-106002690D01*
X175690000Y-106002690D01*
X175690000Y-106343250D01*
X175848750Y-106502000D01*
X176998000Y-106502000D01*
X176998000Y-105652750D01*
X176839250Y-105494000D01*
X176198691Y-105494000D01*
X175965302Y-105590673D01*
X175786673Y-105769301D01*
X175690000Y-106002690D01*
X173289697Y-106002690D01*
X173286897Y-105987810D01*
X173203454Y-105858135D01*
X173076134Y-105771141D01*
X172925000Y-105740536D01*
X171654956Y-105740536D01*
X170251001Y-104336581D01*
X170251001Y-102929000D01*
X170936536Y-102929000D01*
X170936536Y-103929000D01*
X170963103Y-104070190D01*
X171046546Y-104199865D01*
X171173866Y-104286859D01*
X171325000Y-104317464D01*
X172925000Y-104317464D01*
X173066190Y-104290897D01*
X173195865Y-104207454D01*
X173266211Y-104104499D01*
X173324360Y-104245228D01*
X173502832Y-104424013D01*
X173736137Y-104520889D01*
X173988755Y-104521110D01*
X174222228Y-104424640D01*
X174401013Y-104246168D01*
X174497889Y-104012863D01*
X174498110Y-103760245D01*
X174401640Y-103526772D01*
X174223168Y-103347987D01*
X174038618Y-103271356D01*
X173801131Y-103033869D01*
X173771139Y-103013829D01*
X173619844Y-102912736D01*
X173406000Y-102870200D01*
X173302400Y-102870200D01*
X173286897Y-102787810D01*
X173203454Y-102658135D01*
X173076134Y-102571141D01*
X172925000Y-102540536D01*
X171325000Y-102540536D01*
X171183810Y-102567103D01*
X171054135Y-102650546D01*
X170967141Y-102777866D01*
X170936536Y-102929000D01*
X170251001Y-102929000D01*
X170251001Y-84609001D01*
X170212332Y-84414598D01*
X170212332Y-84414597D01*
X170102211Y-84249791D01*
X169460509Y-83608089D01*
X169557190Y-83589897D01*
X169686865Y-83506454D01*
X169773859Y-83379134D01*
X169804464Y-83228000D01*
X169804464Y-82228000D01*
X169777897Y-82086810D01*
X169694454Y-81957135D01*
X169567134Y-81870141D01*
X169416000Y-81839536D01*
X167816000Y-81839536D01*
X167674810Y-81866103D01*
X167545135Y-81949546D01*
X167458141Y-82076866D01*
X167427536Y-82228000D01*
X165135185Y-82228000D01*
X165110844Y-82211736D01*
X164897000Y-82169200D01*
X164793400Y-82169200D01*
X164777897Y-82086810D01*
X164694454Y-81957135D01*
X164567134Y-81870141D01*
X164416000Y-81839536D01*
X162816000Y-81839536D01*
X162674810Y-81866103D01*
X162545135Y-81949546D01*
X162458141Y-82076866D01*
X162427536Y-82228000D01*
X155761421Y-82228000D01*
X150528953Y-76995532D01*
X155694587Y-76995532D01*
X156056309Y-77870966D01*
X156725511Y-78541337D01*
X157600312Y-78904586D01*
X158547532Y-78905413D01*
X159422966Y-78543691D01*
X160093337Y-77874489D01*
X160456586Y-76999688D01*
X160457413Y-76052468D01*
X160095691Y-75177034D01*
X159426489Y-74506663D01*
X158551688Y-74143414D01*
X157604468Y-74142587D01*
X156729034Y-74504309D01*
X156058663Y-75173511D01*
X155695414Y-76048312D01*
X155694587Y-76995532D01*
X150528953Y-76995532D01*
X148632509Y-75099089D01*
X148729190Y-75080897D01*
X148858865Y-74997454D01*
X148945859Y-74870134D01*
X148976464Y-74719000D01*
X148976464Y-73719000D01*
X148949897Y-73577810D01*
X148866454Y-73448135D01*
X148739134Y-73361141D01*
X148588000Y-73330536D01*
X146988000Y-73330536D01*
X146846810Y-73357103D01*
X146717135Y-73440546D01*
X146630141Y-73567866D01*
X146599536Y-73719000D01*
X144307185Y-73719000D01*
X144282844Y-73702736D01*
X144069000Y-73660200D01*
X143965400Y-73660200D01*
X143949897Y-73577810D01*
X143866454Y-73448135D01*
X143739134Y-73361141D01*
X143588000Y-73330536D01*
X141988000Y-73330536D01*
X141846810Y-73357103D01*
X141717135Y-73440546D01*
X141630141Y-73567866D01*
X141599536Y-73719000D01*
X130332350Y-73719000D01*
X145286325Y-67492810D01*
X171936609Y-78547743D01*
M02*
