G04 #@! TF.FileFunction,Copper,L2,Bot,Signal*
%FSLAX46Y46*%
G04 Gerber Fmt 4.6, Leading zero omitted, Abs format (unit mm)*
G04 Created by KiCad (PCBNEW 4.0.2-stable) date 7/20/2016 11:09:08 PM*
%MOMM*%
G01*
G04 APERTURE LIST*
%ADD10C,0.100000*%
%ADD11R,0.500000X0.900000*%
%ADD12C,4.000000*%
%ADD13R,0.800000X0.750000*%
%ADD14R,0.750000X0.800000*%
%ADD15R,0.550000X1.600000*%
%ADD16R,1.600000X0.550000*%
%ADD17R,1.550000X0.600000*%
%ADD18C,1.500000*%
%ADD19R,5.600700X2.100580*%
%ADD20C,1.397000*%
%ADD21C,0.508000*%
%ADD22C,0.254000*%
%ADD23C,0.203200*%
%ADD24C,0.508000*%
%ADD25C,0.406400*%
%ADD26C,0.355600*%
%ADD27C,0.304800*%
G04 APERTURE END LIST*
D10*
D11*
X146927000Y-131445000D03*
X145427000Y-131445000D03*
D12*
X158076000Y-76524000D03*
X132041000Y-76524000D03*
D13*
X131191000Y-120396000D03*
X129691000Y-120396000D03*
X140945999Y-120396000D03*
X139445999Y-120396000D03*
D14*
X129540000Y-129020000D03*
X129540000Y-127520000D03*
X129540000Y-133084000D03*
X129540000Y-131584000D03*
D13*
X145922999Y-125476000D03*
X147422999Y-125476000D03*
D10*
G36*
X155981498Y-131356810D02*
X155694486Y-130663901D01*
X156433590Y-130357754D01*
X156720602Y-131050663D01*
X155981498Y-131356810D01*
X155981498Y-131356810D01*
G37*
G36*
X157367318Y-130782784D02*
X157080306Y-130089875D01*
X157819410Y-129783728D01*
X158106422Y-130476637D01*
X157367318Y-130782784D01*
X157367318Y-130782784D01*
G37*
G36*
X155720223Y-126377789D02*
X156413132Y-126090777D01*
X156719279Y-126829881D01*
X156026370Y-127116893D01*
X155720223Y-126377789D01*
X155720223Y-126377789D01*
G37*
G36*
X156294249Y-127763609D02*
X156987158Y-127476597D01*
X157293305Y-128215701D01*
X156600396Y-128502713D01*
X156294249Y-127763609D01*
X156294249Y-127763609D01*
G37*
D13*
X144526000Y-134366000D03*
X146026000Y-134366000D03*
X165493000Y-125857000D03*
X166993000Y-125857000D03*
X173875000Y-105029000D03*
X175375000Y-105029000D03*
X165378000Y-84328000D03*
X166878000Y-84328000D03*
X144550000Y-75819000D03*
X146050000Y-75819000D03*
X123837000Y-84328000D03*
X125337000Y-84328000D03*
X115340000Y-105029000D03*
X116840000Y-105029000D03*
X123837000Y-125857000D03*
X125337000Y-125857000D03*
D10*
G36*
X161472575Y-129120215D02*
X161644782Y-129535961D01*
X161099693Y-129761745D01*
X160927486Y-129345999D01*
X161472575Y-129120215D01*
X161472575Y-129120215D01*
G37*
G36*
X159523189Y-129927677D02*
X159695396Y-130343423D01*
X159150307Y-130569207D01*
X158978100Y-130153461D01*
X159523189Y-129927677D01*
X159523189Y-129927677D01*
G37*
D15*
X133344000Y-127576000D03*
X134144000Y-127576000D03*
X134944000Y-127576000D03*
X135744000Y-127576000D03*
X136544000Y-127576000D03*
X137344000Y-127576000D03*
X138144000Y-127576000D03*
X138944000Y-127576000D03*
D16*
X140394000Y-129026000D03*
X140394000Y-129826000D03*
X140394000Y-130626000D03*
X140394000Y-131426000D03*
X140394000Y-132226000D03*
X140394000Y-133026000D03*
X140394000Y-133826000D03*
X140394000Y-134626000D03*
D15*
X138944000Y-136076000D03*
X138144000Y-136076000D03*
X137344000Y-136076000D03*
X136544000Y-136076000D03*
X135744000Y-136076000D03*
X134944000Y-136076000D03*
X134144000Y-136076000D03*
X133344000Y-136076000D03*
D16*
X131894000Y-134626000D03*
X131894000Y-133826000D03*
X131894000Y-133026000D03*
X131894000Y-132226000D03*
X131894000Y-131426000D03*
X131894000Y-130626000D03*
X131894000Y-129826000D03*
X131894000Y-129026000D03*
D10*
G36*
X156613833Y-135932666D02*
X157340932Y-137688037D01*
X155585561Y-138415136D01*
X154858462Y-136659765D01*
X156613833Y-135932666D01*
X156613833Y-135932666D01*
G37*
G36*
X158831144Y-135014226D02*
X159558243Y-136769597D01*
X157802872Y-137496696D01*
X157075773Y-135741325D01*
X158831144Y-135014226D01*
X158831144Y-135014226D01*
G37*
G36*
X157829430Y-134292053D02*
X157459878Y-134445126D01*
X156943256Y-133197889D01*
X157312808Y-133044816D01*
X157829430Y-134292053D01*
X157829430Y-134292053D01*
G37*
G36*
X157228908Y-134540798D02*
X156859356Y-134693871D01*
X156342734Y-133446634D01*
X156712286Y-133293561D01*
X157228908Y-134540798D01*
X157228908Y-134540798D01*
G37*
G36*
X156628386Y-134789542D02*
X156258834Y-134942615D01*
X155742212Y-133695378D01*
X156111764Y-133542305D01*
X156628386Y-134789542D01*
X156628386Y-134789542D01*
G37*
G36*
X156027865Y-135038286D02*
X155658313Y-135191359D01*
X155141691Y-133944122D01*
X155511243Y-133791049D01*
X156027865Y-135038286D01*
X156027865Y-135038286D01*
G37*
G36*
X155427343Y-135287030D02*
X155057791Y-135440103D01*
X154541169Y-134192866D01*
X154910721Y-134039793D01*
X155427343Y-135287030D01*
X155427343Y-135287030D01*
G37*
G36*
X159761088Y-132030705D02*
X160373381Y-133508912D01*
X158433234Y-134312547D01*
X157820941Y-132834340D01*
X159761088Y-132030705D01*
X159761088Y-132030705D01*
G37*
G36*
X154033242Y-134403841D02*
X154645535Y-135882048D01*
X152705388Y-136685683D01*
X152093095Y-135207476D01*
X154033242Y-134403841D01*
X154033242Y-134403841D01*
G37*
G36*
X161187037Y-134038383D02*
X161914136Y-135793754D01*
X160251153Y-136482585D01*
X159524054Y-134727214D01*
X161187037Y-134038383D01*
X161187037Y-134038383D01*
G37*
G36*
X154165552Y-136946777D02*
X154892651Y-138702148D01*
X153229668Y-139390979D01*
X152502569Y-137635608D01*
X154165552Y-136946777D01*
X154165552Y-136946777D01*
G37*
G36*
X159203883Y-128740556D02*
X158464687Y-129046742D01*
X158158501Y-128307546D01*
X158897697Y-128001360D01*
X159203883Y-128740556D01*
X159203883Y-128740556D01*
G37*
G36*
X158476784Y-126985185D02*
X157737588Y-127291371D01*
X157431402Y-126552175D01*
X158170598Y-126245989D01*
X158476784Y-126985185D01*
X158476784Y-126985185D01*
G37*
G36*
X160687150Y-127097894D02*
X159947954Y-127404080D01*
X159641768Y-126664884D01*
X160380964Y-126358698D01*
X160687150Y-127097894D01*
X160687150Y-127097894D01*
G37*
D11*
X144538000Y-140081000D03*
X146038000Y-140081000D03*
X144538000Y-138303000D03*
X146038000Y-138303000D03*
D10*
G36*
X160875444Y-132160127D02*
X160531029Y-131328635D01*
X160992968Y-131137293D01*
X161337383Y-131968785D01*
X160875444Y-132160127D01*
X160875444Y-132160127D01*
G37*
G36*
X162261264Y-131586101D02*
X161916849Y-130754609D01*
X162378788Y-130563267D01*
X162723203Y-131394759D01*
X162261264Y-131586101D01*
X162261264Y-131586101D01*
G37*
D11*
X145923000Y-123698000D03*
X147423000Y-123698000D03*
D10*
G36*
X152737556Y-130627713D02*
X151906064Y-130972128D01*
X151714722Y-130510189D01*
X152546214Y-130165774D01*
X152737556Y-130627713D01*
X152737556Y-130627713D01*
G37*
G36*
X152163530Y-129241893D02*
X151332038Y-129586308D01*
X151140696Y-129124369D01*
X151972188Y-128779954D01*
X152163530Y-129241893D01*
X152163530Y-129241893D01*
G37*
D17*
X118458000Y-121285000D03*
X118458000Y-120015000D03*
X118458000Y-118745000D03*
X118458000Y-117475000D03*
X123858000Y-117475000D03*
X123858000Y-118745000D03*
X123858000Y-120015000D03*
X123858000Y-121285000D03*
D10*
G36*
X152448604Y-127542495D02*
X153049126Y-127293751D01*
X153454770Y-128273063D01*
X152854248Y-128521807D01*
X152448604Y-127542495D01*
X152448604Y-127542495D01*
G37*
G36*
X153326289Y-127178946D02*
X153926811Y-126930202D01*
X154332455Y-127909514D01*
X153731933Y-128158258D01*
X153326289Y-127178946D01*
X153326289Y-127178946D01*
G37*
G36*
X154203975Y-126815396D02*
X154804497Y-126566652D01*
X155210141Y-127545964D01*
X154609619Y-127794708D01*
X154203975Y-126815396D01*
X154203975Y-126815396D01*
G37*
G36*
X155045878Y-128847931D02*
X155646400Y-128599187D01*
X156052044Y-129578499D01*
X155451522Y-129827243D01*
X155045878Y-128847931D01*
X155045878Y-128847931D01*
G37*
G36*
X153290507Y-129575030D02*
X153891029Y-129326286D01*
X154296673Y-130305598D01*
X153696151Y-130554342D01*
X153290507Y-129575030D01*
X153290507Y-129575030D01*
G37*
D18*
X143256000Y-127508000D03*
X146050000Y-127508000D03*
X143256000Y-131445000D03*
D19*
X131272279Y-123952001D03*
X140969999Y-123952001D03*
D13*
X122022999Y-115570000D03*
X120522999Y-115570000D03*
D10*
G36*
X163729913Y-112465495D02*
X164686622Y-114775193D01*
X163577967Y-115234413D01*
X162621258Y-112924715D01*
X163729913Y-112465495D01*
X163729913Y-112465495D01*
G37*
G36*
X161420214Y-113422203D02*
X162376923Y-115731901D01*
X161268268Y-116191121D01*
X160311559Y-113881423D01*
X161420214Y-113422203D01*
X161420214Y-113422203D01*
G37*
G36*
X159110515Y-114378912D02*
X160067224Y-116688610D01*
X158958569Y-117147830D01*
X158001860Y-114838132D01*
X159110515Y-114378912D01*
X159110515Y-114378912D01*
G37*
G36*
X165834671Y-117546832D02*
X166791380Y-119856530D01*
X165682725Y-120315750D01*
X164726016Y-118006052D01*
X165834671Y-117546832D01*
X165834671Y-117546832D01*
G37*
G36*
X163524973Y-118503541D02*
X164481682Y-120813239D01*
X163373027Y-121272459D01*
X162416318Y-118962761D01*
X163524973Y-118503541D01*
X163524973Y-118503541D01*
G37*
G36*
X161215274Y-119460249D02*
X162171983Y-121769947D01*
X161063328Y-122229167D01*
X160106619Y-119919469D01*
X161215274Y-119460249D01*
X161215274Y-119460249D01*
G37*
G36*
X125815621Y-132931709D02*
X127106280Y-133466318D01*
X126571671Y-134756977D01*
X125281012Y-134222368D01*
X125815621Y-132931709D01*
X125815621Y-132931709D01*
G37*
D20*
X127165662Y-131497689D03*
X123846992Y-132872327D03*
X124819008Y-130525673D03*
X121500338Y-131900311D03*
X122472354Y-129553657D03*
D11*
X135140000Y-120396000D03*
X136640000Y-120396000D03*
D10*
G36*
X155183004Y-121886503D02*
X156522396Y-125120081D01*
X155598516Y-125502765D01*
X154259124Y-122269187D01*
X155183004Y-121886503D01*
X155183004Y-121886503D01*
G37*
G36*
X153335244Y-122651869D02*
X154674636Y-125885447D01*
X153750756Y-126268131D01*
X152411364Y-123034553D01*
X153335244Y-122651869D01*
X153335244Y-122651869D01*
G37*
G36*
X155480331Y-115810188D02*
X156781454Y-118951379D01*
X155395635Y-119525404D01*
X154094512Y-116384213D01*
X155480331Y-115810188D01*
X155480331Y-115810188D01*
G37*
G36*
X149290339Y-118374167D02*
X150591462Y-121515358D01*
X149205643Y-122089383D01*
X147904520Y-118948192D01*
X149290339Y-118374167D01*
X149290339Y-118374167D01*
G37*
D11*
X131179000Y-116459000D03*
X129679000Y-116459000D03*
X131179000Y-118491000D03*
X129679000Y-118491000D03*
D21*
X133858000Y-132715000D03*
X146050000Y-135509000D03*
X125349000Y-127254000D03*
X116840000Y-106299000D03*
X125349000Y-85598000D03*
X166878000Y-85598000D03*
X146050000Y-77089000D03*
X175387000Y-106172000D03*
X167005000Y-127000000D03*
X123825000Y-124714000D03*
X115316000Y-103759000D03*
X123825000Y-83185000D03*
X165354000Y-83185000D03*
X144526000Y-74676000D03*
X173863000Y-103886000D03*
X165481000Y-124714000D03*
X144526000Y-133096000D03*
X138811000Y-131699000D03*
X138811000Y-132461000D03*
X138811000Y-132461000D03*
X125730000Y-131699000D03*
X138163423Y-132590515D03*
X129540000Y-130302000D03*
X138430000Y-134558800D03*
X130048000Y-134239000D03*
X137074717Y-130006283D03*
X126746000Y-117348000D03*
X128016000Y-119507000D03*
X136221805Y-129067746D03*
X132461000Y-136017000D03*
X122301000Y-133096000D03*
X159258000Y-126365000D03*
X138049000Y-126238000D03*
X136398000Y-122174000D03*
X145288000Y-111252000D03*
X133477000Y-131445000D03*
X140289509Y-136452967D03*
X133477000Y-130683000D03*
X140462000Y-135763000D03*
D22*
X146927000Y-130302000D02*
X146927000Y-130502000D01*
D23*
X131191000Y-120396000D02*
X131191000Y-123870722D01*
X131191000Y-123870722D02*
X131272279Y-123952001D01*
X131272279Y-123952001D02*
X131272279Y-125982479D01*
X131272279Y-125982479D02*
X132865800Y-127576000D01*
X132865800Y-127576000D02*
X133344000Y-127576000D01*
X131306000Y-123918280D02*
X131272279Y-123952001D01*
D24*
X156793777Y-127989655D02*
X155601345Y-127989655D01*
D25*
X135366918Y-126238000D02*
X136271000Y-126238000D01*
X131894000Y-132226000D02*
X133369000Y-132226000D01*
X133369000Y-132226000D02*
X133858000Y-132715000D01*
X129540000Y-131584000D02*
X130182000Y-132226000D01*
X130182000Y-132226000D02*
X131894000Y-132226000D01*
X134944000Y-127576000D02*
X134944000Y-126660918D01*
X134944000Y-126660918D02*
X135366918Y-126238000D01*
D26*
X146050000Y-135509000D02*
X146050000Y-134390000D01*
X146050000Y-134390000D02*
X146026000Y-134366000D01*
X125349000Y-127254000D02*
X125349000Y-125869000D01*
X125349000Y-125869000D02*
X125337000Y-125857000D01*
X116840000Y-106299000D02*
X116840000Y-105029000D01*
X125349000Y-85598000D02*
X125349000Y-84340000D01*
X125349000Y-84340000D02*
X125337000Y-84328000D01*
X166878000Y-85598000D02*
X166878000Y-84328000D01*
X146050000Y-77089000D02*
X146050000Y-75819000D01*
X175387000Y-106172000D02*
X175387000Y-105041000D01*
X175387000Y-105041000D02*
X175375000Y-105029000D01*
X167005000Y-127000000D02*
X167005000Y-125869000D01*
X167005000Y-125869000D02*
X166993000Y-125857000D01*
D23*
X140969999Y-123952001D02*
X140969999Y-120420000D01*
X140969999Y-120420000D02*
X140945999Y-120396000D01*
X140969999Y-123952001D02*
X137966449Y-123952001D01*
X137966449Y-123952001D02*
X136188450Y-125730000D01*
X136188450Y-125730000D02*
X134366000Y-125730000D01*
X134366000Y-125730000D02*
X134144000Y-125952000D01*
X134144000Y-125952000D02*
X134144000Y-126572800D01*
X134144000Y-126572800D02*
X134144000Y-127576000D01*
X140945999Y-123928001D02*
X140969999Y-123952001D01*
X131179000Y-116459000D02*
X131179000Y-115805800D01*
X131179000Y-115805800D02*
X130943200Y-115570000D01*
X130943200Y-115570000D02*
X122626199Y-115570000D01*
X122626199Y-115570000D02*
X122022999Y-115570000D01*
X131179000Y-118491000D02*
X131179000Y-116459000D01*
D24*
X161286134Y-129440980D02*
X158613834Y-126768680D01*
X158613834Y-126768680D02*
X157954093Y-126768680D01*
X165493000Y-125857000D02*
X165493000Y-124726000D01*
X165493000Y-124726000D02*
X165481000Y-124714000D01*
X161286134Y-129440980D02*
X162792020Y-129440980D01*
X162792020Y-129440980D02*
X165493000Y-126740000D01*
X165493000Y-126740000D02*
X165493000Y-125857000D01*
X115340000Y-107593000D02*
X122022999Y-114275999D01*
X122022999Y-114275999D02*
X122022999Y-115570000D01*
X115340000Y-105029000D02*
X115340000Y-107593000D01*
X123837000Y-125857000D02*
X123837000Y-126740000D01*
X123837000Y-126740000D02*
X126117000Y-129020000D01*
X126117000Y-129020000D02*
X128657000Y-129020000D01*
X128657000Y-129020000D02*
X129540000Y-129020000D01*
D23*
X127165662Y-131497689D02*
X128153490Y-131497689D01*
X128153490Y-131497689D02*
X128841178Y-130810001D01*
X128841178Y-130810001D02*
X129783841Y-130810001D01*
X129783841Y-130810001D02*
X130118200Y-130475642D01*
X130118200Y-130475642D02*
X130118200Y-129598200D01*
X130118200Y-129598200D02*
X129540000Y-129020000D01*
D26*
X131894000Y-129026000D02*
X135449600Y-129026000D01*
X135449600Y-129026000D02*
X135744000Y-128731600D01*
X135744000Y-128731600D02*
X135744000Y-127576000D01*
X131894000Y-129826000D02*
X131894000Y-129026000D01*
X131894000Y-129026000D02*
X129546000Y-129026000D01*
X129546000Y-129026000D02*
X129540000Y-129020000D01*
D24*
X123858000Y-121285000D02*
X123858000Y-124681000D01*
X123858000Y-124681000D02*
X123825000Y-124714000D01*
X122022999Y-115570000D02*
X122022999Y-120732999D01*
X122022999Y-120732999D02*
X122575000Y-121285000D01*
X122575000Y-121285000D02*
X123858000Y-121285000D01*
X115316000Y-103759000D02*
X123837000Y-84328000D01*
X123825000Y-83185000D02*
X144526000Y-74676000D01*
X145161000Y-78359000D02*
X144550000Y-75819000D01*
X146177000Y-78613000D02*
X145161000Y-78359000D01*
X165354000Y-83185000D02*
X146177000Y-78613000D01*
X173863000Y-103886000D02*
X165378000Y-84328000D01*
X165481000Y-124714000D02*
X173875000Y-105029000D01*
D26*
X144526000Y-133096000D02*
X144526000Y-134366000D01*
X123825000Y-124714000D02*
X123825000Y-125845000D01*
X123825000Y-125845000D02*
X123837000Y-125857000D01*
X115316000Y-103759000D02*
X115316000Y-105005000D01*
X115316000Y-105005000D02*
X115340000Y-105029000D01*
X123825000Y-83185000D02*
X123825000Y-84316000D01*
X123825000Y-84316000D02*
X123837000Y-84328000D01*
X165354000Y-83185000D02*
X165354000Y-84304000D01*
X165354000Y-84304000D02*
X165378000Y-84328000D01*
X144526000Y-74676000D02*
X144526000Y-75795000D01*
X144526000Y-75795000D02*
X144550000Y-75819000D01*
X173863000Y-103886000D02*
X173863000Y-105017000D01*
X173863000Y-105017000D02*
X173875000Y-105029000D01*
X165481000Y-125845000D02*
X165493000Y-125857000D01*
D23*
X146927000Y-131445000D02*
X146927000Y-131645000D01*
X146927000Y-131645000D02*
X145476000Y-133096000D01*
X145476000Y-133096000D02*
X144885210Y-133096000D01*
X144885210Y-133096000D02*
X144526000Y-133096000D01*
D27*
X131894000Y-133026000D02*
X129598000Y-133026000D01*
X129598000Y-133026000D02*
X129540000Y-133084000D01*
D23*
X145922999Y-125476000D02*
X145947999Y-125476000D01*
X145947999Y-125476000D02*
X147104801Y-126632802D01*
X147104801Y-126632802D02*
X147104801Y-128014305D01*
X147104801Y-128014305D02*
X145513305Y-129605801D01*
X145513305Y-129605801D02*
X140614199Y-129605801D01*
X140614199Y-129605801D02*
X140394000Y-129826000D01*
X147422999Y-125476000D02*
X147422999Y-123698001D01*
X147422999Y-123698001D02*
X147423000Y-123698000D01*
X147423000Y-125475999D02*
X147422999Y-125476000D01*
X145681646Y-130012210D02*
X142010990Y-130012210D01*
X142010990Y-130012210D02*
X141397200Y-130626000D01*
X141397200Y-130626000D02*
X140394000Y-130626000D01*
X145681646Y-130012210D02*
X148026199Y-127667657D01*
X148026199Y-127667657D02*
X148026199Y-126657400D01*
X148026199Y-126657400D02*
X147422999Y-126054200D01*
X147422999Y-126054200D02*
X147422999Y-125476000D01*
D25*
X157386343Y-133744971D02*
X156207544Y-130857282D01*
D23*
X160934206Y-131648710D02*
X159533938Y-130248442D01*
X159533938Y-130248442D02*
X159336748Y-130248442D01*
D24*
X159336748Y-130248442D02*
X158651837Y-128594919D01*
X158651837Y-128594919D02*
X158681191Y-128524051D01*
X158681191Y-128524051D02*
X156283181Y-129517339D01*
X156283181Y-129517339D02*
X155548961Y-129213215D01*
X156207544Y-130857281D02*
X155548961Y-129213215D01*
X154707058Y-127180680D02*
X153543000Y-124460000D01*
X152781000Y-122301000D02*
X153543000Y-124460000D01*
X153543000Y-121158000D02*
X152781000Y-122301000D01*
X156413893Y-119936949D02*
X153543000Y-121158000D01*
X159772382Y-118545817D02*
X160000225Y-117995754D01*
X160000225Y-117995754D02*
X158931390Y-115415358D01*
X159772382Y-118545817D02*
X160322445Y-118773661D01*
X160322445Y-118773661D02*
X161036149Y-120496696D01*
X156413893Y-119936949D02*
X159772382Y-118545817D01*
X154707057Y-127180680D02*
X156219751Y-126603836D01*
D23*
X138811000Y-131699000D02*
X139319001Y-132207001D01*
X139319001Y-132207001D02*
X139319001Y-132954201D01*
X139319001Y-132954201D02*
X139390800Y-133026000D01*
X139390800Y-133026000D02*
X140394000Y-133026000D01*
D22*
X143256000Y-127508000D02*
X139012000Y-127508000D01*
X139012000Y-127508000D02*
X138944000Y-127576000D01*
X140394000Y-129026000D02*
X144532000Y-129026000D01*
X144532000Y-129026000D02*
X146050000Y-127508000D01*
D23*
X143256000Y-131445000D02*
X142195340Y-131445000D01*
X142195340Y-131445000D02*
X141414340Y-132226000D01*
X141414340Y-132226000D02*
X141397200Y-132226000D01*
X141397200Y-132226000D02*
X140394000Y-132226000D01*
X143256000Y-131445000D02*
X144316660Y-131445000D01*
X144316660Y-131445000D02*
X145427000Y-131445000D01*
X138811000Y-133246200D02*
X138811000Y-132461000D01*
X139390800Y-133826000D02*
X138811000Y-133246200D01*
X140394000Y-133826000D02*
X139390800Y-133826000D01*
X123846992Y-132872327D02*
X125020319Y-131699000D01*
X125020319Y-131699000D02*
X125730000Y-131699000D01*
X138163423Y-132590515D02*
X138163423Y-132949725D01*
X138163423Y-132949725D02*
X138455390Y-133241692D01*
X138455390Y-133241692D02*
X138455390Y-133690590D01*
X138455390Y-133690590D02*
X139390800Y-134626000D01*
X139390800Y-134626000D02*
X140394000Y-134626000D01*
X124819008Y-130525673D02*
X126652792Y-130525673D01*
X126652792Y-130525673D02*
X126876465Y-130302000D01*
X126876465Y-130302000D02*
X129540000Y-130302000D01*
X138301567Y-134430367D02*
X138430000Y-134558800D01*
X138430000Y-134558800D02*
X138944000Y-135072800D01*
X138944000Y-135072800D02*
X138944000Y-136076000D01*
X126193646Y-133844343D02*
X129653343Y-133844343D01*
X129653343Y-133844343D02*
X130048000Y-134239000D01*
X126746000Y-117348000D02*
X128990000Y-117348000D01*
X128990000Y-117348000D02*
X129679000Y-116659000D01*
X129679000Y-116659000D02*
X129679000Y-116459000D01*
X138144000Y-136076000D02*
X138144000Y-135024642D01*
X138144000Y-135024642D02*
X137074717Y-133955359D01*
X137074717Y-133955359D02*
X137074717Y-130006283D01*
X126746000Y-117348000D02*
X123985000Y-117348000D01*
X123985000Y-117348000D02*
X123858000Y-117475000D01*
X128016000Y-119507000D02*
X128863000Y-119507000D01*
X128863000Y-119507000D02*
X129679000Y-118691000D01*
X129679000Y-118691000D02*
X129679000Y-118491000D01*
X136221805Y-131413923D02*
X136221805Y-131064000D01*
X136221805Y-131064000D02*
X136221805Y-129067746D01*
X137344000Y-136076000D02*
X137344000Y-135072800D01*
X137344000Y-135072800D02*
X136221805Y-133950605D01*
X136221805Y-133950605D02*
X136221805Y-131064000D01*
X128016000Y-119507000D02*
X127254000Y-118745000D01*
X127254000Y-118745000D02*
X123858000Y-118745000D01*
X132461000Y-136017000D02*
X133285000Y-136017000D01*
X133285000Y-136017000D02*
X133344000Y-136076000D01*
X121500338Y-131900311D02*
X121500338Y-132295338D01*
X121500338Y-132295338D02*
X122301000Y-133096000D01*
X159258000Y-126365000D02*
X159648070Y-126365000D01*
X159648070Y-126365000D02*
X160164459Y-126881389D01*
D24*
X163449000Y-119888000D02*
X163449000Y-123596848D01*
X163449000Y-123596848D02*
X160164459Y-126881389D01*
X160238645Y-126912118D02*
X160164459Y-126881389D01*
X161344241Y-114806662D02*
X163449000Y-119888000D01*
D23*
X138049000Y-126238000D02*
X137149798Y-126238000D01*
X137149798Y-126238000D02*
X136544000Y-126843798D01*
X136544000Y-126843798D02*
X136544000Y-127576000D01*
X135140000Y-120396000D02*
X135140000Y-120596000D01*
X136544000Y-127576000D02*
X136735179Y-127384821D01*
X135140000Y-120596000D02*
X136398000Y-121854000D01*
X136398000Y-121854000D02*
X136398000Y-122174000D01*
X145288000Y-111252000D02*
X145288000Y-123516200D01*
X145288000Y-123516200D02*
X145469800Y-123698000D01*
X145469800Y-123698000D02*
X145923000Y-123698000D01*
X153793590Y-129940314D02*
X152226139Y-130568951D01*
X152951687Y-127907779D02*
X148782392Y-127907779D01*
X148782392Y-127907779D02*
X146249172Y-130440999D01*
X146249172Y-130440999D02*
X142382201Y-130440999D01*
X142382201Y-130440999D02*
X141397200Y-131426000D01*
X141397200Y-131426000D02*
X140394000Y-131426000D01*
X133477000Y-131445000D02*
X131913000Y-131445000D01*
X131913000Y-131445000D02*
X131894000Y-131426000D01*
X144538000Y-140081000D02*
X143917542Y-140081000D01*
X143917542Y-140081000D02*
X140289509Y-136452967D01*
X133477000Y-130683000D02*
X131951000Y-130683000D01*
X131951000Y-130683000D02*
X131894000Y-130626000D01*
X144538000Y-138303000D02*
X143002000Y-138303000D01*
X143002000Y-138303000D02*
X140462000Y-135763000D01*
X148336000Y-138176000D02*
X146038000Y-138303000D01*
X150622000Y-133985000D02*
X148336000Y-138176000D01*
X154940000Y-132080000D02*
X150622000Y-133985000D01*
X156083000Y-132334000D02*
X154940000Y-132080000D01*
X156785821Y-133993716D02*
X156083000Y-132334000D01*
X147955000Y-140081000D02*
X146038000Y-140081000D01*
X151003000Y-134493000D02*
X147955000Y-140081000D01*
X155067000Y-132715000D02*
X151003000Y-134493000D01*
X155575000Y-132842000D02*
X155067000Y-132715000D01*
X156185299Y-134242460D02*
X155575000Y-132842000D01*
D22*
X137287000Y-127633000D02*
X137344000Y-127576000D01*
G36*
X135739205Y-133950605D02*
X135775941Y-134135288D01*
X135880555Y-134291855D01*
X136476237Y-134887536D01*
X136269000Y-134887536D01*
X136139412Y-134911920D01*
X136019000Y-134887536D01*
X135469000Y-134887536D01*
X135339412Y-134911920D01*
X135219000Y-134887536D01*
X134669000Y-134887536D01*
X134539412Y-134911920D01*
X134419000Y-134887536D01*
X133869000Y-134887536D01*
X133739412Y-134911920D01*
X133619000Y-134887536D01*
X133082464Y-134887536D01*
X133082464Y-134351000D01*
X133058080Y-134221412D01*
X133082464Y-134101000D01*
X133082464Y-133551000D01*
X133058080Y-133421412D01*
X133082464Y-133301000D01*
X133082464Y-133010561D01*
X133232327Y-132860699D01*
X133329000Y-132627310D01*
X133329000Y-132511750D01*
X133170250Y-132353000D01*
X132021000Y-132353000D01*
X132021000Y-132362536D01*
X131767000Y-132362536D01*
X131767000Y-132353000D01*
X131747000Y-132353000D01*
X131747000Y-132099000D01*
X131767000Y-132099000D01*
X131767000Y-132089464D01*
X132021000Y-132089464D01*
X132021000Y-132099000D01*
X133170250Y-132099000D01*
X133236533Y-132032717D01*
X133350137Y-132079889D01*
X133602755Y-132080110D01*
X133836228Y-131983640D01*
X134015013Y-131805168D01*
X134111889Y-131571863D01*
X134112110Y-131319245D01*
X134015640Y-131085772D01*
X133994025Y-131064119D01*
X134015013Y-131043168D01*
X134111889Y-130809863D01*
X134112110Y-130557245D01*
X134015640Y-130323772D01*
X133837168Y-130144987D01*
X133603863Y-130048111D01*
X133351245Y-130047890D01*
X133117772Y-130144360D01*
X133062513Y-130199522D01*
X133082464Y-130101000D01*
X133082464Y-129584800D01*
X135449600Y-129584800D01*
X135663444Y-129542264D01*
X135739205Y-129491642D01*
X135739205Y-133950605D01*
X135739205Y-133950605D01*
G37*
X135739205Y-133950605D02*
X135775941Y-134135288D01*
X135880555Y-134291855D01*
X136476237Y-134887536D01*
X136269000Y-134887536D01*
X136139412Y-134911920D01*
X136019000Y-134887536D01*
X135469000Y-134887536D01*
X135339412Y-134911920D01*
X135219000Y-134887536D01*
X134669000Y-134887536D01*
X134539412Y-134911920D01*
X134419000Y-134887536D01*
X133869000Y-134887536D01*
X133739412Y-134911920D01*
X133619000Y-134887536D01*
X133082464Y-134887536D01*
X133082464Y-134351000D01*
X133058080Y-134221412D01*
X133082464Y-134101000D01*
X133082464Y-133551000D01*
X133058080Y-133421412D01*
X133082464Y-133301000D01*
X133082464Y-133010561D01*
X133232327Y-132860699D01*
X133329000Y-132627310D01*
X133329000Y-132511750D01*
X133170250Y-132353000D01*
X132021000Y-132353000D01*
X132021000Y-132362536D01*
X131767000Y-132362536D01*
X131767000Y-132353000D01*
X131747000Y-132353000D01*
X131747000Y-132099000D01*
X131767000Y-132099000D01*
X131767000Y-132089464D01*
X132021000Y-132089464D01*
X132021000Y-132099000D01*
X133170250Y-132099000D01*
X133236533Y-132032717D01*
X133350137Y-132079889D01*
X133602755Y-132080110D01*
X133836228Y-131983640D01*
X134015013Y-131805168D01*
X134111889Y-131571863D01*
X134112110Y-131319245D01*
X134015640Y-131085772D01*
X133994025Y-131064119D01*
X134015013Y-131043168D01*
X134111889Y-130809863D01*
X134112110Y-130557245D01*
X134015640Y-130323772D01*
X133837168Y-130144987D01*
X133603863Y-130048111D01*
X133351245Y-130047890D01*
X133117772Y-130144360D01*
X133062513Y-130199522D01*
X133082464Y-130101000D01*
X133082464Y-129584800D01*
X135449600Y-129584800D01*
X135663444Y-129542264D01*
X135739205Y-129491642D01*
X135739205Y-133950605D01*
G36*
X130705536Y-130101000D02*
X130729920Y-130230588D01*
X130705536Y-130351000D01*
X130705536Y-130901000D01*
X130729920Y-131030588D01*
X130705536Y-131151000D01*
X130705536Y-131441439D01*
X130555673Y-131591301D01*
X130472456Y-131792206D01*
X130391250Y-131711000D01*
X129667000Y-131711000D01*
X129667000Y-131731000D01*
X129413000Y-131731000D01*
X129413000Y-131711000D01*
X129393000Y-131711000D01*
X129393000Y-131457000D01*
X129413000Y-131457000D01*
X129413000Y-131437000D01*
X129667000Y-131437000D01*
X129667000Y-131457000D01*
X130391250Y-131457000D01*
X130550000Y-131298250D01*
X130550000Y-131057691D01*
X130453327Y-130824302D01*
X130452684Y-130823658D01*
X130459450Y-130816892D01*
X130564064Y-130660325D01*
X130600800Y-130475642D01*
X130600800Y-129598200D01*
X130598135Y-129584800D01*
X130705536Y-129584800D01*
X130705536Y-130101000D01*
X130705536Y-130101000D01*
G37*
X130705536Y-130101000D02*
X130729920Y-130230588D01*
X130705536Y-130351000D01*
X130705536Y-130901000D01*
X130729920Y-131030588D01*
X130705536Y-131151000D01*
X130705536Y-131441439D01*
X130555673Y-131591301D01*
X130472456Y-131792206D01*
X130391250Y-131711000D01*
X129667000Y-131711000D01*
X129667000Y-131731000D01*
X129413000Y-131731000D01*
X129413000Y-131711000D01*
X129393000Y-131711000D01*
X129393000Y-131457000D01*
X129413000Y-131457000D01*
X129413000Y-131437000D01*
X129667000Y-131437000D01*
X129667000Y-131457000D01*
X130391250Y-131457000D01*
X130550000Y-131298250D01*
X130550000Y-131057691D01*
X130453327Y-130824302D01*
X130452684Y-130823658D01*
X130459450Y-130816892D01*
X130564064Y-130660325D01*
X130600800Y-130475642D01*
X130600800Y-129598200D01*
X130598135Y-129584800D01*
X130705536Y-129584800D01*
X130705536Y-130101000D01*
G36*
X156862509Y-127823722D02*
X156880987Y-127816068D01*
X156978188Y-128050733D01*
X156959710Y-128058387D01*
X156967364Y-128076865D01*
X156732699Y-128174066D01*
X156725045Y-128155588D01*
X156706567Y-128163242D01*
X156609366Y-127928577D01*
X156627844Y-127920923D01*
X156620190Y-127902445D01*
X156854855Y-127805244D01*
X156862509Y-127823722D01*
X156862509Y-127823722D01*
G37*
X156862509Y-127823722D02*
X156880987Y-127816068D01*
X156978188Y-128050733D01*
X156959710Y-128058387D01*
X156967364Y-128076865D01*
X156732699Y-128174066D01*
X156725045Y-128155588D01*
X156706567Y-128163242D01*
X156609366Y-127928577D01*
X156627844Y-127920923D01*
X156620190Y-127902445D01*
X156854855Y-127805244D01*
X156862509Y-127823722D01*
G36*
X135071000Y-127449000D02*
X135080536Y-127449000D01*
X135080536Y-127703000D01*
X135071000Y-127703000D01*
X135071000Y-127723000D01*
X134817000Y-127723000D01*
X134817000Y-127703000D01*
X134807464Y-127703000D01*
X134807464Y-127449000D01*
X134817000Y-127449000D01*
X134817000Y-127429000D01*
X135071000Y-127429000D01*
X135071000Y-127449000D01*
X135071000Y-127449000D01*
G37*
X135071000Y-127449000D02*
X135080536Y-127449000D01*
X135080536Y-127703000D01*
X135071000Y-127703000D01*
X135071000Y-127723000D01*
X134817000Y-127723000D01*
X134817000Y-127703000D01*
X134807464Y-127703000D01*
X134807464Y-127449000D01*
X134817000Y-127449000D01*
X134817000Y-127429000D01*
X135071000Y-127429000D01*
X135071000Y-127449000D01*
G36*
X154721995Y-133430646D02*
X154636080Y-133638063D01*
X154756095Y-133927805D01*
X154753236Y-133941439D01*
X154782797Y-134092781D01*
X155299419Y-135340018D01*
X155377994Y-135460293D01*
X155396062Y-135472822D01*
X155517208Y-135765296D01*
X155681965Y-135833541D01*
X155694460Y-135863706D01*
X156168429Y-137007968D01*
X156950723Y-136683931D01*
X156950724Y-136683931D01*
X158151075Y-136186729D01*
X157653873Y-134986379D01*
X157446456Y-134900464D01*
X156716075Y-135202998D01*
X156621407Y-135297666D01*
X156487524Y-135297666D01*
X156032122Y-135486300D01*
X156046775Y-135450923D01*
X156176523Y-135397180D01*
X156286917Y-135325060D01*
X156407492Y-135301509D01*
X156777044Y-135148436D01*
X156887438Y-135076317D01*
X157008014Y-135052765D01*
X157377566Y-134899692D01*
X157487962Y-134827571D01*
X157608536Y-134804020D01*
X157904209Y-134681548D01*
X157953941Y-134731280D01*
X157888538Y-134889177D01*
X158385740Y-136089528D01*
X159586090Y-135592326D01*
X160553162Y-135191752D01*
X160545508Y-135173274D01*
X160780173Y-135076073D01*
X160787827Y-135094551D01*
X161941983Y-134616483D01*
X162027898Y-134409066D01*
X161822037Y-133912074D01*
X161725364Y-133678684D01*
X161546736Y-133500056D01*
X161313346Y-133403384D01*
X161060728Y-133403383D01*
X161008382Y-133425065D01*
X161008382Y-133382603D01*
X160911708Y-133149214D01*
X160763250Y-132790803D01*
X160555833Y-132704888D01*
X159263094Y-133240358D01*
X159270748Y-133258836D01*
X159036083Y-133356037D01*
X159028429Y-133337559D01*
X159009951Y-133345213D01*
X158912750Y-133110548D01*
X158931228Y-133102894D01*
X158491429Y-132041126D01*
X158284012Y-131955211D01*
X157461242Y-132296013D01*
X157436114Y-132321141D01*
X157032011Y-131331215D01*
X157241010Y-131417784D01*
X157493628Y-131417784D01*
X157715876Y-131325726D01*
X157801791Y-131118309D01*
X157524632Y-130449189D01*
X157506154Y-130456843D01*
X157408953Y-130222178D01*
X157427431Y-130214524D01*
X157419777Y-130196046D01*
X157654442Y-130098845D01*
X157662096Y-130117323D01*
X157680574Y-130109669D01*
X157777775Y-130344334D01*
X157759297Y-130351988D01*
X158036456Y-131021108D01*
X158243873Y-131107023D01*
X158466120Y-131014965D01*
X158644749Y-130836336D01*
X158741422Y-130602947D01*
X158741422Y-130597176D01*
X158791413Y-130717865D01*
X158869989Y-130838142D01*
X158996705Y-130926013D01*
X159147624Y-130957662D01*
X159298966Y-130928101D01*
X159463107Y-130860111D01*
X160077404Y-131474408D01*
X159887397Y-131395705D01*
X159634778Y-131395705D01*
X158812009Y-131736507D01*
X158726094Y-131943924D01*
X159165893Y-133005693D01*
X160458631Y-132470223D01*
X160522028Y-132317170D01*
X160595126Y-132429062D01*
X160721842Y-132516933D01*
X160872761Y-132548582D01*
X161024103Y-132519021D01*
X161486042Y-132327679D01*
X161606318Y-132249103D01*
X161694189Y-132122388D01*
X161725838Y-131971468D01*
X161718939Y-131936148D01*
X161722937Y-131945800D01*
X161901565Y-132124428D01*
X162134955Y-132221100D01*
X162387573Y-132221101D01*
X162473087Y-132185680D01*
X162559002Y-131978263D01*
X162253142Y-131239852D01*
X162232816Y-131248271D01*
X162189701Y-131144181D01*
X162484112Y-131144181D01*
X162789971Y-131882592D01*
X162997388Y-131968507D01*
X163082902Y-131933086D01*
X163261530Y-131754458D01*
X163358204Y-131521069D01*
X163358204Y-131268450D01*
X163261531Y-131035061D01*
X163247011Y-131000008D01*
X163039594Y-130914093D01*
X162484112Y-131144181D01*
X162189701Y-131144181D01*
X162135615Y-131013606D01*
X162155940Y-131005187D01*
X162148286Y-130986709D01*
X162379256Y-130891038D01*
X162386910Y-130909516D01*
X162942393Y-130679427D01*
X163028308Y-130472011D01*
X163013788Y-130436958D01*
X162917115Y-130203568D01*
X162789527Y-130075980D01*
X162792020Y-130075980D01*
X163035024Y-130027644D01*
X163241033Y-129889993D01*
X165942010Y-127189015D01*
X165942013Y-127189013D01*
X166079664Y-126983004D01*
X166086381Y-126949235D01*
X166128001Y-126740000D01*
X166128000Y-126739995D01*
X166128000Y-126665026D01*
X166233302Y-126770327D01*
X166466691Y-126867000D01*
X166707250Y-126867000D01*
X166866000Y-126708250D01*
X166866000Y-125984000D01*
X167120000Y-125984000D01*
X167120000Y-126708250D01*
X167278750Y-126867000D01*
X167519309Y-126867000D01*
X167752698Y-126770327D01*
X167931327Y-126591699D01*
X168028000Y-126358310D01*
X168028000Y-126142750D01*
X167869250Y-125984000D01*
X167120000Y-125984000D01*
X166866000Y-125984000D01*
X166846000Y-125984000D01*
X166846000Y-125730000D01*
X166866000Y-125730000D01*
X166866000Y-125005750D01*
X167120000Y-125005750D01*
X167120000Y-125730000D01*
X167869250Y-125730000D01*
X168028000Y-125571250D01*
X168028000Y-125355690D01*
X167931327Y-125122301D01*
X167752698Y-124943673D01*
X167519309Y-124847000D01*
X167278750Y-124847000D01*
X167120000Y-125005750D01*
X166866000Y-125005750D01*
X166707250Y-124847000D01*
X166466691Y-124847000D01*
X166233302Y-124943673D01*
X166128000Y-125048974D01*
X166128000Y-124815595D01*
X174239768Y-105792464D01*
X174275000Y-105792464D01*
X174416190Y-105765897D01*
X174433081Y-105755028D01*
X174436673Y-105763699D01*
X174615302Y-105942327D01*
X174848691Y-106039000D01*
X175089250Y-106039000D01*
X175248000Y-105880250D01*
X175248000Y-105156000D01*
X175502000Y-105156000D01*
X175502000Y-105880250D01*
X175660750Y-106039000D01*
X175901309Y-106039000D01*
X176134698Y-105942327D01*
X176313327Y-105763699D01*
X176410000Y-105530310D01*
X176410000Y-105314750D01*
X176251250Y-105156000D01*
X175502000Y-105156000D01*
X175248000Y-105156000D01*
X175228000Y-105156000D01*
X175228000Y-104902000D01*
X175248000Y-104902000D01*
X175248000Y-104177750D01*
X175502000Y-104177750D01*
X175502000Y-104902000D01*
X176251250Y-104902000D01*
X176410000Y-104743250D01*
X176410000Y-104527690D01*
X176313327Y-104294301D01*
X176134698Y-104115673D01*
X175901309Y-104019000D01*
X175660750Y-104019000D01*
X175502000Y-104177750D01*
X175248000Y-104177750D01*
X175089250Y-104019000D01*
X174848691Y-104019000D01*
X174615302Y-104115673D01*
X174436673Y-104294301D01*
X174433754Y-104301348D01*
X174426134Y-104296141D01*
X174421800Y-104295263D01*
X174421800Y-104196107D01*
X174497889Y-104012863D01*
X174498110Y-103760245D01*
X174401640Y-103526772D01*
X174397567Y-103522692D01*
X166508360Y-85338000D01*
X166592250Y-85338000D01*
X166751000Y-85179250D01*
X166751000Y-84455000D01*
X167005000Y-84455000D01*
X167005000Y-85179250D01*
X167163750Y-85338000D01*
X167404309Y-85338000D01*
X167637698Y-85241327D01*
X167816327Y-85062699D01*
X167913000Y-84829310D01*
X167913000Y-84613750D01*
X167754250Y-84455000D01*
X167005000Y-84455000D01*
X166751000Y-84455000D01*
X166731000Y-84455000D01*
X166731000Y-84201000D01*
X166751000Y-84201000D01*
X166751000Y-83476750D01*
X167005000Y-83476750D01*
X167005000Y-84201000D01*
X167754250Y-84201000D01*
X167913000Y-84042250D01*
X167913000Y-83826690D01*
X167816327Y-83593301D01*
X167637698Y-83414673D01*
X167404309Y-83318000D01*
X167163750Y-83318000D01*
X167005000Y-83476750D01*
X166751000Y-83476750D01*
X166592250Y-83318000D01*
X166351691Y-83318000D01*
X166118302Y-83414673D01*
X165939673Y-83593301D01*
X165936754Y-83600348D01*
X165929134Y-83595141D01*
X165912800Y-83591833D01*
X165912800Y-83495107D01*
X165988889Y-83311863D01*
X165989110Y-83059245D01*
X165892640Y-82825772D01*
X165714168Y-82646987D01*
X165480863Y-82550111D01*
X165428925Y-82550066D01*
X146327607Y-77996109D01*
X145688379Y-77836302D01*
X145486131Y-76995532D01*
X155694587Y-76995532D01*
X156056309Y-77870966D01*
X156725511Y-78541337D01*
X157600312Y-78904586D01*
X158547532Y-78905413D01*
X159422966Y-78543691D01*
X160093337Y-77874489D01*
X160456586Y-76999688D01*
X160457413Y-76052468D01*
X160095691Y-75177034D01*
X159426489Y-74506663D01*
X158551688Y-74143414D01*
X157604468Y-74142587D01*
X156729034Y-74504309D01*
X156058663Y-75173511D01*
X155695414Y-76048312D01*
X155694587Y-76995532D01*
X145486131Y-76995532D01*
X145437481Y-76793291D01*
X145523691Y-76829000D01*
X145764250Y-76829000D01*
X145923000Y-76670250D01*
X145923000Y-75946000D01*
X146177000Y-75946000D01*
X146177000Y-76670250D01*
X146335750Y-76829000D01*
X146576309Y-76829000D01*
X146809698Y-76732327D01*
X146988327Y-76553699D01*
X147085000Y-76320310D01*
X147085000Y-76104750D01*
X146926250Y-75946000D01*
X146177000Y-75946000D01*
X145923000Y-75946000D01*
X145903000Y-75946000D01*
X145903000Y-75692000D01*
X145923000Y-75692000D01*
X145923000Y-74967750D01*
X146177000Y-74967750D01*
X146177000Y-75692000D01*
X146926250Y-75692000D01*
X147085000Y-75533250D01*
X147085000Y-75317690D01*
X146988327Y-75084301D01*
X146809698Y-74905673D01*
X146576309Y-74809000D01*
X146335750Y-74809000D01*
X146177000Y-74967750D01*
X145923000Y-74967750D01*
X145764250Y-74809000D01*
X145523691Y-74809000D01*
X145290302Y-74905673D01*
X145111673Y-75084301D01*
X145108754Y-75091348D01*
X145101134Y-75086141D01*
X145084800Y-75082833D01*
X145084800Y-74986107D01*
X145160889Y-74802863D01*
X145161110Y-74550245D01*
X145064640Y-74316772D01*
X144886168Y-74137987D01*
X144652863Y-74041111D01*
X144400245Y-74040890D01*
X144284294Y-74088801D01*
X123699850Y-82549891D01*
X123699245Y-82549890D01*
X123465772Y-82646360D01*
X123286987Y-82824832D01*
X123190111Y-83058137D01*
X123189890Y-83310755D01*
X123266200Y-83495438D01*
X123266200Y-83610156D01*
X123166135Y-83674546D01*
X123079141Y-83801866D01*
X123048536Y-83953000D01*
X123048536Y-84544840D01*
X114782579Y-103394248D01*
X114777987Y-103398832D01*
X114681111Y-103632137D01*
X114680890Y-103884755D01*
X114757200Y-104069438D01*
X114757200Y-104318878D01*
X114669135Y-104375546D01*
X114582141Y-104502866D01*
X114551536Y-104654000D01*
X114551536Y-105404000D01*
X114578103Y-105545190D01*
X114661546Y-105674865D01*
X114705000Y-105704556D01*
X114705000Y-107593000D01*
X114753336Y-107836004D01*
X114890987Y-108042013D01*
X121387999Y-114539025D01*
X121387999Y-114761974D01*
X121282697Y-114656673D01*
X121049308Y-114560000D01*
X120808749Y-114560000D01*
X120649999Y-114718750D01*
X120649999Y-115443000D01*
X120669999Y-115443000D01*
X120669999Y-115697000D01*
X120649999Y-115697000D01*
X120649999Y-116421250D01*
X120808749Y-116580000D01*
X121049308Y-116580000D01*
X121282697Y-116483327D01*
X121387999Y-116378026D01*
X121387999Y-120732999D01*
X121436335Y-120976003D01*
X121573986Y-121182012D01*
X122125987Y-121734013D01*
X122331995Y-121871664D01*
X122575000Y-121920000D01*
X122898411Y-121920000D01*
X122931866Y-121942859D01*
X123083000Y-121973464D01*
X123223000Y-121973464D01*
X123223000Y-124507931D01*
X123190111Y-124587137D01*
X123189890Y-124839755D01*
X123238335Y-124957000D01*
X123238336Y-124957004D01*
X123238338Y-124957007D01*
X123266200Y-125024438D01*
X123266200Y-125139156D01*
X123166135Y-125203546D01*
X123079141Y-125330866D01*
X123048536Y-125482000D01*
X123048536Y-126232000D01*
X123075103Y-126373190D01*
X123158546Y-126502865D01*
X123202000Y-126532556D01*
X123202000Y-126740000D01*
X123250336Y-126983004D01*
X123387987Y-127189013D01*
X125667987Y-129469013D01*
X125873996Y-129606664D01*
X126117000Y-129655000D01*
X128863468Y-129655000D01*
X128886546Y-129690865D01*
X129013866Y-129777859D01*
X129140549Y-129803513D01*
X129124634Y-129819400D01*
X126876465Y-129819400D01*
X126691782Y-129856136D01*
X126535215Y-129960750D01*
X126535213Y-129960753D01*
X126452893Y-130043073D01*
X125787622Y-130043073D01*
X125734697Y-129914984D01*
X125431294Y-129611051D01*
X125034676Y-129446360D01*
X124605224Y-129445986D01*
X124208319Y-129609984D01*
X123904386Y-129913387D01*
X123739695Y-130310005D01*
X123739321Y-130739457D01*
X123903319Y-131136362D01*
X124206722Y-131440295D01*
X124482154Y-131554665D01*
X124190656Y-131846163D01*
X124062660Y-131793014D01*
X123633208Y-131792640D01*
X123236303Y-131956638D01*
X122932370Y-132260041D01*
X122767679Y-132656659D01*
X122767672Y-132664678D01*
X122661168Y-132557987D01*
X122435092Y-132464113D01*
X122579651Y-132115979D01*
X122580025Y-131686527D01*
X122416027Y-131289622D01*
X122112624Y-130985689D01*
X121716006Y-130820998D01*
X121286554Y-130820624D01*
X120889649Y-130984622D01*
X120585716Y-131288025D01*
X120421025Y-131684643D01*
X120420651Y-132114095D01*
X120584649Y-132511000D01*
X120587964Y-132514321D01*
X118734419Y-131749475D01*
X118159749Y-130369239D01*
X121384508Y-130369239D01*
X121779425Y-130723457D01*
X122279834Y-130899584D01*
X122664873Y-130899584D01*
X122811999Y-130705500D01*
X122403622Y-129719590D01*
X121417712Y-130127968D01*
X121384508Y-130369239D01*
X118159749Y-130369239D01*
X117740019Y-129361137D01*
X121126427Y-129361137D01*
X121126427Y-129746176D01*
X121320511Y-129893302D01*
X121974553Y-129622389D01*
X122638287Y-129622389D01*
X123046665Y-130608299D01*
X123287936Y-130641503D01*
X123642154Y-130246586D01*
X123818281Y-129746177D01*
X123818281Y-129361138D01*
X123624197Y-129214012D01*
X122638287Y-129622389D01*
X121974553Y-129622389D01*
X122306421Y-129484925D01*
X121898043Y-128499015D01*
X121656772Y-128465811D01*
X121302554Y-128860728D01*
X121126427Y-129361137D01*
X117740019Y-129361137D01*
X117340599Y-128401814D01*
X122132709Y-128401814D01*
X122541086Y-129387724D01*
X123526996Y-128979346D01*
X123560200Y-128738075D01*
X123165283Y-128383857D01*
X122664874Y-128207730D01*
X122279835Y-128207730D01*
X122132709Y-128401814D01*
X117340599Y-128401814D01*
X112910117Y-117760750D01*
X117048000Y-117760750D01*
X117048000Y-117901310D01*
X117144673Y-118134699D01*
X117321554Y-118311579D01*
X117294536Y-118445000D01*
X117294536Y-119045000D01*
X117321103Y-119186190D01*
X117404546Y-119315865D01*
X117499187Y-119380530D01*
X117412135Y-119436546D01*
X117325141Y-119563866D01*
X117294536Y-119715000D01*
X117294536Y-120315000D01*
X117321103Y-120456190D01*
X117404546Y-120585865D01*
X117499187Y-120650530D01*
X117412135Y-120706546D01*
X117325141Y-120833866D01*
X117294536Y-120985000D01*
X117294536Y-121585000D01*
X117321103Y-121726190D01*
X117404546Y-121855865D01*
X117531866Y-121942859D01*
X117683000Y-121973464D01*
X119233000Y-121973464D01*
X119374190Y-121946897D01*
X119503865Y-121863454D01*
X119590859Y-121736134D01*
X119621464Y-121585000D01*
X119621464Y-120985000D01*
X119594897Y-120843810D01*
X119511454Y-120714135D01*
X119416813Y-120649470D01*
X119503865Y-120593454D01*
X119590859Y-120466134D01*
X119621464Y-120315000D01*
X119621464Y-119715000D01*
X119594897Y-119573810D01*
X119511454Y-119444135D01*
X119416813Y-119379470D01*
X119503865Y-119323454D01*
X119590859Y-119196134D01*
X119621464Y-119045000D01*
X119621464Y-118445000D01*
X119596056Y-118309969D01*
X119771327Y-118134699D01*
X119868000Y-117901310D01*
X119868000Y-117760750D01*
X119709250Y-117602000D01*
X118585000Y-117602000D01*
X118585000Y-117622000D01*
X118331000Y-117622000D01*
X118331000Y-117602000D01*
X117206750Y-117602000D01*
X117048000Y-117760750D01*
X112910117Y-117760750D01*
X112613646Y-117048690D01*
X117048000Y-117048690D01*
X117048000Y-117189250D01*
X117206750Y-117348000D01*
X118331000Y-117348000D01*
X118331000Y-116698750D01*
X118585000Y-116698750D01*
X118585000Y-117348000D01*
X119709250Y-117348000D01*
X119868000Y-117189250D01*
X119868000Y-117048690D01*
X119771327Y-116815301D01*
X119592698Y-116636673D01*
X119359309Y-116540000D01*
X118743750Y-116540000D01*
X118585000Y-116698750D01*
X118331000Y-116698750D01*
X118172250Y-116540000D01*
X117556691Y-116540000D01*
X117323302Y-116636673D01*
X117144673Y-116815301D01*
X117048000Y-117048690D01*
X112613646Y-117048690D01*
X112116958Y-115855750D01*
X119487999Y-115855750D01*
X119487999Y-116071310D01*
X119584672Y-116304699D01*
X119763301Y-116483327D01*
X119996690Y-116580000D01*
X120237249Y-116580000D01*
X120395999Y-116421250D01*
X120395999Y-115697000D01*
X119646749Y-115697000D01*
X119487999Y-115855750D01*
X112116958Y-115855750D01*
X111789261Y-115068690D01*
X119487999Y-115068690D01*
X119487999Y-115284250D01*
X119646749Y-115443000D01*
X120395999Y-115443000D01*
X120395999Y-114718750D01*
X120237249Y-114560000D01*
X119996690Y-114560000D01*
X119763301Y-114656673D01*
X119584672Y-114835301D01*
X119487999Y-115068690D01*
X111789261Y-115068690D01*
X107679810Y-105198676D01*
X118735068Y-78547608D01*
X122462822Y-76995532D01*
X129659587Y-76995532D01*
X130021309Y-77870966D01*
X130690511Y-78541337D01*
X131565312Y-78904586D01*
X132512532Y-78905413D01*
X133387966Y-78543691D01*
X134058337Y-77874489D01*
X134421586Y-76999688D01*
X134422413Y-76052468D01*
X134060691Y-75177034D01*
X133391489Y-74506663D01*
X132516688Y-74143414D01*
X131569468Y-74142587D01*
X130694034Y-74504309D01*
X130023663Y-75173511D01*
X129660414Y-76048312D01*
X129659587Y-76995532D01*
X122462822Y-76995532D01*
X145286325Y-67492810D01*
X171936609Y-78547743D01*
X182892515Y-105098542D01*
X171837257Y-131749609D01*
X162518999Y-135594689D01*
X162452463Y-135434056D01*
X162246602Y-134937064D01*
X162039185Y-134851149D01*
X160885028Y-135329216D01*
X160892682Y-135347694D01*
X160658017Y-135444895D01*
X160650363Y-135426417D01*
X159683293Y-135826991D01*
X158482941Y-136324193D01*
X158490595Y-136342671D01*
X158255930Y-136439872D01*
X158248276Y-136421394D01*
X157465982Y-136745431D01*
X156265630Y-137242633D01*
X156273284Y-137261111D01*
X156038619Y-137358312D01*
X156030965Y-137339834D01*
X154830615Y-137837036D01*
X153863543Y-138237610D01*
X153871197Y-138256088D01*
X153636532Y-138353289D01*
X153628878Y-138334811D01*
X152474722Y-138812879D01*
X152388807Y-139020296D01*
X152594668Y-139517288D01*
X152655715Y-139664669D01*
X145286000Y-142705704D01*
X126785873Y-135071822D01*
X126844452Y-135033553D01*
X126930565Y-134905636D01*
X127170268Y-134326943D01*
X129412923Y-134326943D01*
X129412890Y-134364755D01*
X129509360Y-134598228D01*
X129687832Y-134777013D01*
X129921137Y-134873889D01*
X130173755Y-134874110D01*
X130407228Y-134777640D01*
X130586013Y-134599168D01*
X130682889Y-134365863D01*
X130683110Y-134113245D01*
X130586640Y-133879772D01*
X130408168Y-133700987D01*
X130267713Y-133642665D01*
X130272859Y-133635134D01*
X130288195Y-133559400D01*
X130705536Y-133559400D01*
X130705536Y-134101000D01*
X130729920Y-134230588D01*
X130705536Y-134351000D01*
X130705536Y-134901000D01*
X130732103Y-135042190D01*
X130815546Y-135171865D01*
X130942866Y-135258859D01*
X131094000Y-135289464D01*
X132680536Y-135289464D01*
X132680536Y-135420592D01*
X132587863Y-135382111D01*
X132335245Y-135381890D01*
X132101772Y-135478360D01*
X131922987Y-135656832D01*
X131826111Y-135890137D01*
X131825890Y-136142755D01*
X131922360Y-136376228D01*
X132100832Y-136555013D01*
X132334137Y-136651889D01*
X132586755Y-136652110D01*
X132680536Y-136613360D01*
X132680536Y-136876000D01*
X132707103Y-137017190D01*
X132790546Y-137146865D01*
X132917866Y-137233859D01*
X133069000Y-137264464D01*
X133619000Y-137264464D01*
X133748588Y-137240080D01*
X133869000Y-137264464D01*
X134419000Y-137264464D01*
X134548588Y-137240080D01*
X134669000Y-137264464D01*
X135219000Y-137264464D01*
X135348588Y-137240080D01*
X135469000Y-137264464D01*
X136019000Y-137264464D01*
X136148588Y-137240080D01*
X136269000Y-137264464D01*
X136819000Y-137264464D01*
X136948588Y-137240080D01*
X137069000Y-137264464D01*
X137619000Y-137264464D01*
X137748588Y-137240080D01*
X137869000Y-137264464D01*
X138419000Y-137264464D01*
X138548588Y-137240080D01*
X138669000Y-137264464D01*
X139219000Y-137264464D01*
X139360190Y-137237897D01*
X139489865Y-137154454D01*
X139576859Y-137027134D01*
X139607464Y-136876000D01*
X139607464Y-135289464D01*
X140037554Y-135289464D01*
X139923987Y-135402832D01*
X139827111Y-135636137D01*
X139826890Y-135888755D01*
X139864563Y-135979930D01*
X139751496Y-136092799D01*
X139654620Y-136326104D01*
X139654399Y-136578722D01*
X139750869Y-136812195D01*
X139929341Y-136990980D01*
X140162646Y-137087856D01*
X140241967Y-137087925D01*
X143576290Y-140422247D01*
X143576292Y-140422250D01*
X143699646Y-140504672D01*
X143732859Y-140526864D01*
X143905209Y-140561147D01*
X143926103Y-140672190D01*
X144009546Y-140801865D01*
X144136866Y-140888859D01*
X144288000Y-140919464D01*
X144788000Y-140919464D01*
X144929190Y-140892897D01*
X145058865Y-140809454D01*
X145145859Y-140682134D01*
X145176464Y-140531000D01*
X145176464Y-139631000D01*
X145149897Y-139489810D01*
X145066454Y-139360135D01*
X144939134Y-139273141D01*
X144788000Y-139242536D01*
X144288000Y-139242536D01*
X144146810Y-139269103D01*
X144017135Y-139352546D01*
X143958054Y-139439013D01*
X143304641Y-138785600D01*
X143905670Y-138785600D01*
X143926103Y-138894190D01*
X144009546Y-139023865D01*
X144136866Y-139110859D01*
X144288000Y-139141464D01*
X144788000Y-139141464D01*
X144929190Y-139114897D01*
X145058865Y-139031454D01*
X145145859Y-138904134D01*
X145176464Y-138753000D01*
X145176464Y-137853000D01*
X145149897Y-137711810D01*
X145066454Y-137582135D01*
X144939134Y-137495141D01*
X144788000Y-137464536D01*
X144288000Y-137464536D01*
X144146810Y-137491103D01*
X144017135Y-137574546D01*
X143930141Y-137701866D01*
X143906138Y-137820400D01*
X143201899Y-137820400D01*
X141097042Y-135715542D01*
X141097110Y-135637245D01*
X141000640Y-135403772D01*
X140886532Y-135289464D01*
X141194000Y-135289464D01*
X141335190Y-135262897D01*
X141464865Y-135179454D01*
X141551859Y-135052134D01*
X141582464Y-134901000D01*
X141582464Y-134351000D01*
X141558080Y-134221412D01*
X141582464Y-134101000D01*
X141582464Y-133551000D01*
X141558080Y-133421412D01*
X141582464Y-133301000D01*
X141582464Y-132751000D01*
X141568708Y-132677894D01*
X141599023Y-132671864D01*
X141755590Y-132567250D01*
X142279489Y-132043351D01*
X142296625Y-132084823D01*
X142614503Y-132403256D01*
X143030043Y-132575804D01*
X143479983Y-132576196D01*
X143895823Y-132404375D01*
X144214256Y-132086497D01*
X144280236Y-131927600D01*
X144794670Y-131927600D01*
X144815103Y-132036190D01*
X144898546Y-132165865D01*
X145025866Y-132252859D01*
X145177000Y-132283464D01*
X145606036Y-132283464D01*
X145276100Y-132613400D01*
X144941484Y-132613400D01*
X144886168Y-132557987D01*
X144652863Y-132461111D01*
X144400245Y-132460890D01*
X144166772Y-132557360D01*
X143987987Y-132735832D01*
X143891111Y-132969137D01*
X143890890Y-133221755D01*
X143967200Y-133406438D01*
X143967200Y-133640435D01*
X143855135Y-133712546D01*
X143768141Y-133839866D01*
X143737536Y-133991000D01*
X143737536Y-134741000D01*
X143764103Y-134882190D01*
X143847546Y-135011865D01*
X143974866Y-135098859D01*
X144126000Y-135129464D01*
X144926000Y-135129464D01*
X145067190Y-135102897D01*
X145084081Y-135092028D01*
X145087673Y-135100699D01*
X145266302Y-135279327D01*
X145499691Y-135376000D01*
X145740250Y-135376000D01*
X145899000Y-135217250D01*
X145899000Y-134493000D01*
X146153000Y-134493000D01*
X146153000Y-135217250D01*
X146311750Y-135376000D01*
X146552309Y-135376000D01*
X146785698Y-135279327D01*
X146964327Y-135100699D01*
X147061000Y-134867310D01*
X147061000Y-134651750D01*
X146902250Y-134493000D01*
X146153000Y-134493000D01*
X145899000Y-134493000D01*
X145879000Y-134493000D01*
X145879000Y-134239000D01*
X145899000Y-134239000D01*
X145899000Y-133514750D01*
X146153000Y-133514750D01*
X146153000Y-134239000D01*
X146902250Y-134239000D01*
X147061000Y-134080250D01*
X147061000Y-133864690D01*
X146964327Y-133631301D01*
X146785698Y-133452673D01*
X146552309Y-133356000D01*
X146311750Y-133356000D01*
X146153000Y-133514750D01*
X145899000Y-133514750D01*
X145819375Y-133435125D01*
X146971036Y-132283464D01*
X147177000Y-132283464D01*
X147318190Y-132256897D01*
X147447865Y-132173454D01*
X147534859Y-132046134D01*
X147565464Y-131895000D01*
X147565464Y-130995000D01*
X147538897Y-130853810D01*
X147455454Y-130724135D01*
X147398549Y-130685253D01*
X147435000Y-130502000D01*
X147435000Y-130302000D01*
X147396331Y-130107597D01*
X147343757Y-130028914D01*
X148982292Y-128390379D01*
X151253369Y-128390379D01*
X151196104Y-128414099D01*
X151256854Y-128560763D01*
X151049440Y-128474849D01*
X151014387Y-128489369D01*
X150780997Y-128586042D01*
X150602369Y-128764670D01*
X150505697Y-128998060D01*
X150505696Y-129250678D01*
X150541117Y-129336192D01*
X150748534Y-129422107D01*
X151486945Y-129116247D01*
X151478526Y-129095921D01*
X151713191Y-128998720D01*
X151721610Y-129019045D01*
X151740088Y-129011391D01*
X151835759Y-129242361D01*
X151817281Y-129250015D01*
X151825700Y-129270341D01*
X151591035Y-129367542D01*
X151582616Y-129347217D01*
X150844205Y-129653076D01*
X150758290Y-129860493D01*
X150793711Y-129946007D01*
X150972339Y-130124635D01*
X151205728Y-130221309D01*
X151458347Y-130221309D01*
X151459838Y-130220691D01*
X151445787Y-130229871D01*
X151357916Y-130356587D01*
X151326267Y-130507506D01*
X151355828Y-130658848D01*
X151547170Y-131120787D01*
X151625746Y-131241063D01*
X151752461Y-131328934D01*
X151903381Y-131360583D01*
X152054723Y-131331022D01*
X152886215Y-130986607D01*
X153006491Y-130908031D01*
X153094362Y-130781315D01*
X153103659Y-130736981D01*
X153316049Y-130651801D01*
X153337257Y-130703001D01*
X153415832Y-130823277D01*
X153542548Y-130911148D01*
X153693467Y-130942797D01*
X153844810Y-130913236D01*
X154445332Y-130664492D01*
X154565608Y-130585916D01*
X154653479Y-130459201D01*
X154685128Y-130308281D01*
X154655567Y-130156939D01*
X154249923Y-129177627D01*
X154171348Y-129057351D01*
X154044632Y-128969480D01*
X153893713Y-128937831D01*
X153742370Y-128967392D01*
X153141848Y-129216136D01*
X153021572Y-129294712D01*
X152933701Y-129421427D01*
X152902052Y-129572347D01*
X152931613Y-129723689D01*
X152946660Y-129760016D01*
X152745541Y-129840676D01*
X152699817Y-129808968D01*
X152548897Y-129777319D01*
X152513577Y-129784218D01*
X152523229Y-129780220D01*
X152701857Y-129601592D01*
X152798529Y-129368202D01*
X152798530Y-129115584D01*
X152763109Y-129030070D01*
X152558308Y-128945239D01*
X152703124Y-128885254D01*
X152700264Y-128878349D01*
X152700645Y-128878613D01*
X152851564Y-128910262D01*
X153002907Y-128880701D01*
X153409819Y-128712153D01*
X153605624Y-128793258D01*
X153858242Y-128793259D01*
X154051554Y-128713186D01*
X154011200Y-128729901D01*
X154097115Y-128522485D01*
X153760640Y-127710163D01*
X153742162Y-127717817D01*
X153644961Y-127483152D01*
X153663439Y-127475498D01*
X153326964Y-126663177D01*
X153119547Y-126577262D01*
X152966590Y-126640619D01*
X152787962Y-126819248D01*
X152706857Y-127015053D01*
X152299945Y-127183601D01*
X152179669Y-127262177D01*
X152091798Y-127388892D01*
X152084188Y-127425179D01*
X148782392Y-127425179D01*
X148597709Y-127461915D01*
X148508799Y-127521322D01*
X148508799Y-126657405D01*
X148508800Y-126657400D01*
X148500618Y-126616269D01*
X148586033Y-126618938D01*
X148636159Y-126610315D01*
X148678553Y-126583035D01*
X148706994Y-126541410D01*
X148717000Y-126492000D01*
X148717000Y-122809000D01*
X148708315Y-122762841D01*
X148681035Y-122720447D01*
X148639410Y-122692006D01*
X148590000Y-122682000D01*
X146177000Y-122682000D01*
X146177000Y-121025790D01*
X148077770Y-121025790D01*
X148570643Y-122215692D01*
X148667316Y-122449082D01*
X148845945Y-122627710D01*
X149079334Y-122724383D01*
X149331953Y-122724383D01*
X149877558Y-122498385D01*
X149963473Y-122290969D01*
X149179259Y-120397708D01*
X148163685Y-120818373D01*
X148077770Y-121025790D01*
X146177000Y-121025790D01*
X146177000Y-118821883D01*
X147269519Y-118821883D01*
X147269519Y-119074501D01*
X147366192Y-119307891D01*
X147859066Y-120497793D01*
X148066483Y-120583708D01*
X148750190Y-120300507D01*
X149413924Y-120300507D01*
X150198139Y-122193767D01*
X150405555Y-122279682D01*
X150951161Y-122053685D01*
X151129789Y-121875056D01*
X151226463Y-121641667D01*
X151226463Y-121389049D01*
X151129790Y-121155659D01*
X150636916Y-119965757D01*
X150429499Y-119879842D01*
X149413924Y-120300507D01*
X148750190Y-120300507D01*
X149082058Y-120163043D01*
X148297843Y-118269783D01*
X148090427Y-118183868D01*
X147544821Y-118409865D01*
X147366193Y-118588494D01*
X147269519Y-118821883D01*
X146177000Y-118821883D01*
X146177000Y-118172581D01*
X148532509Y-118172581D01*
X149316723Y-120065842D01*
X150332297Y-119645177D01*
X150418212Y-119437760D01*
X149925339Y-118247858D01*
X149828666Y-118014468D01*
X149650037Y-117835840D01*
X149416648Y-117739167D01*
X149164029Y-117739167D01*
X148618424Y-117965165D01*
X148532509Y-118172581D01*
X146177000Y-118172581D01*
X146177000Y-116992286D01*
X147960499Y-116257904D01*
X153459511Y-116257904D01*
X153459511Y-116510522D01*
X153556184Y-116743912D01*
X154049058Y-117933814D01*
X154256475Y-118019729D01*
X155272050Y-117599064D01*
X154487835Y-115705804D01*
X154280419Y-115619889D01*
X153734813Y-115845886D01*
X153556185Y-116024515D01*
X153459511Y-116257904D01*
X147960499Y-116257904D01*
X149537375Y-115608602D01*
X154722501Y-115608602D01*
X155506715Y-117501863D01*
X156522289Y-117081198D01*
X156608204Y-116873781D01*
X156115331Y-115683879D01*
X156018658Y-115450489D01*
X155840029Y-115271861D01*
X155606640Y-115175188D01*
X155354021Y-115175188D01*
X154808416Y-115401186D01*
X154722501Y-115608602D01*
X149537375Y-115608602D01*
X153972355Y-113782434D01*
X154012233Y-113756345D01*
X154040820Y-113714820D01*
X154378920Y-112922032D01*
X162232803Y-112922032D01*
X162262364Y-113073374D01*
X163219073Y-115383072D01*
X163297649Y-115503348D01*
X163424364Y-115591219D01*
X163575284Y-115622868D01*
X163726626Y-115593307D01*
X164835281Y-115134087D01*
X164955557Y-115055511D01*
X165043428Y-114928795D01*
X165075077Y-114777876D01*
X165045516Y-114626534D01*
X164088807Y-112316836D01*
X164010231Y-112196560D01*
X163883516Y-112108689D01*
X163732596Y-112077040D01*
X163581254Y-112106601D01*
X162472599Y-112565821D01*
X162352323Y-112644397D01*
X162264452Y-112771113D01*
X162232803Y-112922032D01*
X154378920Y-112922032D01*
X157723820Y-105078820D01*
X157733995Y-105030143D01*
X157724434Y-104980645D01*
X154168434Y-96344645D01*
X154140776Y-96303171D01*
X154098754Y-96275320D01*
X145335754Y-92719320D01*
X145289143Y-92710005D01*
X145239645Y-92719566D01*
X136603645Y-96275566D01*
X136561498Y-96303903D01*
X136533964Y-96346133D01*
X133104964Y-104982133D01*
X133096030Y-105026252D01*
X133104964Y-105075867D01*
X136533964Y-113711867D01*
X136561766Y-113754369D01*
X136603645Y-113782434D01*
X144399000Y-116992286D01*
X144399000Y-126365000D01*
X144406301Y-126407441D01*
X144432244Y-126450667D01*
X144472960Y-126480394D01*
X144522033Y-126491938D01*
X145475276Y-126521727D01*
X145410177Y-126548625D01*
X145091744Y-126866503D01*
X144919196Y-127282043D01*
X144918804Y-127731983D01*
X144974004Y-127865576D01*
X144321580Y-128518000D01*
X143773301Y-128518000D01*
X143895823Y-128467375D01*
X144214256Y-128149497D01*
X144386804Y-127733957D01*
X144387196Y-127284017D01*
X144215375Y-126868177D01*
X143897497Y-126549744D01*
X143481957Y-126377196D01*
X143032017Y-126376804D01*
X142616177Y-126548625D01*
X142297744Y-126866503D01*
X142242311Y-127000000D01*
X139607464Y-127000000D01*
X139607464Y-126776000D01*
X139580897Y-126634810D01*
X139497454Y-126505135D01*
X139370134Y-126418141D01*
X139219000Y-126387536D01*
X138674474Y-126387536D01*
X138683889Y-126364863D01*
X138684110Y-126112245D01*
X138587640Y-125878772D01*
X138409168Y-125699987D01*
X138175863Y-125603111D01*
X137923245Y-125602890D01*
X137689772Y-125699360D01*
X137633634Y-125755400D01*
X137149803Y-125755400D01*
X137149798Y-125755399D01*
X136965115Y-125792136D01*
X136808548Y-125896750D01*
X136317762Y-126387536D01*
X136269000Y-126387536D01*
X136139412Y-126411920D01*
X136019000Y-126387536D01*
X135728561Y-126387536D01*
X135578699Y-126237673D01*
X135518167Y-126212600D01*
X136188450Y-126212600D01*
X136373133Y-126175864D01*
X136529700Y-126071250D01*
X137781185Y-124819765D01*
X137781185Y-125002291D01*
X137807752Y-125143481D01*
X137891195Y-125273156D01*
X138018515Y-125360150D01*
X138169649Y-125390755D01*
X143770349Y-125390755D01*
X143911539Y-125364188D01*
X144041214Y-125280745D01*
X144128208Y-125153425D01*
X144158813Y-125002291D01*
X144158813Y-122901711D01*
X144132246Y-122760521D01*
X144048803Y-122630846D01*
X143921483Y-122543852D01*
X143770349Y-122513247D01*
X141452599Y-122513247D01*
X141452599Y-121139406D01*
X141487189Y-121132897D01*
X141616864Y-121049454D01*
X141703858Y-120922134D01*
X141734463Y-120771000D01*
X141734463Y-120021000D01*
X141707896Y-119879810D01*
X141624453Y-119750135D01*
X141497133Y-119663141D01*
X141345999Y-119632536D01*
X140545999Y-119632536D01*
X140404809Y-119659103D01*
X140387918Y-119669972D01*
X140384326Y-119661301D01*
X140205697Y-119482673D01*
X139972308Y-119386000D01*
X139731749Y-119386000D01*
X139572999Y-119544750D01*
X139572999Y-120269000D01*
X139592999Y-120269000D01*
X139592999Y-120523000D01*
X139572999Y-120523000D01*
X139572999Y-121247250D01*
X139731749Y-121406000D01*
X139972308Y-121406000D01*
X140205697Y-121309327D01*
X140384326Y-121130699D01*
X140387245Y-121123652D01*
X140394865Y-121128859D01*
X140487399Y-121147597D01*
X140487399Y-122513247D01*
X138169649Y-122513247D01*
X138028459Y-122539814D01*
X137898784Y-122623257D01*
X137811790Y-122750577D01*
X137781185Y-122901711D01*
X137781185Y-123506525D01*
X137625199Y-123610751D01*
X135988550Y-125247400D01*
X134366278Y-125247400D01*
X134430488Y-125153425D01*
X134461093Y-125002291D01*
X134461093Y-122901711D01*
X134434526Y-122760521D01*
X134351083Y-122630846D01*
X134223763Y-122543852D01*
X134072629Y-122513247D01*
X131673600Y-122513247D01*
X131673600Y-121143922D01*
X131732190Y-121132897D01*
X131861865Y-121049454D01*
X131948859Y-120922134D01*
X131979464Y-120771000D01*
X131979464Y-120021000D01*
X131965352Y-119946000D01*
X134501536Y-119946000D01*
X134501536Y-120846000D01*
X134528103Y-120987190D01*
X134611546Y-121116865D01*
X134738866Y-121203859D01*
X134890000Y-121234464D01*
X135095964Y-121234464D01*
X135805809Y-121944308D01*
X135763111Y-122047137D01*
X135762890Y-122299755D01*
X135859360Y-122533228D01*
X136037832Y-122712013D01*
X136271137Y-122808889D01*
X136523755Y-122809110D01*
X136757228Y-122712640D01*
X136936013Y-122534168D01*
X137032889Y-122300863D01*
X137033110Y-122048245D01*
X136936640Y-121814772D01*
X136856910Y-121734902D01*
X136843864Y-121669317D01*
X136797904Y-121600533D01*
X136739250Y-121512750D01*
X136739247Y-121512748D01*
X136707499Y-121481000D01*
X136767002Y-121481000D01*
X136767002Y-121324252D01*
X136923750Y-121481000D01*
X137016309Y-121481000D01*
X137249698Y-121384327D01*
X137428327Y-121205699D01*
X137525000Y-120972310D01*
X137525000Y-120681750D01*
X138410999Y-120681750D01*
X138410999Y-120897310D01*
X138507672Y-121130699D01*
X138686301Y-121309327D01*
X138919690Y-121406000D01*
X139160249Y-121406000D01*
X139318999Y-121247250D01*
X139318999Y-120523000D01*
X138569749Y-120523000D01*
X138410999Y-120681750D01*
X137525000Y-120681750D01*
X137366250Y-120523000D01*
X136765000Y-120523000D01*
X136765000Y-120543000D01*
X136515000Y-120543000D01*
X136515000Y-120523000D01*
X136493000Y-120523000D01*
X136493000Y-120269000D01*
X136515000Y-120269000D01*
X136515000Y-119469750D01*
X136765000Y-119469750D01*
X136765000Y-120269000D01*
X137366250Y-120269000D01*
X137525000Y-120110250D01*
X137525000Y-119894690D01*
X138410999Y-119894690D01*
X138410999Y-120110250D01*
X138569749Y-120269000D01*
X139318999Y-120269000D01*
X139318999Y-119544750D01*
X139160249Y-119386000D01*
X138919690Y-119386000D01*
X138686301Y-119482673D01*
X138507672Y-119661301D01*
X138410999Y-119894690D01*
X137525000Y-119894690D01*
X137525000Y-119819690D01*
X137428327Y-119586301D01*
X137249698Y-119407673D01*
X137016309Y-119311000D01*
X136923750Y-119311000D01*
X136765000Y-119469750D01*
X136515000Y-119469750D01*
X136356250Y-119311000D01*
X136263691Y-119311000D01*
X136030302Y-119407673D01*
X135851673Y-119586301D01*
X135755000Y-119819690D01*
X135755000Y-119821301D01*
X135751897Y-119804810D01*
X135668454Y-119675135D01*
X135541134Y-119588141D01*
X135390000Y-119557536D01*
X134890000Y-119557536D01*
X134748810Y-119584103D01*
X134619135Y-119667546D01*
X134532141Y-119794866D01*
X134501536Y-119946000D01*
X131965352Y-119946000D01*
X131952897Y-119879810D01*
X131869454Y-119750135D01*
X131742134Y-119663141D01*
X131591000Y-119632536D01*
X130791000Y-119632536D01*
X130649810Y-119659103D01*
X130632919Y-119669972D01*
X130629327Y-119661301D01*
X130450698Y-119482673D01*
X130217309Y-119386000D01*
X129976750Y-119386000D01*
X129818000Y-119544750D01*
X129818000Y-120269000D01*
X129838000Y-120269000D01*
X129838000Y-120523000D01*
X129818000Y-120523000D01*
X129818000Y-121247250D01*
X129976750Y-121406000D01*
X130217309Y-121406000D01*
X130450698Y-121309327D01*
X130629327Y-121130699D01*
X130632246Y-121123652D01*
X130639866Y-121128859D01*
X130708400Y-121142737D01*
X130708400Y-122513247D01*
X128471929Y-122513247D01*
X128330739Y-122539814D01*
X128201064Y-122623257D01*
X128114070Y-122750577D01*
X128083465Y-122901711D01*
X128083465Y-125002291D01*
X128110032Y-125143481D01*
X128193475Y-125273156D01*
X128320795Y-125360150D01*
X128471929Y-125390755D01*
X130789679Y-125390755D01*
X130789679Y-125982479D01*
X130826415Y-126167162D01*
X130931029Y-126323729D01*
X132524550Y-127917250D01*
X132680536Y-128021476D01*
X132680536Y-128362536D01*
X131094000Y-128362536D01*
X130952810Y-128389103D01*
X130831443Y-128467200D01*
X130269426Y-128467200D01*
X130266028Y-128461919D01*
X130274699Y-128458327D01*
X130453327Y-128279698D01*
X130550000Y-128046309D01*
X130550000Y-127805750D01*
X130391250Y-127647000D01*
X129667000Y-127647000D01*
X129667000Y-127667000D01*
X129413000Y-127667000D01*
X129413000Y-127647000D01*
X128688750Y-127647000D01*
X128530000Y-127805750D01*
X128530000Y-128046309D01*
X128626673Y-128279698D01*
X128731974Y-128385000D01*
X126380026Y-128385000D01*
X124988717Y-126993691D01*
X128530000Y-126993691D01*
X128530000Y-127234250D01*
X128688750Y-127393000D01*
X129413000Y-127393000D01*
X129413000Y-126643750D01*
X129667000Y-126643750D01*
X129667000Y-127393000D01*
X130391250Y-127393000D01*
X130550000Y-127234250D01*
X130550000Y-126993691D01*
X130453327Y-126760302D01*
X130274699Y-126581673D01*
X130041310Y-126485000D01*
X129825750Y-126485000D01*
X129667000Y-126643750D01*
X129413000Y-126643750D01*
X129254250Y-126485000D01*
X129038690Y-126485000D01*
X128805301Y-126581673D01*
X128626673Y-126760302D01*
X128530000Y-126993691D01*
X124988717Y-126993691D01*
X124862026Y-126867000D01*
X125051250Y-126867000D01*
X125210000Y-126708250D01*
X125210000Y-125984000D01*
X125464000Y-125984000D01*
X125464000Y-126708250D01*
X125622750Y-126867000D01*
X125863309Y-126867000D01*
X126096698Y-126770327D01*
X126275327Y-126591699D01*
X126372000Y-126358310D01*
X126372000Y-126142750D01*
X126213250Y-125984000D01*
X125464000Y-125984000D01*
X125210000Y-125984000D01*
X125190000Y-125984000D01*
X125190000Y-125730000D01*
X125210000Y-125730000D01*
X125210000Y-125005750D01*
X125464000Y-125005750D01*
X125464000Y-125730000D01*
X126213250Y-125730000D01*
X126372000Y-125571250D01*
X126372000Y-125355690D01*
X126275327Y-125122301D01*
X126096698Y-124943673D01*
X125863309Y-124847000D01*
X125622750Y-124847000D01*
X125464000Y-125005750D01*
X125210000Y-125005750D01*
X125051250Y-124847000D01*
X124810691Y-124847000D01*
X124577302Y-124943673D01*
X124398673Y-125122301D01*
X124395754Y-125129348D01*
X124388134Y-125124141D01*
X124383800Y-125123263D01*
X124383800Y-125024107D01*
X124393687Y-125000297D01*
X124444664Y-124924004D01*
X124493000Y-124681000D01*
X124493000Y-121973464D01*
X124633000Y-121973464D01*
X124774190Y-121946897D01*
X124903865Y-121863454D01*
X124990859Y-121736134D01*
X125021464Y-121585000D01*
X125021464Y-120985000D01*
X124994897Y-120843810D01*
X124911454Y-120714135D01*
X124864057Y-120681750D01*
X128656000Y-120681750D01*
X128656000Y-120897310D01*
X128752673Y-121130699D01*
X128931302Y-121309327D01*
X129164691Y-121406000D01*
X129405250Y-121406000D01*
X129564000Y-121247250D01*
X129564000Y-120523000D01*
X128814750Y-120523000D01*
X128656000Y-120681750D01*
X124864057Y-120681750D01*
X124816813Y-120649470D01*
X124903865Y-120593454D01*
X124990859Y-120466134D01*
X125021464Y-120315000D01*
X125021464Y-119715000D01*
X124994897Y-119573810D01*
X124911454Y-119444135D01*
X124816813Y-119379470D01*
X124903865Y-119323454D01*
X124969359Y-119227600D01*
X127054100Y-119227600D01*
X127380958Y-119554458D01*
X127380890Y-119632755D01*
X127477360Y-119866228D01*
X127655832Y-120045013D01*
X127889137Y-120141889D01*
X128141755Y-120142110D01*
X128375228Y-120045640D01*
X128431366Y-119989600D01*
X128656000Y-119989600D01*
X128656000Y-120110250D01*
X128814750Y-120269000D01*
X129564000Y-120269000D01*
X129564000Y-119544750D01*
X129535875Y-119516625D01*
X129723036Y-119329464D01*
X129929000Y-119329464D01*
X130070190Y-119302897D01*
X130199865Y-119219454D01*
X130286859Y-119092134D01*
X130317464Y-118941000D01*
X130317464Y-118041000D01*
X130290897Y-117899810D01*
X130207454Y-117770135D01*
X130080134Y-117683141D01*
X129929000Y-117652536D01*
X129429000Y-117652536D01*
X129353817Y-117666683D01*
X129723036Y-117297464D01*
X129929000Y-117297464D01*
X130070190Y-117270897D01*
X130199865Y-117187454D01*
X130286859Y-117060134D01*
X130317464Y-116909000D01*
X130317464Y-116052600D01*
X130540536Y-116052600D01*
X130540536Y-116909000D01*
X130567103Y-117050190D01*
X130650546Y-117179865D01*
X130696400Y-117211196D01*
X130696400Y-117737923D01*
X130658135Y-117762546D01*
X130571141Y-117889866D01*
X130540536Y-118041000D01*
X130540536Y-118941000D01*
X130567103Y-119082190D01*
X130650546Y-119211865D01*
X130777866Y-119298859D01*
X130929000Y-119329464D01*
X131429000Y-119329464D01*
X131570190Y-119302897D01*
X131699865Y-119219454D01*
X131786859Y-119092134D01*
X131817464Y-118941000D01*
X131817464Y-118041000D01*
X131790897Y-117899810D01*
X131707454Y-117770135D01*
X131661600Y-117738804D01*
X131661600Y-117212077D01*
X131699865Y-117187454D01*
X131786859Y-117060134D01*
X131817464Y-116909000D01*
X131817464Y-116009000D01*
X131790897Y-115867810D01*
X131707454Y-115738135D01*
X131638812Y-115691234D01*
X131624864Y-115621117D01*
X131590709Y-115570000D01*
X131520250Y-115464550D01*
X131520247Y-115464548D01*
X131284450Y-115228750D01*
X131127883Y-115124136D01*
X130943200Y-115087400D01*
X122791216Y-115087400D01*
X122784896Y-115053810D01*
X122701453Y-114924135D01*
X122657999Y-114894444D01*
X122657999Y-114275999D01*
X122609663Y-114032995D01*
X122472012Y-113826986D01*
X115975000Y-107329974D01*
X115975000Y-105837026D01*
X116080302Y-105942327D01*
X116313691Y-106039000D01*
X116554250Y-106039000D01*
X116713000Y-105880250D01*
X116713000Y-105156000D01*
X116967000Y-105156000D01*
X116967000Y-105880250D01*
X117125750Y-106039000D01*
X117366309Y-106039000D01*
X117599698Y-105942327D01*
X117778327Y-105763699D01*
X117875000Y-105530310D01*
X117875000Y-105314750D01*
X117716250Y-105156000D01*
X116967000Y-105156000D01*
X116713000Y-105156000D01*
X116693000Y-105156000D01*
X116693000Y-104902000D01*
X116713000Y-104902000D01*
X116713000Y-104177750D01*
X116967000Y-104177750D01*
X116967000Y-104902000D01*
X117716250Y-104902000D01*
X117875000Y-104743250D01*
X117875000Y-104527690D01*
X117778327Y-104294301D01*
X117599698Y-104115673D01*
X117366309Y-104019000D01*
X117125750Y-104019000D01*
X116967000Y-104177750D01*
X116713000Y-104177750D01*
X116554250Y-104019000D01*
X116313691Y-104019000D01*
X116080302Y-104115673D01*
X115901673Y-104294301D01*
X115898754Y-104301348D01*
X115891134Y-104296141D01*
X115874800Y-104292833D01*
X115874800Y-104069107D01*
X115900036Y-104008331D01*
X124195575Y-85091464D01*
X124237000Y-85091464D01*
X124378190Y-85064897D01*
X124395081Y-85054028D01*
X124398673Y-85062699D01*
X124577302Y-85241327D01*
X124810691Y-85338000D01*
X125051250Y-85338000D01*
X125210000Y-85179250D01*
X125210000Y-84455000D01*
X125464000Y-84455000D01*
X125464000Y-85179250D01*
X125622750Y-85338000D01*
X125863309Y-85338000D01*
X126096698Y-85241327D01*
X126275327Y-85062699D01*
X126372000Y-84829310D01*
X126372000Y-84613750D01*
X126213250Y-84455000D01*
X125464000Y-84455000D01*
X125210000Y-84455000D01*
X125190000Y-84455000D01*
X125190000Y-84201000D01*
X125210000Y-84201000D01*
X125210000Y-83476750D01*
X125464000Y-83476750D01*
X125464000Y-84201000D01*
X126213250Y-84201000D01*
X126372000Y-84042250D01*
X126372000Y-83826690D01*
X126275327Y-83593301D01*
X126096698Y-83414673D01*
X125863309Y-83318000D01*
X125622750Y-83318000D01*
X125464000Y-83476750D01*
X125210000Y-83476750D01*
X125086338Y-83353088D01*
X143761536Y-75676779D01*
X143761536Y-76194000D01*
X143788103Y-76335190D01*
X143871546Y-76464865D01*
X143998866Y-76551859D01*
X144076981Y-76567677D01*
X144543611Y-78507514D01*
X144583991Y-78595002D01*
X144616492Y-78685705D01*
X144635551Y-78706714D01*
X144647440Y-78732473D01*
X144718227Y-78797849D01*
X144782965Y-78869211D01*
X144808615Y-78881328D01*
X144829455Y-78900575D01*
X144919874Y-78933886D01*
X145006990Y-78975040D01*
X146022990Y-79229041D01*
X146026524Y-79229213D01*
X146029737Y-79230688D01*
X164701828Y-83682312D01*
X164620141Y-83801866D01*
X164589536Y-83953000D01*
X164589536Y-84703000D01*
X164616103Y-84844190D01*
X164699546Y-84973865D01*
X164826866Y-85060859D01*
X164978000Y-85091464D01*
X165017036Y-85091464D01*
X173278266Y-104133674D01*
X173304200Y-104196438D01*
X173304200Y-104311156D01*
X173204135Y-104375546D01*
X173117141Y-104502866D01*
X173086536Y-104654000D01*
X173086536Y-105259156D01*
X167039455Y-119440331D01*
X166193565Y-117398173D01*
X166114989Y-117277897D01*
X165988274Y-117190026D01*
X165837354Y-117158377D01*
X165686012Y-117187938D01*
X164577357Y-117647158D01*
X164457081Y-117725734D01*
X164369210Y-117852450D01*
X164337561Y-118003369D01*
X164367122Y-118154711D01*
X165323831Y-120464409D01*
X165402407Y-120584685D01*
X165529122Y-120672556D01*
X165680042Y-120704205D01*
X165831384Y-120674644D01*
X166659370Y-120331681D01*
X164945203Y-124351620D01*
X164942987Y-124353832D01*
X164894338Y-124470994D01*
X164894336Y-124470996D01*
X164894335Y-124470999D01*
X164846111Y-124587137D01*
X164845890Y-124839755D01*
X164858000Y-124869063D01*
X164858000Y-125180468D01*
X164822135Y-125203546D01*
X164735141Y-125330866D01*
X164704536Y-125482000D01*
X164704536Y-126232000D01*
X164731103Y-126373190D01*
X164814546Y-126502865D01*
X164824980Y-126509995D01*
X162528994Y-128805980D01*
X161687567Y-128805980D01*
X161626177Y-128763409D01*
X161475258Y-128731760D01*
X161474992Y-128731812D01*
X160386202Y-127643022D01*
X160835809Y-127456788D01*
X160956085Y-127378212D01*
X161043956Y-127251496D01*
X161075605Y-127100577D01*
X161046044Y-126949235D01*
X161030988Y-126912886D01*
X163898013Y-124045861D01*
X164035664Y-123839853D01*
X164084000Y-123596848D01*
X164084000Y-121398435D01*
X164630341Y-121172133D01*
X164750617Y-121093557D01*
X164838488Y-120966841D01*
X164870137Y-120815922D01*
X164840576Y-120664580D01*
X163883867Y-118354882D01*
X163805291Y-118234606D01*
X163678576Y-118146735D01*
X163527656Y-118115086D01*
X163411363Y-118137801D01*
X162555398Y-116071317D01*
X162645858Y-116012219D01*
X162733729Y-115885503D01*
X162765378Y-115734584D01*
X162735817Y-115583242D01*
X161779108Y-113273544D01*
X161700532Y-113153268D01*
X161573817Y-113065397D01*
X161422897Y-113033748D01*
X161271555Y-113063309D01*
X160162900Y-113522529D01*
X160042624Y-113601105D01*
X159954753Y-113727821D01*
X159923104Y-113878740D01*
X159952665Y-114030082D01*
X160909374Y-116339780D01*
X160987950Y-116460056D01*
X161114665Y-116547927D01*
X161265585Y-116579576D01*
X161381878Y-116556861D01*
X162237844Y-118623345D01*
X162147383Y-118682443D01*
X162059512Y-118809159D01*
X162027863Y-118960078D01*
X162057424Y-119111420D01*
X162814000Y-120937955D01*
X162814000Y-123333822D01*
X160088418Y-126059404D01*
X160043556Y-126077986D01*
X159989320Y-126023750D01*
X159832753Y-125919136D01*
X159679781Y-125888708D01*
X159618168Y-125826987D01*
X159384863Y-125730111D01*
X159132245Y-125729890D01*
X158898772Y-125826360D01*
X158719987Y-126004832D01*
X158662468Y-126143354D01*
X158613834Y-126133680D01*
X158544549Y-126133680D01*
X158529492Y-126097330D01*
X158450916Y-125977054D01*
X158324200Y-125889183D01*
X158173281Y-125857534D01*
X158021939Y-125887095D01*
X157282743Y-126193281D01*
X157162467Y-126271857D01*
X157074596Y-126398573D01*
X157042947Y-126549492D01*
X157060204Y-126637840D01*
X156772026Y-125942118D01*
X156693450Y-125821842D01*
X156616447Y-125768444D01*
X156882094Y-125658409D01*
X157060722Y-125479780D01*
X157157396Y-125246391D01*
X157157396Y-124993773D01*
X157060723Y-124760383D01*
X156548715Y-123524287D01*
X156341298Y-123438372D01*
X155556693Y-123763366D01*
X155564347Y-123781844D01*
X155329682Y-123879045D01*
X155322028Y-123860567D01*
X155303550Y-123868221D01*
X155206349Y-123633556D01*
X155224827Y-123625902D01*
X154421478Y-121686448D01*
X154214061Y-121600533D01*
X153933747Y-121716643D01*
X153966116Y-121668089D01*
X154151489Y-121589246D01*
X154656144Y-121589246D01*
X155459492Y-123528701D01*
X156244097Y-123203707D01*
X156330011Y-122996290D01*
X155818004Y-121760193D01*
X155721331Y-121526804D01*
X155542702Y-121348176D01*
X155309313Y-121251503D01*
X155056694Y-121251503D01*
X154742059Y-121381830D01*
X154656144Y-121589246D01*
X154151489Y-121589246D01*
X156659742Y-120522434D01*
X159772383Y-119233136D01*
X159836436Y-119259668D01*
X159960620Y-119559473D01*
X159957960Y-119560575D01*
X159837684Y-119639151D01*
X159749813Y-119765867D01*
X159718164Y-119916786D01*
X159747725Y-120068128D01*
X160704434Y-122377826D01*
X160783010Y-122498102D01*
X160909725Y-122585973D01*
X161060645Y-122617622D01*
X161211987Y-122588061D01*
X162320642Y-122128841D01*
X162440918Y-122050265D01*
X162528789Y-121923549D01*
X162560438Y-121772630D01*
X162530877Y-121621288D01*
X161574168Y-119311590D01*
X161495592Y-119191314D01*
X161368877Y-119103443D01*
X161217957Y-119071794D01*
X161139595Y-119087100D01*
X160909109Y-118530657D01*
X160771458Y-118324648D01*
X160593462Y-118205714D01*
X160635226Y-117995753D01*
X160586889Y-117752749D01*
X160586885Y-117752743D01*
X160277966Y-117006945D01*
X160336159Y-116968928D01*
X160424030Y-116842212D01*
X160455679Y-116691293D01*
X160426118Y-116539951D01*
X159469409Y-114230253D01*
X159390833Y-114109977D01*
X159264118Y-114022106D01*
X159113198Y-113990457D01*
X158961856Y-114020018D01*
X157853201Y-114479238D01*
X157732925Y-114557814D01*
X157645054Y-114684530D01*
X157613405Y-114835449D01*
X157642966Y-114986791D01*
X158599675Y-117296489D01*
X158678251Y-117416765D01*
X158804966Y-117504636D01*
X158955886Y-117536285D01*
X159107228Y-117506724D01*
X159109886Y-117505623D01*
X159312906Y-117995755D01*
X159286373Y-118059810D01*
X157416455Y-118834356D01*
X157416455Y-118825070D01*
X157319782Y-118591680D01*
X156826908Y-117401778D01*
X156619491Y-117315863D01*
X155603916Y-117736528D01*
X155611570Y-117755006D01*
X155376905Y-117852207D01*
X155369251Y-117833729D01*
X154353677Y-118254394D01*
X154267762Y-118461811D01*
X154760635Y-119651713D01*
X154857308Y-119885103D01*
X154874038Y-119901833D01*
X153294467Y-120573657D01*
X153244978Y-120607405D01*
X153189660Y-120630386D01*
X153143618Y-120676525D01*
X153089767Y-120713247D01*
X153056960Y-120763364D01*
X153014648Y-120805765D01*
X152252648Y-121948765D01*
X152235329Y-121990702D01*
X152208145Y-122027026D01*
X152188465Y-122104175D01*
X152158072Y-122177769D01*
X152158119Y-122223139D01*
X152146905Y-122267103D01*
X152158248Y-122345913D01*
X152158331Y-122425534D01*
X152175738Y-122467433D01*
X152182201Y-122512341D01*
X152244126Y-122687796D01*
X152142429Y-122754235D01*
X152054558Y-122880950D01*
X152022909Y-123031870D01*
X152052470Y-123183212D01*
X153391862Y-126416790D01*
X153470438Y-126537066D01*
X153581578Y-126614136D01*
X153898104Y-127378297D01*
X153916582Y-127370643D01*
X154013783Y-127605308D01*
X153995305Y-127612962D01*
X154331780Y-128425283D01*
X154539197Y-128511198D01*
X154692154Y-128447841D01*
X154870782Y-128269212D01*
X154951887Y-128073406D01*
X155358800Y-127904858D01*
X155479076Y-127826282D01*
X155566947Y-127699567D01*
X155598596Y-127548647D01*
X155593444Y-127522272D01*
X155728176Y-127470895D01*
X155659249Y-127637301D01*
X155659249Y-127889919D01*
X155751307Y-128112167D01*
X155958721Y-128198081D01*
X155819362Y-128255805D01*
X155800003Y-128242381D01*
X155649084Y-128210732D01*
X155497741Y-128240293D01*
X154897219Y-128489037D01*
X154776943Y-128567613D01*
X154689072Y-128694328D01*
X154657423Y-128845248D01*
X154686984Y-128996590D01*
X155092628Y-129975902D01*
X155171203Y-130096178D01*
X155236840Y-130141694D01*
X155367354Y-130467506D01*
X155337680Y-130510298D01*
X155306031Y-130661218D01*
X155335592Y-130812560D01*
X155622604Y-131505469D01*
X155701180Y-131625745D01*
X155827895Y-131713616D01*
X155935307Y-131736141D01*
X155967032Y-131813857D01*
X155044691Y-131608892D01*
X154986418Y-131607591D01*
X154929001Y-131597525D01*
X154893152Y-131605510D01*
X154856436Y-131604690D01*
X154802098Y-131625789D01*
X154745204Y-131638461D01*
X150427203Y-133543461D01*
X150375245Y-133579918D01*
X150319014Y-133609365D01*
X150298834Y-133633534D01*
X150273062Y-133651617D01*
X150239012Y-133705180D01*
X150198327Y-133753906D01*
X148041023Y-137708965D01*
X146663685Y-137785085D01*
X146649897Y-137711810D01*
X146566454Y-137582135D01*
X146439134Y-137495141D01*
X146288000Y-137464536D01*
X145788000Y-137464536D01*
X145646810Y-137491103D01*
X145517135Y-137574546D01*
X145430141Y-137701866D01*
X145399536Y-137853000D01*
X145399536Y-138753000D01*
X145426103Y-138894190D01*
X145509546Y-139023865D01*
X145636866Y-139110859D01*
X145788000Y-139141464D01*
X146288000Y-139141464D01*
X146429190Y-139114897D01*
X146558865Y-139031454D01*
X146645859Y-138904134D01*
X146676464Y-138753000D01*
X146676464Y-138751052D01*
X148175903Y-138668185D01*
X147668513Y-139598400D01*
X146670330Y-139598400D01*
X146649897Y-139489810D01*
X146566454Y-139360135D01*
X146439134Y-139273141D01*
X146288000Y-139242536D01*
X145788000Y-139242536D01*
X145646810Y-139269103D01*
X145517135Y-139352546D01*
X145430141Y-139479866D01*
X145399536Y-139631000D01*
X145399536Y-140531000D01*
X145426103Y-140672190D01*
X145509546Y-140801865D01*
X145636866Y-140888859D01*
X145788000Y-140919464D01*
X146288000Y-140919464D01*
X146429190Y-140892897D01*
X146558865Y-140809454D01*
X146645859Y-140682134D01*
X146669862Y-140563600D01*
X147955000Y-140563600D01*
X148022562Y-140550161D01*
X148091174Y-140543990D01*
X148114197Y-140531934D01*
X148139683Y-140526864D01*
X148196962Y-140488592D01*
X148257986Y-140456635D01*
X148274640Y-140436689D01*
X148296250Y-140422250D01*
X148334524Y-140364968D01*
X148378672Y-140312094D01*
X149907470Y-137509298D01*
X151867569Y-137509298D01*
X151867569Y-137761916D01*
X151964242Y-137995306D01*
X152170103Y-138492298D01*
X152377520Y-138578213D01*
X153531677Y-138100146D01*
X153524023Y-138081668D01*
X153758688Y-137984467D01*
X153766342Y-138002945D01*
X154733412Y-137602371D01*
X154733413Y-137602371D01*
X155933764Y-137105169D01*
X155436562Y-135904819D01*
X155325413Y-135858779D01*
X155332432Y-135841833D01*
X154940469Y-134895549D01*
X154408083Y-135116070D01*
X154340141Y-135280096D01*
X153535248Y-135613494D01*
X153542902Y-135631972D01*
X153308237Y-135729173D01*
X153300583Y-135710695D01*
X152007845Y-136246165D01*
X151921930Y-136453582D01*
X152070388Y-136811993D01*
X152167061Y-137045382D01*
X152196673Y-137074994D01*
X152142871Y-137097280D01*
X151964243Y-137275909D01*
X151867569Y-137509298D01*
X149907470Y-137509298D01*
X151347641Y-134868985D01*
X151678163Y-134724382D01*
X151554768Y-134847777D01*
X151458095Y-135081166D01*
X151458094Y-135333785D01*
X151554768Y-135567174D01*
X151703226Y-135925585D01*
X151910643Y-136011500D01*
X153203382Y-135476030D01*
X153195728Y-135457552D01*
X153430393Y-135360351D01*
X153438047Y-135378829D01*
X154730785Y-134843359D01*
X154798727Y-134679333D01*
X154843267Y-134660884D01*
X154451304Y-133714600D01*
X154243887Y-133628685D01*
X154181470Y-133654539D01*
X154067168Y-133768841D01*
X153906932Y-133768841D01*
X153084163Y-134109643D01*
X152998249Y-134317057D01*
X152938561Y-134172958D01*
X155109637Y-133223112D01*
X155227488Y-133252575D01*
X155314437Y-133452098D01*
X155232836Y-133485899D01*
X155037030Y-133404792D01*
X154784412Y-133404792D01*
X154711182Y-133435125D01*
X154721995Y-133430646D01*
X154721995Y-133430646D01*
G37*
X154721995Y-133430646D02*
X154636080Y-133638063D01*
X154756095Y-133927805D01*
X154753236Y-133941439D01*
X154782797Y-134092781D01*
X155299419Y-135340018D01*
X155377994Y-135460293D01*
X155396062Y-135472822D01*
X155517208Y-135765296D01*
X155681965Y-135833541D01*
X155694460Y-135863706D01*
X156168429Y-137007968D01*
X156950723Y-136683931D01*
X156950724Y-136683931D01*
X158151075Y-136186729D01*
X157653873Y-134986379D01*
X157446456Y-134900464D01*
X156716075Y-135202998D01*
X156621407Y-135297666D01*
X156487524Y-135297666D01*
X156032122Y-135486300D01*
X156046775Y-135450923D01*
X156176523Y-135397180D01*
X156286917Y-135325060D01*
X156407492Y-135301509D01*
X156777044Y-135148436D01*
X156887438Y-135076317D01*
X157008014Y-135052765D01*
X157377566Y-134899692D01*
X157487962Y-134827571D01*
X157608536Y-134804020D01*
X157904209Y-134681548D01*
X157953941Y-134731280D01*
X157888538Y-134889177D01*
X158385740Y-136089528D01*
X159586090Y-135592326D01*
X160553162Y-135191752D01*
X160545508Y-135173274D01*
X160780173Y-135076073D01*
X160787827Y-135094551D01*
X161941983Y-134616483D01*
X162027898Y-134409066D01*
X161822037Y-133912074D01*
X161725364Y-133678684D01*
X161546736Y-133500056D01*
X161313346Y-133403384D01*
X161060728Y-133403383D01*
X161008382Y-133425065D01*
X161008382Y-133382603D01*
X160911708Y-133149214D01*
X160763250Y-132790803D01*
X160555833Y-132704888D01*
X159263094Y-133240358D01*
X159270748Y-133258836D01*
X159036083Y-133356037D01*
X159028429Y-133337559D01*
X159009951Y-133345213D01*
X158912750Y-133110548D01*
X158931228Y-133102894D01*
X158491429Y-132041126D01*
X158284012Y-131955211D01*
X157461242Y-132296013D01*
X157436114Y-132321141D01*
X157032011Y-131331215D01*
X157241010Y-131417784D01*
X157493628Y-131417784D01*
X157715876Y-131325726D01*
X157801791Y-131118309D01*
X157524632Y-130449189D01*
X157506154Y-130456843D01*
X157408953Y-130222178D01*
X157427431Y-130214524D01*
X157419777Y-130196046D01*
X157654442Y-130098845D01*
X157662096Y-130117323D01*
X157680574Y-130109669D01*
X157777775Y-130344334D01*
X157759297Y-130351988D01*
X158036456Y-131021108D01*
X158243873Y-131107023D01*
X158466120Y-131014965D01*
X158644749Y-130836336D01*
X158741422Y-130602947D01*
X158741422Y-130597176D01*
X158791413Y-130717865D01*
X158869989Y-130838142D01*
X158996705Y-130926013D01*
X159147624Y-130957662D01*
X159298966Y-130928101D01*
X159463107Y-130860111D01*
X160077404Y-131474408D01*
X159887397Y-131395705D01*
X159634778Y-131395705D01*
X158812009Y-131736507D01*
X158726094Y-131943924D01*
X159165893Y-133005693D01*
X160458631Y-132470223D01*
X160522028Y-132317170D01*
X160595126Y-132429062D01*
X160721842Y-132516933D01*
X160872761Y-132548582D01*
X161024103Y-132519021D01*
X161486042Y-132327679D01*
X161606318Y-132249103D01*
X161694189Y-132122388D01*
X161725838Y-131971468D01*
X161718939Y-131936148D01*
X161722937Y-131945800D01*
X161901565Y-132124428D01*
X162134955Y-132221100D01*
X162387573Y-132221101D01*
X162473087Y-132185680D01*
X162559002Y-131978263D01*
X162253142Y-131239852D01*
X162232816Y-131248271D01*
X162189701Y-131144181D01*
X162484112Y-131144181D01*
X162789971Y-131882592D01*
X162997388Y-131968507D01*
X163082902Y-131933086D01*
X163261530Y-131754458D01*
X163358204Y-131521069D01*
X163358204Y-131268450D01*
X163261531Y-131035061D01*
X163247011Y-131000008D01*
X163039594Y-130914093D01*
X162484112Y-131144181D01*
X162189701Y-131144181D01*
X162135615Y-131013606D01*
X162155940Y-131005187D01*
X162148286Y-130986709D01*
X162379256Y-130891038D01*
X162386910Y-130909516D01*
X162942393Y-130679427D01*
X163028308Y-130472011D01*
X163013788Y-130436958D01*
X162917115Y-130203568D01*
X162789527Y-130075980D01*
X162792020Y-130075980D01*
X163035024Y-130027644D01*
X163241033Y-129889993D01*
X165942010Y-127189015D01*
X165942013Y-127189013D01*
X166079664Y-126983004D01*
X166086381Y-126949235D01*
X166128001Y-126740000D01*
X166128000Y-126739995D01*
X166128000Y-126665026D01*
X166233302Y-126770327D01*
X166466691Y-126867000D01*
X166707250Y-126867000D01*
X166866000Y-126708250D01*
X166866000Y-125984000D01*
X167120000Y-125984000D01*
X167120000Y-126708250D01*
X167278750Y-126867000D01*
X167519309Y-126867000D01*
X167752698Y-126770327D01*
X167931327Y-126591699D01*
X168028000Y-126358310D01*
X168028000Y-126142750D01*
X167869250Y-125984000D01*
X167120000Y-125984000D01*
X166866000Y-125984000D01*
X166846000Y-125984000D01*
X166846000Y-125730000D01*
X166866000Y-125730000D01*
X166866000Y-125005750D01*
X167120000Y-125005750D01*
X167120000Y-125730000D01*
X167869250Y-125730000D01*
X168028000Y-125571250D01*
X168028000Y-125355690D01*
X167931327Y-125122301D01*
X167752698Y-124943673D01*
X167519309Y-124847000D01*
X167278750Y-124847000D01*
X167120000Y-125005750D01*
X166866000Y-125005750D01*
X166707250Y-124847000D01*
X166466691Y-124847000D01*
X166233302Y-124943673D01*
X166128000Y-125048974D01*
X166128000Y-124815595D01*
X174239768Y-105792464D01*
X174275000Y-105792464D01*
X174416190Y-105765897D01*
X174433081Y-105755028D01*
X174436673Y-105763699D01*
X174615302Y-105942327D01*
X174848691Y-106039000D01*
X175089250Y-106039000D01*
X175248000Y-105880250D01*
X175248000Y-105156000D01*
X175502000Y-105156000D01*
X175502000Y-105880250D01*
X175660750Y-106039000D01*
X175901309Y-106039000D01*
X176134698Y-105942327D01*
X176313327Y-105763699D01*
X176410000Y-105530310D01*
X176410000Y-105314750D01*
X176251250Y-105156000D01*
X175502000Y-105156000D01*
X175248000Y-105156000D01*
X175228000Y-105156000D01*
X175228000Y-104902000D01*
X175248000Y-104902000D01*
X175248000Y-104177750D01*
X175502000Y-104177750D01*
X175502000Y-104902000D01*
X176251250Y-104902000D01*
X176410000Y-104743250D01*
X176410000Y-104527690D01*
X176313327Y-104294301D01*
X176134698Y-104115673D01*
X175901309Y-104019000D01*
X175660750Y-104019000D01*
X175502000Y-104177750D01*
X175248000Y-104177750D01*
X175089250Y-104019000D01*
X174848691Y-104019000D01*
X174615302Y-104115673D01*
X174436673Y-104294301D01*
X174433754Y-104301348D01*
X174426134Y-104296141D01*
X174421800Y-104295263D01*
X174421800Y-104196107D01*
X174497889Y-104012863D01*
X174498110Y-103760245D01*
X174401640Y-103526772D01*
X174397567Y-103522692D01*
X166508360Y-85338000D01*
X166592250Y-85338000D01*
X166751000Y-85179250D01*
X166751000Y-84455000D01*
X167005000Y-84455000D01*
X167005000Y-85179250D01*
X167163750Y-85338000D01*
X167404309Y-85338000D01*
X167637698Y-85241327D01*
X167816327Y-85062699D01*
X167913000Y-84829310D01*
X167913000Y-84613750D01*
X167754250Y-84455000D01*
X167005000Y-84455000D01*
X166751000Y-84455000D01*
X166731000Y-84455000D01*
X166731000Y-84201000D01*
X166751000Y-84201000D01*
X166751000Y-83476750D01*
X167005000Y-83476750D01*
X167005000Y-84201000D01*
X167754250Y-84201000D01*
X167913000Y-84042250D01*
X167913000Y-83826690D01*
X167816327Y-83593301D01*
X167637698Y-83414673D01*
X167404309Y-83318000D01*
X167163750Y-83318000D01*
X167005000Y-83476750D01*
X166751000Y-83476750D01*
X166592250Y-83318000D01*
X166351691Y-83318000D01*
X166118302Y-83414673D01*
X165939673Y-83593301D01*
X165936754Y-83600348D01*
X165929134Y-83595141D01*
X165912800Y-83591833D01*
X165912800Y-83495107D01*
X165988889Y-83311863D01*
X165989110Y-83059245D01*
X165892640Y-82825772D01*
X165714168Y-82646987D01*
X165480863Y-82550111D01*
X165428925Y-82550066D01*
X146327607Y-77996109D01*
X145688379Y-77836302D01*
X145486131Y-76995532D01*
X155694587Y-76995532D01*
X156056309Y-77870966D01*
X156725511Y-78541337D01*
X157600312Y-78904586D01*
X158547532Y-78905413D01*
X159422966Y-78543691D01*
X160093337Y-77874489D01*
X160456586Y-76999688D01*
X160457413Y-76052468D01*
X160095691Y-75177034D01*
X159426489Y-74506663D01*
X158551688Y-74143414D01*
X157604468Y-74142587D01*
X156729034Y-74504309D01*
X156058663Y-75173511D01*
X155695414Y-76048312D01*
X155694587Y-76995532D01*
X145486131Y-76995532D01*
X145437481Y-76793291D01*
X145523691Y-76829000D01*
X145764250Y-76829000D01*
X145923000Y-76670250D01*
X145923000Y-75946000D01*
X146177000Y-75946000D01*
X146177000Y-76670250D01*
X146335750Y-76829000D01*
X146576309Y-76829000D01*
X146809698Y-76732327D01*
X146988327Y-76553699D01*
X147085000Y-76320310D01*
X147085000Y-76104750D01*
X146926250Y-75946000D01*
X146177000Y-75946000D01*
X145923000Y-75946000D01*
X145903000Y-75946000D01*
X145903000Y-75692000D01*
X145923000Y-75692000D01*
X145923000Y-74967750D01*
X146177000Y-74967750D01*
X146177000Y-75692000D01*
X146926250Y-75692000D01*
X147085000Y-75533250D01*
X147085000Y-75317690D01*
X146988327Y-75084301D01*
X146809698Y-74905673D01*
X146576309Y-74809000D01*
X146335750Y-74809000D01*
X146177000Y-74967750D01*
X145923000Y-74967750D01*
X145764250Y-74809000D01*
X145523691Y-74809000D01*
X145290302Y-74905673D01*
X145111673Y-75084301D01*
X145108754Y-75091348D01*
X145101134Y-75086141D01*
X145084800Y-75082833D01*
X145084800Y-74986107D01*
X145160889Y-74802863D01*
X145161110Y-74550245D01*
X145064640Y-74316772D01*
X144886168Y-74137987D01*
X144652863Y-74041111D01*
X144400245Y-74040890D01*
X144284294Y-74088801D01*
X123699850Y-82549891D01*
X123699245Y-82549890D01*
X123465772Y-82646360D01*
X123286987Y-82824832D01*
X123190111Y-83058137D01*
X123189890Y-83310755D01*
X123266200Y-83495438D01*
X123266200Y-83610156D01*
X123166135Y-83674546D01*
X123079141Y-83801866D01*
X123048536Y-83953000D01*
X123048536Y-84544840D01*
X114782579Y-103394248D01*
X114777987Y-103398832D01*
X114681111Y-103632137D01*
X114680890Y-103884755D01*
X114757200Y-104069438D01*
X114757200Y-104318878D01*
X114669135Y-104375546D01*
X114582141Y-104502866D01*
X114551536Y-104654000D01*
X114551536Y-105404000D01*
X114578103Y-105545190D01*
X114661546Y-105674865D01*
X114705000Y-105704556D01*
X114705000Y-107593000D01*
X114753336Y-107836004D01*
X114890987Y-108042013D01*
X121387999Y-114539025D01*
X121387999Y-114761974D01*
X121282697Y-114656673D01*
X121049308Y-114560000D01*
X120808749Y-114560000D01*
X120649999Y-114718750D01*
X120649999Y-115443000D01*
X120669999Y-115443000D01*
X120669999Y-115697000D01*
X120649999Y-115697000D01*
X120649999Y-116421250D01*
X120808749Y-116580000D01*
X121049308Y-116580000D01*
X121282697Y-116483327D01*
X121387999Y-116378026D01*
X121387999Y-120732999D01*
X121436335Y-120976003D01*
X121573986Y-121182012D01*
X122125987Y-121734013D01*
X122331995Y-121871664D01*
X122575000Y-121920000D01*
X122898411Y-121920000D01*
X122931866Y-121942859D01*
X123083000Y-121973464D01*
X123223000Y-121973464D01*
X123223000Y-124507931D01*
X123190111Y-124587137D01*
X123189890Y-124839755D01*
X123238335Y-124957000D01*
X123238336Y-124957004D01*
X123238338Y-124957007D01*
X123266200Y-125024438D01*
X123266200Y-125139156D01*
X123166135Y-125203546D01*
X123079141Y-125330866D01*
X123048536Y-125482000D01*
X123048536Y-126232000D01*
X123075103Y-126373190D01*
X123158546Y-126502865D01*
X123202000Y-126532556D01*
X123202000Y-126740000D01*
X123250336Y-126983004D01*
X123387987Y-127189013D01*
X125667987Y-129469013D01*
X125873996Y-129606664D01*
X126117000Y-129655000D01*
X128863468Y-129655000D01*
X128886546Y-129690865D01*
X129013866Y-129777859D01*
X129140549Y-129803513D01*
X129124634Y-129819400D01*
X126876465Y-129819400D01*
X126691782Y-129856136D01*
X126535215Y-129960750D01*
X126535213Y-129960753D01*
X126452893Y-130043073D01*
X125787622Y-130043073D01*
X125734697Y-129914984D01*
X125431294Y-129611051D01*
X125034676Y-129446360D01*
X124605224Y-129445986D01*
X124208319Y-129609984D01*
X123904386Y-129913387D01*
X123739695Y-130310005D01*
X123739321Y-130739457D01*
X123903319Y-131136362D01*
X124206722Y-131440295D01*
X124482154Y-131554665D01*
X124190656Y-131846163D01*
X124062660Y-131793014D01*
X123633208Y-131792640D01*
X123236303Y-131956638D01*
X122932370Y-132260041D01*
X122767679Y-132656659D01*
X122767672Y-132664678D01*
X122661168Y-132557987D01*
X122435092Y-132464113D01*
X122579651Y-132115979D01*
X122580025Y-131686527D01*
X122416027Y-131289622D01*
X122112624Y-130985689D01*
X121716006Y-130820998D01*
X121286554Y-130820624D01*
X120889649Y-130984622D01*
X120585716Y-131288025D01*
X120421025Y-131684643D01*
X120420651Y-132114095D01*
X120584649Y-132511000D01*
X120587964Y-132514321D01*
X118734419Y-131749475D01*
X118159749Y-130369239D01*
X121384508Y-130369239D01*
X121779425Y-130723457D01*
X122279834Y-130899584D01*
X122664873Y-130899584D01*
X122811999Y-130705500D01*
X122403622Y-129719590D01*
X121417712Y-130127968D01*
X121384508Y-130369239D01*
X118159749Y-130369239D01*
X117740019Y-129361137D01*
X121126427Y-129361137D01*
X121126427Y-129746176D01*
X121320511Y-129893302D01*
X121974553Y-129622389D01*
X122638287Y-129622389D01*
X123046665Y-130608299D01*
X123287936Y-130641503D01*
X123642154Y-130246586D01*
X123818281Y-129746177D01*
X123818281Y-129361138D01*
X123624197Y-129214012D01*
X122638287Y-129622389D01*
X121974553Y-129622389D01*
X122306421Y-129484925D01*
X121898043Y-128499015D01*
X121656772Y-128465811D01*
X121302554Y-128860728D01*
X121126427Y-129361137D01*
X117740019Y-129361137D01*
X117340599Y-128401814D01*
X122132709Y-128401814D01*
X122541086Y-129387724D01*
X123526996Y-128979346D01*
X123560200Y-128738075D01*
X123165283Y-128383857D01*
X122664874Y-128207730D01*
X122279835Y-128207730D01*
X122132709Y-128401814D01*
X117340599Y-128401814D01*
X112910117Y-117760750D01*
X117048000Y-117760750D01*
X117048000Y-117901310D01*
X117144673Y-118134699D01*
X117321554Y-118311579D01*
X117294536Y-118445000D01*
X117294536Y-119045000D01*
X117321103Y-119186190D01*
X117404546Y-119315865D01*
X117499187Y-119380530D01*
X117412135Y-119436546D01*
X117325141Y-119563866D01*
X117294536Y-119715000D01*
X117294536Y-120315000D01*
X117321103Y-120456190D01*
X117404546Y-120585865D01*
X117499187Y-120650530D01*
X117412135Y-120706546D01*
X117325141Y-120833866D01*
X117294536Y-120985000D01*
X117294536Y-121585000D01*
X117321103Y-121726190D01*
X117404546Y-121855865D01*
X117531866Y-121942859D01*
X117683000Y-121973464D01*
X119233000Y-121973464D01*
X119374190Y-121946897D01*
X119503865Y-121863454D01*
X119590859Y-121736134D01*
X119621464Y-121585000D01*
X119621464Y-120985000D01*
X119594897Y-120843810D01*
X119511454Y-120714135D01*
X119416813Y-120649470D01*
X119503865Y-120593454D01*
X119590859Y-120466134D01*
X119621464Y-120315000D01*
X119621464Y-119715000D01*
X119594897Y-119573810D01*
X119511454Y-119444135D01*
X119416813Y-119379470D01*
X119503865Y-119323454D01*
X119590859Y-119196134D01*
X119621464Y-119045000D01*
X119621464Y-118445000D01*
X119596056Y-118309969D01*
X119771327Y-118134699D01*
X119868000Y-117901310D01*
X119868000Y-117760750D01*
X119709250Y-117602000D01*
X118585000Y-117602000D01*
X118585000Y-117622000D01*
X118331000Y-117622000D01*
X118331000Y-117602000D01*
X117206750Y-117602000D01*
X117048000Y-117760750D01*
X112910117Y-117760750D01*
X112613646Y-117048690D01*
X117048000Y-117048690D01*
X117048000Y-117189250D01*
X117206750Y-117348000D01*
X118331000Y-117348000D01*
X118331000Y-116698750D01*
X118585000Y-116698750D01*
X118585000Y-117348000D01*
X119709250Y-117348000D01*
X119868000Y-117189250D01*
X119868000Y-117048690D01*
X119771327Y-116815301D01*
X119592698Y-116636673D01*
X119359309Y-116540000D01*
X118743750Y-116540000D01*
X118585000Y-116698750D01*
X118331000Y-116698750D01*
X118172250Y-116540000D01*
X117556691Y-116540000D01*
X117323302Y-116636673D01*
X117144673Y-116815301D01*
X117048000Y-117048690D01*
X112613646Y-117048690D01*
X112116958Y-115855750D01*
X119487999Y-115855750D01*
X119487999Y-116071310D01*
X119584672Y-116304699D01*
X119763301Y-116483327D01*
X119996690Y-116580000D01*
X120237249Y-116580000D01*
X120395999Y-116421250D01*
X120395999Y-115697000D01*
X119646749Y-115697000D01*
X119487999Y-115855750D01*
X112116958Y-115855750D01*
X111789261Y-115068690D01*
X119487999Y-115068690D01*
X119487999Y-115284250D01*
X119646749Y-115443000D01*
X120395999Y-115443000D01*
X120395999Y-114718750D01*
X120237249Y-114560000D01*
X119996690Y-114560000D01*
X119763301Y-114656673D01*
X119584672Y-114835301D01*
X119487999Y-115068690D01*
X111789261Y-115068690D01*
X107679810Y-105198676D01*
X118735068Y-78547608D01*
X122462822Y-76995532D01*
X129659587Y-76995532D01*
X130021309Y-77870966D01*
X130690511Y-78541337D01*
X131565312Y-78904586D01*
X132512532Y-78905413D01*
X133387966Y-78543691D01*
X134058337Y-77874489D01*
X134421586Y-76999688D01*
X134422413Y-76052468D01*
X134060691Y-75177034D01*
X133391489Y-74506663D01*
X132516688Y-74143414D01*
X131569468Y-74142587D01*
X130694034Y-74504309D01*
X130023663Y-75173511D01*
X129660414Y-76048312D01*
X129659587Y-76995532D01*
X122462822Y-76995532D01*
X145286325Y-67492810D01*
X171936609Y-78547743D01*
X182892515Y-105098542D01*
X171837257Y-131749609D01*
X162518999Y-135594689D01*
X162452463Y-135434056D01*
X162246602Y-134937064D01*
X162039185Y-134851149D01*
X160885028Y-135329216D01*
X160892682Y-135347694D01*
X160658017Y-135444895D01*
X160650363Y-135426417D01*
X159683293Y-135826991D01*
X158482941Y-136324193D01*
X158490595Y-136342671D01*
X158255930Y-136439872D01*
X158248276Y-136421394D01*
X157465982Y-136745431D01*
X156265630Y-137242633D01*
X156273284Y-137261111D01*
X156038619Y-137358312D01*
X156030965Y-137339834D01*
X154830615Y-137837036D01*
X153863543Y-138237610D01*
X153871197Y-138256088D01*
X153636532Y-138353289D01*
X153628878Y-138334811D01*
X152474722Y-138812879D01*
X152388807Y-139020296D01*
X152594668Y-139517288D01*
X152655715Y-139664669D01*
X145286000Y-142705704D01*
X126785873Y-135071822D01*
X126844452Y-135033553D01*
X126930565Y-134905636D01*
X127170268Y-134326943D01*
X129412923Y-134326943D01*
X129412890Y-134364755D01*
X129509360Y-134598228D01*
X129687832Y-134777013D01*
X129921137Y-134873889D01*
X130173755Y-134874110D01*
X130407228Y-134777640D01*
X130586013Y-134599168D01*
X130682889Y-134365863D01*
X130683110Y-134113245D01*
X130586640Y-133879772D01*
X130408168Y-133700987D01*
X130267713Y-133642665D01*
X130272859Y-133635134D01*
X130288195Y-133559400D01*
X130705536Y-133559400D01*
X130705536Y-134101000D01*
X130729920Y-134230588D01*
X130705536Y-134351000D01*
X130705536Y-134901000D01*
X130732103Y-135042190D01*
X130815546Y-135171865D01*
X130942866Y-135258859D01*
X131094000Y-135289464D01*
X132680536Y-135289464D01*
X132680536Y-135420592D01*
X132587863Y-135382111D01*
X132335245Y-135381890D01*
X132101772Y-135478360D01*
X131922987Y-135656832D01*
X131826111Y-135890137D01*
X131825890Y-136142755D01*
X131922360Y-136376228D01*
X132100832Y-136555013D01*
X132334137Y-136651889D01*
X132586755Y-136652110D01*
X132680536Y-136613360D01*
X132680536Y-136876000D01*
X132707103Y-137017190D01*
X132790546Y-137146865D01*
X132917866Y-137233859D01*
X133069000Y-137264464D01*
X133619000Y-137264464D01*
X133748588Y-137240080D01*
X133869000Y-137264464D01*
X134419000Y-137264464D01*
X134548588Y-137240080D01*
X134669000Y-137264464D01*
X135219000Y-137264464D01*
X135348588Y-137240080D01*
X135469000Y-137264464D01*
X136019000Y-137264464D01*
X136148588Y-137240080D01*
X136269000Y-137264464D01*
X136819000Y-137264464D01*
X136948588Y-137240080D01*
X137069000Y-137264464D01*
X137619000Y-137264464D01*
X137748588Y-137240080D01*
X137869000Y-137264464D01*
X138419000Y-137264464D01*
X138548588Y-137240080D01*
X138669000Y-137264464D01*
X139219000Y-137264464D01*
X139360190Y-137237897D01*
X139489865Y-137154454D01*
X139576859Y-137027134D01*
X139607464Y-136876000D01*
X139607464Y-135289464D01*
X140037554Y-135289464D01*
X139923987Y-135402832D01*
X139827111Y-135636137D01*
X139826890Y-135888755D01*
X139864563Y-135979930D01*
X139751496Y-136092799D01*
X139654620Y-136326104D01*
X139654399Y-136578722D01*
X139750869Y-136812195D01*
X139929341Y-136990980D01*
X140162646Y-137087856D01*
X140241967Y-137087925D01*
X143576290Y-140422247D01*
X143576292Y-140422250D01*
X143699646Y-140504672D01*
X143732859Y-140526864D01*
X143905209Y-140561147D01*
X143926103Y-140672190D01*
X144009546Y-140801865D01*
X144136866Y-140888859D01*
X144288000Y-140919464D01*
X144788000Y-140919464D01*
X144929190Y-140892897D01*
X145058865Y-140809454D01*
X145145859Y-140682134D01*
X145176464Y-140531000D01*
X145176464Y-139631000D01*
X145149897Y-139489810D01*
X145066454Y-139360135D01*
X144939134Y-139273141D01*
X144788000Y-139242536D01*
X144288000Y-139242536D01*
X144146810Y-139269103D01*
X144017135Y-139352546D01*
X143958054Y-139439013D01*
X143304641Y-138785600D01*
X143905670Y-138785600D01*
X143926103Y-138894190D01*
X144009546Y-139023865D01*
X144136866Y-139110859D01*
X144288000Y-139141464D01*
X144788000Y-139141464D01*
X144929190Y-139114897D01*
X145058865Y-139031454D01*
X145145859Y-138904134D01*
X145176464Y-138753000D01*
X145176464Y-137853000D01*
X145149897Y-137711810D01*
X145066454Y-137582135D01*
X144939134Y-137495141D01*
X144788000Y-137464536D01*
X144288000Y-137464536D01*
X144146810Y-137491103D01*
X144017135Y-137574546D01*
X143930141Y-137701866D01*
X143906138Y-137820400D01*
X143201899Y-137820400D01*
X141097042Y-135715542D01*
X141097110Y-135637245D01*
X141000640Y-135403772D01*
X140886532Y-135289464D01*
X141194000Y-135289464D01*
X141335190Y-135262897D01*
X141464865Y-135179454D01*
X141551859Y-135052134D01*
X141582464Y-134901000D01*
X141582464Y-134351000D01*
X141558080Y-134221412D01*
X141582464Y-134101000D01*
X141582464Y-133551000D01*
X141558080Y-133421412D01*
X141582464Y-133301000D01*
X141582464Y-132751000D01*
X141568708Y-132677894D01*
X141599023Y-132671864D01*
X141755590Y-132567250D01*
X142279489Y-132043351D01*
X142296625Y-132084823D01*
X142614503Y-132403256D01*
X143030043Y-132575804D01*
X143479983Y-132576196D01*
X143895823Y-132404375D01*
X144214256Y-132086497D01*
X144280236Y-131927600D01*
X144794670Y-131927600D01*
X144815103Y-132036190D01*
X144898546Y-132165865D01*
X145025866Y-132252859D01*
X145177000Y-132283464D01*
X145606036Y-132283464D01*
X145276100Y-132613400D01*
X144941484Y-132613400D01*
X144886168Y-132557987D01*
X144652863Y-132461111D01*
X144400245Y-132460890D01*
X144166772Y-132557360D01*
X143987987Y-132735832D01*
X143891111Y-132969137D01*
X143890890Y-133221755D01*
X143967200Y-133406438D01*
X143967200Y-133640435D01*
X143855135Y-133712546D01*
X143768141Y-133839866D01*
X143737536Y-133991000D01*
X143737536Y-134741000D01*
X143764103Y-134882190D01*
X143847546Y-135011865D01*
X143974866Y-135098859D01*
X144126000Y-135129464D01*
X144926000Y-135129464D01*
X145067190Y-135102897D01*
X145084081Y-135092028D01*
X145087673Y-135100699D01*
X145266302Y-135279327D01*
X145499691Y-135376000D01*
X145740250Y-135376000D01*
X145899000Y-135217250D01*
X145899000Y-134493000D01*
X146153000Y-134493000D01*
X146153000Y-135217250D01*
X146311750Y-135376000D01*
X146552309Y-135376000D01*
X146785698Y-135279327D01*
X146964327Y-135100699D01*
X147061000Y-134867310D01*
X147061000Y-134651750D01*
X146902250Y-134493000D01*
X146153000Y-134493000D01*
X145899000Y-134493000D01*
X145879000Y-134493000D01*
X145879000Y-134239000D01*
X145899000Y-134239000D01*
X145899000Y-133514750D01*
X146153000Y-133514750D01*
X146153000Y-134239000D01*
X146902250Y-134239000D01*
X147061000Y-134080250D01*
X147061000Y-133864690D01*
X146964327Y-133631301D01*
X146785698Y-133452673D01*
X146552309Y-133356000D01*
X146311750Y-133356000D01*
X146153000Y-133514750D01*
X145899000Y-133514750D01*
X145819375Y-133435125D01*
X146971036Y-132283464D01*
X147177000Y-132283464D01*
X147318190Y-132256897D01*
X147447865Y-132173454D01*
X147534859Y-132046134D01*
X147565464Y-131895000D01*
X147565464Y-130995000D01*
X147538897Y-130853810D01*
X147455454Y-130724135D01*
X147398549Y-130685253D01*
X147435000Y-130502000D01*
X147435000Y-130302000D01*
X147396331Y-130107597D01*
X147343757Y-130028914D01*
X148982292Y-128390379D01*
X151253369Y-128390379D01*
X151196104Y-128414099D01*
X151256854Y-128560763D01*
X151049440Y-128474849D01*
X151014387Y-128489369D01*
X150780997Y-128586042D01*
X150602369Y-128764670D01*
X150505697Y-128998060D01*
X150505696Y-129250678D01*
X150541117Y-129336192D01*
X150748534Y-129422107D01*
X151486945Y-129116247D01*
X151478526Y-129095921D01*
X151713191Y-128998720D01*
X151721610Y-129019045D01*
X151740088Y-129011391D01*
X151835759Y-129242361D01*
X151817281Y-129250015D01*
X151825700Y-129270341D01*
X151591035Y-129367542D01*
X151582616Y-129347217D01*
X150844205Y-129653076D01*
X150758290Y-129860493D01*
X150793711Y-129946007D01*
X150972339Y-130124635D01*
X151205728Y-130221309D01*
X151458347Y-130221309D01*
X151459838Y-130220691D01*
X151445787Y-130229871D01*
X151357916Y-130356587D01*
X151326267Y-130507506D01*
X151355828Y-130658848D01*
X151547170Y-131120787D01*
X151625746Y-131241063D01*
X151752461Y-131328934D01*
X151903381Y-131360583D01*
X152054723Y-131331022D01*
X152886215Y-130986607D01*
X153006491Y-130908031D01*
X153094362Y-130781315D01*
X153103659Y-130736981D01*
X153316049Y-130651801D01*
X153337257Y-130703001D01*
X153415832Y-130823277D01*
X153542548Y-130911148D01*
X153693467Y-130942797D01*
X153844810Y-130913236D01*
X154445332Y-130664492D01*
X154565608Y-130585916D01*
X154653479Y-130459201D01*
X154685128Y-130308281D01*
X154655567Y-130156939D01*
X154249923Y-129177627D01*
X154171348Y-129057351D01*
X154044632Y-128969480D01*
X153893713Y-128937831D01*
X153742370Y-128967392D01*
X153141848Y-129216136D01*
X153021572Y-129294712D01*
X152933701Y-129421427D01*
X152902052Y-129572347D01*
X152931613Y-129723689D01*
X152946660Y-129760016D01*
X152745541Y-129840676D01*
X152699817Y-129808968D01*
X152548897Y-129777319D01*
X152513577Y-129784218D01*
X152523229Y-129780220D01*
X152701857Y-129601592D01*
X152798529Y-129368202D01*
X152798530Y-129115584D01*
X152763109Y-129030070D01*
X152558308Y-128945239D01*
X152703124Y-128885254D01*
X152700264Y-128878349D01*
X152700645Y-128878613D01*
X152851564Y-128910262D01*
X153002907Y-128880701D01*
X153409819Y-128712153D01*
X153605624Y-128793258D01*
X153858242Y-128793259D01*
X154051554Y-128713186D01*
X154011200Y-128729901D01*
X154097115Y-128522485D01*
X153760640Y-127710163D01*
X153742162Y-127717817D01*
X153644961Y-127483152D01*
X153663439Y-127475498D01*
X153326964Y-126663177D01*
X153119547Y-126577262D01*
X152966590Y-126640619D01*
X152787962Y-126819248D01*
X152706857Y-127015053D01*
X152299945Y-127183601D01*
X152179669Y-127262177D01*
X152091798Y-127388892D01*
X152084188Y-127425179D01*
X148782392Y-127425179D01*
X148597709Y-127461915D01*
X148508799Y-127521322D01*
X148508799Y-126657405D01*
X148508800Y-126657400D01*
X148500618Y-126616269D01*
X148586033Y-126618938D01*
X148636159Y-126610315D01*
X148678553Y-126583035D01*
X148706994Y-126541410D01*
X148717000Y-126492000D01*
X148717000Y-122809000D01*
X148708315Y-122762841D01*
X148681035Y-122720447D01*
X148639410Y-122692006D01*
X148590000Y-122682000D01*
X146177000Y-122682000D01*
X146177000Y-121025790D01*
X148077770Y-121025790D01*
X148570643Y-122215692D01*
X148667316Y-122449082D01*
X148845945Y-122627710D01*
X149079334Y-122724383D01*
X149331953Y-122724383D01*
X149877558Y-122498385D01*
X149963473Y-122290969D01*
X149179259Y-120397708D01*
X148163685Y-120818373D01*
X148077770Y-121025790D01*
X146177000Y-121025790D01*
X146177000Y-118821883D01*
X147269519Y-118821883D01*
X147269519Y-119074501D01*
X147366192Y-119307891D01*
X147859066Y-120497793D01*
X148066483Y-120583708D01*
X148750190Y-120300507D01*
X149413924Y-120300507D01*
X150198139Y-122193767D01*
X150405555Y-122279682D01*
X150951161Y-122053685D01*
X151129789Y-121875056D01*
X151226463Y-121641667D01*
X151226463Y-121389049D01*
X151129790Y-121155659D01*
X150636916Y-119965757D01*
X150429499Y-119879842D01*
X149413924Y-120300507D01*
X148750190Y-120300507D01*
X149082058Y-120163043D01*
X148297843Y-118269783D01*
X148090427Y-118183868D01*
X147544821Y-118409865D01*
X147366193Y-118588494D01*
X147269519Y-118821883D01*
X146177000Y-118821883D01*
X146177000Y-118172581D01*
X148532509Y-118172581D01*
X149316723Y-120065842D01*
X150332297Y-119645177D01*
X150418212Y-119437760D01*
X149925339Y-118247858D01*
X149828666Y-118014468D01*
X149650037Y-117835840D01*
X149416648Y-117739167D01*
X149164029Y-117739167D01*
X148618424Y-117965165D01*
X148532509Y-118172581D01*
X146177000Y-118172581D01*
X146177000Y-116992286D01*
X147960499Y-116257904D01*
X153459511Y-116257904D01*
X153459511Y-116510522D01*
X153556184Y-116743912D01*
X154049058Y-117933814D01*
X154256475Y-118019729D01*
X155272050Y-117599064D01*
X154487835Y-115705804D01*
X154280419Y-115619889D01*
X153734813Y-115845886D01*
X153556185Y-116024515D01*
X153459511Y-116257904D01*
X147960499Y-116257904D01*
X149537375Y-115608602D01*
X154722501Y-115608602D01*
X155506715Y-117501863D01*
X156522289Y-117081198D01*
X156608204Y-116873781D01*
X156115331Y-115683879D01*
X156018658Y-115450489D01*
X155840029Y-115271861D01*
X155606640Y-115175188D01*
X155354021Y-115175188D01*
X154808416Y-115401186D01*
X154722501Y-115608602D01*
X149537375Y-115608602D01*
X153972355Y-113782434D01*
X154012233Y-113756345D01*
X154040820Y-113714820D01*
X154378920Y-112922032D01*
X162232803Y-112922032D01*
X162262364Y-113073374D01*
X163219073Y-115383072D01*
X163297649Y-115503348D01*
X163424364Y-115591219D01*
X163575284Y-115622868D01*
X163726626Y-115593307D01*
X164835281Y-115134087D01*
X164955557Y-115055511D01*
X165043428Y-114928795D01*
X165075077Y-114777876D01*
X165045516Y-114626534D01*
X164088807Y-112316836D01*
X164010231Y-112196560D01*
X163883516Y-112108689D01*
X163732596Y-112077040D01*
X163581254Y-112106601D01*
X162472599Y-112565821D01*
X162352323Y-112644397D01*
X162264452Y-112771113D01*
X162232803Y-112922032D01*
X154378920Y-112922032D01*
X157723820Y-105078820D01*
X157733995Y-105030143D01*
X157724434Y-104980645D01*
X154168434Y-96344645D01*
X154140776Y-96303171D01*
X154098754Y-96275320D01*
X145335754Y-92719320D01*
X145289143Y-92710005D01*
X145239645Y-92719566D01*
X136603645Y-96275566D01*
X136561498Y-96303903D01*
X136533964Y-96346133D01*
X133104964Y-104982133D01*
X133096030Y-105026252D01*
X133104964Y-105075867D01*
X136533964Y-113711867D01*
X136561766Y-113754369D01*
X136603645Y-113782434D01*
X144399000Y-116992286D01*
X144399000Y-126365000D01*
X144406301Y-126407441D01*
X144432244Y-126450667D01*
X144472960Y-126480394D01*
X144522033Y-126491938D01*
X145475276Y-126521727D01*
X145410177Y-126548625D01*
X145091744Y-126866503D01*
X144919196Y-127282043D01*
X144918804Y-127731983D01*
X144974004Y-127865576D01*
X144321580Y-128518000D01*
X143773301Y-128518000D01*
X143895823Y-128467375D01*
X144214256Y-128149497D01*
X144386804Y-127733957D01*
X144387196Y-127284017D01*
X144215375Y-126868177D01*
X143897497Y-126549744D01*
X143481957Y-126377196D01*
X143032017Y-126376804D01*
X142616177Y-126548625D01*
X142297744Y-126866503D01*
X142242311Y-127000000D01*
X139607464Y-127000000D01*
X139607464Y-126776000D01*
X139580897Y-126634810D01*
X139497454Y-126505135D01*
X139370134Y-126418141D01*
X139219000Y-126387536D01*
X138674474Y-126387536D01*
X138683889Y-126364863D01*
X138684110Y-126112245D01*
X138587640Y-125878772D01*
X138409168Y-125699987D01*
X138175863Y-125603111D01*
X137923245Y-125602890D01*
X137689772Y-125699360D01*
X137633634Y-125755400D01*
X137149803Y-125755400D01*
X137149798Y-125755399D01*
X136965115Y-125792136D01*
X136808548Y-125896750D01*
X136317762Y-126387536D01*
X136269000Y-126387536D01*
X136139412Y-126411920D01*
X136019000Y-126387536D01*
X135728561Y-126387536D01*
X135578699Y-126237673D01*
X135518167Y-126212600D01*
X136188450Y-126212600D01*
X136373133Y-126175864D01*
X136529700Y-126071250D01*
X137781185Y-124819765D01*
X137781185Y-125002291D01*
X137807752Y-125143481D01*
X137891195Y-125273156D01*
X138018515Y-125360150D01*
X138169649Y-125390755D01*
X143770349Y-125390755D01*
X143911539Y-125364188D01*
X144041214Y-125280745D01*
X144128208Y-125153425D01*
X144158813Y-125002291D01*
X144158813Y-122901711D01*
X144132246Y-122760521D01*
X144048803Y-122630846D01*
X143921483Y-122543852D01*
X143770349Y-122513247D01*
X141452599Y-122513247D01*
X141452599Y-121139406D01*
X141487189Y-121132897D01*
X141616864Y-121049454D01*
X141703858Y-120922134D01*
X141734463Y-120771000D01*
X141734463Y-120021000D01*
X141707896Y-119879810D01*
X141624453Y-119750135D01*
X141497133Y-119663141D01*
X141345999Y-119632536D01*
X140545999Y-119632536D01*
X140404809Y-119659103D01*
X140387918Y-119669972D01*
X140384326Y-119661301D01*
X140205697Y-119482673D01*
X139972308Y-119386000D01*
X139731749Y-119386000D01*
X139572999Y-119544750D01*
X139572999Y-120269000D01*
X139592999Y-120269000D01*
X139592999Y-120523000D01*
X139572999Y-120523000D01*
X139572999Y-121247250D01*
X139731749Y-121406000D01*
X139972308Y-121406000D01*
X140205697Y-121309327D01*
X140384326Y-121130699D01*
X140387245Y-121123652D01*
X140394865Y-121128859D01*
X140487399Y-121147597D01*
X140487399Y-122513247D01*
X138169649Y-122513247D01*
X138028459Y-122539814D01*
X137898784Y-122623257D01*
X137811790Y-122750577D01*
X137781185Y-122901711D01*
X137781185Y-123506525D01*
X137625199Y-123610751D01*
X135988550Y-125247400D01*
X134366278Y-125247400D01*
X134430488Y-125153425D01*
X134461093Y-125002291D01*
X134461093Y-122901711D01*
X134434526Y-122760521D01*
X134351083Y-122630846D01*
X134223763Y-122543852D01*
X134072629Y-122513247D01*
X131673600Y-122513247D01*
X131673600Y-121143922D01*
X131732190Y-121132897D01*
X131861865Y-121049454D01*
X131948859Y-120922134D01*
X131979464Y-120771000D01*
X131979464Y-120021000D01*
X131965352Y-119946000D01*
X134501536Y-119946000D01*
X134501536Y-120846000D01*
X134528103Y-120987190D01*
X134611546Y-121116865D01*
X134738866Y-121203859D01*
X134890000Y-121234464D01*
X135095964Y-121234464D01*
X135805809Y-121944308D01*
X135763111Y-122047137D01*
X135762890Y-122299755D01*
X135859360Y-122533228D01*
X136037832Y-122712013D01*
X136271137Y-122808889D01*
X136523755Y-122809110D01*
X136757228Y-122712640D01*
X136936013Y-122534168D01*
X137032889Y-122300863D01*
X137033110Y-122048245D01*
X136936640Y-121814772D01*
X136856910Y-121734902D01*
X136843864Y-121669317D01*
X136797904Y-121600533D01*
X136739250Y-121512750D01*
X136739247Y-121512748D01*
X136707499Y-121481000D01*
X136767002Y-121481000D01*
X136767002Y-121324252D01*
X136923750Y-121481000D01*
X137016309Y-121481000D01*
X137249698Y-121384327D01*
X137428327Y-121205699D01*
X137525000Y-120972310D01*
X137525000Y-120681750D01*
X138410999Y-120681750D01*
X138410999Y-120897310D01*
X138507672Y-121130699D01*
X138686301Y-121309327D01*
X138919690Y-121406000D01*
X139160249Y-121406000D01*
X139318999Y-121247250D01*
X139318999Y-120523000D01*
X138569749Y-120523000D01*
X138410999Y-120681750D01*
X137525000Y-120681750D01*
X137366250Y-120523000D01*
X136765000Y-120523000D01*
X136765000Y-120543000D01*
X136515000Y-120543000D01*
X136515000Y-120523000D01*
X136493000Y-120523000D01*
X136493000Y-120269000D01*
X136515000Y-120269000D01*
X136515000Y-119469750D01*
X136765000Y-119469750D01*
X136765000Y-120269000D01*
X137366250Y-120269000D01*
X137525000Y-120110250D01*
X137525000Y-119894690D01*
X138410999Y-119894690D01*
X138410999Y-120110250D01*
X138569749Y-120269000D01*
X139318999Y-120269000D01*
X139318999Y-119544750D01*
X139160249Y-119386000D01*
X138919690Y-119386000D01*
X138686301Y-119482673D01*
X138507672Y-119661301D01*
X138410999Y-119894690D01*
X137525000Y-119894690D01*
X137525000Y-119819690D01*
X137428327Y-119586301D01*
X137249698Y-119407673D01*
X137016309Y-119311000D01*
X136923750Y-119311000D01*
X136765000Y-119469750D01*
X136515000Y-119469750D01*
X136356250Y-119311000D01*
X136263691Y-119311000D01*
X136030302Y-119407673D01*
X135851673Y-119586301D01*
X135755000Y-119819690D01*
X135755000Y-119821301D01*
X135751897Y-119804810D01*
X135668454Y-119675135D01*
X135541134Y-119588141D01*
X135390000Y-119557536D01*
X134890000Y-119557536D01*
X134748810Y-119584103D01*
X134619135Y-119667546D01*
X134532141Y-119794866D01*
X134501536Y-119946000D01*
X131965352Y-119946000D01*
X131952897Y-119879810D01*
X131869454Y-119750135D01*
X131742134Y-119663141D01*
X131591000Y-119632536D01*
X130791000Y-119632536D01*
X130649810Y-119659103D01*
X130632919Y-119669972D01*
X130629327Y-119661301D01*
X130450698Y-119482673D01*
X130217309Y-119386000D01*
X129976750Y-119386000D01*
X129818000Y-119544750D01*
X129818000Y-120269000D01*
X129838000Y-120269000D01*
X129838000Y-120523000D01*
X129818000Y-120523000D01*
X129818000Y-121247250D01*
X129976750Y-121406000D01*
X130217309Y-121406000D01*
X130450698Y-121309327D01*
X130629327Y-121130699D01*
X130632246Y-121123652D01*
X130639866Y-121128859D01*
X130708400Y-121142737D01*
X130708400Y-122513247D01*
X128471929Y-122513247D01*
X128330739Y-122539814D01*
X128201064Y-122623257D01*
X128114070Y-122750577D01*
X128083465Y-122901711D01*
X128083465Y-125002291D01*
X128110032Y-125143481D01*
X128193475Y-125273156D01*
X128320795Y-125360150D01*
X128471929Y-125390755D01*
X130789679Y-125390755D01*
X130789679Y-125982479D01*
X130826415Y-126167162D01*
X130931029Y-126323729D01*
X132524550Y-127917250D01*
X132680536Y-128021476D01*
X132680536Y-128362536D01*
X131094000Y-128362536D01*
X130952810Y-128389103D01*
X130831443Y-128467200D01*
X130269426Y-128467200D01*
X130266028Y-128461919D01*
X130274699Y-128458327D01*
X130453327Y-128279698D01*
X130550000Y-128046309D01*
X130550000Y-127805750D01*
X130391250Y-127647000D01*
X129667000Y-127647000D01*
X129667000Y-127667000D01*
X129413000Y-127667000D01*
X129413000Y-127647000D01*
X128688750Y-127647000D01*
X128530000Y-127805750D01*
X128530000Y-128046309D01*
X128626673Y-128279698D01*
X128731974Y-128385000D01*
X126380026Y-128385000D01*
X124988717Y-126993691D01*
X128530000Y-126993691D01*
X128530000Y-127234250D01*
X128688750Y-127393000D01*
X129413000Y-127393000D01*
X129413000Y-126643750D01*
X129667000Y-126643750D01*
X129667000Y-127393000D01*
X130391250Y-127393000D01*
X130550000Y-127234250D01*
X130550000Y-126993691D01*
X130453327Y-126760302D01*
X130274699Y-126581673D01*
X130041310Y-126485000D01*
X129825750Y-126485000D01*
X129667000Y-126643750D01*
X129413000Y-126643750D01*
X129254250Y-126485000D01*
X129038690Y-126485000D01*
X128805301Y-126581673D01*
X128626673Y-126760302D01*
X128530000Y-126993691D01*
X124988717Y-126993691D01*
X124862026Y-126867000D01*
X125051250Y-126867000D01*
X125210000Y-126708250D01*
X125210000Y-125984000D01*
X125464000Y-125984000D01*
X125464000Y-126708250D01*
X125622750Y-126867000D01*
X125863309Y-126867000D01*
X126096698Y-126770327D01*
X126275327Y-126591699D01*
X126372000Y-126358310D01*
X126372000Y-126142750D01*
X126213250Y-125984000D01*
X125464000Y-125984000D01*
X125210000Y-125984000D01*
X125190000Y-125984000D01*
X125190000Y-125730000D01*
X125210000Y-125730000D01*
X125210000Y-125005750D01*
X125464000Y-125005750D01*
X125464000Y-125730000D01*
X126213250Y-125730000D01*
X126372000Y-125571250D01*
X126372000Y-125355690D01*
X126275327Y-125122301D01*
X126096698Y-124943673D01*
X125863309Y-124847000D01*
X125622750Y-124847000D01*
X125464000Y-125005750D01*
X125210000Y-125005750D01*
X125051250Y-124847000D01*
X124810691Y-124847000D01*
X124577302Y-124943673D01*
X124398673Y-125122301D01*
X124395754Y-125129348D01*
X124388134Y-125124141D01*
X124383800Y-125123263D01*
X124383800Y-125024107D01*
X124393687Y-125000297D01*
X124444664Y-124924004D01*
X124493000Y-124681000D01*
X124493000Y-121973464D01*
X124633000Y-121973464D01*
X124774190Y-121946897D01*
X124903865Y-121863454D01*
X124990859Y-121736134D01*
X125021464Y-121585000D01*
X125021464Y-120985000D01*
X124994897Y-120843810D01*
X124911454Y-120714135D01*
X124864057Y-120681750D01*
X128656000Y-120681750D01*
X128656000Y-120897310D01*
X128752673Y-121130699D01*
X128931302Y-121309327D01*
X129164691Y-121406000D01*
X129405250Y-121406000D01*
X129564000Y-121247250D01*
X129564000Y-120523000D01*
X128814750Y-120523000D01*
X128656000Y-120681750D01*
X124864057Y-120681750D01*
X124816813Y-120649470D01*
X124903865Y-120593454D01*
X124990859Y-120466134D01*
X125021464Y-120315000D01*
X125021464Y-119715000D01*
X124994897Y-119573810D01*
X124911454Y-119444135D01*
X124816813Y-119379470D01*
X124903865Y-119323454D01*
X124969359Y-119227600D01*
X127054100Y-119227600D01*
X127380958Y-119554458D01*
X127380890Y-119632755D01*
X127477360Y-119866228D01*
X127655832Y-120045013D01*
X127889137Y-120141889D01*
X128141755Y-120142110D01*
X128375228Y-120045640D01*
X128431366Y-119989600D01*
X128656000Y-119989600D01*
X128656000Y-120110250D01*
X128814750Y-120269000D01*
X129564000Y-120269000D01*
X129564000Y-119544750D01*
X129535875Y-119516625D01*
X129723036Y-119329464D01*
X129929000Y-119329464D01*
X130070190Y-119302897D01*
X130199865Y-119219454D01*
X130286859Y-119092134D01*
X130317464Y-118941000D01*
X130317464Y-118041000D01*
X130290897Y-117899810D01*
X130207454Y-117770135D01*
X130080134Y-117683141D01*
X129929000Y-117652536D01*
X129429000Y-117652536D01*
X129353817Y-117666683D01*
X129723036Y-117297464D01*
X129929000Y-117297464D01*
X130070190Y-117270897D01*
X130199865Y-117187454D01*
X130286859Y-117060134D01*
X130317464Y-116909000D01*
X130317464Y-116052600D01*
X130540536Y-116052600D01*
X130540536Y-116909000D01*
X130567103Y-117050190D01*
X130650546Y-117179865D01*
X130696400Y-117211196D01*
X130696400Y-117737923D01*
X130658135Y-117762546D01*
X130571141Y-117889866D01*
X130540536Y-118041000D01*
X130540536Y-118941000D01*
X130567103Y-119082190D01*
X130650546Y-119211865D01*
X130777866Y-119298859D01*
X130929000Y-119329464D01*
X131429000Y-119329464D01*
X131570190Y-119302897D01*
X131699865Y-119219454D01*
X131786859Y-119092134D01*
X131817464Y-118941000D01*
X131817464Y-118041000D01*
X131790897Y-117899810D01*
X131707454Y-117770135D01*
X131661600Y-117738804D01*
X131661600Y-117212077D01*
X131699865Y-117187454D01*
X131786859Y-117060134D01*
X131817464Y-116909000D01*
X131817464Y-116009000D01*
X131790897Y-115867810D01*
X131707454Y-115738135D01*
X131638812Y-115691234D01*
X131624864Y-115621117D01*
X131590709Y-115570000D01*
X131520250Y-115464550D01*
X131520247Y-115464548D01*
X131284450Y-115228750D01*
X131127883Y-115124136D01*
X130943200Y-115087400D01*
X122791216Y-115087400D01*
X122784896Y-115053810D01*
X122701453Y-114924135D01*
X122657999Y-114894444D01*
X122657999Y-114275999D01*
X122609663Y-114032995D01*
X122472012Y-113826986D01*
X115975000Y-107329974D01*
X115975000Y-105837026D01*
X116080302Y-105942327D01*
X116313691Y-106039000D01*
X116554250Y-106039000D01*
X116713000Y-105880250D01*
X116713000Y-105156000D01*
X116967000Y-105156000D01*
X116967000Y-105880250D01*
X117125750Y-106039000D01*
X117366309Y-106039000D01*
X117599698Y-105942327D01*
X117778327Y-105763699D01*
X117875000Y-105530310D01*
X117875000Y-105314750D01*
X117716250Y-105156000D01*
X116967000Y-105156000D01*
X116713000Y-105156000D01*
X116693000Y-105156000D01*
X116693000Y-104902000D01*
X116713000Y-104902000D01*
X116713000Y-104177750D01*
X116967000Y-104177750D01*
X116967000Y-104902000D01*
X117716250Y-104902000D01*
X117875000Y-104743250D01*
X117875000Y-104527690D01*
X117778327Y-104294301D01*
X117599698Y-104115673D01*
X117366309Y-104019000D01*
X117125750Y-104019000D01*
X116967000Y-104177750D01*
X116713000Y-104177750D01*
X116554250Y-104019000D01*
X116313691Y-104019000D01*
X116080302Y-104115673D01*
X115901673Y-104294301D01*
X115898754Y-104301348D01*
X115891134Y-104296141D01*
X115874800Y-104292833D01*
X115874800Y-104069107D01*
X115900036Y-104008331D01*
X124195575Y-85091464D01*
X124237000Y-85091464D01*
X124378190Y-85064897D01*
X124395081Y-85054028D01*
X124398673Y-85062699D01*
X124577302Y-85241327D01*
X124810691Y-85338000D01*
X125051250Y-85338000D01*
X125210000Y-85179250D01*
X125210000Y-84455000D01*
X125464000Y-84455000D01*
X125464000Y-85179250D01*
X125622750Y-85338000D01*
X125863309Y-85338000D01*
X126096698Y-85241327D01*
X126275327Y-85062699D01*
X126372000Y-84829310D01*
X126372000Y-84613750D01*
X126213250Y-84455000D01*
X125464000Y-84455000D01*
X125210000Y-84455000D01*
X125190000Y-84455000D01*
X125190000Y-84201000D01*
X125210000Y-84201000D01*
X125210000Y-83476750D01*
X125464000Y-83476750D01*
X125464000Y-84201000D01*
X126213250Y-84201000D01*
X126372000Y-84042250D01*
X126372000Y-83826690D01*
X126275327Y-83593301D01*
X126096698Y-83414673D01*
X125863309Y-83318000D01*
X125622750Y-83318000D01*
X125464000Y-83476750D01*
X125210000Y-83476750D01*
X125086338Y-83353088D01*
X143761536Y-75676779D01*
X143761536Y-76194000D01*
X143788103Y-76335190D01*
X143871546Y-76464865D01*
X143998866Y-76551859D01*
X144076981Y-76567677D01*
X144543611Y-78507514D01*
X144583991Y-78595002D01*
X144616492Y-78685705D01*
X144635551Y-78706714D01*
X144647440Y-78732473D01*
X144718227Y-78797849D01*
X144782965Y-78869211D01*
X144808615Y-78881328D01*
X144829455Y-78900575D01*
X144919874Y-78933886D01*
X145006990Y-78975040D01*
X146022990Y-79229041D01*
X146026524Y-79229213D01*
X146029737Y-79230688D01*
X164701828Y-83682312D01*
X164620141Y-83801866D01*
X164589536Y-83953000D01*
X164589536Y-84703000D01*
X164616103Y-84844190D01*
X164699546Y-84973865D01*
X164826866Y-85060859D01*
X164978000Y-85091464D01*
X165017036Y-85091464D01*
X173278266Y-104133674D01*
X173304200Y-104196438D01*
X173304200Y-104311156D01*
X173204135Y-104375546D01*
X173117141Y-104502866D01*
X173086536Y-104654000D01*
X173086536Y-105259156D01*
X167039455Y-119440331D01*
X166193565Y-117398173D01*
X166114989Y-117277897D01*
X165988274Y-117190026D01*
X165837354Y-117158377D01*
X165686012Y-117187938D01*
X164577357Y-117647158D01*
X164457081Y-117725734D01*
X164369210Y-117852450D01*
X164337561Y-118003369D01*
X164367122Y-118154711D01*
X165323831Y-120464409D01*
X165402407Y-120584685D01*
X165529122Y-120672556D01*
X165680042Y-120704205D01*
X165831384Y-120674644D01*
X166659370Y-120331681D01*
X164945203Y-124351620D01*
X164942987Y-124353832D01*
X164894338Y-124470994D01*
X164894336Y-124470996D01*
X164894335Y-124470999D01*
X164846111Y-124587137D01*
X164845890Y-124839755D01*
X164858000Y-124869063D01*
X164858000Y-125180468D01*
X164822135Y-125203546D01*
X164735141Y-125330866D01*
X164704536Y-125482000D01*
X164704536Y-126232000D01*
X164731103Y-126373190D01*
X164814546Y-126502865D01*
X164824980Y-126509995D01*
X162528994Y-128805980D01*
X161687567Y-128805980D01*
X161626177Y-128763409D01*
X161475258Y-128731760D01*
X161474992Y-128731812D01*
X160386202Y-127643022D01*
X160835809Y-127456788D01*
X160956085Y-127378212D01*
X161043956Y-127251496D01*
X161075605Y-127100577D01*
X161046044Y-126949235D01*
X161030988Y-126912886D01*
X163898013Y-124045861D01*
X164035664Y-123839853D01*
X164084000Y-123596848D01*
X164084000Y-121398435D01*
X164630341Y-121172133D01*
X164750617Y-121093557D01*
X164838488Y-120966841D01*
X164870137Y-120815922D01*
X164840576Y-120664580D01*
X163883867Y-118354882D01*
X163805291Y-118234606D01*
X163678576Y-118146735D01*
X163527656Y-118115086D01*
X163411363Y-118137801D01*
X162555398Y-116071317D01*
X162645858Y-116012219D01*
X162733729Y-115885503D01*
X162765378Y-115734584D01*
X162735817Y-115583242D01*
X161779108Y-113273544D01*
X161700532Y-113153268D01*
X161573817Y-113065397D01*
X161422897Y-113033748D01*
X161271555Y-113063309D01*
X160162900Y-113522529D01*
X160042624Y-113601105D01*
X159954753Y-113727821D01*
X159923104Y-113878740D01*
X159952665Y-114030082D01*
X160909374Y-116339780D01*
X160987950Y-116460056D01*
X161114665Y-116547927D01*
X161265585Y-116579576D01*
X161381878Y-116556861D01*
X162237844Y-118623345D01*
X162147383Y-118682443D01*
X162059512Y-118809159D01*
X162027863Y-118960078D01*
X162057424Y-119111420D01*
X162814000Y-120937955D01*
X162814000Y-123333822D01*
X160088418Y-126059404D01*
X160043556Y-126077986D01*
X159989320Y-126023750D01*
X159832753Y-125919136D01*
X159679781Y-125888708D01*
X159618168Y-125826987D01*
X159384863Y-125730111D01*
X159132245Y-125729890D01*
X158898772Y-125826360D01*
X158719987Y-126004832D01*
X158662468Y-126143354D01*
X158613834Y-126133680D01*
X158544549Y-126133680D01*
X158529492Y-126097330D01*
X158450916Y-125977054D01*
X158324200Y-125889183D01*
X158173281Y-125857534D01*
X158021939Y-125887095D01*
X157282743Y-126193281D01*
X157162467Y-126271857D01*
X157074596Y-126398573D01*
X157042947Y-126549492D01*
X157060204Y-126637840D01*
X156772026Y-125942118D01*
X156693450Y-125821842D01*
X156616447Y-125768444D01*
X156882094Y-125658409D01*
X157060722Y-125479780D01*
X157157396Y-125246391D01*
X157157396Y-124993773D01*
X157060723Y-124760383D01*
X156548715Y-123524287D01*
X156341298Y-123438372D01*
X155556693Y-123763366D01*
X155564347Y-123781844D01*
X155329682Y-123879045D01*
X155322028Y-123860567D01*
X155303550Y-123868221D01*
X155206349Y-123633556D01*
X155224827Y-123625902D01*
X154421478Y-121686448D01*
X154214061Y-121600533D01*
X153933747Y-121716643D01*
X153966116Y-121668089D01*
X154151489Y-121589246D01*
X154656144Y-121589246D01*
X155459492Y-123528701D01*
X156244097Y-123203707D01*
X156330011Y-122996290D01*
X155818004Y-121760193D01*
X155721331Y-121526804D01*
X155542702Y-121348176D01*
X155309313Y-121251503D01*
X155056694Y-121251503D01*
X154742059Y-121381830D01*
X154656144Y-121589246D01*
X154151489Y-121589246D01*
X156659742Y-120522434D01*
X159772383Y-119233136D01*
X159836436Y-119259668D01*
X159960620Y-119559473D01*
X159957960Y-119560575D01*
X159837684Y-119639151D01*
X159749813Y-119765867D01*
X159718164Y-119916786D01*
X159747725Y-120068128D01*
X160704434Y-122377826D01*
X160783010Y-122498102D01*
X160909725Y-122585973D01*
X161060645Y-122617622D01*
X161211987Y-122588061D01*
X162320642Y-122128841D01*
X162440918Y-122050265D01*
X162528789Y-121923549D01*
X162560438Y-121772630D01*
X162530877Y-121621288D01*
X161574168Y-119311590D01*
X161495592Y-119191314D01*
X161368877Y-119103443D01*
X161217957Y-119071794D01*
X161139595Y-119087100D01*
X160909109Y-118530657D01*
X160771458Y-118324648D01*
X160593462Y-118205714D01*
X160635226Y-117995753D01*
X160586889Y-117752749D01*
X160586885Y-117752743D01*
X160277966Y-117006945D01*
X160336159Y-116968928D01*
X160424030Y-116842212D01*
X160455679Y-116691293D01*
X160426118Y-116539951D01*
X159469409Y-114230253D01*
X159390833Y-114109977D01*
X159264118Y-114022106D01*
X159113198Y-113990457D01*
X158961856Y-114020018D01*
X157853201Y-114479238D01*
X157732925Y-114557814D01*
X157645054Y-114684530D01*
X157613405Y-114835449D01*
X157642966Y-114986791D01*
X158599675Y-117296489D01*
X158678251Y-117416765D01*
X158804966Y-117504636D01*
X158955886Y-117536285D01*
X159107228Y-117506724D01*
X159109886Y-117505623D01*
X159312906Y-117995755D01*
X159286373Y-118059810D01*
X157416455Y-118834356D01*
X157416455Y-118825070D01*
X157319782Y-118591680D01*
X156826908Y-117401778D01*
X156619491Y-117315863D01*
X155603916Y-117736528D01*
X155611570Y-117755006D01*
X155376905Y-117852207D01*
X155369251Y-117833729D01*
X154353677Y-118254394D01*
X154267762Y-118461811D01*
X154760635Y-119651713D01*
X154857308Y-119885103D01*
X154874038Y-119901833D01*
X153294467Y-120573657D01*
X153244978Y-120607405D01*
X153189660Y-120630386D01*
X153143618Y-120676525D01*
X153089767Y-120713247D01*
X153056960Y-120763364D01*
X153014648Y-120805765D01*
X152252648Y-121948765D01*
X152235329Y-121990702D01*
X152208145Y-122027026D01*
X152188465Y-122104175D01*
X152158072Y-122177769D01*
X152158119Y-122223139D01*
X152146905Y-122267103D01*
X152158248Y-122345913D01*
X152158331Y-122425534D01*
X152175738Y-122467433D01*
X152182201Y-122512341D01*
X152244126Y-122687796D01*
X152142429Y-122754235D01*
X152054558Y-122880950D01*
X152022909Y-123031870D01*
X152052470Y-123183212D01*
X153391862Y-126416790D01*
X153470438Y-126537066D01*
X153581578Y-126614136D01*
X153898104Y-127378297D01*
X153916582Y-127370643D01*
X154013783Y-127605308D01*
X153995305Y-127612962D01*
X154331780Y-128425283D01*
X154539197Y-128511198D01*
X154692154Y-128447841D01*
X154870782Y-128269212D01*
X154951887Y-128073406D01*
X155358800Y-127904858D01*
X155479076Y-127826282D01*
X155566947Y-127699567D01*
X155598596Y-127548647D01*
X155593444Y-127522272D01*
X155728176Y-127470895D01*
X155659249Y-127637301D01*
X155659249Y-127889919D01*
X155751307Y-128112167D01*
X155958721Y-128198081D01*
X155819362Y-128255805D01*
X155800003Y-128242381D01*
X155649084Y-128210732D01*
X155497741Y-128240293D01*
X154897219Y-128489037D01*
X154776943Y-128567613D01*
X154689072Y-128694328D01*
X154657423Y-128845248D01*
X154686984Y-128996590D01*
X155092628Y-129975902D01*
X155171203Y-130096178D01*
X155236840Y-130141694D01*
X155367354Y-130467506D01*
X155337680Y-130510298D01*
X155306031Y-130661218D01*
X155335592Y-130812560D01*
X155622604Y-131505469D01*
X155701180Y-131625745D01*
X155827895Y-131713616D01*
X155935307Y-131736141D01*
X155967032Y-131813857D01*
X155044691Y-131608892D01*
X154986418Y-131607591D01*
X154929001Y-131597525D01*
X154893152Y-131605510D01*
X154856436Y-131604690D01*
X154802098Y-131625789D01*
X154745204Y-131638461D01*
X150427203Y-133543461D01*
X150375245Y-133579918D01*
X150319014Y-133609365D01*
X150298834Y-133633534D01*
X150273062Y-133651617D01*
X150239012Y-133705180D01*
X150198327Y-133753906D01*
X148041023Y-137708965D01*
X146663685Y-137785085D01*
X146649897Y-137711810D01*
X146566454Y-137582135D01*
X146439134Y-137495141D01*
X146288000Y-137464536D01*
X145788000Y-137464536D01*
X145646810Y-137491103D01*
X145517135Y-137574546D01*
X145430141Y-137701866D01*
X145399536Y-137853000D01*
X145399536Y-138753000D01*
X145426103Y-138894190D01*
X145509546Y-139023865D01*
X145636866Y-139110859D01*
X145788000Y-139141464D01*
X146288000Y-139141464D01*
X146429190Y-139114897D01*
X146558865Y-139031454D01*
X146645859Y-138904134D01*
X146676464Y-138753000D01*
X146676464Y-138751052D01*
X148175903Y-138668185D01*
X147668513Y-139598400D01*
X146670330Y-139598400D01*
X146649897Y-139489810D01*
X146566454Y-139360135D01*
X146439134Y-139273141D01*
X146288000Y-139242536D01*
X145788000Y-139242536D01*
X145646810Y-139269103D01*
X145517135Y-139352546D01*
X145430141Y-139479866D01*
X145399536Y-139631000D01*
X145399536Y-140531000D01*
X145426103Y-140672190D01*
X145509546Y-140801865D01*
X145636866Y-140888859D01*
X145788000Y-140919464D01*
X146288000Y-140919464D01*
X146429190Y-140892897D01*
X146558865Y-140809454D01*
X146645859Y-140682134D01*
X146669862Y-140563600D01*
X147955000Y-140563600D01*
X148022562Y-140550161D01*
X148091174Y-140543990D01*
X148114197Y-140531934D01*
X148139683Y-140526864D01*
X148196962Y-140488592D01*
X148257986Y-140456635D01*
X148274640Y-140436689D01*
X148296250Y-140422250D01*
X148334524Y-140364968D01*
X148378672Y-140312094D01*
X149907470Y-137509298D01*
X151867569Y-137509298D01*
X151867569Y-137761916D01*
X151964242Y-137995306D01*
X152170103Y-138492298D01*
X152377520Y-138578213D01*
X153531677Y-138100146D01*
X153524023Y-138081668D01*
X153758688Y-137984467D01*
X153766342Y-138002945D01*
X154733412Y-137602371D01*
X154733413Y-137602371D01*
X155933764Y-137105169D01*
X155436562Y-135904819D01*
X155325413Y-135858779D01*
X155332432Y-135841833D01*
X154940469Y-134895549D01*
X154408083Y-135116070D01*
X154340141Y-135280096D01*
X153535248Y-135613494D01*
X153542902Y-135631972D01*
X153308237Y-135729173D01*
X153300583Y-135710695D01*
X152007845Y-136246165D01*
X151921930Y-136453582D01*
X152070388Y-136811993D01*
X152167061Y-137045382D01*
X152196673Y-137074994D01*
X152142871Y-137097280D01*
X151964243Y-137275909D01*
X151867569Y-137509298D01*
X149907470Y-137509298D01*
X151347641Y-134868985D01*
X151678163Y-134724382D01*
X151554768Y-134847777D01*
X151458095Y-135081166D01*
X151458094Y-135333785D01*
X151554768Y-135567174D01*
X151703226Y-135925585D01*
X151910643Y-136011500D01*
X153203382Y-135476030D01*
X153195728Y-135457552D01*
X153430393Y-135360351D01*
X153438047Y-135378829D01*
X154730785Y-134843359D01*
X154798727Y-134679333D01*
X154843267Y-134660884D01*
X154451304Y-133714600D01*
X154243887Y-133628685D01*
X154181470Y-133654539D01*
X154067168Y-133768841D01*
X153906932Y-133768841D01*
X153084163Y-134109643D01*
X152998249Y-134317057D01*
X152938561Y-134172958D01*
X155109637Y-133223112D01*
X155227488Y-133252575D01*
X155314437Y-133452098D01*
X155232836Y-133485899D01*
X155037030Y-133404792D01*
X154784412Y-133404792D01*
X154711182Y-133435125D01*
X154721995Y-133430646D01*
M02*
