G04 #@! TF.FileFunction,Legend,Bot*
%FSLAX46Y46*%
G04 Gerber Fmt 4.6, Leading zero omitted, Abs format (unit mm)*
G04 Created by KiCad (PCBNEW 4.0.2-stable) date 7/20/2016 11:09:08 PM*
%MOMM*%
G01*
G04 APERTURE LIST*
%ADD10C,0.100000*%
%ADD11C,0.300000*%
%ADD12C,0.150000*%
%ADD13C,0.304800*%
G04 APERTURE END LIST*
D10*
D11*
X152145142Y-77561286D02*
X152216570Y-77489857D01*
X152359427Y-77418429D01*
X152502285Y-77418429D01*
X152645142Y-77489857D01*
X152716570Y-77561286D01*
X152787999Y-77704143D01*
X152787999Y-77847000D01*
X152716570Y-77989857D01*
X152645142Y-78061286D01*
X152502285Y-78132714D01*
X152359427Y-78132714D01*
X152216570Y-78061286D01*
X152145142Y-77989857D01*
X152145142Y-77418429D02*
X152145142Y-77989857D01*
X152073713Y-78061286D01*
X152002285Y-78061286D01*
X151859427Y-77989857D01*
X151787999Y-77847000D01*
X151787999Y-77489857D01*
X151930856Y-77275571D01*
X152145142Y-77132714D01*
X152430856Y-77061286D01*
X152716570Y-77132714D01*
X152930856Y-77275571D01*
X153073713Y-77489857D01*
X153145142Y-77775571D01*
X153073713Y-78061286D01*
X152930856Y-78275571D01*
X152716570Y-78418429D01*
X152430856Y-78489857D01*
X152145142Y-78418429D01*
X151930856Y-78275571D01*
X150502285Y-78204143D02*
X150645142Y-78275571D01*
X150930856Y-78275571D01*
X151073714Y-78204143D01*
X151145142Y-78132714D01*
X151216571Y-77989857D01*
X151216571Y-77561286D01*
X151145142Y-77418429D01*
X151073714Y-77347000D01*
X150930856Y-77275571D01*
X150645142Y-77275571D01*
X150502285Y-77347000D01*
X149859428Y-78275571D02*
X149859428Y-77275571D01*
X149859428Y-77561286D02*
X149788000Y-77418429D01*
X149716571Y-77347000D01*
X149573714Y-77275571D01*
X149430857Y-77275571D01*
X149073714Y-77275571D02*
X148716571Y-78275571D01*
X148359429Y-77275571D02*
X148716571Y-78275571D01*
X148859429Y-78632714D01*
X148930857Y-78704143D01*
X149073714Y-78775571D01*
X147788000Y-77275571D02*
X147788000Y-78775571D01*
X147788000Y-77347000D02*
X147645143Y-77275571D01*
X147359429Y-77275571D01*
X147216572Y-77347000D01*
X147145143Y-77418429D01*
X147073714Y-77561286D01*
X147073714Y-77989857D01*
X147145143Y-78132714D01*
X147216572Y-78204143D01*
X147359429Y-78275571D01*
X147645143Y-78275571D01*
X147788000Y-78204143D01*
X146645143Y-77275571D02*
X146073714Y-77275571D01*
X146430857Y-76775571D02*
X146430857Y-78061286D01*
X146359429Y-78204143D01*
X146216571Y-78275571D01*
X146073714Y-78275571D01*
X145359428Y-78275571D02*
X145502286Y-78204143D01*
X145573714Y-78132714D01*
X145645143Y-77989857D01*
X145645143Y-77561286D01*
X145573714Y-77418429D01*
X145502286Y-77347000D01*
X145359428Y-77275571D01*
X145145143Y-77275571D01*
X145002286Y-77347000D01*
X144930857Y-77418429D01*
X144859428Y-77561286D01*
X144859428Y-77989857D01*
X144930857Y-78132714D01*
X145002286Y-78204143D01*
X145145143Y-78275571D01*
X145359428Y-78275571D01*
X144359428Y-77275571D02*
X144002285Y-78275571D01*
X143645143Y-77275571D01*
X143073714Y-78275571D02*
X143073714Y-77275571D01*
X143073714Y-76775571D02*
X143145143Y-76847000D01*
X143073714Y-76918429D01*
X143002286Y-76847000D01*
X143073714Y-76775571D01*
X143073714Y-76918429D01*
X142145142Y-78275571D02*
X142288000Y-78204143D01*
X142359428Y-78061286D01*
X142359428Y-76775571D01*
X141359428Y-78275571D02*
X141502286Y-78204143D01*
X141573714Y-78061286D01*
X141573714Y-76775571D01*
X140145143Y-78275571D02*
X140145143Y-77489857D01*
X140216572Y-77347000D01*
X140359429Y-77275571D01*
X140645143Y-77275571D01*
X140788000Y-77347000D01*
X140145143Y-78204143D02*
X140288000Y-78275571D01*
X140645143Y-78275571D01*
X140788000Y-78204143D01*
X140859429Y-78061286D01*
X140859429Y-77918429D01*
X140788000Y-77775571D01*
X140645143Y-77704143D01*
X140288000Y-77704143D01*
X140145143Y-77632714D01*
X138788000Y-77275571D02*
X138788000Y-78489857D01*
X138859429Y-78632714D01*
X138930857Y-78704143D01*
X139073714Y-78775571D01*
X139288000Y-78775571D01*
X139430857Y-78704143D01*
X138788000Y-78204143D02*
X138930857Y-78275571D01*
X139216571Y-78275571D01*
X139359429Y-78204143D01*
X139430857Y-78132714D01*
X139502286Y-77989857D01*
X139502286Y-77561286D01*
X139430857Y-77418429D01*
X139359429Y-77347000D01*
X139216571Y-77275571D01*
X138930857Y-77275571D01*
X138788000Y-77347000D01*
X137502286Y-78204143D02*
X137645143Y-78275571D01*
X137930857Y-78275571D01*
X138073714Y-78204143D01*
X138145143Y-78061286D01*
X138145143Y-77489857D01*
X138073714Y-77347000D01*
X137930857Y-77275571D01*
X137645143Y-77275571D01*
X137502286Y-77347000D01*
X137430857Y-77489857D01*
X137430857Y-77632714D01*
X138145143Y-77775571D01*
D12*
X145677000Y-132120000D02*
X146677000Y-132120000D01*
X146677000Y-130770000D02*
X145677000Y-130770000D01*
X130791000Y-119796000D02*
X130091000Y-119796000D01*
X130091000Y-120996000D02*
X130791000Y-120996000D01*
X140545999Y-119796000D02*
X139845999Y-119796000D01*
X139845999Y-120996000D02*
X140545999Y-120996000D01*
X130140000Y-128620000D02*
X130140000Y-127920000D01*
X128940000Y-127920000D02*
X128940000Y-128620000D01*
X130140000Y-132684000D02*
X130140000Y-131984000D01*
X128940000Y-131984000D02*
X128940000Y-132684000D01*
X146322999Y-126076000D02*
X147022999Y-126076000D01*
X147022999Y-124876000D02*
X146322999Y-124876000D01*
X156806706Y-131258536D02*
X157453422Y-130990658D01*
X156994202Y-129882002D02*
X156347486Y-130149880D01*
X155818497Y-127202997D02*
X156086375Y-127849713D01*
X157195031Y-127390493D02*
X156927153Y-126743777D01*
X144926000Y-134966000D02*
X145626000Y-134966000D01*
X145626000Y-133766000D02*
X144926000Y-133766000D01*
X165893000Y-126457000D02*
X166593000Y-126457000D01*
X166593000Y-125257000D02*
X165893000Y-125257000D01*
X174275000Y-105629000D02*
X174975000Y-105629000D01*
X174975000Y-104429000D02*
X174275000Y-104429000D01*
X165778000Y-84928000D02*
X166478000Y-84928000D01*
X166478000Y-83728000D02*
X165778000Y-83728000D01*
X144950000Y-76419000D02*
X145650000Y-76419000D01*
X145650000Y-75219000D02*
X144950000Y-75219000D01*
X124237000Y-84928000D02*
X124937000Y-84928000D01*
X124937000Y-83728000D02*
X124237000Y-83728000D01*
X115740000Y-105629000D02*
X116440000Y-105629000D01*
X116440000Y-104429000D02*
X115740000Y-104429000D01*
X124237000Y-126457000D02*
X124937000Y-126457000D01*
X124937000Y-125257000D02*
X124237000Y-125257000D01*
X160080471Y-129940382D02*
X159849501Y-130036053D01*
X160542411Y-129749040D02*
X160773381Y-129653369D01*
X160542411Y-129749040D02*
X159946532Y-129617024D01*
X159946532Y-129617024D02*
X160214410Y-130263740D01*
X160214410Y-130263740D02*
X160542411Y-129749040D01*
X160408472Y-129425682D02*
X160676350Y-130072398D01*
X161818631Y-130086326D02*
X159601320Y-131004766D01*
X161206338Y-128608119D02*
X158989027Y-129526559D01*
X132519000Y-128201000D02*
X132844000Y-128201000D01*
X132519000Y-135451000D02*
X132844000Y-135451000D01*
X139769000Y-135451000D02*
X139444000Y-135451000D01*
X139769000Y-128201000D02*
X139444000Y-128201000D01*
X132519000Y-128201000D02*
X132519000Y-128526000D01*
X139769000Y-128201000D02*
X139769000Y-128526000D01*
X139769000Y-135451000D02*
X139769000Y-135126000D01*
X132519000Y-135451000D02*
X132519000Y-135126000D01*
X132844000Y-128201000D02*
X132844000Y-126776000D01*
X162263012Y-137548259D02*
X154225260Y-140877605D01*
X159811925Y-131630810D02*
X151774173Y-134960156D01*
X151774173Y-134960156D02*
X154225260Y-140877605D01*
X153754560Y-139741233D02*
X161792312Y-136411887D01*
X162263012Y-137548259D02*
X159811925Y-131630810D01*
X159345800Y-125814288D02*
X159364269Y-125858874D01*
X159769247Y-128668484D02*
X160416924Y-128400208D01*
X160416924Y-128400208D02*
X160321666Y-128170236D01*
X159345800Y-125814288D02*
X159269011Y-125628902D01*
X159269011Y-125628902D02*
X158621335Y-125897178D01*
X145788000Y-139406000D02*
X144788000Y-139406000D01*
X144788000Y-140756000D02*
X145788000Y-140756000D01*
X145788000Y-137628000D02*
X144788000Y-137628000D01*
X144788000Y-138978000D02*
X145788000Y-138978000D01*
X161830744Y-130546737D02*
X160906865Y-130929420D01*
X161423488Y-132176657D02*
X162347367Y-131793974D01*
X147173000Y-123023000D02*
X146173000Y-123023000D01*
X146173000Y-124373000D02*
X147173000Y-124373000D01*
X151124166Y-129672413D02*
X151506849Y-130596292D01*
X152754086Y-130079669D02*
X152371403Y-129155790D01*
X119083000Y-121955000D02*
X119083000Y-121810000D01*
X123233000Y-121955000D02*
X123233000Y-121810000D01*
X123233000Y-116805000D02*
X123233000Y-116950000D01*
X119083000Y-116805000D02*
X119083000Y-116950000D01*
X119083000Y-121955000D02*
X123233000Y-121955000D01*
X119083000Y-116805000D02*
X123233000Y-116805000D01*
X119083000Y-121810000D02*
X117683000Y-121810000D01*
X152664924Y-128933895D02*
G75*
G03X152664924Y-128933895I-100000J0D01*
G01*
X153006370Y-129346358D02*
X152815028Y-128884418D01*
X155685620Y-128236576D02*
X153006370Y-129346358D01*
X155494278Y-127774636D02*
X155685620Y-128236576D01*
X152815028Y-128884418D02*
X155494278Y-127774636D01*
X130271519Y-121452641D02*
X141970759Y-121452641D01*
X141970759Y-126451361D02*
X130271519Y-126451361D01*
X141970759Y-121452641D02*
X141970759Y-122301001D01*
X141970759Y-126451361D02*
X141970759Y-125603001D01*
X130271519Y-121452641D02*
X130271519Y-122301001D01*
X130271519Y-126451361D02*
X130271519Y-125603001D01*
X121622999Y-114970000D02*
X120922999Y-114970000D01*
X120922999Y-116170000D02*
X121622999Y-116170000D01*
X124539066Y-134598575D02*
X119919669Y-132685158D01*
X119919669Y-132685158D02*
X119827281Y-132646890D01*
X119827281Y-132646890D02*
X121778966Y-127935104D01*
X121778966Y-127935104D02*
X122333294Y-128164714D01*
X125534043Y-132196488D02*
X127843742Y-133153197D01*
X125534043Y-132196488D02*
X124539066Y-134598575D01*
X124539066Y-134598575D02*
X126848765Y-135555284D01*
X126848765Y-135555284D02*
X128800451Y-130843498D01*
X128800451Y-130843498D02*
X122425682Y-128202983D01*
X136390000Y-119721000D02*
X135390000Y-119721000D01*
X135390000Y-121071000D02*
X136390000Y-121071000D01*
X129929000Y-117134000D02*
X130929000Y-117134000D01*
X130929000Y-115784000D02*
X129929000Y-115784000D01*
X129929000Y-119166000D02*
X130929000Y-119166000D01*
X130929000Y-117816000D02*
X129929000Y-117816000D01*
X150725047Y-131897381D02*
X151058381Y-131421190D01*
X151296476Y-131897381D02*
X151296476Y-130897381D01*
X150915523Y-130897381D01*
X150820285Y-130945000D01*
X150772666Y-130992619D01*
X150725047Y-131087857D01*
X150725047Y-131230714D01*
X150772666Y-131325952D01*
X150820285Y-131373571D01*
X150915523Y-131421190D01*
X151296476Y-131421190D01*
X149772666Y-131897381D02*
X150344095Y-131897381D01*
X150058381Y-131897381D02*
X150058381Y-130897381D01*
X150153619Y-131040238D01*
X150248857Y-131135476D01*
X150344095Y-131183095D01*
X149153619Y-130897381D02*
X149058380Y-130897381D01*
X148963142Y-130945000D01*
X148915523Y-130992619D01*
X148867904Y-131087857D01*
X148820285Y-131278333D01*
X148820285Y-131516429D01*
X148867904Y-131706905D01*
X148915523Y-131802143D01*
X148963142Y-131849762D01*
X149058380Y-131897381D01*
X149153619Y-131897381D01*
X149248857Y-131849762D01*
X149296476Y-131802143D01*
X149344095Y-131706905D01*
X149391714Y-131516429D01*
X149391714Y-131278333D01*
X149344095Y-131087857D01*
X149296476Y-130992619D01*
X149248857Y-130945000D01*
X149153619Y-130897381D01*
X147915523Y-130897381D02*
X148391714Y-130897381D01*
X148439333Y-131373571D01*
X148391714Y-131325952D01*
X148296476Y-131278333D01*
X148058380Y-131278333D01*
X147963142Y-131325952D01*
X147915523Y-131373571D01*
X147867904Y-131468810D01*
X147867904Y-131706905D01*
X147915523Y-131802143D01*
X147963142Y-131849762D01*
X148058380Y-131897381D01*
X148296476Y-131897381D01*
X148391714Y-131849762D01*
X148439333Y-131802143D01*
X128119047Y-120753143D02*
X128166666Y-120800762D01*
X128309523Y-120848381D01*
X128404761Y-120848381D01*
X128547619Y-120800762D01*
X128642857Y-120705524D01*
X128690476Y-120610286D01*
X128738095Y-120419810D01*
X128738095Y-120276952D01*
X128690476Y-120086476D01*
X128642857Y-119991238D01*
X128547619Y-119896000D01*
X128404761Y-119848381D01*
X128309523Y-119848381D01*
X128166666Y-119896000D01*
X128119047Y-119943619D01*
X127166666Y-120848381D02*
X127738095Y-120848381D01*
X127452381Y-120848381D02*
X127452381Y-119848381D01*
X127547619Y-119991238D01*
X127642857Y-120086476D01*
X127738095Y-120134095D01*
X126547619Y-119848381D02*
X126452380Y-119848381D01*
X126357142Y-119896000D01*
X126309523Y-119943619D01*
X126261904Y-120038857D01*
X126214285Y-120229333D01*
X126214285Y-120467429D01*
X126261904Y-120657905D01*
X126309523Y-120753143D01*
X126357142Y-120800762D01*
X126452380Y-120848381D01*
X126547619Y-120848381D01*
X126642857Y-120800762D01*
X126690476Y-120753143D01*
X126738095Y-120657905D01*
X126785714Y-120467429D01*
X126785714Y-120229333D01*
X126738095Y-120038857D01*
X126690476Y-119943619D01*
X126642857Y-119896000D01*
X126547619Y-119848381D01*
X125261904Y-120848381D02*
X125833333Y-120848381D01*
X125547619Y-120848381D02*
X125547619Y-119848381D01*
X125642857Y-119991238D01*
X125738095Y-120086476D01*
X125833333Y-120134095D01*
X141315046Y-118853143D02*
X141362665Y-118900762D01*
X141505522Y-118948381D01*
X141600760Y-118948381D01*
X141743618Y-118900762D01*
X141838856Y-118805524D01*
X141886475Y-118710286D01*
X141934094Y-118519810D01*
X141934094Y-118376952D01*
X141886475Y-118186476D01*
X141838856Y-118091238D01*
X141743618Y-117996000D01*
X141600760Y-117948381D01*
X141505522Y-117948381D01*
X141362665Y-117996000D01*
X141315046Y-118043619D01*
X140362665Y-118948381D02*
X140934094Y-118948381D01*
X140648380Y-118948381D02*
X140648380Y-117948381D01*
X140743618Y-118091238D01*
X140838856Y-118186476D01*
X140934094Y-118234095D01*
X139743618Y-117948381D02*
X139648379Y-117948381D01*
X139553141Y-117996000D01*
X139505522Y-118043619D01*
X139457903Y-118138857D01*
X139410284Y-118329333D01*
X139410284Y-118567429D01*
X139457903Y-118757905D01*
X139505522Y-118853143D01*
X139553141Y-118900762D01*
X139648379Y-118948381D01*
X139743618Y-118948381D01*
X139838856Y-118900762D01*
X139886475Y-118853143D01*
X139934094Y-118757905D01*
X139981713Y-118567429D01*
X139981713Y-118329333D01*
X139934094Y-118138857D01*
X139886475Y-118043619D01*
X139838856Y-117996000D01*
X139743618Y-117948381D01*
X139029332Y-118043619D02*
X138981713Y-117996000D01*
X138886475Y-117948381D01*
X138648379Y-117948381D01*
X138553141Y-117996000D01*
X138505522Y-118043619D01*
X138457903Y-118138857D01*
X138457903Y-118234095D01*
X138505522Y-118376952D01*
X139076951Y-118948381D01*
X138457903Y-118948381D01*
X128373143Y-127150953D02*
X128420762Y-127103334D01*
X128468381Y-126960477D01*
X128468381Y-126865239D01*
X128420762Y-126722381D01*
X128325524Y-126627143D01*
X128230286Y-126579524D01*
X128039810Y-126531905D01*
X127896952Y-126531905D01*
X127706476Y-126579524D01*
X127611238Y-126627143D01*
X127516000Y-126722381D01*
X127468381Y-126865239D01*
X127468381Y-126960477D01*
X127516000Y-127103334D01*
X127563619Y-127150953D01*
X128468381Y-128103334D02*
X128468381Y-127531905D01*
X128468381Y-127817619D02*
X127468381Y-127817619D01*
X127611238Y-127722381D01*
X127706476Y-127627143D01*
X127754095Y-127531905D01*
X127468381Y-128722381D02*
X127468381Y-128817620D01*
X127516000Y-128912858D01*
X127563619Y-128960477D01*
X127658857Y-129008096D01*
X127849333Y-129055715D01*
X128087429Y-129055715D01*
X128277905Y-129008096D01*
X128373143Y-128960477D01*
X128420762Y-128912858D01*
X128468381Y-128817620D01*
X128468381Y-128722381D01*
X128420762Y-128627143D01*
X128373143Y-128579524D01*
X128277905Y-128531905D01*
X128087429Y-128484286D01*
X127849333Y-128484286D01*
X127658857Y-128531905D01*
X127563619Y-128579524D01*
X127516000Y-128627143D01*
X127468381Y-128722381D01*
X127468381Y-129389048D02*
X127468381Y-130008096D01*
X127849333Y-129674762D01*
X127849333Y-129817620D01*
X127896952Y-129912858D01*
X127944571Y-129960477D01*
X128039810Y-130008096D01*
X128277905Y-130008096D01*
X128373143Y-129960477D01*
X128420762Y-129912858D01*
X128468381Y-129817620D01*
X128468381Y-129531905D01*
X128420762Y-129436667D01*
X128373143Y-129389048D01*
X130151047Y-135358143D02*
X130198666Y-135405762D01*
X130341523Y-135453381D01*
X130436761Y-135453381D01*
X130579619Y-135405762D01*
X130674857Y-135310524D01*
X130722476Y-135215286D01*
X130770095Y-135024810D01*
X130770095Y-134881952D01*
X130722476Y-134691476D01*
X130674857Y-134596238D01*
X130579619Y-134501000D01*
X130436761Y-134453381D01*
X130341523Y-134453381D01*
X130198666Y-134501000D01*
X130151047Y-134548619D01*
X129198666Y-135453381D02*
X129770095Y-135453381D01*
X129484381Y-135453381D02*
X129484381Y-134453381D01*
X129579619Y-134596238D01*
X129674857Y-134691476D01*
X129770095Y-134739095D01*
X128579619Y-134453381D02*
X128484380Y-134453381D01*
X128389142Y-134501000D01*
X128341523Y-134548619D01*
X128293904Y-134643857D01*
X128246285Y-134834333D01*
X128246285Y-135072429D01*
X128293904Y-135262905D01*
X128341523Y-135358143D01*
X128389142Y-135405762D01*
X128484380Y-135453381D01*
X128579619Y-135453381D01*
X128674857Y-135405762D01*
X128722476Y-135358143D01*
X128770095Y-135262905D01*
X128817714Y-135072429D01*
X128817714Y-134834333D01*
X128770095Y-134643857D01*
X128722476Y-134548619D01*
X128674857Y-134501000D01*
X128579619Y-134453381D01*
X127389142Y-134786714D02*
X127389142Y-135453381D01*
X127627238Y-134405762D02*
X127865333Y-135120048D01*
X127246285Y-135120048D01*
X151233047Y-125579143D02*
X151280666Y-125626762D01*
X151423523Y-125674381D01*
X151518761Y-125674381D01*
X151661619Y-125626762D01*
X151756857Y-125531524D01*
X151804476Y-125436286D01*
X151852095Y-125245810D01*
X151852095Y-125102952D01*
X151804476Y-124912476D01*
X151756857Y-124817238D01*
X151661619Y-124722000D01*
X151518761Y-124674381D01*
X151423523Y-124674381D01*
X151280666Y-124722000D01*
X151233047Y-124769619D01*
X150280666Y-125674381D02*
X150852095Y-125674381D01*
X150566381Y-125674381D02*
X150566381Y-124674381D01*
X150661619Y-124817238D01*
X150756857Y-124912476D01*
X150852095Y-124960095D01*
X149661619Y-124674381D02*
X149566380Y-124674381D01*
X149471142Y-124722000D01*
X149423523Y-124769619D01*
X149375904Y-124864857D01*
X149328285Y-125055333D01*
X149328285Y-125293429D01*
X149375904Y-125483905D01*
X149423523Y-125579143D01*
X149471142Y-125626762D01*
X149566380Y-125674381D01*
X149661619Y-125674381D01*
X149756857Y-125626762D01*
X149804476Y-125579143D01*
X149852095Y-125483905D01*
X149899714Y-125293429D01*
X149899714Y-125055333D01*
X149852095Y-124864857D01*
X149804476Y-124769619D01*
X149756857Y-124722000D01*
X149661619Y-124674381D01*
X148423523Y-124674381D02*
X148899714Y-124674381D01*
X148947333Y-125150571D01*
X148899714Y-125102952D01*
X148804476Y-125055333D01*
X148566380Y-125055333D01*
X148471142Y-125102952D01*
X148423523Y-125150571D01*
X148375904Y-125245810D01*
X148375904Y-125483905D01*
X148423523Y-125579143D01*
X148471142Y-125626762D01*
X148566380Y-125674381D01*
X148804476Y-125674381D01*
X148899714Y-125626762D01*
X148947333Y-125579143D01*
X158650537Y-131727716D02*
X158712755Y-131753488D01*
X158862960Y-131742813D01*
X158950949Y-131706367D01*
X159064709Y-131607703D01*
X159116252Y-131483269D01*
X159123800Y-131377057D01*
X159094902Y-131182857D01*
X159040233Y-131050874D01*
X158923346Y-130893120D01*
X158842906Y-130823355D01*
X158718472Y-130771812D01*
X158568265Y-130782487D01*
X158480277Y-130818933D01*
X158366517Y-130917596D01*
X158340746Y-130979814D01*
X157988792Y-131125598D02*
X157926575Y-131099827D01*
X157820363Y-131092278D01*
X157600391Y-131183394D01*
X157530626Y-131263834D01*
X157504855Y-131326051D01*
X157497307Y-131432263D01*
X157533753Y-131520251D01*
X157632416Y-131634011D01*
X158379024Y-131943266D01*
X157807098Y-132180165D01*
X156852490Y-131493185D02*
X156764500Y-131529631D01*
X156694735Y-131610071D01*
X156668964Y-131672289D01*
X156661416Y-131778500D01*
X156690313Y-131972700D01*
X156781429Y-132192672D01*
X156898315Y-132350426D01*
X156978755Y-132420191D01*
X157040972Y-132445962D01*
X157147184Y-132453511D01*
X157235173Y-132417064D01*
X157304939Y-132336624D01*
X157330710Y-132274407D01*
X157338258Y-132168195D01*
X157309360Y-131973995D01*
X157218245Y-131754023D01*
X157101359Y-131596270D01*
X157020918Y-131526504D01*
X156958701Y-131500733D01*
X156852490Y-131493185D01*
X156047327Y-132909086D02*
X156575259Y-132690410D01*
X156311294Y-132799748D02*
X155928610Y-131875868D01*
X156071268Y-131971405D01*
X156195702Y-132022947D01*
X156301914Y-132030495D01*
X157070284Y-125503537D02*
X157044512Y-125565755D01*
X157055187Y-125715960D01*
X157091633Y-125803949D01*
X157190297Y-125917709D01*
X157314731Y-125969252D01*
X157420943Y-125976800D01*
X157615143Y-125947902D01*
X157747126Y-125893233D01*
X157904880Y-125776346D01*
X157974645Y-125695906D01*
X158026188Y-125571472D01*
X158015513Y-125421265D01*
X157979067Y-125333277D01*
X157880404Y-125219517D01*
X157818186Y-125193746D01*
X157672402Y-124841792D02*
X157698173Y-124779575D01*
X157705722Y-124673363D01*
X157614606Y-124453391D01*
X157534166Y-124383626D01*
X157471949Y-124357855D01*
X157365737Y-124350307D01*
X157277749Y-124386753D01*
X157163989Y-124485416D01*
X156854734Y-125232024D01*
X156617835Y-124660098D01*
X157304815Y-123705490D02*
X157268369Y-123617500D01*
X157187929Y-123547735D01*
X157125711Y-123521964D01*
X157019500Y-123514416D01*
X156825300Y-123543313D01*
X156605328Y-123634429D01*
X156447574Y-123751315D01*
X156377809Y-123831755D01*
X156352038Y-123893972D01*
X156344489Y-124000184D01*
X156380936Y-124088173D01*
X156461376Y-124157939D01*
X156523593Y-124183710D01*
X156629805Y-124191258D01*
X156824005Y-124162360D01*
X157043977Y-124071245D01*
X157201730Y-123954359D01*
X157271496Y-123873918D01*
X157297267Y-123811701D01*
X157304815Y-123705490D01*
X156943481Y-123082022D02*
X156969253Y-123019804D01*
X156976801Y-122913593D01*
X156885685Y-122693621D01*
X156805245Y-122623855D01*
X156743028Y-122598084D01*
X156636817Y-122590536D01*
X156548828Y-122626982D01*
X156435068Y-122725645D01*
X156125813Y-123472253D01*
X155888914Y-122900327D01*
X146395047Y-136623143D02*
X146442666Y-136670762D01*
X146585523Y-136718381D01*
X146680761Y-136718381D01*
X146823619Y-136670762D01*
X146918857Y-136575524D01*
X146966476Y-136480286D01*
X147014095Y-136289810D01*
X147014095Y-136146952D01*
X146966476Y-135956476D01*
X146918857Y-135861238D01*
X146823619Y-135766000D01*
X146680761Y-135718381D01*
X146585523Y-135718381D01*
X146442666Y-135766000D01*
X146395047Y-135813619D01*
X146061714Y-135718381D02*
X145442666Y-135718381D01*
X145776000Y-136099333D01*
X145633142Y-136099333D01*
X145537904Y-136146952D01*
X145490285Y-136194571D01*
X145442666Y-136289810D01*
X145442666Y-136527905D01*
X145490285Y-136623143D01*
X145537904Y-136670762D01*
X145633142Y-136718381D01*
X145918857Y-136718381D01*
X146014095Y-136670762D01*
X146061714Y-136623143D01*
X144823619Y-135718381D02*
X144728380Y-135718381D01*
X144633142Y-135766000D01*
X144585523Y-135813619D01*
X144537904Y-135908857D01*
X144490285Y-136099333D01*
X144490285Y-136337429D01*
X144537904Y-136527905D01*
X144585523Y-136623143D01*
X144633142Y-136670762D01*
X144728380Y-136718381D01*
X144823619Y-136718381D01*
X144918857Y-136670762D01*
X144966476Y-136623143D01*
X145014095Y-136527905D01*
X145061714Y-136337429D01*
X145061714Y-136099333D01*
X145014095Y-135908857D01*
X144966476Y-135813619D01*
X144918857Y-135766000D01*
X144823619Y-135718381D01*
X143537904Y-136718381D02*
X144109333Y-136718381D01*
X143823619Y-136718381D02*
X143823619Y-135718381D01*
X143918857Y-135861238D01*
X144014095Y-135956476D01*
X144109333Y-136004095D01*
X167235047Y-124309143D02*
X167282666Y-124356762D01*
X167425523Y-124404381D01*
X167520761Y-124404381D01*
X167663619Y-124356762D01*
X167758857Y-124261524D01*
X167806476Y-124166286D01*
X167854095Y-123975810D01*
X167854095Y-123832952D01*
X167806476Y-123642476D01*
X167758857Y-123547238D01*
X167663619Y-123452000D01*
X167520761Y-123404381D01*
X167425523Y-123404381D01*
X167282666Y-123452000D01*
X167235047Y-123499619D01*
X166901714Y-123404381D02*
X166282666Y-123404381D01*
X166616000Y-123785333D01*
X166473142Y-123785333D01*
X166377904Y-123832952D01*
X166330285Y-123880571D01*
X166282666Y-123975810D01*
X166282666Y-124213905D01*
X166330285Y-124309143D01*
X166377904Y-124356762D01*
X166473142Y-124404381D01*
X166758857Y-124404381D01*
X166854095Y-124356762D01*
X166901714Y-124309143D01*
X165663619Y-123404381D02*
X165568380Y-123404381D01*
X165473142Y-123452000D01*
X165425523Y-123499619D01*
X165377904Y-123594857D01*
X165330285Y-123785333D01*
X165330285Y-124023429D01*
X165377904Y-124213905D01*
X165425523Y-124309143D01*
X165473142Y-124356762D01*
X165568380Y-124404381D01*
X165663619Y-124404381D01*
X165758857Y-124356762D01*
X165806476Y-124309143D01*
X165854095Y-124213905D01*
X165901714Y-124023429D01*
X165901714Y-123785333D01*
X165854095Y-123594857D01*
X165806476Y-123499619D01*
X165758857Y-123452000D01*
X165663619Y-123404381D01*
X164949333Y-123499619D02*
X164901714Y-123452000D01*
X164806476Y-123404381D01*
X164568380Y-123404381D01*
X164473142Y-123452000D01*
X164425523Y-123499619D01*
X164377904Y-123594857D01*
X164377904Y-123690095D01*
X164425523Y-123832952D01*
X164996952Y-124404381D01*
X164377904Y-124404381D01*
X175744047Y-107286143D02*
X175791666Y-107333762D01*
X175934523Y-107381381D01*
X176029761Y-107381381D01*
X176172619Y-107333762D01*
X176267857Y-107238524D01*
X176315476Y-107143286D01*
X176363095Y-106952810D01*
X176363095Y-106809952D01*
X176315476Y-106619476D01*
X176267857Y-106524238D01*
X176172619Y-106429000D01*
X176029761Y-106381381D01*
X175934523Y-106381381D01*
X175791666Y-106429000D01*
X175744047Y-106476619D01*
X175410714Y-106381381D02*
X174791666Y-106381381D01*
X175125000Y-106762333D01*
X174982142Y-106762333D01*
X174886904Y-106809952D01*
X174839285Y-106857571D01*
X174791666Y-106952810D01*
X174791666Y-107190905D01*
X174839285Y-107286143D01*
X174886904Y-107333762D01*
X174982142Y-107381381D01*
X175267857Y-107381381D01*
X175363095Y-107333762D01*
X175410714Y-107286143D01*
X174172619Y-106381381D02*
X174077380Y-106381381D01*
X173982142Y-106429000D01*
X173934523Y-106476619D01*
X173886904Y-106571857D01*
X173839285Y-106762333D01*
X173839285Y-107000429D01*
X173886904Y-107190905D01*
X173934523Y-107286143D01*
X173982142Y-107333762D01*
X174077380Y-107381381D01*
X174172619Y-107381381D01*
X174267857Y-107333762D01*
X174315476Y-107286143D01*
X174363095Y-107190905D01*
X174410714Y-107000429D01*
X174410714Y-106762333D01*
X174363095Y-106571857D01*
X174315476Y-106476619D01*
X174267857Y-106429000D01*
X174172619Y-106381381D01*
X173505952Y-106381381D02*
X172886904Y-106381381D01*
X173220238Y-106762333D01*
X173077380Y-106762333D01*
X172982142Y-106809952D01*
X172934523Y-106857571D01*
X172886904Y-106952810D01*
X172886904Y-107190905D01*
X172934523Y-107286143D01*
X172982142Y-107333762D01*
X173077380Y-107381381D01*
X173363095Y-107381381D01*
X173458333Y-107333762D01*
X173505952Y-107286143D01*
X167247047Y-86585143D02*
X167294666Y-86632762D01*
X167437523Y-86680381D01*
X167532761Y-86680381D01*
X167675619Y-86632762D01*
X167770857Y-86537524D01*
X167818476Y-86442286D01*
X167866095Y-86251810D01*
X167866095Y-86108952D01*
X167818476Y-85918476D01*
X167770857Y-85823238D01*
X167675619Y-85728000D01*
X167532761Y-85680381D01*
X167437523Y-85680381D01*
X167294666Y-85728000D01*
X167247047Y-85775619D01*
X166913714Y-85680381D02*
X166294666Y-85680381D01*
X166628000Y-86061333D01*
X166485142Y-86061333D01*
X166389904Y-86108952D01*
X166342285Y-86156571D01*
X166294666Y-86251810D01*
X166294666Y-86489905D01*
X166342285Y-86585143D01*
X166389904Y-86632762D01*
X166485142Y-86680381D01*
X166770857Y-86680381D01*
X166866095Y-86632762D01*
X166913714Y-86585143D01*
X165675619Y-85680381D02*
X165580380Y-85680381D01*
X165485142Y-85728000D01*
X165437523Y-85775619D01*
X165389904Y-85870857D01*
X165342285Y-86061333D01*
X165342285Y-86299429D01*
X165389904Y-86489905D01*
X165437523Y-86585143D01*
X165485142Y-86632762D01*
X165580380Y-86680381D01*
X165675619Y-86680381D01*
X165770857Y-86632762D01*
X165818476Y-86585143D01*
X165866095Y-86489905D01*
X165913714Y-86299429D01*
X165913714Y-86061333D01*
X165866095Y-85870857D01*
X165818476Y-85775619D01*
X165770857Y-85728000D01*
X165675619Y-85680381D01*
X164485142Y-86013714D02*
X164485142Y-86680381D01*
X164723238Y-85632762D02*
X164961333Y-86347048D01*
X164342285Y-86347048D01*
X146534047Y-74017143D02*
X146581666Y-74064762D01*
X146724523Y-74112381D01*
X146819761Y-74112381D01*
X146962619Y-74064762D01*
X147057857Y-73969524D01*
X147105476Y-73874286D01*
X147153095Y-73683810D01*
X147153095Y-73540952D01*
X147105476Y-73350476D01*
X147057857Y-73255238D01*
X146962619Y-73160000D01*
X146819761Y-73112381D01*
X146724523Y-73112381D01*
X146581666Y-73160000D01*
X146534047Y-73207619D01*
X146200714Y-73112381D02*
X145581666Y-73112381D01*
X145915000Y-73493333D01*
X145772142Y-73493333D01*
X145676904Y-73540952D01*
X145629285Y-73588571D01*
X145581666Y-73683810D01*
X145581666Y-73921905D01*
X145629285Y-74017143D01*
X145676904Y-74064762D01*
X145772142Y-74112381D01*
X146057857Y-74112381D01*
X146153095Y-74064762D01*
X146200714Y-74017143D01*
X144962619Y-73112381D02*
X144867380Y-73112381D01*
X144772142Y-73160000D01*
X144724523Y-73207619D01*
X144676904Y-73302857D01*
X144629285Y-73493333D01*
X144629285Y-73731429D01*
X144676904Y-73921905D01*
X144724523Y-74017143D01*
X144772142Y-74064762D01*
X144867380Y-74112381D01*
X144962619Y-74112381D01*
X145057857Y-74064762D01*
X145105476Y-74017143D01*
X145153095Y-73921905D01*
X145200714Y-73731429D01*
X145200714Y-73493333D01*
X145153095Y-73302857D01*
X145105476Y-73207619D01*
X145057857Y-73160000D01*
X144962619Y-73112381D01*
X143724523Y-73112381D02*
X144200714Y-73112381D01*
X144248333Y-73588571D01*
X144200714Y-73540952D01*
X144105476Y-73493333D01*
X143867380Y-73493333D01*
X143772142Y-73540952D01*
X143724523Y-73588571D01*
X143676904Y-73683810D01*
X143676904Y-73921905D01*
X143724523Y-74017143D01*
X143772142Y-74064762D01*
X143867380Y-74112381D01*
X144105476Y-74112381D01*
X144200714Y-74064762D01*
X144248333Y-74017143D01*
X125706047Y-86585143D02*
X125753666Y-86632762D01*
X125896523Y-86680381D01*
X125991761Y-86680381D01*
X126134619Y-86632762D01*
X126229857Y-86537524D01*
X126277476Y-86442286D01*
X126325095Y-86251810D01*
X126325095Y-86108952D01*
X126277476Y-85918476D01*
X126229857Y-85823238D01*
X126134619Y-85728000D01*
X125991761Y-85680381D01*
X125896523Y-85680381D01*
X125753666Y-85728000D01*
X125706047Y-85775619D01*
X125372714Y-85680381D02*
X124753666Y-85680381D01*
X125087000Y-86061333D01*
X124944142Y-86061333D01*
X124848904Y-86108952D01*
X124801285Y-86156571D01*
X124753666Y-86251810D01*
X124753666Y-86489905D01*
X124801285Y-86585143D01*
X124848904Y-86632762D01*
X124944142Y-86680381D01*
X125229857Y-86680381D01*
X125325095Y-86632762D01*
X125372714Y-86585143D01*
X124134619Y-85680381D02*
X124039380Y-85680381D01*
X123944142Y-85728000D01*
X123896523Y-85775619D01*
X123848904Y-85870857D01*
X123801285Y-86061333D01*
X123801285Y-86299429D01*
X123848904Y-86489905D01*
X123896523Y-86585143D01*
X123944142Y-86632762D01*
X124039380Y-86680381D01*
X124134619Y-86680381D01*
X124229857Y-86632762D01*
X124277476Y-86585143D01*
X124325095Y-86489905D01*
X124372714Y-86299429D01*
X124372714Y-86061333D01*
X124325095Y-85870857D01*
X124277476Y-85775619D01*
X124229857Y-85728000D01*
X124134619Y-85680381D01*
X122944142Y-85680381D02*
X123134619Y-85680381D01*
X123229857Y-85728000D01*
X123277476Y-85775619D01*
X123372714Y-85918476D01*
X123420333Y-86108952D01*
X123420333Y-86489905D01*
X123372714Y-86585143D01*
X123325095Y-86632762D01*
X123229857Y-86680381D01*
X123039380Y-86680381D01*
X122944142Y-86632762D01*
X122896523Y-86585143D01*
X122848904Y-86489905D01*
X122848904Y-86251810D01*
X122896523Y-86156571D01*
X122944142Y-86108952D01*
X123039380Y-86061333D01*
X123229857Y-86061333D01*
X123325095Y-86108952D01*
X123372714Y-86156571D01*
X123420333Y-86251810D01*
X117209047Y-107286143D02*
X117256666Y-107333762D01*
X117399523Y-107381381D01*
X117494761Y-107381381D01*
X117637619Y-107333762D01*
X117732857Y-107238524D01*
X117780476Y-107143286D01*
X117828095Y-106952810D01*
X117828095Y-106809952D01*
X117780476Y-106619476D01*
X117732857Y-106524238D01*
X117637619Y-106429000D01*
X117494761Y-106381381D01*
X117399523Y-106381381D01*
X117256666Y-106429000D01*
X117209047Y-106476619D01*
X116875714Y-106381381D02*
X116256666Y-106381381D01*
X116590000Y-106762333D01*
X116447142Y-106762333D01*
X116351904Y-106809952D01*
X116304285Y-106857571D01*
X116256666Y-106952810D01*
X116256666Y-107190905D01*
X116304285Y-107286143D01*
X116351904Y-107333762D01*
X116447142Y-107381381D01*
X116732857Y-107381381D01*
X116828095Y-107333762D01*
X116875714Y-107286143D01*
X115637619Y-106381381D02*
X115542380Y-106381381D01*
X115447142Y-106429000D01*
X115399523Y-106476619D01*
X115351904Y-106571857D01*
X115304285Y-106762333D01*
X115304285Y-107000429D01*
X115351904Y-107190905D01*
X115399523Y-107286143D01*
X115447142Y-107333762D01*
X115542380Y-107381381D01*
X115637619Y-107381381D01*
X115732857Y-107333762D01*
X115780476Y-107286143D01*
X115828095Y-107190905D01*
X115875714Y-107000429D01*
X115875714Y-106762333D01*
X115828095Y-106571857D01*
X115780476Y-106476619D01*
X115732857Y-106429000D01*
X115637619Y-106381381D01*
X114970952Y-106381381D02*
X114304285Y-106381381D01*
X114732857Y-107381381D01*
X125706047Y-128114143D02*
X125753666Y-128161762D01*
X125896523Y-128209381D01*
X125991761Y-128209381D01*
X126134619Y-128161762D01*
X126229857Y-128066524D01*
X126277476Y-127971286D01*
X126325095Y-127780810D01*
X126325095Y-127637952D01*
X126277476Y-127447476D01*
X126229857Y-127352238D01*
X126134619Y-127257000D01*
X125991761Y-127209381D01*
X125896523Y-127209381D01*
X125753666Y-127257000D01*
X125706047Y-127304619D01*
X125372714Y-127209381D02*
X124753666Y-127209381D01*
X125087000Y-127590333D01*
X124944142Y-127590333D01*
X124848904Y-127637952D01*
X124801285Y-127685571D01*
X124753666Y-127780810D01*
X124753666Y-128018905D01*
X124801285Y-128114143D01*
X124848904Y-128161762D01*
X124944142Y-128209381D01*
X125229857Y-128209381D01*
X125325095Y-128161762D01*
X125372714Y-128114143D01*
X124134619Y-127209381D02*
X124039380Y-127209381D01*
X123944142Y-127257000D01*
X123896523Y-127304619D01*
X123848904Y-127399857D01*
X123801285Y-127590333D01*
X123801285Y-127828429D01*
X123848904Y-128018905D01*
X123896523Y-128114143D01*
X123944142Y-128161762D01*
X124039380Y-128209381D01*
X124134619Y-128209381D01*
X124229857Y-128161762D01*
X124277476Y-128114143D01*
X124325095Y-128018905D01*
X124372714Y-127828429D01*
X124372714Y-127590333D01*
X124325095Y-127399857D01*
X124277476Y-127304619D01*
X124229857Y-127257000D01*
X124134619Y-127209381D01*
X123229857Y-127637952D02*
X123325095Y-127590333D01*
X123372714Y-127542714D01*
X123420333Y-127447476D01*
X123420333Y-127399857D01*
X123372714Y-127304619D01*
X123325095Y-127257000D01*
X123229857Y-127209381D01*
X123039380Y-127209381D01*
X122944142Y-127257000D01*
X122896523Y-127304619D01*
X122848904Y-127399857D01*
X122848904Y-127447476D01*
X122896523Y-127542714D01*
X122944142Y-127590333D01*
X123039380Y-127637952D01*
X123229857Y-127637952D01*
X123325095Y-127685571D01*
X123372714Y-127733190D01*
X123420333Y-127828429D01*
X123420333Y-128018905D01*
X123372714Y-128114143D01*
X123325095Y-128161762D01*
X123229857Y-128209381D01*
X123039380Y-128209381D01*
X122944142Y-128161762D01*
X122896523Y-128114143D01*
X122848904Y-128018905D01*
X122848904Y-127828429D01*
X122896523Y-127733190D01*
X122944142Y-127685571D01*
X123039380Y-127637952D01*
X165183915Y-128295028D02*
X164801231Y-127371149D01*
X164581260Y-127462264D01*
X164467500Y-127560927D01*
X164415957Y-127685362D01*
X164408409Y-127791573D01*
X164437307Y-127985773D01*
X164491976Y-128117757D01*
X164608863Y-128275511D01*
X164689303Y-128345276D01*
X164813737Y-128396819D01*
X164963944Y-128386143D01*
X165183915Y-128295028D01*
X163776098Y-128878165D02*
X164304030Y-128659489D01*
X164040064Y-128768827D02*
X163657381Y-127844947D01*
X163800038Y-127940484D01*
X163924473Y-127992026D01*
X164030684Y-127999575D01*
X162821490Y-128191185D02*
X162733500Y-128227631D01*
X162663735Y-128308071D01*
X162637964Y-128370289D01*
X162630416Y-128476500D01*
X162659313Y-128670700D01*
X162750429Y-128890672D01*
X162867315Y-129048426D01*
X162947755Y-129118191D01*
X163009972Y-129143962D01*
X163116184Y-129151511D01*
X163204173Y-129115064D01*
X163273939Y-129034624D01*
X163299710Y-128972407D01*
X163307258Y-128866195D01*
X163278360Y-128671995D01*
X163187245Y-128452023D01*
X163070359Y-128294270D01*
X162989918Y-128224504D01*
X162927701Y-128198733D01*
X162821490Y-128191185D01*
X162016327Y-129607086D02*
X162544259Y-129388410D01*
X162280294Y-129497748D02*
X161897610Y-128573868D01*
X162040268Y-128669405D01*
X162164702Y-128720947D01*
X162270914Y-128728495D01*
X140485571Y-138501381D02*
X140485571Y-137501381D01*
X139437952Y-138406143D02*
X139485571Y-138453762D01*
X139628428Y-138501381D01*
X139723666Y-138501381D01*
X139866524Y-138453762D01*
X139961762Y-138358524D01*
X140009381Y-138263286D01*
X140057000Y-138072810D01*
X140057000Y-137929952D01*
X140009381Y-137739476D01*
X139961762Y-137644238D01*
X139866524Y-137549000D01*
X139723666Y-137501381D01*
X139628428Y-137501381D01*
X139485571Y-137549000D01*
X139437952Y-137596619D01*
X138485571Y-138501381D02*
X139057000Y-138501381D01*
X138771286Y-138501381D02*
X138771286Y-137501381D01*
X138866524Y-137644238D01*
X138961762Y-137739476D01*
X139057000Y-137787095D01*
X137866524Y-137501381D02*
X137771285Y-137501381D01*
X137676047Y-137549000D01*
X137628428Y-137596619D01*
X137580809Y-137691857D01*
X137533190Y-137882333D01*
X137533190Y-138120429D01*
X137580809Y-138310905D01*
X137628428Y-138406143D01*
X137676047Y-138453762D01*
X137771285Y-138501381D01*
X137866524Y-138501381D01*
X137961762Y-138453762D01*
X138009381Y-138406143D01*
X138057000Y-138310905D01*
X138104619Y-138120429D01*
X138104619Y-137882333D01*
X138057000Y-137691857D01*
X138009381Y-137596619D01*
X137961762Y-137549000D01*
X137866524Y-137501381D01*
X136580809Y-138501381D02*
X137152238Y-138501381D01*
X136866524Y-138501381D02*
X136866524Y-137501381D01*
X136961762Y-137644238D01*
X137057000Y-137739476D01*
X137152238Y-137787095D01*
X155023915Y-133248028D02*
X154641231Y-132324149D01*
X154289277Y-132469933D01*
X154219511Y-132550373D01*
X154193740Y-132612591D01*
X154186192Y-132718802D01*
X154240861Y-132850785D01*
X154321301Y-132920550D01*
X154383518Y-132946321D01*
X154489730Y-132953870D01*
X154841684Y-132808085D01*
X153616098Y-133831165D02*
X154144030Y-133612489D01*
X153880064Y-133721827D02*
X153497381Y-132797947D01*
X153640038Y-132893484D01*
X153764473Y-132945026D01*
X153870684Y-132952575D01*
X152661490Y-133144185D02*
X152573500Y-133180631D01*
X152503735Y-133261071D01*
X152477964Y-133323289D01*
X152470416Y-133429500D01*
X152499313Y-133623700D01*
X152590429Y-133843672D01*
X152707315Y-134001426D01*
X152787755Y-134071191D01*
X152849972Y-134096962D01*
X152956184Y-134104511D01*
X153044173Y-134068064D01*
X153113939Y-133987624D01*
X153139710Y-133925407D01*
X153147258Y-133819195D01*
X153118360Y-133624995D01*
X153027245Y-133405023D01*
X152910359Y-133247270D01*
X152829918Y-133177504D01*
X152767701Y-133151733D01*
X152661490Y-133144185D01*
X151856327Y-134560086D02*
X152384259Y-134341410D01*
X152120294Y-134450748D02*
X151737610Y-133526868D01*
X151880268Y-133622405D01*
X152004702Y-133673947D01*
X152110914Y-133681495D01*
X161692972Y-127415438D02*
X161773413Y-127485204D01*
X161897847Y-127536746D01*
X162084499Y-127614060D01*
X162164939Y-127683826D01*
X162201385Y-127771815D01*
X161963191Y-127818936D02*
X162043632Y-127888701D01*
X162168066Y-127940243D01*
X162362266Y-127911346D01*
X162670226Y-127783784D01*
X162827980Y-127666898D01*
X162879523Y-127542464D01*
X162887071Y-127436252D01*
X162814178Y-127260274D01*
X162733738Y-127190509D01*
X162609304Y-127138966D01*
X162415104Y-127167864D01*
X162107143Y-127295426D01*
X161949390Y-127412312D01*
X161897847Y-127536746D01*
X161890299Y-127642958D01*
X161963191Y-127818936D01*
X161434723Y-126543101D02*
X161653400Y-127071033D01*
X161544062Y-126807068D02*
X162467941Y-126424384D01*
X162372405Y-126567042D01*
X162320862Y-126691476D01*
X162313314Y-126797688D01*
X162121704Y-125588493D02*
X162085258Y-125500504D01*
X162004817Y-125430738D01*
X161942600Y-125404967D01*
X161836389Y-125397419D01*
X161642189Y-125426317D01*
X161422217Y-125517432D01*
X161264463Y-125634318D01*
X161194697Y-125714758D01*
X161168926Y-125776976D01*
X161161378Y-125883187D01*
X161197824Y-125971177D01*
X161278265Y-126040942D01*
X161340482Y-126066713D01*
X161446693Y-126074261D01*
X161640893Y-126045364D01*
X161860865Y-125954248D01*
X162018619Y-125837362D01*
X162088385Y-125756922D01*
X162114156Y-125694705D01*
X162121704Y-125588493D01*
X160705803Y-124783331D02*
X160924479Y-125311262D01*
X160815141Y-125047297D02*
X161739021Y-124664614D01*
X161643484Y-124807271D01*
X161591941Y-124931705D01*
X161584393Y-125037917D01*
X146407047Y-142433381D02*
X146740381Y-141957190D01*
X146978476Y-142433381D02*
X146978476Y-141433381D01*
X146597523Y-141433381D01*
X146502285Y-141481000D01*
X146454666Y-141528619D01*
X146407047Y-141623857D01*
X146407047Y-141766714D01*
X146454666Y-141861952D01*
X146502285Y-141909571D01*
X146597523Y-141957190D01*
X146978476Y-141957190D01*
X145454666Y-142433381D02*
X146026095Y-142433381D01*
X145740381Y-142433381D02*
X145740381Y-141433381D01*
X145835619Y-141576238D01*
X145930857Y-141671476D01*
X146026095Y-141719095D01*
X144835619Y-141433381D02*
X144740380Y-141433381D01*
X144645142Y-141481000D01*
X144597523Y-141528619D01*
X144549904Y-141623857D01*
X144502285Y-141814333D01*
X144502285Y-142052429D01*
X144549904Y-142242905D01*
X144597523Y-142338143D01*
X144645142Y-142385762D01*
X144740380Y-142433381D01*
X144835619Y-142433381D01*
X144930857Y-142385762D01*
X144978476Y-142338143D01*
X145026095Y-142242905D01*
X145073714Y-142052429D01*
X145073714Y-141814333D01*
X145026095Y-141623857D01*
X144978476Y-141528619D01*
X144930857Y-141481000D01*
X144835619Y-141433381D01*
X143549904Y-142433381D02*
X144121333Y-142433381D01*
X143835619Y-142433381D02*
X143835619Y-141433381D01*
X143930857Y-141576238D01*
X144026095Y-141671476D01*
X144121333Y-141719095D01*
X146407047Y-140655381D02*
X146740381Y-140179190D01*
X146978476Y-140655381D02*
X146978476Y-139655381D01*
X146597523Y-139655381D01*
X146502285Y-139703000D01*
X146454666Y-139750619D01*
X146407047Y-139845857D01*
X146407047Y-139988714D01*
X146454666Y-140083952D01*
X146502285Y-140131571D01*
X146597523Y-140179190D01*
X146978476Y-140179190D01*
X145454666Y-140655381D02*
X146026095Y-140655381D01*
X145740381Y-140655381D02*
X145740381Y-139655381D01*
X145835619Y-139798238D01*
X145930857Y-139893476D01*
X146026095Y-139941095D01*
X144835619Y-139655381D02*
X144740380Y-139655381D01*
X144645142Y-139703000D01*
X144597523Y-139750619D01*
X144549904Y-139845857D01*
X144502285Y-140036333D01*
X144502285Y-140274429D01*
X144549904Y-140464905D01*
X144597523Y-140560143D01*
X144645142Y-140607762D01*
X144740380Y-140655381D01*
X144835619Y-140655381D01*
X144930857Y-140607762D01*
X144978476Y-140560143D01*
X145026095Y-140464905D01*
X145073714Y-140274429D01*
X145073714Y-140036333D01*
X145026095Y-139845857D01*
X144978476Y-139750619D01*
X144930857Y-139703000D01*
X144835619Y-139655381D01*
X144121333Y-139750619D02*
X144073714Y-139703000D01*
X143978476Y-139655381D01*
X143740380Y-139655381D01*
X143645142Y-139703000D01*
X143597523Y-139750619D01*
X143549904Y-139845857D01*
X143549904Y-139941095D01*
X143597523Y-140083952D01*
X144168952Y-140655381D01*
X143549904Y-140655381D01*
X163893983Y-132704705D02*
X164019713Y-132137200D01*
X164421915Y-132486028D02*
X164039231Y-131562149D01*
X163687277Y-131707933D01*
X163617511Y-131788373D01*
X163591740Y-131850591D01*
X163584192Y-131956802D01*
X163638861Y-132088785D01*
X163719301Y-132158550D01*
X163781518Y-132184321D01*
X163887730Y-132191870D01*
X164239684Y-132046085D01*
X163014098Y-133069165D02*
X163542030Y-132850489D01*
X163278064Y-132959827D02*
X162895381Y-132035947D01*
X163038038Y-132131484D01*
X163162473Y-132183026D01*
X163268684Y-132190575D01*
X162059490Y-132382185D02*
X161971500Y-132418631D01*
X161901735Y-132499071D01*
X161875964Y-132561289D01*
X161868416Y-132667500D01*
X161897313Y-132861700D01*
X161988429Y-133081672D01*
X162105315Y-133239426D01*
X162185755Y-133309191D01*
X162247972Y-133334962D01*
X162354184Y-133342511D01*
X162442173Y-133306064D01*
X162511939Y-133225624D01*
X162537710Y-133163407D01*
X162545258Y-133057195D01*
X162516360Y-132862995D01*
X162425245Y-132643023D01*
X162308359Y-132485270D01*
X162227918Y-132415504D01*
X162165701Y-132389733D01*
X162059490Y-132382185D01*
X161443570Y-132637307D02*
X160871644Y-132874207D01*
X161325388Y-133098599D01*
X161193405Y-133153268D01*
X161123639Y-133233709D01*
X161097868Y-133295926D01*
X161090320Y-133402138D01*
X161181435Y-133622109D01*
X161261876Y-133691875D01*
X161324093Y-133717646D01*
X161430304Y-133725194D01*
X161694271Y-133615856D01*
X161764036Y-133535415D01*
X161789807Y-133473198D01*
X147804047Y-122626381D02*
X148137381Y-122150190D01*
X148375476Y-122626381D02*
X148375476Y-121626381D01*
X147994523Y-121626381D01*
X147899285Y-121674000D01*
X147851666Y-121721619D01*
X147804047Y-121816857D01*
X147804047Y-121959714D01*
X147851666Y-122054952D01*
X147899285Y-122102571D01*
X147994523Y-122150190D01*
X148375476Y-122150190D01*
X146851666Y-122626381D02*
X147423095Y-122626381D01*
X147137381Y-122626381D02*
X147137381Y-121626381D01*
X147232619Y-121769238D01*
X147327857Y-121864476D01*
X147423095Y-121912095D01*
X146232619Y-121626381D02*
X146137380Y-121626381D01*
X146042142Y-121674000D01*
X145994523Y-121721619D01*
X145946904Y-121816857D01*
X145899285Y-122007333D01*
X145899285Y-122245429D01*
X145946904Y-122435905D01*
X145994523Y-122531143D01*
X146042142Y-122578762D01*
X146137380Y-122626381D01*
X146232619Y-122626381D01*
X146327857Y-122578762D01*
X146375476Y-122531143D01*
X146423095Y-122435905D01*
X146470714Y-122245429D01*
X146470714Y-122007333D01*
X146423095Y-121816857D01*
X146375476Y-121721619D01*
X146327857Y-121674000D01*
X146232619Y-121626381D01*
X145042142Y-121959714D02*
X145042142Y-122626381D01*
X145280238Y-121578762D02*
X145518333Y-122293048D01*
X144899285Y-122293048D01*
X151447983Y-128386704D02*
X151573713Y-127819199D01*
X151975915Y-128168027D02*
X151593231Y-127244148D01*
X151241277Y-127389932D01*
X151171511Y-127470372D01*
X151145740Y-127532590D01*
X151138192Y-127638801D01*
X151192861Y-127770784D01*
X151273301Y-127840549D01*
X151335518Y-127866320D01*
X151441730Y-127873869D01*
X151793684Y-127728084D01*
X150749792Y-127696597D02*
X150687575Y-127670826D01*
X150581363Y-127663277D01*
X150361391Y-127754393D01*
X150291626Y-127834833D01*
X150265855Y-127897050D01*
X150258307Y-128003262D01*
X150294753Y-128091250D01*
X150393416Y-128205010D01*
X151140024Y-128514265D01*
X150568098Y-128751164D01*
X149613490Y-128064184D02*
X149525500Y-128100630D01*
X149455735Y-128181070D01*
X149429964Y-128243288D01*
X149422416Y-128349499D01*
X149451313Y-128543699D01*
X149542429Y-128763671D01*
X149659315Y-128921425D01*
X149739755Y-128991190D01*
X149801972Y-129016961D01*
X149908184Y-129024510D01*
X149996173Y-128988063D01*
X150065939Y-128907623D01*
X150091710Y-128845406D01*
X150099258Y-128739194D01*
X150070360Y-128544994D01*
X149979245Y-128325022D01*
X149862359Y-128167269D01*
X149781918Y-128097503D01*
X149719701Y-128071732D01*
X149613490Y-128064184D01*
X148808327Y-129480085D02*
X149336259Y-129261409D01*
X149072294Y-129370747D02*
X148689610Y-128446867D01*
X148832268Y-128542404D01*
X148956702Y-128593946D01*
X149062914Y-128601494D01*
X122872286Y-122332381D02*
X122872286Y-123141905D01*
X122824667Y-123237143D01*
X122777048Y-123284762D01*
X122681810Y-123332381D01*
X122491333Y-123332381D01*
X122396095Y-123284762D01*
X122348476Y-123237143D01*
X122300857Y-123141905D01*
X122300857Y-122332381D01*
X121300857Y-123332381D02*
X121872286Y-123332381D01*
X121586572Y-123332381D02*
X121586572Y-122332381D01*
X121681810Y-122475238D01*
X121777048Y-122570476D01*
X121872286Y-122618095D01*
X120681810Y-122332381D02*
X120586571Y-122332381D01*
X120491333Y-122380000D01*
X120443714Y-122427619D01*
X120396095Y-122522857D01*
X120348476Y-122713333D01*
X120348476Y-122951429D01*
X120396095Y-123141905D01*
X120443714Y-123237143D01*
X120491333Y-123284762D01*
X120586571Y-123332381D01*
X120681810Y-123332381D01*
X120777048Y-123284762D01*
X120824667Y-123237143D01*
X120872286Y-123141905D01*
X120919905Y-122951429D01*
X120919905Y-122713333D01*
X120872286Y-122522857D01*
X120824667Y-122427619D01*
X120777048Y-122380000D01*
X120681810Y-122332381D01*
X119396095Y-123332381D02*
X119967524Y-123332381D01*
X119681810Y-123332381D02*
X119681810Y-122332381D01*
X119777048Y-122475238D01*
X119872286Y-122570476D01*
X119967524Y-122618095D01*
X152758229Y-125457037D02*
X153068020Y-126204940D01*
X153060472Y-126311151D01*
X153034701Y-126373368D01*
X152964936Y-126453809D01*
X152788958Y-126526701D01*
X152682746Y-126519153D01*
X152620529Y-126493382D01*
X152540089Y-126423616D01*
X152230297Y-125675714D01*
X151870796Y-125927709D02*
X151808578Y-125901938D01*
X151702367Y-125894390D01*
X151482395Y-125985505D01*
X151412629Y-126065945D01*
X151386858Y-126128162D01*
X151379310Y-126234374D01*
X151415756Y-126322362D01*
X151514419Y-126436122D01*
X152261027Y-126745377D01*
X151689101Y-126982277D01*
X150734493Y-126295296D02*
X150646504Y-126331742D01*
X150576738Y-126412183D01*
X150550967Y-126474400D01*
X150543419Y-126580611D01*
X150572317Y-126774811D01*
X150663432Y-126994783D01*
X150780318Y-127152537D01*
X150860758Y-127222303D01*
X150922976Y-127248074D01*
X151029187Y-127255622D01*
X151117177Y-127219176D01*
X151186942Y-127138735D01*
X151212713Y-127076518D01*
X151220261Y-126970307D01*
X151191364Y-126776107D01*
X151100248Y-126556135D01*
X150983362Y-126398381D01*
X150902922Y-126328615D01*
X150840705Y-126302844D01*
X150734493Y-126295296D01*
X149929331Y-127711197D02*
X150457262Y-127492521D01*
X150193297Y-127601859D02*
X149810614Y-126677979D01*
X149953271Y-126773516D01*
X150077705Y-126825059D01*
X150183917Y-126832607D01*
X144160762Y-128960381D02*
X143922667Y-129960381D01*
X143732190Y-129246095D01*
X143541714Y-129960381D01*
X143303619Y-128960381D01*
X142398857Y-129960381D02*
X142970286Y-129960381D01*
X142684572Y-129960381D02*
X142684572Y-128960381D01*
X142779810Y-129103238D01*
X142875048Y-129198476D01*
X142970286Y-129246095D01*
X146954762Y-128960381D02*
X146716667Y-129960381D01*
X146526190Y-129246095D01*
X146335714Y-129960381D01*
X146097619Y-128960381D01*
X145764286Y-129055619D02*
X145716667Y-129008000D01*
X145621429Y-128960381D01*
X145383333Y-128960381D01*
X145288095Y-129008000D01*
X145240476Y-129055619D01*
X145192857Y-129150857D01*
X145192857Y-129246095D01*
X145240476Y-129388952D01*
X145811905Y-129960381D01*
X145192857Y-129960381D01*
X137549711Y-129008191D02*
X137549711Y-129484382D01*
X137883044Y-128484382D02*
X137549711Y-129008191D01*
X137216377Y-128484382D01*
X136359234Y-129484382D02*
X136930663Y-129484382D01*
X136644949Y-129484382D02*
X136644949Y-128484382D01*
X136740187Y-128627239D01*
X136835425Y-128722477D01*
X136930663Y-128770096D01*
X135740187Y-128484382D02*
X135644948Y-128484382D01*
X135549710Y-128532001D01*
X135502091Y-128579620D01*
X135454472Y-128674858D01*
X135406853Y-128865334D01*
X135406853Y-129103430D01*
X135454472Y-129293906D01*
X135502091Y-129389144D01*
X135549710Y-129436763D01*
X135644948Y-129484382D01*
X135740187Y-129484382D01*
X135835425Y-129436763D01*
X135883044Y-129389144D01*
X135930663Y-129293906D01*
X135978282Y-129103430D01*
X135978282Y-128865334D01*
X135930663Y-128674858D01*
X135883044Y-128579620D01*
X135835425Y-128532001D01*
X135740187Y-128484382D01*
X134454472Y-129484382D02*
X135025901Y-129484382D01*
X134740187Y-129484382D02*
X134740187Y-128484382D01*
X134835425Y-128627239D01*
X134930663Y-128722477D01*
X135025901Y-128770096D01*
X122392046Y-114027143D02*
X122439665Y-114074762D01*
X122582522Y-114122381D01*
X122677760Y-114122381D01*
X122820618Y-114074762D01*
X122915856Y-113979524D01*
X122963475Y-113884286D01*
X123011094Y-113693810D01*
X123011094Y-113550952D01*
X122963475Y-113360476D01*
X122915856Y-113265238D01*
X122820618Y-113170000D01*
X122677760Y-113122381D01*
X122582522Y-113122381D01*
X122439665Y-113170000D01*
X122392046Y-113217619D01*
X121439665Y-114122381D02*
X122011094Y-114122381D01*
X121725380Y-114122381D02*
X121725380Y-113122381D01*
X121820618Y-113265238D01*
X121915856Y-113360476D01*
X122011094Y-113408095D01*
X120820618Y-113122381D02*
X120725379Y-113122381D01*
X120630141Y-113170000D01*
X120582522Y-113217619D01*
X120534903Y-113312857D01*
X120487284Y-113503333D01*
X120487284Y-113741429D01*
X120534903Y-113931905D01*
X120582522Y-114027143D01*
X120630141Y-114074762D01*
X120725379Y-114122381D01*
X120820618Y-114122381D01*
X120915856Y-114074762D01*
X120963475Y-114027143D01*
X121011094Y-113931905D01*
X121058713Y-113741429D01*
X121058713Y-113503333D01*
X121011094Y-113312857D01*
X120963475Y-113217619D01*
X120915856Y-113170000D01*
X120820618Y-113122381D01*
X119630141Y-113122381D02*
X119820618Y-113122381D01*
X119915856Y-113170000D01*
X119963475Y-113217619D01*
X120058713Y-113360476D01*
X120106332Y-113550952D01*
X120106332Y-113931905D01*
X120058713Y-114027143D01*
X120011094Y-114074762D01*
X119915856Y-114122381D01*
X119725379Y-114122381D01*
X119630141Y-114074762D01*
X119582522Y-114027143D01*
X119534903Y-113931905D01*
X119534903Y-113693810D01*
X119582522Y-113598571D01*
X119630141Y-113550952D01*
X119725379Y-113503333D01*
X119915856Y-113503333D01*
X120011094Y-113550952D01*
X120058713Y-113598571D01*
X120106332Y-113693810D01*
D13*
X121637851Y-127423655D02*
X120229859Y-126840446D01*
X120007684Y-127376824D01*
X120019187Y-127538690D01*
X120058462Y-127633509D01*
X120164785Y-127756100D01*
X120365927Y-127839416D01*
X120527793Y-127827912D01*
X120622612Y-127788637D01*
X120745203Y-127682315D01*
X120967378Y-127145936D01*
X120749151Y-129569168D02*
X121082413Y-128764601D01*
X120915782Y-129166884D02*
X119507790Y-128583674D01*
X119764475Y-128532895D01*
X119954113Y-128454345D01*
X120076704Y-128348022D01*
X118980124Y-129857573D02*
X118924580Y-129991667D01*
X118936083Y-130153534D01*
X118975358Y-130248352D01*
X119081681Y-130370943D01*
X119322098Y-130549079D01*
X119657335Y-130687938D01*
X119953296Y-130731978D01*
X120115162Y-130720475D01*
X120209981Y-130681200D01*
X120332572Y-130574877D01*
X120388116Y-130440782D01*
X120376612Y-130278916D01*
X120337337Y-130184097D01*
X120231015Y-130061505D01*
X119990597Y-129883371D01*
X119655361Y-129744512D01*
X119359400Y-129700471D01*
X119197533Y-129711975D01*
X119102715Y-129751250D01*
X118980124Y-129857573D01*
X118697639Y-130918826D02*
X118602821Y-130958101D01*
X118480230Y-131064424D01*
X118341371Y-131399660D01*
X118352874Y-131561526D01*
X118392149Y-131656345D01*
X118498471Y-131778936D01*
X118632566Y-131834480D01*
X118861479Y-131850748D01*
X119999310Y-131379444D01*
X119638275Y-132251059D01*
D12*
X137009047Y-119324381D02*
X137342381Y-118848190D01*
X137580476Y-119324381D02*
X137580476Y-118324381D01*
X137199523Y-118324381D01*
X137104285Y-118372000D01*
X137056666Y-118419619D01*
X137009047Y-118514857D01*
X137009047Y-118657714D01*
X137056666Y-118752952D01*
X137104285Y-118800571D01*
X137199523Y-118848190D01*
X137580476Y-118848190D01*
X136056666Y-119324381D02*
X136628095Y-119324381D01*
X136342381Y-119324381D02*
X136342381Y-118324381D01*
X136437619Y-118467238D01*
X136532857Y-118562476D01*
X136628095Y-118610095D01*
X135437619Y-118324381D02*
X135342380Y-118324381D01*
X135247142Y-118372000D01*
X135199523Y-118419619D01*
X135151904Y-118514857D01*
X135104285Y-118705333D01*
X135104285Y-118943429D01*
X135151904Y-119133905D01*
X135199523Y-119229143D01*
X135247142Y-119276762D01*
X135342380Y-119324381D01*
X135437619Y-119324381D01*
X135532857Y-119276762D01*
X135580476Y-119229143D01*
X135628095Y-119133905D01*
X135675714Y-118943429D01*
X135675714Y-118705333D01*
X135628095Y-118514857D01*
X135580476Y-118419619D01*
X135532857Y-118372000D01*
X135437619Y-118324381D01*
X134247142Y-118324381D02*
X134437619Y-118324381D01*
X134532857Y-118372000D01*
X134580476Y-118419619D01*
X134675714Y-118562476D01*
X134723333Y-118752952D01*
X134723333Y-119133905D01*
X134675714Y-119229143D01*
X134628095Y-119276762D01*
X134532857Y-119324381D01*
X134342380Y-119324381D01*
X134247142Y-119276762D01*
X134199523Y-119229143D01*
X134151904Y-119133905D01*
X134151904Y-118895810D01*
X134199523Y-118800571D01*
X134247142Y-118752952D01*
X134342380Y-118705333D01*
X134532857Y-118705333D01*
X134628095Y-118752952D01*
X134675714Y-118800571D01*
X134723333Y-118895810D01*
X128119047Y-116911381D02*
X128452381Y-116435190D01*
X128690476Y-116911381D02*
X128690476Y-115911381D01*
X128309523Y-115911381D01*
X128214285Y-115959000D01*
X128166666Y-116006619D01*
X128119047Y-116101857D01*
X128119047Y-116244714D01*
X128166666Y-116339952D01*
X128214285Y-116387571D01*
X128309523Y-116435190D01*
X128690476Y-116435190D01*
X127166666Y-116911381D02*
X127738095Y-116911381D01*
X127452381Y-116911381D02*
X127452381Y-115911381D01*
X127547619Y-116054238D01*
X127642857Y-116149476D01*
X127738095Y-116197095D01*
X126547619Y-115911381D02*
X126452380Y-115911381D01*
X126357142Y-115959000D01*
X126309523Y-116006619D01*
X126261904Y-116101857D01*
X126214285Y-116292333D01*
X126214285Y-116530429D01*
X126261904Y-116720905D01*
X126309523Y-116816143D01*
X126357142Y-116863762D01*
X126452380Y-116911381D01*
X126547619Y-116911381D01*
X126642857Y-116863762D01*
X126690476Y-116816143D01*
X126738095Y-116720905D01*
X126785714Y-116530429D01*
X126785714Y-116292333D01*
X126738095Y-116101857D01*
X126690476Y-116006619D01*
X126642857Y-115959000D01*
X126547619Y-115911381D01*
X125880952Y-115911381D02*
X125214285Y-115911381D01*
X125642857Y-116911381D01*
X128119047Y-118943381D02*
X128452381Y-118467190D01*
X128690476Y-118943381D02*
X128690476Y-117943381D01*
X128309523Y-117943381D01*
X128214285Y-117991000D01*
X128166666Y-118038619D01*
X128119047Y-118133857D01*
X128119047Y-118276714D01*
X128166666Y-118371952D01*
X128214285Y-118419571D01*
X128309523Y-118467190D01*
X128690476Y-118467190D01*
X127166666Y-118943381D02*
X127738095Y-118943381D01*
X127452381Y-118943381D02*
X127452381Y-117943381D01*
X127547619Y-118086238D01*
X127642857Y-118181476D01*
X127738095Y-118229095D01*
X126547619Y-117943381D02*
X126452380Y-117943381D01*
X126357142Y-117991000D01*
X126309523Y-118038619D01*
X126261904Y-118133857D01*
X126214285Y-118324333D01*
X126214285Y-118562429D01*
X126261904Y-118752905D01*
X126309523Y-118848143D01*
X126357142Y-118895762D01*
X126452380Y-118943381D01*
X126547619Y-118943381D01*
X126642857Y-118895762D01*
X126690476Y-118848143D01*
X126738095Y-118752905D01*
X126785714Y-118562429D01*
X126785714Y-118324333D01*
X126738095Y-118133857D01*
X126690476Y-118038619D01*
X126642857Y-117991000D01*
X126547619Y-117943381D01*
X125642857Y-118371952D02*
X125738095Y-118324333D01*
X125785714Y-118276714D01*
X125833333Y-118181476D01*
X125833333Y-118133857D01*
X125785714Y-118038619D01*
X125738095Y-117991000D01*
X125642857Y-117943381D01*
X125452380Y-117943381D01*
X125357142Y-117991000D01*
X125309523Y-118038619D01*
X125261904Y-118133857D01*
X125261904Y-118181476D01*
X125309523Y-118276714D01*
X125357142Y-118324333D01*
X125452380Y-118371952D01*
X125642857Y-118371952D01*
X125738095Y-118419571D01*
X125785714Y-118467190D01*
X125833333Y-118562429D01*
X125833333Y-118752905D01*
X125785714Y-118848143D01*
X125738095Y-118895762D01*
X125642857Y-118943381D01*
X125452380Y-118943381D01*
X125357142Y-118895762D01*
X125309523Y-118848143D01*
X125261904Y-118752905D01*
X125261904Y-118562429D01*
X125309523Y-118467190D01*
X125357142Y-118419571D01*
X125452380Y-118371952D01*
M02*
